<?xml version="1.0" encoding="UTF-8"?>
<svg width="18px" height="25px" viewBox="0 0 18 25" version="1.1" xmlns="http://www.w3.org/2000/svg" xmlns:xlink="http://www.w3.org/1999/xlink">
    <!-- Generator: sketchtool 53.1 (72631) - https://sketchapp.com -->
    <title>517F43E1-5718-4155-8195-5A170AB6FF0C</title>
    <desc>Created with sketchtool.</desc>
    <g id="design" stroke="none" stroke-width="1" fill="none" fill-rule="evenodd">
        <g id="2-slide" transform="translate(-54.000000, -638.000000)">
            <g id="apple" transform="translate(54.000000, 638.000000)">
                <path d="M5.73170732,5.04573171 C6.95121951,6.14329268 8.04573171,7.72256098 8.17073171,9.38719512 C8.24695122,10.5579268 10.0762195,10.5640244 10,9.38719512 C9.8445122,7.22865854 8.6097561,5.18292683 7.01219512,3.75304878 C6.1554878,2.96341463 4.85670732,4.26829268 5.73170732,5.04573171 Z" id="Path" fill="#472821"></path>
                <path d="M17.5457317,13 C16.597561,8.88109756 12.9420732,6.99695122 9.06707317,8.42682927 C6.0304878,7.31707317 2.80487805,7.98170732 1.25,11.1219512 C-0.56402439,14.7865854 0.304878049,19.4756098 3.16768293,22.347561 C6.0304878,25.2195122 10.625,25.7835366 13.9786585,23.3780488 C17.2103659,21.0640244 18.4176829,16.7865854 17.5457317,13 Z M9.51829268,23.0792683 C5.40243902,23.3018293 2.19207317,19.5121951 2.14939024,15.5487805 C2.11280488,11.7713415 4.53963415,8.53658537 8.49085366,10.1310976 C8.70815973,10.3468642 9.0375309,10.4029793 9.31402439,10.2713415 C10.8384146,9.66158537 12.5518293,9.35670732 13.9695122,10.3932927 C15.3871951,11.429878 15.9176829,13.3963415 15.9847561,15.1067073 C16.1341463,18.9664634 13.6310976,22.8658537 9.51829268,23.0792683 Z" id="Shape" fill="#2EBD9D" fill-rule="nonzero"></path>
                <path d="M10.9329268,6.89329268 C12.9054878,6.78963415 14.7073171,5.95731707 15.3719512,3.9847561 C15.6806897,3.01203508 15.7269666,1.97501316 15.5060976,0.978658537 C15.3985429,0.584534399 15.0426561,0.30953098 14.6341463,0.304878049 C11.5182927,0.204268293 10.0609756,3.30182927 10.0182927,5.97865854 C10.0110622,6.17568862 10.0712926,6.36928609 10.1890244,6.52743902 C10.3468889,6.78132337 10.635469,6.92324804 10.9329268,6.89329268 L10.9329268,6.89329268 Z M13.3536585,2.48170732 C13.4960173,2.40077271 13.6461652,2.3343808 13.8018293,2.28353659 C13.8031805,2.55803032 13.775589,2.83190167 13.7195122,3.10060976 C13.5311566,4.00425288 12.8288451,4.7125364 11.9268293,4.90853659 C12.0762195,3.93292683 12.4512195,2.98780488 13.3536585,2.48170732 Z" id="Shape" fill="#2EBD9D" fill-rule="nonzero"></path>
            </g>
        </g>
    </g>
</svg>