<svg viewBox="0 0 500 200" xmlns="http://www.w3.org/2000/svg" xmlns:xlink="http://www.w3.org/1999/xlink">
    <g class="cat__all" fill="none" fill-rule="evenodd">
        <path transform="translate(-180)" d="M214.75 24.25h74.75C289.75 19 290 14 290 9h26.25c0 5.25-.25 10.25-.25 15.25h90.25v24H314c-.5 4.5-1.25 8.75-2 13h84.75v23H307.5c-1 4.25-2.25 8.25-3.5 12.25h115.25v24.25h-43.5V140H415v24.25h-39.25V212c0 17.25-8.75 26-26 26h-27.5l-5.75-24c8.5 1 16.75 1.5 24.75 1.5 6 0 9-3.25 9-9.75v-41.5H269c-15.75 19.75-35.25 36.5-58.25 50L196.5 191.5c31.25-17 54.5-40.75 70-70.75H203V96.5h73.75c1.25-4.25 2.5-8.25 3.75-12.25h-57v-23h62c.75-4.5 1.5-8.75 2-13h-72.75v-24zM350.25 140v-19.25H295c-3 6.75-6.25 13.25-9.75 19.25h65zm-73.75 31c16 6.5 31 14.25 44.5 23.5L307.5 215c-14-10.5-28.5-19-43.5-25l12.5-19zm193.75-58.5h116v83h-116v-83zm91 60v-37H495v37h66.25zm66 64.75h-34.5l-6.75-25 35.5.75c5.5 0 8.25-4.5 8.25-13V40.5h-166.5v-25h192.5v191.75c0 20-9.5 30-28.5 30zm-178-172.5H609V88.5H449.25V64.75z" stroke="#472821" stroke-width="2" fill="#FEF5E3" fill-rule="nonzero" opacity="0.1"/>
    </g>
</svg>