<?xml version="1.0" encoding="UTF-8"?>
<svg width="13px" height="11px" viewBox="0 0 13 11" version="1.1" xmlns="http://www.w3.org/2000/svg" xmlns:xlink="http://www.w3.org/1999/xlink">
    <!-- Generator: sketchtool 53 (72520) - https://sketchapp.com -->
    <title>7C453BF3-EC72-4CD6-A063-60DF71683C95</title>
    <desc>Created with sketchtool.</desc>
    <g id="design" stroke="none" stroke-width="1" fill="none" fill-rule="evenodd">
        <g id="catalog-round-filters" transform="translate(-1358.000000, -206.000000)" fill="#F14F10" fill-rule="nonzero">
            <g id="check-mark-(3)" transform="translate(1358.000000, 206.000000)">
                <path d="M12.2729061,0.0842556623 C11.6938015,-0.218316748 11.0478771,0.365215757 10.6692317,0.711012797 C9.80061117,1.53228077 9.06559376,2.48322263 8.24144692,3.34771523 C7.32824347,4.29865709 6.48185977,5.24959894 5.54638306,6.1789638 C5.01182494,6.69765936 4.4327203,7.25957955 4.07634822,7.907949 C3.27451104,7.15148266 2.58404013,6.33021469 1.69310993,5.66026824 C1.04718553,5.18479731 -0.0219307114,4.83900027 0.000342543723,5.98445297 C0.0448890539,7.47573802 1.40355761,9.07504933 2.40585409,10.0907928 C2.82904594,10.5230391 3.38587732,10.9768977 4.03180171,10.99851 C4.81136564,11.0417347 5.61320282,10.1340174 6.08094118,9.6369342 C6.90508801,8.7724416 7.57328567,7.79985211 8.33053994,6.91378251 C9.31056317,5.7467175 10.3128596,4.60122949 11.2706096,3.41255217 C11.8719875,2.67773346 13.7652142,0.862263688 12.2729061,0.0842556623 Z M0.980329373,5.89955612 C0.958056118,5.89955612 0.935782863,5.89955612 0.891236353,5.92152044 C0.802143332,5.89955612 0.735323567,5.87751991 0.646230547,5.83351938 L0.646230547,5.83351938 C0.713050312,5.78951884 0.824416588,5.81151911 0.980329373,5.89955612 Z" id="Shape"></path>
            </g>
        </g>
    </g>
</svg>