<?xml version="1.0" encoding="UTF-8"?>
<svg width="18px" height="25px" viewBox="0 0 18 25" version="1.1" xmlns="http://www.w3.org/2000/svg" xmlns:xlink="http://www.w3.org/1999/xlink">
    <!-- Generator: sketchtool 53.1 (72631) - https://sketchapp.com -->
    <title>6E0923CE-9237-4139-95F3-6CFBDB8A9D7D</title>
    <desc>Created with sketchtool.</desc>
    <g id="design" stroke="none" stroke-width="1" fill="none" fill-rule="evenodd">
        <g id="2-slide" transform="translate(-56.000000, -589.000000)">
            <g id="drink" transform="translate(56.000000, 589.000000)">
                <polygon id="Path" fill="#F15A24" points="3.65016393 23.8928571 10.5108197 23.8928571 12.7357377 11.2589286 1.58754098 11.0119048"></polygon>
                <path d="M17.0763934,1.78571429 L10.5786885,0.324404762 C10.3119519,0.257300289 10.0294342,0.316410933 9.81117221,0.484990735 C9.59291022,0.653570538 9.46268055,0.913255108 9.45737705,1.19047619 L8.85245902,6.14880952 L0.885245902,6.14880952 C0.610910312,6.15504858 0.354273476,6.28677193 0.187799089,6.50678632 C0.0213247017,6.7268007 -0.0369209925,7.01122957 0.0295081967,7.2797619 C0.946229508,12.8968254 1.86885246,18.5138889 2.79737705,24.1309524 C2.83295246,24.5038006 3.14911403,24.7849355 3.52032787,24.7738095 C3.56355747,24.7767496 3.60693433,24.7767496 3.65016393,24.7738095 L10.5108197,24.7738095 C10.9086626,24.7736267 11.2575151,24.5057809 11.3636066,24.1190476 C12.2901639,18.5039683 13.2177049,12.8869048 14.1462295,7.26785714 C14.2137454,6.99970807 14.1563307,6.71514187 13.9902823,6.49493108 C13.8242338,6.27472028 13.5676802,6.14290665 13.2934426,6.13690476 L10.6229508,6.13690476 C10.7763934,4.84325397 10.9308197,3.55357143 11.0862295,2.26785714 L16.592459,3.5 C17.704918,3.74702381 18.1888525,2.02678571 17.0763934,1.78571429 Z M1.90918033,7.93452381 L8.64885246,7.93452381 C8.54557377,8.79166667 8.4452459,9.64880952 8.35377049,10.5059524 L2.33409836,10.5059524 L1.90918033,7.93452381 Z M9.7642623,23 L4.39672131,23 C3.80655738,19.4285714 3.21639344,15.8571429 2.62622951,12.2857143 L8.12655738,12.2857143 C7.76655738,15.2857143 7.40754098,18.2867063 7.0495082,21.2886905 C6.91081967,22.4255952 8.6842623,22.4166667 8.82,21.2886905 C9.18,18.2867063 9.53901639,15.2857143 9.89704918,12.2857143 L11.5318033,12.2857143 C10.9455738,15.8611111 10.3563934,19.4325397 9.7642623,23 Z M12.2518033,7.93452381 L11.8268852,10.5059524 L10.112459,10.5059524 C10.2157377,9.64880952 10.3160656,8.79166667 10.407541,7.93452381 L12.2518033,7.93452381 Z" id="Shape" fill="#42210B" fill-rule="nonzero"></path>
            </g>
        </g>
    </g>
</svg>