<?xml version="1.0" encoding="UTF-8"?>
<svg width="19px" height="17px" viewBox="0 0 19 17" version="1.1" xmlns="http://www.w3.org/2000/svg" xmlns:xlink="http://www.w3.org/1999/xlink">
    <!-- Generator: sketchtool 53 (72520) - https://sketchapp.com -->
    <title>B1C24DA0-34AD-4416-B6C1-C9B182F9028D</title>
    <desc>Created with sketchtool.</desc>
    <g id="design" stroke="none" stroke-width="1" fill="none" fill-rule="evenodd">
        <g id="catalog-round-ingridients" transform="translate(-323.000000, -137.000000)" fill="#F14F10">
            <path d="M325.201869,143.027634 C325.150663,143.133961 325.099456,143.293452 325.04825,143.399779 C324.484981,144.835196 326.789263,145.473159 327.301325,144.037742 C327.403738,143.718761 327.659769,143.133961 327.813388,142.655489 C328.069419,142.017526 328.479069,141.539054 329.093544,141.273236 C330.629731,140.635273 332.319538,140.635273 333.6509,141.858035 C335.443119,143.506107 335.033469,145.792141 333.906931,147.70603 C332.677981,149.77941 333.753313,150.842682 335.187088,152.331262 C336.467244,153.660352 337.952225,154.883114 339.539619,153.128716 C344.916275,147.174394 340.870982,137.551785 333.292456,137.020149 C331.858681,136.913822 330.424906,137.232803 329.14475,137.870766 C328.274244,138.296075 327.659769,138.774547 327.147706,139.306183 C326.789263,139.678328 326.328406,139.837819 325.86755,139.890983 L324.177744,139.99731 C323.563269,140.050473 323,140.528946 323,141.220072 C323,141.858035 323.563269,142.495998 324.177744,142.442835 C324.331363,142.442835 324.484981,142.442835 324.587394,142.389671 C325.099456,142.283344 325.355488,142.655489 325.201869,143.027634 Z" id="krevedko"></path>
        </g>
    </g>
</svg>