<?xml version="1.0" encoding="UTF-8"?>
<svg width="102px" height="127px" viewBox="0 0 102 127" version="1.1" xmlns="http://www.w3.org/2000/svg" xmlns:xlink="http://www.w3.org/1999/xlink">
    <!-- Generator: sketchtool 53.1 (72631) - https://sketchapp.com -->
    <title>12321414-2232-4FF3-ACBE-4ABB53F7EB70</title>
    <desc>Created with sketchtool.</desc>
    <g id="design" stroke="none" stroke-width="1" fill="none" fill-rule="evenodd">
        <g id="2-slide" transform="translate(-50.000000, -38.000000)" fill-rule="nonzero">
            <g id="logo" transform="translate(50.000000, 38.000000)">
                <polygon id="Shape" fill="#472821" points="89.08 52 89 52 89.07 52"></polygon>
                <polygon id="Shape" fill="#472821" points="12 6 12.09 6 12.01 6"></polygon>
                <path d="M3.37965522,51.6728093 C4.41960483,54.7041412 6.718146,57.1400081 9.68613407,58.356067 C12.5709535,59.4909024 15.8327971,59.1095793 18.3773209,57.3400312 C21.7679009,54.9128346 22.9772078,50.8599806 22.9998116,46.8748624 C23.0084241,46.2078513 22.7213178,45.5711745 22.215509,45.1356203 C21.7097001,44.7000661 21.0369645,44.5102189 20.3777631,44.617005 C19.6449616,44.3554291 18.8304828,44.4674564 18.1957295,44.9171322 C17.5609763,45.3668081 17.1858023,46.0975621 17.1906179,46.8748624 C17.2513232,48.2955206 17.0046075,49.7125486 16.4672941,51.0293199 C16.5577096,50.7809556 16.2073497,51.5260485 16.15084,51.6276521 C16.0943303,51.7292557 15.8795936,52.056645 15.7439704,52.2711415 C16.0604245,51.7744128 15.5405356,52.4856379 15.4275162,52.5985308 C15.3144969,52.7114236 14.8511176,53.0613915 14.964137,52.9936558 L14.5459654,53.2645987 L14.4781538,53.2645987 C14.5685693,53.2645987 14.4781538,53.2645987 14.3425306,53.3436237 L14.3425306,53.3436237 L14.2295113,53.4000701 L14.3199268,53.3436237 L13.6418108,53.5468309 L13.5174895,53.5468309 L13.3818663,53.5468309 C13.1636864,53.5300168 12.944534,53.5300168 12.7263542,53.5468309 L12.5342213,53.5468309 C12.3194846,53.5468309 12.1160498,53.4226487 11.901313,53.3662023 L11.5396511,53.1742844 C11.4831415,53.1742844 11.2797067,53.0049451 11.1553854,52.9259201 L10.7598177,52.5872415 L10.3868539,52.1921165 L10.2738346,52.0340664 C10.1834191,51.8873057 10.0817017,51.740545 10.0025882,51.582495 C9.92347467,51.4244449 9.81045534,51.2325271 9.72003987,51.0518985 C9.85566307,51.3115521 9.55051087,50.5551699 9.51660507,50.4309877 C9.358378,49.9568377 9.358378,49.6294483 9.24535866,49.3246376 C9.0532258,48.4553625 8.92890453,47.5860874 8.80458326,46.7055231 C8.79910844,46.6039931 8.79910844,46.5022423 8.80458326,46.4007123 C8.80458326,46.0959016 8.72546973,45.7798015 8.69156393,45.4749908 C8.62375233,44.8427907 8.55594072,44.2105907 8.49943106,43.5783906 C7.88208872,37.2347495 7.63679448,30.8604662 7.76480539,24.4882066 C7.84391892,21.2030242 8.02474985,17.9065524 8.40901559,14.6326592 C8.40901559,14.4746092 8.40901559,14.3165592 8.46552526,14.1585092 C8.46552526,14.1585092 8.46552526,13.9101449 8.46552526,13.7633842 C8.46552526,13.6166234 8.52203492,13.3682591 8.52203492,13.3908377 L8.58984653,12.9392662 C8.70286586,12.2054626 8.82718713,11.4716589 8.97411226,10.7491446 C9.18763761,9.44183871 9.56744139,8.16712597 10.1043056,6.95594422 C10.2625327,6.67747514 10.4320617,6.40653226 10.6128926,6.14311557 C10.8000676,5.96868448 10.9774041,5.78400867 11.1440835,5.58994051 L11.1440835,5.58994051 L11.1440835,5.58994051 L11.2005931,5.58994051 C11.3136125,5.49962622 11.4718395,5.40931193 11.2910086,5.58994051 L11.6187647,5.29641906 L11.912615,5.14965833 C11.3588202,5.4318905 11.7769918,5.14965833 11.912615,5.14965833 L12.1951633,5.14965833 L12.590731,5.14965833 C12.7836916,5.22754302 12.9845305,5.2843206 13.1897334,5.31899763 C13.2462431,5.31899763 13.5739992,5.49962622 13.7209243,5.58994051 L13.8678494,5.6915441 L14.116492,5.90604054 C14.2182094,5.99635484 14.6702867,6.51566203 14.6363809,6.44792631 C14.794608,6.67371205 14.9415331,6.89949778 15.0771563,7.13657281 C15.2127795,7.37364783 15.4388182,7.9155336 15.4049124,7.80264073 C15.5292336,8.15260862 15.642253,8.50257651 15.7326684,8.8525444 C15.8230839,9.20251229 15.811782,9.23638015 15.8569897,9.41700874 C15.8530697,9.48092145 15.8530697,9.54501391 15.8569897,9.60892662 C15.8569897,9.60892662 15.8569897,9.68795162 15.8569897,9.73310877 C15.93432,10.7072395 15.915392,11.6866105 15.8004801,12.6570341 C15.8066028,13.9781325 16.873955,15.0493195 18.1964899,15.0616521 C18.4098025,15.0597507 18.6221806,15.0332331 18.8293982,14.9826271 C20.0762474,15.2102462 21.2848679,14.4284906 21.58707,13.1989198 C22.3267843,9.48139374 21.2526802,5.63403346 18.693775,2.83535453 C16.5046618,0.470200994 13.1997076,-0.516281806 10.0703998,0.261397141 C6.20513857,1.39032582 4.48724469,5.0028976 3.45876875,8.58160152 C2.32517843,12.7564975 1.60964245,17.0335644 1.32270333,21.3497849 C0.73256181,29.0282321 0.952273597,36.7473788 1.97821547,44.37993 C2.16636231,46.8561923 2.63654532,49.3029532 3.37965522,51.6728093 Z" id="Shape" fill="#472821"></path>
                <path d="M29.6058421,16.0765517 C30.8916142,16.7717647 32.3544364,17.106269 33.8280711,17.042051 C35.3730999,17.1015347 36.9018463,16.7197629 38.2214717,15.9448927 C38.2214717,18.7243604 38.2214717,21.5001708 38.2214717,24.2723241 C38.2214717,29.8020018 38.194845,35.3316795 38.1415917,40.8613573 C38.1415917,42.1340609 38.1415917,43.4067645 38.1415917,44.6794681 C38.1415917,45.3158199 38.1415917,45.9412001 38.1415917,46.5665803 C38.1415917,46.6872678 38.1415917,46.8189268 38.1415917,46.9396142 L38.1415917,47.0383584 C38.1415917,47.3455627 38.0274774,47.6417955 37.9590088,47.9380282 C37.8285731,48.4628735 37.6647002,48.9795124 37.4683173,49.4850214 L37.4683173,49.5837656 L37.3770258,49.7373678 C37.249959,49.9894333 37.1090184,50.2348129 36.9548029,50.4724638 C36.8521001,50.6370376 36.7493972,50.7796681 36.6352829,50.9332703 C36.5211686,51.0868725 36.53258,51.0539577 36.4755229,51.1197872 L35.9962428,51.5696221 L35.89354,51.6683664 L35.89354,51.6683664 C35.6995456,51.7671106 35.4941399,51.8987696 35.311557,52.0084854 L35.2544999,52.0084854 L35.151797,52.0084854 L34.8436884,52.0743149 C34.9349798,52.0743149 34.8436884,52.0743149 34.7295741,52.0743149 L34.6040484,52.0743149 L34.7181627,52.0743149 L34.3986426,52.0743149 C34.2264129,52.0237537 34.0511052,51.9834482 33.8737169,51.9536275 C33.8476414,51.9265952 33.8167179,51.9042965 33.7824254,51.887798 L33.5427854,51.7451674 L33.1433853,51.3831052 L32.949391,51.1746451 L32.949391,51.1746451 C32.8238653,50.9661851 32.6755167,50.7686966 32.5614024,50.5602365 C32.4472881,50.3517764 32.4472881,50.3298333 32.3788195,50.2201174 L32.3788195,50.2201174 L32.3788195,50.2201174 C31.9127402,48.9950463 31.6545896,47.7058862 31.6142537,46.4020066 C31.5901205,45.1253272 30.5227634,44.0942701 29.1950306,44.0650595 C29.062153,44.0538378 28.9285081,44.0538378 28.7956305,44.0650595 C28.0820318,43.8824223 27.3207071,44.0262984 26.7320948,44.4550291 C26.1434826,44.8837598 25.7933266,45.549459 25.783013,46.259376 C25.703133,50.8016113 27.8941276,56.0569995 33.1205625,56.8798682 C38.1187688,57.6698222 42.2497064,54.46612 44.0413009,50.1433163 C45.2509125,47.1590458 44.9770382,43.8456278 44.9656268,40.7187267 C44.9656268,36.7470137 44.8971582,32.7862723 44.8286896,28.8145594 C44.7297905,22.9630485 44.5738343,17.1334808 44.360821,11.3258563 C44.2581181,8.75850596 44.1668267,6.19115558 44.0184781,3.64574837 C43.9824825,2.99831853 43.668355,2.39436419 43.1511956,1.97827567 C42.6340362,1.56218716 41.9603311,1.37136566 41.2911463,1.45143181 C40.6226522,1.35670923 39.9440898,1.54314465 39.4285899,1.96317029 C38.91309,2.38319592 38.6105091,2.99618902 38.5980489,3.64574837 C38.5980489,4.31501492 38.5980489,4.98428147 38.5181688,5.65354802 C38.4865834,6.12664546 38.4140602,6.59639076 38.3013517,7.05791063 C38.1849648,7.58771097 38.0402277,8.1113857 37.8677173,8.62684697 L37.6280773,9.28514194 C37.5596087,9.41680093 37.5025516,9.54845992 37.434083,9.66914734 C37.2172658,10.0641243 36.9662144,10.4261865 36.7379858,10.7663056 L36.7379858,10.8211635 L36.7379858,10.8211635 C36.5896372,10.9747657 36.4527,11.1283679 36.29294,11.2709984 L35.89354,11.6220891 L35.89354,11.6220891 L35.8022485,11.676947 C35.6653114,11.7647197 35.5283742,11.8524923 35.3800256,11.9292934 C35.231677,12.0060945 34.6154598,12.1487251 35.2544999,12.0060945 C34.9578027,12.071924 34.6496941,12.1926114 34.3415855,12.2694125 L34.3415855,12.2694125 L34.1361797,12.2694125 L33.6226654,12.1267819 L33.6226654,12.1267819 L32.3445852,11.6879186 L32.3445852,11.6879186 L32.2647052,11.6220891 C32.1163566,11.4904301 31.9680081,11.3587711 31.8310709,11.2161405 C31.6941337,11.0735099 31.5914309,10.9637941 31.4773166,10.8321351 L31.3974366,10.7333909 C31.1463851,10.3603571 30.9181565,9.98732324 30.7013393,9.63623259 C30.6548148,9.5505941 30.6129172,9.4627046 30.5758136,9.3729146 C30.4731107,9.10959661 30.3704079,8.85725021 30.2905279,8.58296064 C30.1278932,8.04138875 29.9945809,7.49207187 29.8911278,6.93722321 L29.8911278,6.8165358 C29.8911278,6.70681998 29.8911278,6.46544515 29.8911278,6.4325304 C29.8911278,6.13629767 29.8911278,5.82909335 29.8340707,5.53286061 C29.8131645,4.80096572 29.8322097,4.06852026 29.8911278,3.33854405 C29.8851972,2.71002922 29.6174092,2.11004232 29.1477003,1.67287295 C28.6779914,1.23570359 28.0455842,0.997857099 27.3920246,1.01256849 C27.2365554,0.995810502 27.0796252,0.995810502 26.924156,1.01256849 C26.7800709,0.996894581 26.6346068,0.996894581 26.4905217,1.01256849 C25.1601779,1.03011784 24.0844002,2.05957439 24.0598871,3.33854405 C23.6833099,7.99049516 25.0298586,13.596974 29.6058421,16.0765517 Z M30.5644022,9.33999985 L30.5644022,9.33999985 C30.6214593,9.49360201 30.6442822,9.54845992 30.5644022,9.31805669 L30.5644022,9.33999985 Z" id="Shape" fill="#472821"></path>
                <path d="M48.2886003,44.6198843 C48.2886003,48.770665 49.055814,54.1390079 53.3770323,56.1424514 C54.7718724,56.8267822 56.353219,57.0556107 57.890054,56.7955075 C59.5697315,56.3892946 61.0295368,55.3725531 61.9743387,53.9508392 C62.3530304,54.4913754 62.7961903,54.9855919 63.2943976,55.4229827 C64.7658608,56.7167938 66.7711275,57.2577921 68.7100237,56.8840575 C72.6363526,56.2531388 74.8477332,52.6225894 75.4795563,49.0252462 C75.7701932,46.7531938 75.8833485,44.4626677 75.8180329,42.1736909 C75.8180329,40.0484913 75.8180329,37.9232916 75.8180329,35.8091606 C75.942141,25.6701872 76.1565095,15.5201449 75.8180329,5.39224019 C75.8180329,4.42925908 75.7503376,3.47734672 75.7052074,2.51436562 C75.6827552,1.24703298 74.6603628,0.214942065 73.3697186,0.156722221 C73.2197365,0.140544444 73.0683986,0.140544444 72.9184164,0.156722221 C72.7571697,0.139617564 72.5945133,0.139617564 72.4332666,0.156722221 C71.111129,0.168733017 70.0423253,1.21728273 70.0300825,2.51436562 C70.4813847,11.8453205 70.1880383,21.2205503 70.0300825,30.5515052 C69.9623872,34.7576295 69.8721268,38.9748227 69.8382791,43.1920158 C69.9231631,45.2733462 69.7908448,47.3577367 69.4433897,49.4126524 C69.334195,49.8433436 69.2023895,50.2682121 69.0485003,50.6855584 C69.0485003,50.7409022 68.9920875,50.7851772 68.9695224,50.8405209 C68.9469573,50.8958646 68.7438713,51.1836521 68.6648934,51.3607521 L68.4392423,51.582127 C68.3486045,51.6309811 68.2618581,51.6864827 68.1797436,51.7481583 L68.0105053,51.803502 L67.7848542,51.803502 L67.2997044,51.803502 C67.1755963,51.803502 67.0402056,51.803502 66.9160975,51.803502 C67.3899648,51.803502 67.2545741,51.803502 67.0289231,51.803502 L66.8709673,51.7370895 L66.8709673,51.7370895 C66.7581417,51.6153333 66.600186,51.4271646 66.6114685,51.4714396 C66.5099256,51.3054083 66.4083826,51.1504458 66.3181221,50.9844146 C66.2278617,50.8183834 66.1601664,50.6855584 66.0811885,50.5416647 C66.0811885,50.5416647 65.9345153,50.1210523 65.9119502,50.0325023 C65.7215346,49.4497024 65.5744753,48.8541158 65.4719305,48.2504338 C65.1861519,45.5704562 65.0994235,42.8736371 65.2124318,40.1813162 C65.0996063,32.9349757 64.9642156,25.6812559 64.8062598,18.420157 C64.6934343,13.2621203 64.6821517,8.09301478 64.4790658,2.92390931 C64.4734483,2.83544507 64.4734483,2.74672359 64.4790658,2.65825935 L64.4790658,2.35940314 C64.4846128,2.31529537 64.4846128,2.27068594 64.4790658,2.22657816 L64.4790658,2.22657816 C64.2985449,-0.618090163 59.6839802,-0.562746422 59.6839802,2.40367813 L59.6839802,2.51436562 L59.4131989,15.5312137 C59.2176346,22.9398959 59.0446354,30.3596469 58.8942014,37.7904666 C58.8942014,40.1149037 58.8152235,42.4282722 58.8039409,44.7416406 C58.830719,45.8521341 58.762787,46.9628796 58.6008549,48.0622651 C58.5027102,48.6264996 58.3708531,49.1845885 58.2059655,49.7336461 L58.0028796,50.3202897 L57.7659459,50.7962459 C57.6644029,50.9733459 57.5515774,51.1393771 57.4387518,51.3054083 L57.2695135,51.493577 L57.1679705,51.582127 C56.8971892,51.714952 56.7730811,51.714952 57.1679705,51.6485395 L56.852059,51.7370895 C56.852059,51.7370895 56.7843637,51.7370895 56.7617986,51.7370895 L56.2089534,51.7370895 L56.0622802,51.7370895 L55.8479117,51.670677 C55.776837,51.6199567 55.7013252,51.5755082 55.6222606,51.537852 L55.3627618,51.2832708 L55.3627618,51.2832708 L55.3627618,51.2279271 C55.2950665,51.0951021 55.2048061,50.9622771 55.1371108,50.8294521 C55.0786789,50.7346172 55.029567,50.6345485 54.9904375,50.5305959 C54.8550469,50.1431897 54.7309388,49.7447148 54.6293958,49.3351711 C54.3631081,48.1468506 54.2381657,46.9322465 54.2570715,45.7156904 C54.1780936,41.8084222 54.1780936,37.9011541 54.1103983,33.9938859 C53.94116,24.4083498 53.6816612,14.8006763 53.94116,5.21514021 L54.042703,2.44795313 C54.0609907,1.80830529 53.8147065,1.18861043 53.3599089,0.729921609 C52.9051113,0.271232789 52.2804961,0.0125769307 51.6282363,0.0128284923 C51.4669897,-0.00427616411 51.3043332,-0.00427616411 51.1430865,0.0128284923 C50.9931145,-0.00352913943 50.8417564,-0.00352913943 50.6917843,0.0128284923 C49.3764649,0.0305332604 48.3128365,1.06910679 48.2886003,2.35940314 C47.8034504,12.2216579 48.0516666,22.1171189 48.1644922,31.9793737 C48.2096224,36.2408418 48.2773177,40.4026912 48.2886003,44.6198843 Z" id="Shape" fill="#472821"></path>
                <path d="M89.1678333,56.8048913 C91.3717582,56.5170726 93.3958242,55.4433186 94.8641945,53.7830083 C95.9164681,54.8728651 97.1100026,55.8183736 98.4132946,56.5945771 C99.142843,57.135141 100.142527,57.135141 100.872076,56.5945771 C101.390102,56.3024503 101.768833,55.8159408 101.92356,55.2438647 C102.078286,54.6717887 101.996098,54.0618802 101.695378,53.5505557 C101.502978,53.1476703 101.192743,52.8120042 100.805321,52.5875381 C99.2810622,51.5892231 98.2853016,49.965124 98.0906491,48.1598706 C97.9107764,47.1471106 97.8103423,46.1219664 97.7902551,45.0937109 C97.7235008,43.6768573 97.7902551,42.2600037 97.7902551,40.8542192 C97.8017159,40.7438212 97.8017159,40.6325422 97.7902551,40.5221442 C97.7902551,39.0720831 97.7902551,37.622022 97.7902551,36.1608917 C97.9126378,25.8997723 98.1240262,15.6275838 97.7902551,5.36646441 C97.7902551,4.37023923 97.7235008,3.38508322 97.678998,2.38885803 C97.6615839,1.09457631 96.6208677,0.0444964301 95.3203484,0.0089867638 C95.1684943,-0.00190879355 95.0160486,-0.00190879355 94.8641945,0.0089867638 C94.7086674,-0.00299558793 94.552442,-0.00299558793 94.3969149,0.0089867638 C93.0931575,0.0209980166 92.0392122,1.06958755 92.0271396,2.3667197 C92.4832935,11.7865823 92.1940252,21.2507215 92.0271396,30.670584 C91.9603854,34.9100757 91.8713797,39.1495673 91.8380026,43.3890589 C91.9719895,45.4758414 91.7385496,47.5698703 91.1482089,49.5767242 L91.0814546,49.7538309 L91.0814546,49.8423842 L90.8255634,50.3183585 L90.6253007,50.617226 L90.3471581,50.9271628 L90.0578897,51.1817536 L90.0578897,51.1817536 L89.66849,51.403137 L89.66849,51.403137 C89.4014731,51.5581054 89.4014731,51.4806212 89.5906101,51.403137 C89.3903474,51.4584829 89.178959,51.5581054 88.9675706,51.602382 L88.7005536,51.602382 L88.1553941,51.602382 L87.9106286,51.602382 L87.7771201,51.602382 L87.5657317,51.535967 L87.1652063,51.3145837 C87.0517637,51.3131742 86.9392051,51.2945098 86.8314351,51.2592378 L86.3752812,50.8386094 L86.0971385,50.5397419 C86.102235,50.5141626 86.102235,50.4878369 86.0971385,50.4622577 C86.0710435,50.4192004 86.0412646,50.3784625 86.0081329,50.3404968 C85.9368195,50.2111267 85.8588356,50.0855087 85.7744931,49.9641451 C85.5049346,49.5790114 85.2914351,49.1579088 85.1403279,48.713329 C84.22802,46.1342127 84.5172884,43.1787447 84.4839112,40.378245 C84.3726542,33.0873525 84.2354372,25.7890807 84.0722601,18.4834293 C83.9721288,13.2255742 83.9721288,7.94558072 83.7496147,2.69879476 C83.7438144,2.60664194 83.7438144,2.51421835 83.7496147,2.42206554 L83.7496147,2.3667197 C83.738489,-0.610886683 79.1992011,-0.666232527 79.0434412,2.2228205 L79.0434412,2.2228205 C79.0434412,2.2228205 79.0434412,2.31137385 79.0434412,2.35565053 L79.0434412,40.2122075 C79.0434412,43.2783672 78.7430472,46.610187 79.7221093,49.5545858 C81.0349425,53.6169707 84.606294,57.4247648 89.1678333,56.8048913 Z" id="Shape" fill="#472821"></path>
                <path d="M24.1276944,21.6802078 C23.6872367,21.9427495 23.142536,21.9427495 22.7020783,21.6802078 C18.8405671,19.4555387 13.3738346,23.0792266 14.0585793,28.5606278 C14.6535214,33.2622481 18.3017515,36.9547401 22.4775718,38.6977798 C22.7730257,38.9170624 23.134817,39.0226602 23.4990763,38.9959313 C23.8562144,39.0211625 24.2104529,38.9154457 24.4981301,38.6977798 C28.763753,36.9088706 32.4568844,33.1131723 32.9620239,28.285411 C33.5120648,22.8269445 27.966755,19.4899408 24.1276944,21.6802078 Z M27.9779803,30.5788843 C27.1802333,31.8587902 26.1047644,32.933906 24.8348898,33.7209427 C24.6216086,33.8700185 24.3971021,34.0076269 24.1725957,34.1337679 C23.7401454,34.3808863 23.2131058,34.3808863 22.7806556,34.1337679 C22.661091,34.075669 22.5449034,34.0105794 22.4326705,33.9388227 C21.1112005,33.1491289 19.9826987,32.0629546 19.1324255,30.7623622 C18.3466528,29.5009518 17.5272042,27.379489 18.4476807,26.003405 C19.5702131,24.3291695 20.9397025,25.1662873 21.6244473,26.6455776 C21.913291,27.3672119 22.6411241,27.8001516 23.3980484,27.7005753 C24.1580475,27.8015519 24.8898214,27.3690058 25.1828748,26.6455776 C25.8563942,25.189222 27.0799544,24.3521042 28.348416,25.8084598 C29.6168775,27.2648154 28.730077,29.2716045 27.9779803,30.5788843 L27.9779803,30.5788843 Z" id="Shape" fill="#F14F10"></path>
                <polygon id="Shape" fill="#000000" points="21.22 77 21 77.11 21 77.11"></polygon>
                <polygon id="Shape" fill="#472821" points="46.15 77 46 77 46 77"></polygon>
                <polygon id="Shape" fill="#472821" points="70.09 102 70 102 70.1 102"></polygon>
                <path d="" id="Shape" fill="#472821"></path>
                <polygon id="Shape" fill="#472821" points="29.09 122 29 122 29.08 122"></polygon>
                <path d="M36.924311,123.761684 C36.4410532,122.512559 36.0263101,121.239528 35.6818204,119.947926 C35.6818204,119.825262 35.6818204,119.702597 35.6012886,119.579932 L35.6012886,119.513024 C35.6012886,119.211938 35.6012886,118.922003 35.5207568,118.620917 C35.440225,118.319831 35.5207568,117.89608 35.5207568,117.505783 C35.5207568,116.72519 35.5207568,115.944596 35.5207568,115.164002 C35.5207568,114.996732 35.5207568,114.829462 35.5207568,114.662192 C35.5207568,114.494922 35.5207568,114.115776 35.5207568,113.848144 C35.526733,113.759028 35.526733,113.669629 35.5207568,113.580512 L35.5207568,110.302019 C35.6127932,102.56299 35.7738568,94.8128095 35.5207568,87.0737806 C35.5207568,86.3154896 35.5207568,85.5683499 35.440225,84.8435129 C35.4127587,83.9071997 34.655718,83.1444353 33.6915345,83.0816014 C33.5767669,83.0706423 33.4611659,83.0706423 33.3463983,83.0816014 C33.2239695,83.0701098 33.1006817,83.0701098 32.9782529,83.0816014 C31.9731864,83.09363 31.1614402,83.8804546 31.1490306,84.8546642 C31.4941669,91.9580668 31.2755806,99.1060748 31.1490306,106.209477 C31.0915079,109.387609 31.0224806,112.56574 30.9994715,115.743872 C31.1072078,117.314255 30.9359874,118.890911 30.4932717,120.405131 L30.4242444,120.583553 L30.4242444,120.583553 C30.3552172,120.706217 30.2976944,120.840034 30.2286672,120.951547 C30.1596399,121.06306 30.056099,121.208028 29.9755672,121.330692 C30.182649,121.018455 29.9755672,121.330692 29.8720264,121.431054 C29.7784444,121.503203 29.6900385,121.581443 29.6074219,121.665233 L29.3083038,121.832503 L29.3083038,121.832503 L29.3083038,121.832503 C29.1587447,121.910562 29.0897175,121.899411 29.2162674,121.832503 L28.8136084,121.955167 L28.6065267,121.955167 L28.0543086,121.955167 C27.9738798,121.96075 27.893142,121.96075 27.8127132,121.955167 L27.7206769,121.955167 L27.6056315,121.955167 L27.3065133,121.787897 L27.214477,121.787897 L27.214477,121.787897 L26.7888089,121.47566 L26.662259,121.375298 C26.662259,121.375298 26.662259,121.375298 26.662259,121.297238 C26.662259,121.219179 26.4436726,120.97385 26.3401318,120.795428 C26.1507705,120.505552 26.0072882,120.189809 25.9144637,119.858716 C25.2472002,117.907231 25.4772911,115.632358 25.4312729,113.558209 C25.327732,108.071751 25.1781729,102.585292 25.0401184,97.0988339 C24.9365775,93.1289574 24.9135685,89.1479295 24.7179912,85.178053 L24.7179912,84.8992696 C24.781529,83.9138753 24.0089152,83.0651292 22.9923098,83.0035421 C21.9757045,82.9419549 21.1000754,83.6908485 21.0365376,84.6762428 C21.0315971,84.7057869 21.0315971,84.7359094 21.0365376,84.7654535 L21.0365376,113.402091 C21.0365376,115.710418 20.7949422,118.23062 21.554242,120.449737 C22.6011554,123.505203 25.3507411,126.382249 28.9056448,125.913893 C30.2769925,125.737532 31.5649191,125.175371 32.6101075,124.296948 C33.0594123,124.868216 33.60841,125.358844 34.232248,125.746622 C34.5422074,125.941588 34.9115491,126.028138 35.2791614,125.991952 C35.4043145,125.984929 35.5280301,125.962445 35.6473068,125.925044 C35.8938236,125.866071 36.1224635,125.75144 36.3145703,125.590504 C36.4894487,125.458058 36.6376479,125.295508 36.7517429,125.110996 C36.8112189,125.003761 36.8612495,124.89185 36.9013019,124.776456 C37.0244965,124.449966 37.032588,124.093106 36.924311,123.761684 Z" id="Shape" fill="#472821"></path>
                <path d="M18.6863245,89.7650352 C18.3938869,86.8177677 17.1454031,83.6035779 13.8161129,83.0919767 C13.0940549,82.9693411 12.3561361,82.9693411 11.6340782,83.0919767 C11.4280951,83.1243222 11.2250098,83.1726661 11.0267077,83.2365597 L10.7005272,83.3477773 C8.72633649,84.0592512 7.14365107,85.5556609 6.33645769,87.4739518 C5.92176534,88.5992846 5.65709438,89.7732401 5.54912556,90.9661858 C5.33542113,92.512111 5.1442119,94.069158 4.98674547,95.626205 C4.04406227,104.055618 3.72453221,112.541803 4.03069931,121.017193 C4.03069931,121.495428 4.03069931,121.973664 4.10943253,122.4519 L1.65745533,122.4519 C0.721619291,122.525229 -3.12183663e-16,123.297555 0,124.225822 C2.9657448e-16,125.154088 0.721619291,125.926414 1.65745533,125.999743 L16.6055182,125.999743 C16.8689506,126.004184 17.1301214,125.951016 17.3703551,125.844038 C18.0919752,125.629825 18.588765,124.976352 18.5963437,124.231382 C18.6975721,120.894853 18.7763053,117.636176 18.8437909,114.333012 C18.9675146,108.338381 19.0574954,102.321507 18.9562669,96.3268761 C18.9225241,94.1358886 18.8887813,91.944901 18.6863245,89.7650352 Z M8.8446729,122.4519 C8.64221607,115.778842 8.76593969,109.105783 8.99089172,102.488333 C9.11461534,99.2741436 9.24958657,96.0599538 9.51952901,92.8457639 C9.57576702,92.2674322 9.62075743,91.7335875 9.68824304,91.1218905 C9.68824304,90.8883334 9.74448105,90.6436546 9.76697625,90.3989758 L9.76697625,90.3989758 C9.76171403,90.3770366 9.76171403,90.3541844 9.76697625,90.3322452 L9.76697625,90.3322452 C9.76697625,90.154297 9.76697625,90.1431752 9.76697625,90.2099058 L9.76697625,90.0430793 C9.76697625,89.8317658 9.83446186,89.6093305 9.87945227,89.398017 C9.92444268,89.1867035 9.96943308,89.0309988 10.0256711,88.8419288 C10.0819091,88.6528588 10.1831375,88.4304235 10.1718899,88.4304235 C10.2956135,88.1857447 10.4418324,87.9410659 10.5880512,87.6963871 L10.6442892,87.5962912 L10.6442892,87.5962912 C10.7567652,87.4739518 10.8579936,87.3516124 10.9704696,87.2403948 L11.1954217,87.040203 C11.1954217,87.040203 11.3191453,86.9512289 11.4203737,86.8844983 C11.5216021,86.8177677 11.6340782,86.7732807 11.7465542,86.7065501 L11.8702778,86.7065501 L12.1289726,86.7065501 C12.0389918,86.7065501 12.0502394,86.7065501 12.2189535,86.7065501 L12.2751915,86.7065501 L12.2189535,86.7065501 L12.4326579,86.7065501 C12.5246173,86.7355423 12.618598,86.7578453 12.7138479,86.7732807 L12.7138479,86.7732807 L12.8713144,86.8733765 C12.9473456,86.9308896 13.018791,86.9940993 13.0850188,87.0624465 C13.1862472,87.1625424 13.3774564,87.4517083 13.1974948,87.1736642 C13.2987232,87.3182471 13.388704,87.4628301 13.4786849,87.6185347 C13.5686657,87.7742394 13.6249037,87.9521877 13.6361513,87.9521877 C13.7775368,88.3356005 13.8866349,88.7299115 13.9623317,89.1310947 L14.0298173,89.5314782 C14.0298173,89.5314782 14.0298173,89.6204523 14.0298173,89.6538176 C14.0298173,89.6871829 14.0298173,90.0430793 14.0860554,90.2321493 L14.1872838,91.5778828 C14.2435218,92.6900592 14.2885122,93.8022356 14.3110074,94.9144121 C14.4572262,100.786704 14.3672454,106.658995 14.3110074,112.531287 C14.2547694,115.867816 14.097303,119.204345 14.0523125,122.540874 L8.8446729,122.4519 Z M14.1760362,89.3090429 L14.1760362,89.3090429 C14.1760362,89.3090429 14.1647886,89.2534341 14.1760362,89.3090429 Z" id="Shape" fill="#472821"></path>
                <path d="M69.6833586,89.6525369 C69.6308234,88.1405321 69.1859781,86.6703705 68.3948068,85.3940241 C67.4899551,84.0450058 66.0517853,83.1744 64.4641826,83.014594 C61.5519859,82.82438 58.8299408,84.5076502 57.63161,87.2397503 C57.1500491,88.5249461 56.8651432,89.8789452 56.7870131,91.2536488 C56.6245906,92.6768593 56.5163089,94.1111887 56.4296836,95.5455181 C55.8955166,104.026665 55.8593572,112.533151 56.3214019,121.018763 C56.3755428,122.130646 56.4405118,123.153579 56.5163089,124.232106 C56.5448014,125.200406 57.3056685,125.976814 58.2488155,126 C58.4183849,125.997599 58.5865084,125.967575 58.7469111,125.911049 C58.9182695,125.968518 59.0972308,125.99852 59.2774912,126 C60.2258895,125.993932 60.9932604,125.205962 60.9991696,124.232106 C60.8800598,121.230021 60.7826063,118.216817 60.7068091,115.214733 L65.5578274,115.04795 C65.4712021,118.038916 65.3520922,121.041001 65.3520922,124.031967 C65.3520922,124.09868 65.3520922,124.165393 65.3520922,124.232106 C65.3348102,124.769628 65.5693496,125.283118 65.9828926,125.613152 C66.3964357,125.943187 66.9389232,126.049814 67.4419282,125.899931 C67.9518183,126.035388 68.4940289,125.925324 68.9153714,125.600835 C69.3367139,125.276345 69.5914321,124.772668 69.6075614,124.232106 C69.7158431,120.911281 69.7952496,117.575631 69.8457811,114.225157 C69.9648909,108.209868 70.0515162,102.183461 69.9648909,96.1570539 C69.9215782,94.0111192 69.8999219,91.8207092 69.6833586,89.6525369 Z M60.5010739,102.505907 C60.5010739,99.2592081 60.5010739,96.0236279 60.6634964,92.7880477 C60.6634964,92.1987495 60.7392936,91.6094514 60.7826063,91.0201533 L60.8475753,90.3196669 L60.8475753,90.0416961 C60.8475753,89.7970817 60.9342006,89.5413486 60.9883414,89.2856155 L61.1182794,88.8297433 L61.2157329,88.5517725 L61.2157329,88.5517725 C61.356499,88.2738017 61.5189215,88.0069497 61.6705159,87.7400978 C61.6705159,87.7400978 61.6705159,87.7400978 61.6705159,87.6733848 L61.746313,87.6066718 C61.8654228,87.4732458 61.9845327,87.3398198 62.1144707,87.2175126 C62.2444086,87.0952055 62.5475973,86.8839477 62.201096,87.1174431 L62.5151128,86.9061853 L62.8183014,86.7394028 L63.0240366,86.6726898 L63.2622562,86.6726898 C63.1864591,86.6726898 63.2622562,86.6726898 63.3380534,86.6726898 L63.4138506,86.6726898 L63.3488816,86.6726898 L63.576273,86.6726898 L63.8686335,86.7394028 L63.8686335,86.7394028 L64.1934785,86.9395418 L64.1934785,86.9395418 L64.1934785,87.0062548 L64.3992136,87.2286315 L64.5941206,87.5177211 C64.6590896,87.6511471 64.7348868,87.7845731 64.7890276,87.9179991 C64.8431684,88.0514251 64.8756529,88.1514946 64.8973093,88.2182075 C64.9731064,88.451703 65.0380754,88.6963173 65.0922163,88.9409317 C65.1463571,89.185546 65.1463571,89.2077836 65.1680134,89.3300908 C65.1655575,89.3708208 65.1655575,89.4116679 65.1680134,89.4523979 C65.1720678,89.4930607 65.1720678,89.5340423 65.1680134,89.5747051 L65.2329824,90.1306467 C65.2329824,90.5754 65.2979514,91.0201533 65.3196077,91.4649066 C65.3845767,92.5767898 65.4278894,93.6886731 65.4495457,94.8005563 C65.5903119,100.359973 65.5253429,106.008339 65.4495457,111.601112 L60.436105,111.779013 C60.4938552,108.650915 60.5155115,105.55988 60.5010739,102.505907 Z" id="Shape" fill="#472821"></path>
                <path d="M50.7112838,113.259929 C50.4523186,113.054892 50.1784637,112.86948 49.8919944,112.705232 C51.1774973,111.37754 52.0007323,109.669362 52.2391477,107.834989 C52.6708474,104.581244 52.7931829,101.29377 52.6045065,98.0168449 C52.6045065,95.7980554 52.5159347,93.5127022 52.4827203,91.2606308 C52.5883309,89.3477706 52.0631282,87.4532034 50.9880707,85.8689722 C49.0284191,83.2397066 45.1534018,82.0082784 42.2748174,83.9497193 C39.6840916,85.702563 39.3630187,88.7201168 39.208018,91.5934492 C38.8758737,97.7727781 39.0198029,103.996483 39.1083747,110.175812 C39.1748036,114.768706 39.2190895,119.372694 39.4183761,123.954495 C39.4126069,124.035747 39.4126069,124.117308 39.4183761,124.198561 C39.4360832,125.165313 40.213948,125.944756 41.1787411,125.962499 C42.1080759,126.0125 43.0394188,126.0125 43.9687536,125.962499 C45.6359321,126.065283 47.3040318,125.776572 48.840204,125.119359 C51.0904981,124.049089 52.6188596,121.878113 52.870222,119.394882 C53.3410739,117.106995 52.5101628,114.745834 50.7112838,113.259929 Z M47.9766287,88.6535531 L47.9766287,88.6535531 C48.0430575,88.7423047 48.0098431,88.664647 47.9766287,88.5980834 L47.9766287,88.6535531 Z M45.762333,86.6677365 L45.9837626,86.6677365 L46.3269784,86.7786759 C45.8951908,86.6455486 46.3269784,86.7786759 46.4598362,86.8674275 C46.5926939,86.9561791 46.7034087,87.0227428 46.8362664,87.1004004 L46.9359097,87.189152 C47.0466245,87.3000915 47.1684108,87.411031 47.2680541,87.5219704 L47.4230548,87.6994736 L47.4230548,87.6994736 C47.6062756,87.9814858 47.77264,88.2741404 47.9212713,88.5758955 L48.0209146,88.8532442 C48.0873434,89.0640292 48.1427008,89.2859081 48.1869868,89.4966931 C48.2312727,89.7074781 48.2644871,89.9071692 48.2755586,89.9626389 C48.2866301,90.0181087 48.2755586,90.3842089 48.2755586,90.4618666 C48.2755586,91.0609397 48.2755586,91.6600129 48.2755586,92.2479921 C48.2755586,93.3573869 48.2755586,94.389124 48.3530589,95.454143 C48.4416307,98.7823273 48.6409174,102.110512 48.4969881,105.438696 C48.4969881,106.037769 48.4194878,106.625748 48.3641304,107.224821 L48.3641304,107.224821 C48.3641304,107.335761 48.3641304,107.435606 48.3641304,107.546546 C48.3641304,107.657485 48.2644871,108.045774 48.2091297,108.28984 C48.1537723,108.533907 48.0873434,108.722504 48.0209146,108.922195 L47.9212713,109.199544 C47.8399801,109.3754 47.7475285,109.545856 47.6444843,109.709866 L47.5116266,109.920651 C47.4009118,110.03159 47.3012685,110.153624 47.1794822,110.264563 L47.0134101,110.397691 L47.0134101,110.397691 L46.5151936,110.686133 L46.5151936,110.686133 L46.6259083,110.686133 L46.5041221,110.686133 C46.3601929,110.763791 46.3823358,110.686133 46.5041221,110.686133 L46.315907,110.763791 C45.8598645,110.912249 45.3936263,111.027191 44.9209007,111.107703 L44.9209007,111.107703 L44.5776849,111.107703 L44.0905399,111.107703 L43.282322,111.107703 C43.1937501,105.949018 43.1383927,100.790332 43.282322,95.5761764 C43.282322,93.4461385 43.3598223,91.3161005 43.5923233,89.1971565 C43.5923233,89.1971565 43.5923233,89.1971565 43.5923233,89.108405 L43.6919666,88.6424592 C43.7244897,88.4694933 43.768881,88.2989814 43.8248244,88.1321376 C43.8248244,88.043386 44.0573254,87.5774402 43.9687536,87.7438494 C44.0351825,87.610722 44.1016113,87.4775946 44.1791117,87.3444673 C44.256612,87.2113399 44.3562553,87.1114944 44.3673268,87.0893065 L44.5776849,86.8563336 L44.6441138,86.7786759 L44.7105426,86.7786759 L45.0759014,86.5678909 L45.1423303,86.5678909 C45.2736859,86.5488867 45.4032807,86.5192049 45.529832,86.4791394 L45.4191172,86.4791394 L45.6294753,86.4791394 L45.762333,86.6677365 Z M43.4594656,122.512281 C43.3930367,119.960673 43.3266079,117.420159 43.282322,114.868551 L44.0905399,114.868551 L44.3119694,114.868551 L44.6994712,114.868551 L44.7659,114.868551 L44.8766148,114.868551 L45.4301887,114.979491 C45.7786513,115.051138 46.1224899,115.143756 46.4598362,115.25684 L46.7919805,115.378873 L47.1684108,115.578564 L47.5891269,115.833725 L47.5891269,115.833725 L47.6666273,115.922476 C47.7773421,116.022322 47.8880568,116.144355 47.9987716,116.255295 L48.1648438,116.510456 C48.2312727,116.643583 48.3641304,117.076247 48.2534156,116.676865 L48.4084163,117.19828 C48.4032025,117.23879 48.4032025,117.279804 48.4084163,117.320314 C48.4084163,117.320314 48.4084163,117.420159 48.4084163,117.453441 C48.4084163,117.764072 48.4084163,118.074702 48.4084163,118.385333 C48.4084163,118.695963 48.4084163,118.829091 48.4084163,119.062064 C48.4084163,119.062064 48.3419874,119.428164 48.3198445,119.516915 C48.2977015,119.605667 48.2202012,119.927392 48.1537723,120.138177 L48.1537723,120.271304 C48.1537723,120.271304 48.0652005,120.470995 48.0319861,120.526465 C47.9987716,120.581934 47.8437709,120.848189 47.7551991,121.003504 L47.7551991,121.003504 L47.6223414,121.147726 L47.2348396,121.513826 L46.9580527,121.691329 C46.8694809,121.691329 46.4819791,121.924302 46.5151936,121.924302 L45.9616197,122.112899 L45.297331,122.268215 L44.7991145,122.356966 C44.4595891,122.356966 44.1163733,122.379154 43.769467,122.42353 L43.4594656,122.512281 Z" id="Shape" fill="#472821"></path>
                <path d="M86.1555778,111.894375 C86.1555778,110.607943 86.0898137,109.332698 86.0350102,108.046266 C86.0350102,103.35918 86.0898137,98.6609077 86.1007744,93.9738217 C86.1007744,91.1324856 86.1007744,88.2911495 86.1007744,85.4498134 C86.1079706,85.0822335 86.0004964,84.7218332 85.7938749,84.4206681 C85.5964473,83.6028049 84.8871556,83.0209397 84.0620854,83 C83.104531,83.0120664 82.3311581,83.8013622 82.3193351,84.7786317 C81.6397721,92.6090855 82.1878068,100.327676 82.5166276,108.102198 C82.5166276,109.332698 82.5166276,110.574384 82.5166276,111.81607 L77.0362809,111.995052 C77.0362809,110.563198 76.9705167,109.131343 76.9157133,107.699489 C76.9157133,106.938816 76.9157133,106.166957 76.8280277,105.395098 C76.8280277,101.63648 76.959556,97.8666759 77.0253202,94.1080581 C77.0837772,91.2592644 77.1130057,88.4104707 77.1130057,85.561677 C77.120202,85.1940971 77.0127278,84.8336969 76.8061063,84.5325317 C76.6053515,83.7168392 75.8980252,83.1365863 75.0743168,83.1118636 C74.1172805,83.1295531 73.3439383,83.9138847 73.3206058,84.8904953 C72.8931314,91.6176195 72.8931314,98.3659419 73.3206058,105.093066 C73.2548417,108.448975 73.2109989,111.804884 73.2109989,115.227911 C73.2109989,118.650938 73.2109989,121.939728 73.3315665,125.217333 C73.3315665,127.454605 76.8828312,127.521723 76.8280277,125.217333 C76.8280277,125.027164 76.8280277,124.848183 76.8280277,124.658014 C76.8339594,124.620972 76.8339594,124.583193 76.8280277,124.546151 C77.0033988,121.548206 77.0801237,118.55026 77.0801237,115.597061 L82.4837455,115.362147 L82.4837455,115.362147 C82.4837455,118.471956 82.4837455,121.570578 82.4837455,124.680387 L82.4837455,124.680387 L82.4837455,125.351569 C82.5560121,126.28231 83.3171529,127 84.2319761,127 C85.1467993,127 85.9079401,126.28231 85.9802067,125.351569 L85.9802067,124.658014 C86.1665385,121.436342 86.2323027,118.21467 86.2103813,114.992997 C86.7142277,114.639939 87.0107329,114.052295 86.9997027,113.42864 C86.9886725,112.804985 86.6715806,112.228645 86.1555778,111.894375 L86.1555778,111.894375 Z" id="Shape" fill="#472821"></path>
                <path d="M101.99752,124.895393 C101.985613,123.920849 101.199012,123.132008 100.221219,123.114031 L94.1549832,122.713225 C94.2667002,120.219319 94.3113871,117.71428 94.3002154,115.220374 L96.4563544,115.120172 C97.4298815,115.102366 98.2147881,114.320143 98.2326555,113.349944 C98.2382106,113.272108 98.2382106,113.193977 98.2326555,113.116141 C98.1990992,112.357778 97.6660636,111.713057 96.925566,111.535182 L94.2331851,111.123243 C94.2331851,110.009892 94.1661549,108.896541 94.1214681,107.861125 C94.1214681,103.185051 94.1214681,98.520111 94.1884983,93.8440374 C94.1884983,91.6173356 94.1884983,89.3906339 94.1884983,87.1639322 L99.159907,86.829927 C100.135238,86.8062266 100.918542,86.0206913 100.936208,85.0485656 C100.934932,84.8027325 100.881637,84.5599324 100.779804,84.336021 C100.535452,83.6569808 99.8836365,83.2089899 99.159907,83.2226702 L92.6132879,83.0890681 C92.4516376,83.0325206 92.2818633,83.0024417 92.1105612,83 C91.1332919,83.0234783 90.3466472,83.8074334 90.3230884,84.7813614 C89.6416144,92.5080163 90.2001997,100.245805 90.5241791,107.983593 L90.5241791,115.264908 C90.5241791,118.34889 90.5241791,121.444005 90.5241791,124.527987 L90.5241791,124.527987 C90.5129964,124.586843 90.5129964,124.647267 90.5241791,124.706123 L90.5241791,125.195998 C90.5182043,125.745722 90.7754091,126.265389 91.2167232,126.595243 C91.6580373,126.925097 92.2306471,127.025663 92.7585201,126.866024 C92.9928705,126.959211 93.2435862,127.00464 93.4958526,126.999626 L100.198876,126.85489 C100.920641,126.870704 101.570359,126.421054 101.807601,125.741539 C101.948238,125.482432 102.013983,125.18952 101.99752,124.895393 L101.99752,124.895393 Z" id="Shape" fill="#472821"></path>
                <path d="M78.8148926,66.8110598 C78.8148926,65.4539343 78.8148926,64.0852095 78.9046064,62.7164847 C78.9276936,62.2553078 78.7598619,61.8057752 78.4430974,61.4803458 C78.1263329,61.1549163 77.6905984,60.9843723 77.2449007,61.0113784 C76.7801487,60.9561494 76.314153,61.1035992 75.9588156,61.4183198 C75.6034782,61.7330405 75.3908986,62.1866017 75.3721247,62.6700873 C75.3721247,64.0388121 75.3721247,65.4075369 75.3721247,66.7646623 C75.3721247,67.1010438 75.3721247,67.4374254 75.3721247,67.7738069 C67.5782365,66.2542904 59.672206,66.6138706 51.8222467,67.6462139 C43.1760772,68.8061501 34.597193,70.3604647 25.8613097,70.5228558 L24.8183866,70.5228558 C19.6872092,70.5083344 14.5677476,70.0152987 9.52218006,69.0497368 C9.52218006,68.3073776 9.52218006,67.553419 9.4548947,66.8110598 C9.4548947,65.4539343 9.4548947,64.0852095 9.54460852,62.7164847 C9.56950033,62.2444238 9.3942699,61.7845789 9.06467793,61.4570367 C8.73508596,61.1294945 8.28385848,60.9667774 7.82883169,61.0113784 C7.37322395,60.9731087 6.92217811,61.1282716 6.57948328,61.4411628 C6.23678845,61.7540539 6.03195866,62.1977263 6.01212682,62.6700873 C6.01212682,64.0388121 6.01212682,65.4075369 6.01212682,66.7646623 C6.01212682,70.2444711 6.01212682,73.7242799 6.07941218,77.2040887 C6.07941218,77.5288709 6.07941218,77.8420537 6.00091259,78.1552365 C5.98577544,78.6369537 6.15947764,79.1045566 6.48257118,79.4518517 C6.80566471,79.7991469 7.25072903,79.9966598 7.71668942,79.9995351 C7.92778112,80.0047982 8.13768117,79.9653239 8.33347193,79.8835415 C9.07757515,79.717813 9.58962661,79.0099803 9.53339429,78.2248326 C9.53339429,77.9116499 9.53339429,77.5984671 9.53339429,77.2736849 C9.63432234,75.7773671 9.64553657,74.26945 9.63432234,72.7615328 C15.0728409,73.7377732 20.5892786,74.1728037 26.1080227,74.0606614 C29.2928634,74.0606614 32.4851802,73.8828045 35.6849731,73.5270908 C43.9947158,72.6687379 52.2259589,71.0912246 60.5805585,70.7664424 C65.5202743,70.5628478 70.4678048,70.7839959 75.3721247,71.4276061 C75.3721247,73.376299 75.3721247,75.324992 75.4618385,77.2272875 C75.4618385,77.5520696 75.4618385,77.8652524 75.3833389,78.1784352 C75.389456,79.1559435 76.1540637,79.9468106 77.0991158,79.9531377 C77.313753,79.9571362 77.5270788,79.917734 77.7271125,79.8371441 C78.4667205,79.6664788 78.9730057,78.9600146 78.9158206,78.1784352 C78.9158206,77.8652524 78.9158206,77.5520696 78.9158206,77.2272875 C79.1176767,73.8054755 78.9046064,70.3024679 78.8148926,66.8110598 Z" id="Shape" fill="#F14F10"></path>
                <path d="M97.4409222,79.9997728 C97.6209537,80.0027501 97.8002178,79.9764456 97.9711816,79.9219648 C98.4689978,80.0185624 98.9855008,79.8947942 99.3785129,79.5847299 C99.7715251,79.2746656 99.9996164,78.8109912 100,78.3213423 C100,76.5651038 99.8501441,74.7977498 99.7233429,73.0415113 C99.6585517,70.8662457 99.4428923,68.6975976 99.0778098,66.550098 C98.7803407,65.1473656 98.0488438,63.8645478 96.9798272,62.8708895 C95.7565565,61.8040639 94.2073174,61.148787 92.5648416,61.0034966 L92.48415,61.0034966 L92.0345823,61.0034966 L92.0345823,61.0034966 C88.0586643,60.8868592 84.6411302,63.701183 84.1383289,67.5060253 C83.9538904,69.9296367 83.9538904,72.363023 84.1383289,74.7866344 C84.1383289,75.9648704 84.2074931,77.1542218 84.2536026,78.3324578 C84.2695195,78.8087172 84.4919172,79.256692 84.8666517,79.5673202 C85.2413862,79.8779483 85.7340801,80.0227334 86.2247841,79.9664265 C86.7146104,80.0313542 87.2094138,79.8867524 87.579446,79.5705387 C87.9494782,79.2543251 88.157826,78.7980439 88.1498561,78.3213423 L88.1498561,73.3972052 L95.7348704,73.0748576 L95.7348704,73.3972052 C95.8617063,75.0288853 95.8617063,76.6674313 95.7348704,78.2991115 C95.7403162,79.2147466 96.492058,79.9641132 97.4409222,79.9997728 Z M88.1498561,70.5405387 C88.1498561,69.7068812 88.1498561,68.8509928 88.1498561,68.0173353 C88.1955435,67.5365985 88.300015,67.0627563 88.4610953,66.6056752 C88.5625686,66.3913282 88.6780755,66.1834205 88.8069167,65.9832109 C88.8744559,65.8298516 88.9768851,65.6930948 89.1066285,65.5830553 C89.3759262,65.244133 89.7231884,64.9701628 90.1210377,64.7827441 L90.5360232,64.5937817 C90.7573726,64.5140846 90.9847474,64.4509111 91.2161385,64.4048193 L91.4927956,64.4048193 L92.2536025,64.4048193 C92.1844382,64.4048193 92.668588,64.4715119 92.7492797,64.4937428 C92.8299713,64.5159737 93.3487033,64.704936 93.2103748,64.6382434 C93.5951517,64.7912711 93.94116,65.0225466 94.224784,65.3162849 C94.8743867,66.0153272 95.2778979,66.8946736 95.3775217,67.8283729 C95.4927955,68.6286841 95.5734871,69.4512262 95.6195966,70.2737683 L88.1498561,70.5405387 Z" id="Shape" fill="#F14F10"></path>
            </g>
        </g>
    </g>
</svg>