<?xml version="1.0" encoding="UTF-8"?>
<svg width="23px" height="17px" viewBox="0 0 23 17" version="1.1" xmlns="http://www.w3.org/2000/svg" xmlns:xlink="http://www.w3.org/1999/xlink">
    <!-- Generator: sketchtool 53.1 (72631) - https://sketchapp.com -->
    <title>6A9A6662-EAF3-4656-9A90-6815BE9DF573</title>
    <desc>Created with sketchtool.</desc>
    <g id="design" stroke="none" stroke-width="1" fill="none" fill-rule="evenodd">
        <g id="2-slide" transform="translate(-52.000000, -308.000000)">
            <g id="nigiri-i-sashimi" transform="translate(52.000000, 308.000000)">
                <rect id="Rectangle" fill="#F15A24" x="1.08848837" y="1.6415625" width="20.7561628" height="5.19828125" rx="2.59914062"></rect>
                <path d="M21.9302326,6.88765625 C22.8368605,5.9128125 22.852907,4.19421875 22.6122093,2.78640625 C22.3126744,1.0146875 20.7401163,0.8446875 19.2745349,0.8446875 L13.372093,0.8446875 C13.2147103,0.341116067 12.7449483,-0.00153862037 12.2140698,-1.17960349e-16 L10.4302326,-1.17960349e-16 C9.90132908,0.000790984008 9.43435654,0.342991576 9.27755814,0.8446875 L6.53627907,0.8446875 C5.2472093,0.8446875 3.93674419,0.775625 2.65034884,0.8446875 C0.203255814,0.97484375 0.216627907,3.26984375 0.286162791,5.131875 C0.323604651,6.109375 0.700697674,6.7521875 1.29709302,7.1453125 C0.95956464,7.58813605 0.794322005,8.13708937 0.831744186,8.69125 C0.863343582,9.12505497 1.02131113,9.54036368 1.28639535,9.8865625 C0.955786371,10.3283232 0.794585661,10.8726822 0.831744186,11.421875 C0.861283461,11.8312135 1.00378273,12.22456 1.24360465,12.55875 C0.173837209,14.035625 1.24360465,16.1739063 3.17453488,16.2323438 C3.41883248,16.2475293 3.6536194,16.135959 3.795,15.9375 C4.25387955,16.3165304 4.84148256,16.5066318 5.43709302,16.46875 C5.87391015,16.4355425 6.29179507,16.277825 6.6405814,16.0145313 C7.08364216,16.3445046 7.63118324,16.5056717 8.18372093,16.46875 C8.58028555,16.4384244 8.96197647,16.3056486 9.29093023,16.0835938 C9.45279843,16.5732986 9.9113026,16.9057542 10.4302326,16.9096875 L12.2060465,16.9096875 C12.592065,16.909147 12.954286,16.7243251 13.1795349,16.4129688 C13.8428978,16.5635 14.5391609,16.4050441 15.0703488,15.9826563 C15.4722645,16.2858251 15.970793,16.4348392 16.4744186,16.4023438 C16.7887022,16.382799 17.0942868,16.2919281 17.3676744,16.1367188 C17.9748828,16.490695 18.7229259,16.508767 19.3467442,16.1845313 C19.4484088,16.2223794 19.5564638,16.2404165 19.665,16.2376563 C21.5531395,16.181875 22.6068605,14.1126563 21.6574419,12.654375 C22.0830288,12.2651322 22.3431782,11.7293694 22.3848837,11.15625 C22.423234,10.6069278 22.2619141,10.0621662 21.9302326,9.6209375 C22.1961379,9.27496789 22.3550286,8.85967494 22.3875581,8.425625 C22.4245978,7.8752121 22.2624062,7.32976766 21.9302326,6.88765625 Z M19.7505814,2.4384375 C20.3255814,2.4384375 20.7989535,2.3215625 21.0423256,3.16359375 C21.2188372,3.77453125 21.2723256,5.93671875 20.3496512,6.04296875 L13.4255814,6.04296875 L13.4255814,2.4384375 L19.7505814,2.4384375 Z M1.89081395,3.26984375 C2.15825581,2.093125 3.54895349,2.4384375 4.43151163,2.4384375 L9.22406977,2.4384375 L9.22406977,6.109375 C7.17397029,6.1949612 5.12076189,6.17368197 3.07290698,6.045625 C1.73569767,5.93671875 1.62069767,4.42 1.89081395,3.26984375 Z M7.55255814,14.6598438 C7.69697674,13.886875 6.59244186,13.5415625 6.11639535,14.1285938 C5.96156409,14.2601262 5.85834986,14.4416402 5.82488372,14.64125 C5.46116279,15.076875 4.77651163,14.843125 4.53046512,14.311875 C4.1827907,13.5495312 3.19325581,13.9532812 3.07825581,14.630625 C2.82329522,14.6055939 2.60077905,14.4482558 2.49351968,14.2171661 C2.3862603,13.9860764 2.41031983,13.7158409 2.55674419,13.5070312 C3.49546512,13.7726562 3.89395349,12.2957812 2.93383721,11.9584375 C2.33744186,11.7459375 2.33209302,11.1775 2.645,10.8003125 C3.42593023,10.94375 3.77360465,9.8440625 3.17988372,9.37390625 C3.05040997,9.22047687 2.87209453,9.11552632 2.6744186,9.07640625 C2.23581395,8.7178125 2.47116279,8.03515625 3.00604651,7.7934375 C3.09102839,7.75578734 3.16813893,7.70262717 3.23337209,7.63671875 L9.22406977,7.63671875 L9.22406977,13.8735937 C8.98628192,13.9524759 8.7992867,14.1372181 8.71860465,14.3729688 C8.50732558,14.9653125 7.935,14.970625 7.55255814,14.6598438 Z M18.3973256,14.8032812 C18.5577907,14.1339062 17.792907,13.7620312 17.2526744,14.0064062 C17.0926262,13.9935771 16.932384,14.028739 16.7926744,14.1073438 C16.5392925,14.2502288 16.3914468,14.5252978 16.412907,14.8139063 C16.2419319,14.8068768 16.0805783,14.7334254 15.9636047,14.609375 C16.0572093,13.7832813 14.6932558,13.483125 14.3723256,14.3782813 C14.3210274,14.5717597 14.1839779,14.7315976 13.9998327,14.8127117 C13.8156875,14.8938258 13.604406,14.8874242 13.4255814,14.7953125 L13.4255814,7.63671875 L20.1544186,7.63671875 C20.2193242,7.6433632 20.2847456,7.6433632 20.3496512,7.63671875 L20.3897674,7.63671875 C20.7936047,7.93421875 20.9246512,8.5 20.5448837,8.81609375 C20.3436939,8.85046712 20.1610275,8.9538702 20.0287209,9.10828125 C19.4430233,9.5784375 19.7906977,10.678125 20.5636047,10.5346875 C20.8765116,10.9145313 20.8711628,11.4803125 20.2747674,11.6928125 C20.0169053,11.7874608 19.8205195,11.999379 19.7468875,12.2624427 C19.6732556,12.5255065 19.7313424,12.8076874 19.9030233,13.0209375 C19.952072,13.1221715 20.0212068,13.2125204 20.1062791,13.2865625 C20.3826979,13.5154658 20.4788586,13.8953494 20.3443023,14.226875 C20.147979,13.9991889 19.845419,13.891047 19.5480381,13.942272 C19.2506572,13.9934969 19.0024311,14.1965136 18.8947674,14.4765625 C18.8440149,14.7003503 18.6245286,14.8445084 18.3973256,14.8032812 L18.3973256,14.8032812 Z" id="Shape" fill="#42210B" fill-rule="nonzero"></path>
            </g>
        </g>
    </g>
</svg>