<?xml version="1.0" encoding="UTF-8"?>
<svg width="24px" height="13px" viewBox="0 0 24 13" version="1.1" xmlns="http://www.w3.org/2000/svg" xmlns:xlink="http://www.w3.org/1999/xlink">
    <!-- Generator: sketchtool 53 (72520) - https://sketchapp.com -->
    <title>D6086813-F96B-4594-B18E-9EDCE21DC99D</title>
    <desc>Created with sketchtool.</desc>
    <g id="design" stroke="none" stroke-width="1" fill="none" fill-rule="evenodd">
        <g id="catalog-round-ingridients" transform="translate(-622.000000, -139.000000)" fill-rule="nonzero">
            <g id="perec" transform="translate(622.000000, 139.000000)">
                <path d="M6.89,6.76 C5.98,9.31666667 6.28333333,11.3533333 7.58333333,11.7866667 C10.3566667,12.74 23.1833333,13.52 23.1833333,4.68 C23.1833333,2.08 22.0566667,0 19.2833333,0 C18.2373034,0.0339154691 17.2476612,0.482266971 16.5324033,1.24629247 C15.8171454,2.01031797 15.4349477,3.0273409 15.47,4.07333333 C15.4683157,4.26184699 15.5485597,4.44180543 15.68992,4.56653512 C15.8312803,4.69126481 16.0198298,4.74847701 16.2066667,4.72333333 L16.2066667,4.72333333 C16.4532792,4.71088772 16.6715433,4.55978181 16.77,4.33333333 C16.77,2.08 18.46,1.51666667 19.6733333,1.69 C20.8866667,1.86333333 21.71,3.20666667 21.2766667,5.07 C20.8433333,6.93333333 16.9433333,9.1 12.61,6.5 C9.36,4.33333333 7.88666667,4.33333333 6.89,6.76 Z" id="Path" fill="#F14F10"></path>
                <path d="M7.67,3.38 C6.98150955,2.8433327 6.09050398,2.6395566 5.23718304,2.82360622 C4.3838621,3.00765583 3.65606746,3.56058492 3.25,4.33333333 C3.11937565,4.46836928 2.93954277,4.54461377 2.75166667,4.54461377 C2.56379057,4.54461377 2.38395769,4.46836928 2.25333333,4.33333333 C1.38666667,3.9 1.17,3.25 1.34333333,2.81666667 C1.39361897,2.63759713 1.51374367,2.48624057 1.6767164,2.39660557 C1.83968913,2.30697057 2.03184206,2.28657443 2.21,2.34 C2.56736173,2.42415981 2.92837895,2.21514984 3.03333333,1.86333333 C3.11497995,1.51664999 2.90242142,1.16882695 2.55666667,1.08333333 C2.04546888,0.906748139 1.48446027,0.945463691 1.00236551,1.19059662 C0.520270757,1.43572954 0.158477492,1.86623529 0,2.38333333 C0,3.33666667 0,4.76666667 1.95,5.93666667 C2.21274269,6.08137936 2.35263056,6.37864108 2.29666667,6.67333333 C2.21099838,7.18980494 2.21099838,7.71686172 2.29666667,8.23333333 C2.46260664,9.75554308 3.60756903,10.9885795 5.11333333,11.2666667 C5.26860918,11.3273151 5.44526472,11.2825672 5.55294316,11.1553109 C5.6606216,11.0280545 5.67551275,10.8464291 5.59,10.7033333 C5.08677439,8.37715029 5.84387385,5.95772376 7.58333333,4.33333333 C7.84658906,4.35726567 8.07940099,4.16325573 8.10333333,3.9 C8.12726567,3.63674427 7.93325573,3.40393234 7.67,3.38 Z" id="Path" fill="#2EBD9D"></path>
            </g>
        </g>
    </g>
</svg>