<?xml version="1.0" encoding="UTF-8"?>
<svg width="22px" height="26px" viewBox="0 0 22 26" version="1.1" xmlns="http://www.w3.org/2000/svg" xmlns:xlink="http://www.w3.org/1999/xlink">
    <!-- Generator: sketchtool 53.1 (72631) - https://sketchapp.com -->
    <title>B215090C-E7BA-4473-BF4C-CBC3C30D21BB</title>
    <desc>Created with sketchtool.</desc>
    <g id="design" stroke="none" stroke-width="1" fill="none" fill-rule="evenodd">
        <g id="2-slide" transform="translate(-53.000000, -398.000000)">
            <g id="rise" transform="translate(53.000000, 398.000000)">
                <path d="M1.10926316,16.3823009 L20.7170526,16.3823009 C21.6109474,16.3823009 21.6132632,15.0017699 20.7170526,15.0017699 L1.10926316,15.0017699 C0.215368421,15.0017699 0.213052632,16.3823009 1.10926316,16.3823009 Z" id="Path" fill="#F15A24"></path>
                <path d="M21.8263158,12.8274336 C21.8376681,12.6228346 21.7456024,12.426081 21.5808421,12.3028319 C21.5337896,12.2584681 21.479831,12.2219502 21.4210526,12.1946903 C21.5901752,11.3995579 21.3546148,10.5726585 20.7911579,9.98353982 C20.5740728,9.7615419 20.3152059,9.58408108 20.0292632,9.46123894 C20.1745841,8.73044221 19.9912329,7.97304114 19.5273339,7.38783173 C19.063435,6.80262232 18.3653151,6.44804574 17.6162105,6.41716814 C17.5395262,5.64594227 17.1054134,4.95430092 16.4421053,4.54654867 L17.8084211,1.11823009 C18.1372632,0.292212389 16.7941053,-0.0667256637 16.4698947,0.750088496 L15.0966316,4.20141593 C14.8702226,4.20900846 14.6458813,4.24693199 14.4296842,4.31415929 C14.071772,3.70881274 13.4711842,3.28369137 12.778425,3.14532846 C12.0856658,3.00696555 11.3663891,3.16847398 10.8008421,3.58938053 C9.72776762,2.87740041 8.28836083,3.07507044 7.44989474,4.04955752 C7.0037193,2.92979351 6.55831579,1.8100295 6.11368421,0.690265487 C5.78947368,-0.124247788 4.444,0.230088496 4.77284211,1.05840708 L6.14378947,4.50973451 C5.25657122,4.71593174 4.56112469,5.39978811 4.34442105,6.27911504 C3.66876366,6.31583467 3.03698312,6.62324582 2.59353055,7.13106159 C2.15007799,7.63887736 1.93287348,8.30367393 1.99157895,8.97345133 C1.53502978,9.17533347 1.15416789,9.51509792 0.903157895,9.94442478 C0.515609478,10.6144907 0.462580508,11.425201 0.759578947,12.139469 L0.694736842,12.139469 C0.311044279,12.139469 4.69887869e-17,12.4485114 0,12.8297345 C0.0638702317,16.7196296 2.1724479,20.2924891 5.55789474,22.2472566 C5.31396491,23.199823 5.07003509,24.1539233 4.82610526,25.1095575 C4.7691223,25.3169666 4.81266254,25.5389129 4.94387275,25.7098769 C5.07508296,25.880841 5.27897841,25.9812981 5.49536842,25.9815929 L16.5509474,25.9815929 C16.7677444,25.9820156 16.9723121,25.8818596 17.1040563,25.7107917 C17.2358005,25.5397237 17.2796167,25.3173569 17.2225263,25.1095575 C16.9677895,24.1155752 16.7138246,23.1231268 16.4606316,22.1322124 C19.7376247,20.1508332 21.7631493,16.638316 21.8263158,12.8274336 Z M2.26252632,11.9761062 C1.66736842,11.18 2.10736842,9.92141593 3.25831579,10.1123894 C4.13368421,10.259646 4.50884211,8.92973451 3.62652632,8.78247788 C3.54547368,8.76867257 3.46442105,8.75946903 3.38336842,8.75256637 C3.36986357,8.42527384 3.50544972,8.10934607 3.75250591,7.89244328 C3.9995621,7.67554048 4.3318069,7.58073642 4.65705263,7.63433628 C4.74212996,7.67711085 4.83363861,7.70586323 4.928,7.71946903 C4.966847,7.73398177 5.00474513,7.75088775 5.04147368,7.7700885 C5.82884211,8.19575221 6.53052632,7.00389381 5.73621053,6.57823009 L5.73621053,6.57823009 C5.85105826,6.14984876 6.20655468,5.8271978 6.64631579,5.75221239 C7.10947368,6.92259587 7.57649123,8.09374631 8.04736842,9.26566372 C8.37389474,10.0824779 9.71705263,9.72584071 9.38821053,8.89982301 L8.29747368,6.16176991 C8.70273684,5.97769912 8.94589474,5.44849558 8.52905263,5.07115044 L8.48505263,5.03433628 C8.87178947,4.44761062 9.68,4.27044248 10.2103158,4.84566372 L10.2473684,4.88707965 C10.2837178,4.92971546 10.3177318,4.97426363 10.3492632,5.02053097 C10.7707368,5.65557522 11.7178947,5.23221239 11.66,4.62707965 C11.9255992,4.44626308 12.2562128,4.38658919 12.5688504,4.46303731 C12.8814879,4.53948542 13.1464635,4.74479659 13.2972632,5.02743363 C13.1282105,5.34955752 13.3458947,5.71769912 13.6793684,5.87876106 C13.8767391,6.02942752 14.1316693,6.08430691 14.3741053,6.02831858 C13.9757895,7.00849558 13.5844211,7.99020649 13.2,8.97345133 C12.8711579,9.79946903 14.2143158,10.1584071 14.5408421,9.34159292 L15.9303158,5.89026549 C16.1712834,6.14738137 16.2879084,6.49584426 16.2498947,6.84513274 L16.2082105,6.87044248 C15.4717895,7.36743363 16.1665263,8.56389381 16.9029474,8.06460177 C17.7621053,7.48707965 18.9315789,8.08761062 18.6907368,9.18743363 C18.6846018,9.21856194 18.6807322,9.25008899 18.6791579,9.28176991 C18.5017964,9.30252898 18.3271413,9.34186269 18.1581053,9.39911504 C17.3221053,9.6959292 17.6810526,11.0304425 18.5263158,10.7313274 C19.4526316,10.4 20.4136842,11.1915044 20.02,12.1532743 L2.35284211,12.1532743 C2.33067345,12.0905443 2.30030852,12.0309789 2.26252632,11.9761062 Z M15.6593684,24.6010619 L6.39621053,24.6010619 C6.55059649,24.0227729 6.69803509,23.4452507 6.83852632,22.8684956 C9.52049901,23.9664068 12.536435,23.9340164 15.1938947,22.7787611 L15.6593684,24.6010619 Z M10.9143158,22.300177 C5.896,22.2978761 1.85263158,18.3610619 1.42884211,13.5176991 L20.3974737,13.5176991 C19.9736842,18.3679646 15.9303158,22.2840708 10.9143158,22.2909735 L10.9143158,22.300177 Z" id="Shape" fill="#42210B" fill-rule="nonzero"></path>
                <path d="M5.44673684,10.2343363 C5.76619127,10.4212806 6.17216426,10.3719348 6.43683986,10.1139899 C6.70151545,9.85604503 6.75900677,9.45371239 6.57705196,9.13276513 C6.39509715,8.81181787 6.01899104,8.65215083 5.65978947,8.74336283 C5.55670655,8.76983013 5.46042391,8.81766161 5.37726316,8.88371681 C5.20334666,8.99551735 5.08871369,9.17859331 5.06463158,9.38300885 C5.0293569,9.50634915 5.0293569,9.63701368 5.06463158,9.76035398 C5.13109387,9.95853445 5.26659846,10.1266211 5.44673684,10.2343363 Z M6.41242105,9.66371681 L6.41242105,9.69132743 C6.39852632,9.72814159 6.38231579,9.76495575 6.36842105,9.79946903 C6.38231579,9.74424779 6.39852632,9.70053097 6.41242105,9.66371681 Z" id="Shape" fill="#42210B" fill-rule="nonzero"></path>
                <path d="M11.5581053,8.18424779 C11.9678929,8.12367115 12.2667687,7.76732851 12.2528421,7.3559292 C12.2361625,6.94657541 11.9176482,6.61242061 11.5071579,6.57362832 C11.4126016,6.55614273 11.3150599,6.5640865 11.2246316,6.59663717 L11.1528421,6.62654867 L11.1296842,6.62654867 L11.0347368,6.67256637 L11.0208421,6.67256637 C10.9009561,6.73788095 10.800969,6.83404552 10.7313684,6.95097345 C10.5677978,7.22014828 10.5763382,7.55917723 10.753257,7.8198849 C10.9301759,8.08059257 11.2433053,8.21557644 11.5557895,8.16584071 L11.5581053,8.18424779 Z M11.6692632,7.89433628 C11.6966705,7.8828312 11.723016,7.8689734 11.748,7.85292035 L11.7341053,7.86672566 L11.6692632,7.89433628 Z" id="Shape" fill="#42210B" fill-rule="nonzero"></path>
                <path d="M11.2663158,11.099469 C11.6726766,11.0360178 11.9682905,10.6824423 11.9565424,10.2739081 C11.9447944,9.86537382 11.6293442,9.52914491 11.22,9.48884956 C11.1246792,9.47128236 11.0263708,9.47922348 10.9351579,9.51185841 L10.8633684,9.54176991 L10.8402105,9.54176991 L10.7452632,9.58778761 L10.7313684,9.58778761 C10.6077599,9.66062653 10.5074064,9.76671546 10.4418947,9.89380531 C10.2783241,10.1629801 10.2868645,10.5020091 10.4637833,10.7627168 C10.6407022,11.0234244 10.9538316,11.1584083 11.2663158,11.1086726 L11.2663158,11.099469 Z M11.3774737,10.8141593 C11.405401,10.8021872 11.4324804,10.7883502 11.4585263,10.7727434 L11.4423158,10.7865487 L11.3774737,10.8141593 Z" id="Shape" fill="#42210B" fill-rule="nonzero"></path>
            </g>
        </g>
    </g>
</svg>