<?xml version="1.0" encoding="UTF-8"?>
<svg width="31px" height="19px" viewBox="0 0 31 19" version="1.1" xmlns="http://www.w3.org/2000/svg" xmlns:xlink="http://www.w3.org/1999/xlink">
    <!-- Generator: sketchtool 53.1 (72631) - https://sketchapp.com -->
    <title>09912D6A-194B-4488-97AC-D9875F0C6238</title>
    <desc>Created with sketchtool.</desc>
    <g id="design" stroke="none" stroke-width="1" fill="none" fill-rule="evenodd">
        <g id="2-slide" transform="translate(-47.000000, -217.000000)">
            <g id="rolli" transform="translate(64.027240, 229.179621) rotate(52.000000) translate(-64.027240, -229.179621) translate(53.945273, 214.179621)">
                <circle id="Oval" fill="#F15A24" cx="11.1639344" cy="8.99754098" r="2.18852459"></circle>
                <path d="M18.7967213,5.76393443 C17.9508197,6.76557377 17.1057377,7.76557377 16.2614754,8.76393443 C16.045082,6.08114754 13.947541,3.89016393 11.1639344,3.88032787 C9.78918216,3.88402664 8.47485561,4.44578809 7.52213115,5.43688525 L7.52213115,0.713114754 C7.52213115,-0.236065574 6.04672131,-0.23852459 6.04672131,0.713114754 L6.04672131,20.847541 L2.7295082,24.7819672 L0.430327869,27.4918033 C-0.179508197,28.2122951 0.860655738,29.2622951 1.47540984,28.5245902 L6.04672131,23.1147541 L6.04672131,29.1516393 C6.04672131,30.1008197 7.52213115,30.1032787 7.52213115,29.1516393 L7.52213115,21.3786885 L17.5401639,9.52868852 L19.8393443,6.80901639 C20.4491803,6.08606557 19.4090164,5.03852459 18.7967213,5.76393443 Z M11.1737705,5.3557377 C13.2098361,5.3557377 14.7393443,7.01065574 14.8155738,8.99754098 C14.7393443,10.9819672 13.2098361,12.6368852 11.1737705,12.6368852 C9.85056019,12.6712776 8.61287568,11.9850083 7.94114272,10.8444632 C7.26940976,9.70391808 7.26940976,8.28870487 7.94114272,7.14815975 C8.61287568,6.00761464 9.85056019,5.3213454 11.1737705,5.3557377 L11.1737705,5.3557377 Z M11.7811475,14.0729508 L7.52213115,19.1016393 L7.52213115,12.5557377 C8.47745403,13.5430668 9.79010995,14.1041142 11.1639344,14.1122951 C11.3670097,14.1116766 11.5698536,14.0985369 11.7713115,14.0729508 L11.7811475,14.0729508 Z" id="Shape" fill="#42210B" fill-rule="nonzero"></path>
            </g>
        </g>
    </g>
</svg>