<?xml version="1.0" encoding="UTF-8"?>
<svg width="22px" height="27px" viewBox="0 0 22 27" version="1.1" xmlns="http://www.w3.org/2000/svg" xmlns:xlink="http://www.w3.org/1999/xlink">
    <!-- Generator: sketchtool 53.1 (72631) - https://sketchapp.com -->
    <title>19660E50-3B58-4CE9-BA1C-17473B42DF48</title>
    <desc>Created with sketchtool.</desc>
    <g id="design" stroke="none" stroke-width="1" fill="none" fill-rule="evenodd">
        <g id="2-slide" transform="translate(-54.000000, -495.000000)">
            <g id="salad" transform="translate(54.000000, 495.000000)">
                <path d="M1.10926316,17.2613793 L20.7170526,17.2613793 C21.6109474,17.2613793 21.6132632,15.8648276 20.7170526,15.8648276 L1.10926316,15.8648276 C0.215368421,15.8648276 0.213052632,17.2613793 1.10926316,17.2613793 Z" id="Path" fill="#F15A24"></path>
                <path d="M21.8263158,13.6652586 C21.8380874,13.4582044 21.7459341,13.2589783 21.5808421,13.134569 C21.4579972,13.0228904 21.2971699,12.9628979 21.1315789,12.9669828 L19.8532632,12.9669828 C20.2538947,11.1491379 19.6494737,9.02637931 18.3294737,7.76948276 C18.2493913,7.69651216 18.1546102,7.64173541 18.0515789,7.60887931 C18.8312281,5.64905172 19.6070175,3.68922414 20.3789474,1.72939655 C20.7101053,0.893793103 19.3669474,0.530689655 19.0404211,1.35931034 L16.9747368,6.57543103 C16.3965024,5.12107591 15.6168793,3.75605423 14.6589474,2.52077586 C14.388,2.16232759 13.9202105,2.03896552 13.5682105,2.3787931 C11.9320079,4.01269849 10.8813411,6.14602057 10.5808421,8.44448276 C10.1794605,8.31529244 9.74882344,8.30961862 9.34421053,8.42818966 C8.32680702,5.85387931 7.31017544,3.27724138 6.29431579,0.698275862 C5.96778947,-0.125689655 4.63157895,0.232758621 4.95347368,1.07068966 L7.37810526,7.21551724 C5.93046271,6.91667278 4.46320166,7.63019286 3.79789474,8.95655172 C2.66518279,8.74435485 1.53893327,9.35642306 1.09536842,10.4252586 C0.704272069,11.2372696 0.746051531,12.1925942 1.20652632,12.9669828 L0.694736842,12.9669828 C0.311044279,12.9669828 4.69887869e-17,13.2796115 0,13.6652586 C0.0630641538,17.6011301 2.17174872,21.2165181 5.55789474,23.1943966 C5.31396491,24.1580172 5.07003509,25.1231897 4.82610526,26.0899138 C4.7691223,26.2997298 4.81266254,26.5242517 4.94387275,26.6971998 C5.07508296,26.8701478 5.27897841,26.9717707 5.49536842,26.972069 L16.5509474,26.972069 C16.7677444,26.9724966 16.9723121,26.8711782 17.1040563,26.6981251 C17.2358005,26.525072 17.2796167,26.3001246 17.2225263,26.0899138 C16.9677895,25.0843966 16.7138246,24.080431 16.4606316,23.0780172 C19.7376247,21.0736446 21.7631493,17.5203654 21.8263158,13.6652586 Z M18.4313684,12.9669828 L14.6890526,12.9669828 L17.3313684,9.91086207 C17.393182,9.86488509 17.4445039,9.80615941 17.4818947,9.73862069 L17.8315789,9.33594828 C18.5263158,10.3577586 18.8250526,11.8125 18.4313684,12.9669828 Z M16.1155789,8.74474138 C16.0067368,9.01706897 15.9002105,9.29172414 15.7913684,9.56405172 L14.5084211,11.0467241 L14.5084211,7.48551724 C14.5084211,6.58474138 13.1189474,6.58474138 13.1189474,7.48551724 L13.1189474,12.6527586 L12.8526316,12.9669828 L12.4404211,12.9669828 C12.8198415,11.7688127 12.6100935,10.4607142 11.8753684,9.44301724 C11.9669777,7.43169558 12.7093544,5.50541361 13.9896842,3.95689655 C14.9785263,5.3837069 15.8863158,7.05025862 16.1202105,8.74474138 L16.1155789,8.74474138 Z M2.29263158,11.1724138 C2.52421053,10.4741379 3.17726316,10.0900862 3.86505263,10.434569 C4.05258114,10.5442307 4.28031361,10.559543 4.4807039,10.4759643 C4.68109418,10.3923855 4.83113204,10.2195128 4.88631579,10.0086207 C5.28694737,8.41887931 7.60505263,7.81836207 8.18631579,9.61758621 C8.31831579,10.0202586 8.81852632,10.2972414 9.20757895,10.0342241 C10.1871579,9.37318966 11.0046316,10.2437069 11.264,11.2375862 C11.3999799,11.7038003 11.349286,12.2049687 11.1227368,12.6341379 C11.0424695,12.7482242 10.955065,12.8570645 10.8610526,12.96 L3.14484211,12.96 C2.48484211,12.582931 2.02168421,11.9800862 2.29263158,11.1724138 Z M15.6593684,25.5871552 L6.39621053,25.5871552 C6.55059649,25.0037069 6.69803509,24.4194828 6.83852632,23.8344828 C9.52081256,24.944395 12.5367501,24.9107886 15.1938947,23.7413793 L15.6593684,25.5871552 Z M10.9143158,23.259569 C5.896,23.259569 1.85263158,19.2840517 1.41957895,14.3844828 L10.9444211,14.3844828 C11.0708008,14.4392349 11.2140413,14.4392349 11.3404211,14.3844828 L18.8667368,14.3844828 C18.9258159,14.3937758 18.9859736,14.3937758 19.0450526,14.3844828 L20.3974737,14.3844828 C19.9736842,19.2700862 15.9303158,23.2316379 10.9143158,23.2386207 L10.9143158,23.259569 Z" id="Shape" fill="#42210B" fill-rule="nonzero"></path>
                <path d="M17.7597895,11.0583621 C17.7349177,10.993339 17.6628817,10.9602405 17.5976842,10.9838793 C17.5661932,10.9953875 17.5406146,11.0191167 17.5266834,11.0497466 C17.5127521,11.0803765 17.5116337,11.1153444 17.5235789,11.1468103 C17.5474603,11.2115235 17.6187929,11.2447738 17.6833684,11.2212931 C17.7489789,11.1972282 17.7830697,11.124546 17.7597895,11.0583621 L17.7597895,11.0583621 Z" id="Path" fill="#42210B"></path>
                <path d="M17.4957895,12.2477586 C17.4481409,12.2650844 17.4156043,12.3095976 17.4133978,12.3604782 C17.4111912,12.4113588 17.439751,12.4585486 17.485719,12.4799757 C17.5316869,12.5014027 17.585976,12.4928313 17.6231936,12.4582705 C17.6604113,12.4237096 17.6732003,12.3699914 17.6555789,12.3222414 C17.6316976,12.2575283 17.560365,12.2242779 17.4957895,12.2477586 L17.4957895,12.2477586 Z" id="Path" fill="#42210B"></path>
            </g>
        </g>
    </g>
</svg>