<?xml version="1.0" encoding="UTF-8"?>
<svg width="15px" height="15px" viewBox="0 0 15 15" version="1.1" xmlns="http://www.w3.org/2000/svg" xmlns:xlink="http://www.w3.org/1999/xlink">
    <!-- Generator: sketchtool 53.1 (72631) - https://sketchapp.com -->
    <title>C0BAB3FF-1E89-46B1-B09B-55DFB44EF2A6</title>
    <desc>Created with sketchtool.</desc>
    <g id="design" stroke="none" stroke-width="1" fill="none" fill-rule="evenodd">
        <g id="2-slide" transform="translate(-1237.000000, -52.000000)" fill="#472821">
            <g id="menu" transform="translate(1178.000000, 30.000000)">
                <path d="M69.9375,31.140625 L69.78125,31.4140625 L74,35.671875 L72.671875,37 L68.453125,32.7421875 L68.1796875,32.9375 C67.138015,33.588545 66.0572975,33.9140625 64.9375,33.9140625 C63.2968675,33.9140625 61.89714,33.32813 60.7382812,32.15625 C59.5794213,30.98437 59,29.5781325 59,27.9375 C59,26.2968675 59.5794213,24.89714 60.7382812,23.73828 C61.89714,22.5794225 63.2968675,22 64.9375,22 C66.5781325,22 67.97786,22.5794225 69.13672,23.73828 C70.2955775,24.89714 70.875,26.2968675 70.875,27.9375 C70.875,29.08334 70.5625025,30.1510375 69.9375,31.140625 Z M68.2578125,24.6171875 C67.34635,23.705725 66.23959,23.25 64.9375,23.25 C63.63541,23.25 62.52865,23.705725 61.6171875,24.6171875 C60.7057245,25.52865 60.25,26.63541 60.25,27.9375 C60.25,29.23959 60.7057245,30.34635 61.6171875,31.2578125 C62.52865,32.169275 63.63541,32.625 64.9375,32.625 C66.23959,32.625 67.34635,32.169275 68.2578125,31.2578125 C69.1953175,30.3203075 69.6640625,29.2135475 69.6640625,27.9375 C69.6640625,26.6614525 69.1953175,25.5546925 68.2578125,24.6171875 Z" id="search"></path>
            </g>
        </g>
    </g>
</svg>