<?xml version="1.0" encoding="UTF-8"?>
<svg width="39px" height="38px" viewBox="0 0 39 38" version="1.1" xmlns="http://www.w3.org/2000/svg" xmlns:xlink="http://www.w3.org/1999/xlink">
    <!-- Generator: Sketch 57 (83077) - https://sketch.com -->
    <title>Star2</title>
    <desc>Created with Sketch.</desc>
    <g id="mobile" stroke="none" stroke-width="1" fill="none" fill-rule="evenodd">
        <g id="main" transform="translate(-14.000000, -18.000000)" fill="#F8E4CD">
            <path d="M31.8952027,55.6401114 C30.9978343,56.251816 29.7778868,56.0482428 29.1277604,55.178307 C28.4263897,54.2398011 27.2219928,53.8263311 26.0920705,54.1361533 C25.0447038,54.423339 23.9569565,53.8346797 23.6245235,52.8007837 C23.2658874,51.6853939 22.2610015,50.9032598 21.0917024,50.8294099 C20.0078359,50.7609557 19.1701631,49.8510005 19.1914477,48.765183 C19.2144099,47.5937792 18.5179301,46.5277374 17.4359659,46.0782181 C16.4330533,45.661542 15.9362299,44.5288988 16.3089256,43.508825 C16.7109979,42.4083469 16.3983984,41.1739195 15.5210167,40.3974432 C14.7077392,39.6776986 14.6056037,38.4451069 15.2893231,37.6013175 C16.0269347,36.691019 16.1320906,35.4219755 15.5543693,34.4026854 C15.0188581,33.4578677 15.3224785,32.2588979 16.2431301,31.6828308 C17.2363492,31.0613568 17.7478653,29.8952176 17.5324095,28.7435697 C17.3326956,27.6760646 18.0091698,26.6406437 19.0669867,26.3947245 C20.2081827,26.1294215 21.0706282,25.1925559 21.2407859,24.0333491 C21.3985113,22.9588374 22.3745329,22.1991693 23.4548842,22.3100472 C24.6203908,22.4296648 25.7403064,21.8235968 26.2776383,20.7824491 C26.7757111,19.8173707 27.9455131,19.4157772 28.9313259,19.871437 C29.9948424,20.3630127 31.2508678,20.1534192 32.0971457,19.3431551 C32.881592,18.5920913 34.118408,18.5920913 34.9028543,19.3431551 C35.7491322,20.1534192 37.0051576,20.3630127 38.0686741,19.871437 C39.0544869,19.4157772 40.2242889,19.8173707 40.7223617,20.7824491 C41.2596936,21.8235968 42.3796092,22.4296648 43.5451158,22.3100472 C44.6254671,22.1991693 45.6014887,22.9588374 45.7592141,24.0333491 C45.9293718,25.1925559 46.7918173,26.1294215 47.9330133,26.3947245 C48.9908302,26.6406437 49.6673044,27.6760646 49.4675905,28.7435697 C49.2521347,29.8952176 49.7636508,31.0613568 50.7568699,31.6828308 C51.6775215,32.2588979 51.9811419,33.4578677 51.4456307,34.4026854 C50.8679094,35.4219755 50.9730653,36.691019 51.7106769,37.6013175 C52.3943963,38.4451069 52.2922608,39.6776986 51.4789833,40.3974432 C50.6016016,41.1739195 50.2890021,42.4083469 50.6910744,43.508825 C51.0637701,44.5288988 50.5669467,45.661542 49.5640341,46.0782181 C48.4820699,46.5277374 47.7855901,47.5937792 47.8085523,48.765183 C47.8298369,49.8510005 46.9921641,50.7609557 45.9082976,50.8294099 C44.7389985,50.9032598 43.7341126,51.6853939 43.3754765,52.8007837 C43.0430435,53.8346797 41.9552962,54.423339 40.9079295,54.1361533 C39.7780072,53.8263311 38.5736103,54.2398011 37.8722396,55.178307 C37.2221132,56.0482428 36.0021657,56.251816 35.1047973,55.6401114 C34.1366964,54.9801911 32.8633036,54.9801911 31.8952027,55.6401114 Z" id="Star2"></path>
        </g>
    </g>
</svg>