<?xml version="1.0" encoding="UTF-8"?>
<svg width="85px" height="10px" viewBox="0 0 85 10" version="1.1" xmlns="http://www.w3.org/2000/svg" xmlns:xlink="http://www.w3.org/1999/xlink">
    <!-- Generator: sketchtool 53.1 (72631) - https://sketchapp.com -->
    <title>957D239B-EDBA-421D-9C46-74ACCA978199</title>
    <desc>Created with sketchtool.</desc>
    <g id="design" stroke="none" stroke-width="1" fill="none" fill-rule="evenodd">
        <g id="2-slide" transform="translate(-385.000000, -1925.000000)" stroke="#F14F10" stroke-width="2">
            <g id="Group-15" transform="translate(277.000000, 1774.000000)">
                <g id="banner1" transform="translate(2.000000, 84.000000)">
                    <g id="Group-8" transform="translate(103.000000, 39.000000)">
                        <g id="Group-13-Copy-5" transform="translate(4.000000, 29.000000)">
                            <path d="M-2.84217094e-14,5.64634312 C2.0983342,7.47401962 4.70658395,8.23351223 7.82474925,7.92482094 C12.5019972,7.46178401 17.6376385,1.37662958 20.5025413,0.45497822 C23.3674441,-0.466673136 27.1632856,-0.19026618 27.8025596,3.18963809 C28.4418336,6.56954235 24.1477962,7.51750765 23.1173511,6.58192538 C22.086906,5.64634312 22.3772438,2.50481221 25.3354616,3.49501249" id="Path-4"></path>
                            <path d="M27.2820513,5.64634312 C29.3803855,7.47401962 31.9886352,8.23351223 35.1068005,7.92482094 C39.7840485,7.46178401 44.9196897,1.37662958 47.7845926,0.45497822 C50.6494954,-0.466673136 54.4453368,-0.19026618 55.0846109,3.18963809 C55.7238849,6.56954235 51.4298475,7.51750765 50.3994024,6.58192538 C49.3689572,5.64634312 49.6592951,2.50481221 52.6175129,3.49501249" id="Path-4-Copy"></path>
                            <path d="M54.5641026,5.64634312 C56.6624368,7.47401962 59.2706865,8.23351223 62.3888518,7.92482094 C67.0660998,7.46178401 72.201741,1.37662958 75.0666439,0.45497822 C77.9315467,-0.466673136 81.7273881,-0.19026618 82.3666621,3.18963809 C83.0059361,6.56954235 78.7118988,7.51750765 77.6814537,6.58192538 C76.6510085,5.64634312 76.9413464,2.50481221 79.8995642,3.49501249" id="Path-4-Copy-3"></path>
                        </g>
                    </g>
                </g>
            </g>
        </g>
    </g>
</svg>