<?xml version="1.0" encoding="UTF-8"?>
<svg width="170px" height="28px" viewBox="120 0 170 26" version="1.1" xmlns="http://www.w3.org/2000/svg" xmlns:xlink="http://www.w3.org/1999/xlink">
    <g stroke="none" stroke-width="1" fill="none" fill-rule="evenodd">
        <g stroke="#F8E4CD" stroke-width="2">
            <g>
                <path d="M-2.84217094e-14,17.6448222 C6.55729437,23.3563113 14.7080748,25.7297257 24.4523414,24.7650654 C39.0687413,23.318075 55.1176202,4.30196742 64.0704415,1.42180694 C73.0232629,-1.45835355 84.8852674,-0.594581812 86.8829987,9.96761902 C88.88073,20.5298198 75.4618632,23.4922114 72.2417222,20.5685168 C69.0215811,17.6448222 69.928887,7.82753816 79.1733176,10.921914" id="Path-4"></path>
                <path d="M85.2564103,17.6448222 C91.8137046,23.3563113 99.9644851,25.7297257 109.708752,24.7650654 C124.325152,23.318075 140.37403,4.30196742 149.326852,1.42180694 C158.279673,-1.45835355 170.141678,-0.594581812 172.139409,9.96761902 C174.13714,20.5298198 160.718273,23.4922114 157.498132,20.5685168 C154.277991,17.6448222 155.185297,7.82753816 164.429728,10.921914" id="Path-4-Copy"></path>
                <path d="M170.512821,17.6448222 C177.070115,23.3563113 185.220895,25.7297257 194.965162,24.7650654 C209.581562,23.318075 225.630441,4.30196742 234.583262,1.42180694 C243.536083,-1.45835355 255.398088,-0.594581812 257.395819,9.96761902 C259.39355,20.5298198 245.974684,23.4922114 242.754543,20.5685168 C239.534402,17.6448222 240.441707,7.82753816 249.686138,10.921914" id="Path-4-Copy-3"></path>
                <path d="M255.769231,17.6448222 C262.326525,23.3563113 270.477306,25.7297257 280.221572,24.7650654 C294.837972,23.318075 310.886851,4.30196742 319.839672,1.42180694 C328.792494,-1.45835355 340.654498,-0.594581812 342.652229,9.96761902 C344.649961,20.5298198 331.231094,23.4922114 328.010953,20.5685168 C324.790812,17.6448222 325.698118,7.82753816 334.942548,10.921914" id="Path-4-Copy-2"></path>
                <path d="M340.384615,17.6448222 C346.94191,23.3563113 355.09269,25.7297257 364.836957,24.7650654 C379.453357,23.318075 395.502236,4.30196742 404.455057,1.42180694 C413.407878,-1.45835355 425.269883,-0.594581812 427.267614,9.96761902 C429.265345,20.5298198 415.846479,23.4922114 412.626338,20.5685168 C409.406197,17.6448222 410.313502,7.82753816 419.557933,10.921914" id="Path-4-Copy-7"></path>
                <path d="M425.641026,17.6448222 C432.19832,23.3563113 440.3491,25.7297257 450.093367,24.7650654 C464.709767,23.318075 480.758646,4.30196742 489.711467,1.42180694 C498.664288,-1.45835355 510.526293,-0.594581812 512.524024,9.96761902 C514.521756,20.5298198 501.102889,23.4922114 497.882748,20.5685168 C494.662607,17.6448222 495.569913,7.82753816 504.814343,10.921914" id="Path-4-Copy-6"></path>
                <path d="M510.897436,17.6448222 C517.45473,23.3563113 525.605511,25.7297257 535.349777,24.7650654 C549.966177,23.318075 566.015056,4.30196742 574.967877,1.42180694 C583.920699,-1.45835355 595.782703,-0.594581812 597.780435,9.96761902 C599.778166,20.5298198 586.359299,23.4922114 583.139158,20.5685168 C579.919017,17.6448222 580.826323,7.82753816 590.070754,10.921914" id="Path-4-Copy-5"></path>
                <path d="M596.153846,17.6448222 C602.711141,23.3563113 610.861921,25.7297257 620.606188,24.7650654 C635.222587,23.318075 651.271466,4.30196742 660.224288,1.42180694 C669.177109,-1.45835355 681.039114,-0.594581812 683.036845,9.96761902 C685.034576,20.5298198 671.615709,23.4922114 668.395568,20.5685168 C665.175427,17.6448222 666.082733,7.82753816 675.327164,10.921914" id="Path-4-Copy-4"></path>
                <path d="M681.410256,17.6448222 C687.967551,23.3563113 696.118331,25.7297257 705.862598,24.7650654 C720.478998,23.318075 736.527877,4.30196742 745.480698,1.42180694 C754.433519,-1.45835355 766.295524,-0.594581812 768.293255,9.96761902 C770.290986,20.5298198 756.87212,23.4922114 753.651979,20.5685168 C750.431838,17.6448222 751.339143,7.82753816 760.583574,10.921914" id="Path-4-Copy-8"></path>
                <path d="M765.410256,17.6448222 C771.967551,23.3563113 780.118331,25.7297257 789.862598,24.7650654 C804.478998,23.318075 820.527877,4.30196742 829.480698,1.42180694 C838.433519,-1.45835355 850.295524,-0.594581812 852.293255,9.96761902 C854.290986,20.5298198 840.87212,23.4922114 837.651979,20.5685168 C834.431838,17.6448222 835.339143,7.82753816 844.583574,10.921914" id="Path-4-Copy-9"></path>
                <path d="M849.410256,17.6448222 C855.967551,23.3563113 864.118331,25.7297257 873.862598,24.7650654 C888.478998,23.318075 904.527877,4.30196742 913.480698,1.42180694 C922.433519,-1.45835355 934.295524,-0.594581812 936.293255,9.96761902 C938.290986,20.5298198 924.87212,23.4922114 921.651979,20.5685168 C918.431838,17.6448222 919.339143,7.82753816 928.583574,10.921914" id="Path-4-Copy-10"></path>
                <path d="M933.410256,17.6448222 C939.967551,23.3563113 948.118331,25.7297257 957.862598,24.7650654 C972.478998,23.318075 988.527877,4.30196742 997.480698,1.42180694 C1006.43352,-1.45835355 1018.29552,-0.594581812 1020.29326,9.96761902 C1022.29099,20.5298198 1008.87212,23.4922114 1005.65198,20.5685168 C1002.43184,17.6448222 1003.33914,7.82753816 1012.58357,10.921914" id="Path-4-Copy-11"></path>
                <path d="M1018.41026,17.6448222 C1024.96755,23.3563113 1033.11833,25.7297257 1042.8626,24.7650654 C1057.479,23.318075 1073.52788,4.30196742 1082.4807,1.42180694 C1091.43352,-1.45835355 1103.29552,-0.594581812 1105.29326,9.96761902 C1107.29099,20.5298198 1093.87212,23.4922114 1090.65198,20.5685168 C1087.43184,17.6448222 1088.33914,7.82753816 1097.58357,10.921914" id="Path-4-Copy-12"></path>
                <path d="M1103.41026,17.6448222 C1109.96755,23.3563113 1118.11833,25.7297257 1127.8626,24.7650654 C1142.479,23.318075 1158.52788,4.30196742 1167.4807,1.42180694 C1176.43352,-1.45835355 1188.29552,-0.594581812 1190.29326,9.96761902 C1192.29099,20.5298198 1178.87212,23.4922114 1175.65198,20.5685168 C1172.43184,17.6448222 1173.33914,7.82753816 1182.58357,10.921914" id="Path-4-Copy-13"></path>
            </g>
        </g>
    </g>
</svg>