<?xml version="1.0" encoding="UTF-8"?>
<svg width="64px" height="43px" viewBox="0 0 64 43" version="1.1" xmlns="http://www.w3.org/2000/svg" xmlns:xlink="http://www.w3.org/1999/xlink">
    <!-- Generator: sketchtool 53.1 (72631) - https://sketchapp.com -->
    <title>EE2D4DD2-6ADE-4E83-A1D8-39D21FDECBDB</title>
    <desc>Created with sketchtool.</desc>
    <g id="design" stroke="none" stroke-width="1" fill="none" fill-rule="evenodd">
        <g id="оплата-и-доставка" transform="translate(-1051.000000, -840.000000)" fill-rule="nonzero">
            <g id="card" transform="translate(1051.000000, 840.000000)">
                <rect id="Rectangle" fill="#3D2615" x="1.15" y="8.648" width="60.72" height="11.316"></rect>
                <path d="M54.372,42.504 L8.648,42.504 C3.87184148,42.504 5.84910724e-16,38.6321585 0,33.856 L0,8.648 C5.84910724e-16,3.87184148 3.87184148,-2.92455362e-16 8.648,0 L54.372,0 C59.1481585,4.53453629e-15 63.02,3.87184148 63.02,8.648 L63.02,33.856 C63.02,38.6321585 59.1481585,42.504 54.372,42.504 Z M8.648,2.3 C5.14209641,2.3 2.3,5.14209641 2.3,8.648 L2.3,33.856 C2.3,37.3619036 5.14209641,40.204 8.648,40.204 L54.372,40.204 C56.0555943,40.204 57.6702329,39.5351948 58.8607138,38.3447138 C60.0511948,37.1542329 60.72,35.5395943 60.72,33.856 L60.72,8.648 C60.72,5.14209641 57.8779036,2.3 54.372,2.3 L8.648,2.3 Z" id="Shape" fill="#F14F10"></path>
                <circle id="Oval" fill="#3D2615" cx="42.182" cy="30.958" r="4.876"></circle>
                <circle id="Oval" fill="#3D2615" cx="11.04" cy="30.958" r="1.794"></circle>
                <circle id="Oval" fill="#3D2615" cx="16.33" cy="30.958" r="1.794"></circle>
                <circle id="Oval" fill="#3D2615" cx="21.068" cy="30.958" r="1.794"></circle>
                <circle id="Oval" fill="#F14F10" cx="48.806" cy="30.958" r="4.876"></circle>
            </g>
        </g>
    </g>
</svg>