<?xml version="1.0" encoding="UTF-8"?>
<svg width="12px" height="46px" viewBox="0 0 12 46" version="1.1" xmlns="http://www.w3.org/2000/svg" xmlns:xlink="http://www.w3.org/1999/xlink">
    <!-- Generator: Sketch 53 (72520) - https://sketchapp.com -->
    <title>食糧配</title>
    <desc>Created with Sketch.</desc>
    <g id="design" stroke="none" stroke-width="1" fill="none" fill-rule="evenodd" opacity="0.465945871">
        <g id="modal-cart" transform="translate(-1343.000000, -488.000000)" fill="#2EBD9D" fill-rule="nonzero">
            <path d="M1348.58,488.16 L1349.444,488.16 C1350.908,489.516 1352.612,490.584 1354.532,491.376 L1353.908,492.468 C1353.38,492.24 1352.876,492 1352.396,491.748 L1352.396,495.96 C1352.516,495.828 1352.624,495.708 1352.72,495.588 L1353.776,496.128 C1353.344,496.608 1352.888,497.052 1352.408,497.448 C1353.032,497.748 1353.596,498.06 1354.124,498.372 L1353.332,499.32 C1352.108,498.492 1350.548,497.724 1348.628,497.016 L1349.336,496.176 C1350.056,496.428 1350.728,496.692 1351.364,496.968 C1351.7,496.68 1352.012,496.38 1352.3,496.068 L1346.972,496.068 L1346.972,497.952 C1347.824,497.796 1348.64,497.604 1349.42,497.388 L1349.66,498.432 C1348.556,498.768 1347.188,499.056 1345.544,499.296 L1345.22,498.3 C1345.556,498.192 1345.736,497.892 1345.736,497.388 L1345.736,491.76 C1345.208,492.048 1344.656,492.324 1344.08,492.588 L1343.468,491.484 C1345.508,490.596 1347.212,489.492 1348.58,488.16 Z M1346.204,491.484 L1348.556,491.484 C1348.46,491.124 1348.34,490.776 1348.22,490.452 L1349.36,490.272 C1349.48,490.632 1349.6,491.028 1349.708,491.484 L1351.928,491.484 C1350.824,490.836 1349.852,490.104 1349.012,489.288 C1348.232,490.092 1347.296,490.824 1346.204,491.484 Z M1346.972,494.304 L1346.972,494.964 L1351.16,494.964 L1351.16,494.304 L1346.972,494.304 Z M1351.16,493.248 L1351.16,492.588 L1346.972,492.588 L1346.972,493.248 L1351.16,493.248 Z M1346.24,512.072 L1346.24,516.284 L1345.1,516.284 L1345.1,512.264 C1344.764,513.128 1344.344,513.932 1343.852,514.664 L1343.348,513.38 C1344.116,512.516 1344.668,511.52 1345.028,510.416 L1343.756,510.416 L1343.756,509.288 L1345.1,509.288 L1345.1,505.292 L1346.24,505.292 L1346.24,509.288 L1347.44,509.288 L1347.44,510.416 L1346.24,510.416 L1346.24,510.92 C1346.768,511.46 1347.284,512.06 1347.8,512.708 L1347.116,513.764 C1346.78,513.092 1346.48,512.528 1346.24,512.072 Z M1348.22,505.508 L1353.764,505.508 L1353.764,508.712 L1348.22,508.712 L1348.22,505.508 Z M1352.6,507.896 L1352.6,507.5 L1349.384,507.5 L1349.384,507.896 L1352.6,507.896 Z M1349.384,506.732 L1352.6,506.732 L1352.6,506.336 L1349.384,506.336 L1349.384,506.732 Z M1347.74,509.072 L1354.256,509.072 L1354.256,510.032 L1347.74,510.032 L1347.74,509.072 Z M1344.452,506.096 C1344.608,506.84 1344.752,507.692 1344.872,508.652 L1344.056,508.868 C1343.912,508.004 1343.744,507.188 1343.54,506.396 L1344.452,506.096 Z M1346.756,505.988 L1347.644,506.108 C1347.596,507.104 1347.464,507.992 1347.272,508.772 L1346.456,508.508 C1346.624,507.788 1346.72,506.948 1346.756,505.988 Z M1348.064,510.404 L1353.92,510.404 L1353.92,513.428 L1351.58,513.428 L1351.58,513.836 L1353.956,513.836 L1353.956,514.664 L1351.58,514.664 L1351.58,515.072 L1354.4,515.072 L1354.4,516.032 L1347.524,516.032 L1347.524,515.072 L1350.38,515.072 L1350.38,514.664 L1348.016,514.664 L1348.016,513.836 L1350.38,513.836 L1350.38,513.428 L1348.064,513.428 L1348.064,510.404 Z M1352.792,512.672 L1352.792,512.276 L1351.58,512.276 L1351.58,512.672 L1352.792,512.672 Z M1350.38,512.672 L1350.38,512.276 L1349.192,512.276 L1349.192,512.672 L1350.38,512.672 Z M1349.192,511.556 L1350.38,511.556 L1350.38,511.136 L1349.192,511.136 L1349.192,511.556 Z M1351.58,511.136 L1351.58,511.556 L1352.792,511.556 L1352.792,511.136 L1351.58,511.136 Z M1354.532,530.02 C1354.424,531.292 1354.28,532.12 1354.1,532.504 C1353.92,532.876 1353.524,533.068 1352.912,533.068 L1350.392,533.068 C1349.792,533.068 1349.492,532.648 1349.492,531.832 L1349.492,526.516 L1352.672,526.516 L1352.672,523.708 L1349.408,523.708 L1349.408,522.532 L1353.872,522.532 L1353.872,527.716 L1350.716,527.716 L1350.716,531.328 C1350.716,531.688 1350.788,531.88 1350.944,531.904 L1352.708,531.904 C1352.948,531.904 1353.092,531.736 1353.152,531.424 C1353.212,531.1 1353.26,530.5 1353.284,529.624 L1354.532,530.02 Z M1343.528,522.52 L1349.108,522.52 L1349.108,523.696 L1347.704,523.696 L1347.704,524.74 L1348.964,524.74 L1348.964,533.2 L1347.86,533.2 L1347.86,532.66 L1344.872,532.66 L1344.872,533.2 L1343.768,533.2 L1343.768,524.74 L1345.016,524.74 L1345.016,523.696 L1343.528,523.696 L1343.528,522.52 Z M1344.872,531.484 L1347.86,531.484 L1347.86,530.62 L1344.872,530.62 L1344.872,531.484 Z M1345.292,525.868 L1344.872,525.868 L1344.872,528.508 C1345.136,528.028 1345.28,527.344 1345.292,526.48 L1345.292,525.868 Z M1344.872,528.856 L1344.872,529.492 L1347.86,529.492 L1347.86,528.772 L1347.476,528.772 C1346.888,528.772 1346.6,528.472 1346.6,527.872 L1346.6,525.868 L1346.096,525.868 L1346.096,526.48 C1346.084,527.764 1345.844,528.7 1345.376,529.3 L1344.872,528.856 Z M1346.072,524.74 L1346.648,524.74 L1346.648,523.696 L1346.072,523.696 L1346.072,524.74 Z M1347.86,527.824 L1347.86,525.868 L1347.416,525.868 L1347.416,527.608 C1347.416,527.752 1347.512,527.824 1347.728,527.824 L1347.86,527.824 Z" id="食糧配"></path>
        </g>
    </g>
</svg>