<?xml version="1.0" encoding="UTF-8"?>
<svg width="12px" height="29px" viewBox="0 0 12 29" version="1.1" xmlns="http://www.w3.org/2000/svg" xmlns:xlink="http://www.w3.org/1999/xlink">
    <!-- Generator: Sketch 53 (72520) - https://sketchapp.com -->
    <title>寿司</title>
    <desc>Created with Sketch.</desc>
    <g id="design" stroke="none" stroke-width="1" fill="none" fill-rule="evenodd" opacity="0.465945871">
        <g id="modal-cart" transform="translate(-976.000000, -116.000000)" fill="#2EBD9D" fill-rule="nonzero">
            <path d="M977.38,116.94 L980.968,116.94 C980.98,116.688 980.992,116.448 980.992,116.208 L982.252,116.208 C982.252,116.46 982.24,116.7 982.24,116.94 L986.572,116.94 L986.572,118.092 L982.144,118.092 C982.12,118.308 982.084,118.512 982.048,118.716 L986.116,118.716 L986.116,119.82 L981.832,119.82 C981.784,120.024 981.724,120.216 981.664,120.408 L987.196,120.408 L987.196,121.572 L985.108,121.572 L985.108,122.496 L986.992,122.496 L986.992,123.66 L985.108,123.66 L985.108,125.952 C985.108,126.78 984.688,127.2 983.86,127.2 L982.54,127.2 L982.264,126.048 C982.672,126.096 983.068,126.12 983.452,126.12 C983.74,126.12 983.884,125.964 983.884,125.652 L983.884,123.66 L979.984,123.66 C979.228,124.608 978.292,125.412 977.188,126.06 L976.504,124.968 C978.004,124.152 979.12,123.012 979.864,121.572 L976.816,121.572 L976.816,120.408 L980.356,120.408 C980.416,120.204 980.476,120.012 980.536,119.82 L977.8,119.82 L977.8,118.716 L980.776,118.716 C980.812,118.5 980.848,118.296 980.872,118.092 L977.38,118.092 L977.38,116.94 Z M983.884,122.496 L983.884,121.572 L981.232,121.572 C981.088,121.896 980.932,122.208 980.764,122.496 L983.884,122.496 Z M980.344,123.984 C981.112,124.296 981.832,124.668 982.48,125.112 L981.832,126.096 C981.16,125.592 980.464,125.184 979.744,124.896 L980.344,123.984 Z M977.644,138.176 L983.212,138.176 L983.212,142.16 L977.644,142.16 L977.644,138.176 Z M982.012,141.056 L982.012,139.28 L978.832,139.28 L978.832,141.056 L982.012,141.056 Z M985.18,144.164 L983.524,144.164 L983.2,142.964 L984.904,143 C985.168,143 985.3,142.784 985.3,142.376 L985.3,134.72 L977.308,134.72 L977.308,133.52 L986.548,133.52 L986.548,142.724 C986.548,143.684 986.092,144.164 985.18,144.164 Z M976.636,135.884 L984.304,135.884 L984.304,137.024 L976.636,137.024 L976.636,135.884 Z" id="寿司"></path>
        </g>
    </g>
</svg>