<?xml version="1.0" encoding="UTF-8"?>
<svg width="82px" height="42px" viewBox="0 0 82 42" version="1.1" xmlns="http://www.w3.org/2000/svg" xmlns:xlink="http://www.w3.org/1999/xlink">
    <!-- Generator: sketchtool 53.1 (72631) - https://sketchapp.com -->
    <title>A2CE381A-C466-4914-A76C-3427E09640BC</title>
    <desc>Created with sketchtool.</desc>
    <g id="design" stroke="none" stroke-width="1" fill="none" fill-rule="evenodd">
        <g id="оплата-и-доставка" transform="translate(-543.000000, -840.000000)" fill-rule="nonzero">
            <g id="money" transform="translate(543.000000, 840.000000)">
                <path d="M13.275,40.5 C13.275,33.9450704 7.96117962,28.63125 1.40625,28.63125 L1.40625,40.55625 L13.275,40.5 Z" id="Path" fill="#F14F10"></path>
                <path d="M1.40625,18.225 C7.97034104,18.225073 13.3002873,12.920268 13.33125,6.35625 L1.40625,6.35625 L1.40625,18.225 Z" id="Path" fill="#F14F10"></path>
                <path d="M63.675,6.35625 C63.674927,12.920341 68.979732,18.2502873 75.54375,18.28125 L75.54375,6.35625 L63.675,6.35625 Z" id="Path" fill="#F14F10"></path>
                <path d="M75.54375,28.6875 C68.9888204,28.6875 63.675,34.0013204 63.675,40.55625 L75.6,40.55625 L75.54375,28.6875 Z" id="Path" fill="#F14F10"></path>
                <path d="M75.6,41.9625 L1.40625,41.9625 C0.629599571,41.9625 9.51122462e-17,41.3329004 0,40.55625 L0,6.35625 C-9.51122462e-17,5.57959957 0.629599571,4.95 1.40625,4.95 L75.6,4.95 C76.3766504,4.95 77.00625,5.57959957 77.00625,6.35625 L77.00625,40.55625 C77.00625,41.3329004 76.3766504,41.9625 75.6,41.9625 Z M2.8125,39.375 L74.19375,39.375 L74.19375,7.7625 L2.8125,7.7625 L2.8125,39.375 Z" id="Shape" fill="#3D2615"></path>
                <path d="M80.49375,37.06875 C79.7170996,37.06875 79.0875,36.4391504 79.0875,35.6625 L79.0875,2.8125 L6.35625,2.8125 C5.57959957,2.8125 4.95,2.18290043 4.95,1.40625 C4.95,0.629599571 5.57959957,1.42668369e-16 6.35625,0 L80.49375,0 C81.2704004,4.75561231e-17 81.9,0.629599571 81.9,1.40625 L81.9,35.6625 C81.9,36.4391504 81.2704004,37.06875 80.49375,37.06875 Z" id="Path" fill="#3D2615"></path>
                <circle id="Oval" fill="#F14F10" cx="38.08125" cy="23.45625" r="11.64375"></circle>
                <path d="M42.3,24.13125 L38.53125,24.13125 C38.6234875,24.1550656 38.7202625,24.1550656 38.8125,24.13125 L39.375,23.45625 L39.375,23.45625 L42.01875,23.45625 C42.3059313,23.6171736 42.6629073,23.5824857 42.9137342,23.3692829 C43.164561,23.15608 43.2563058,22.8093554 43.14375,22.5 C43.14375,22.0340097 42.7659903,21.65625 42.3,21.65625 L41.175,21.65625 C41.3105623,21.4238207 41.4235771,21.1789552 41.5125,20.925 C41.8360461,19.9596933 41.6904174,18.8986842 41.11875,18.05625 C39.7128333,16.1366442 37.0665451,15.6220882 35.04375,16.875 C34.8562872,16.9709668 34.7150735,17.1380217 34.6516556,17.3388452 C34.5882376,17.5396687 34.6078999,17.7575265 34.70625,17.94375 C34.9489024,18.3484919 35.4505329,18.515702 35.8875,18.3375 C36.7440522,17.8037312 37.7875586,17.6605048 38.75625,17.94375 C39.4322487,18.1615318 39.9169939,18.7564464 39.99375,19.4625 C40.0176345,20.2204064 39.6581558,20.9393637 39.0375,21.375 L33.75,21.375 C33.4775033,21.3775779 33.2230284,21.5116054 33.0667548,21.7348534 C32.9104813,21.9581014 32.8716515,22.2430805 32.9625,22.5 C32.9898784,22.9230653 33.3269347,23.2601216 33.75,23.2875 L36.84375,23.2875 L36.225,23.79375 L35.8875,24.13125 L33.75,24.13125 C33.2840097,24.13125 32.90625,24.5090097 32.90625,24.975 C32.90625,25.4409903 33.2840097,25.81875 33.75,25.81875 L34.9875,25.81875 C34.5632042,26.9288919 34.7334494,28.1786853 35.4392203,29.134891 C36.1449912,30.0910967 37.2891215,30.6220701 38.475,30.54375 C39.4931849,30.5276012 40.4940022,30.2773969 41.4,29.8125 C41.5837067,29.7280079 41.7242271,29.571219 41.7881701,29.37939 C41.8521131,29.187561 41.8337701,28.9778177 41.7375,28.8 C41.6848048,28.5571897 41.534075,28.346966 41.3210201,28.2191331 C41.1079653,28.0913002 40.8515421,28.0572321 40.6125,28.125 C39.6908821,28.6546811 38.5904109,28.7769557 37.575,28.4625 C37.132914,28.2971098 36.7841402,27.948336 36.61875,27.50625 C36.3419637,26.8987934 36.3419637,26.2012066 36.61875,25.59375 L42.24375,25.59375 C42.7097402,25.59375 43.0874999,25.2159902 43.0874999,24.75 C43.0874999,24.2840098 42.7097402,23.90625 42.24375,23.90625 L42.3,24.13125 Z" id="Path" fill="#FCF8EB"></path>
            </g>
        </g>
    </g>
</svg>