<?xml version="1.0" encoding="UTF-8"?>
<svg width="8px" height="16px" viewBox="0 0 8 16" version="1.1" xmlns="http://www.w3.org/2000/svg" xmlns:xlink="http://www.w3.org/1999/xlink">
    <g class="subscribe-ink" stroke="none" stroke-width="1" fill="#472821" fill-rule="evenodd">
        <g transform="translate(-329.000000, -4890.000000)" fill-rule="nonzero">
            <g transform="translate(-39.000000, 4807.000000)">
                <path d="M370.521479,98.8749955 L370.521479,92.1660272 L368.265625,92.1660272 L368.265625,89.5000179 L370.521479,89.5000179 L370.521479,87.3906479 C370.521479,86.2773693 370.833978,85.4131136 371.458977,84.7978807 C372.083975,84.1826477 372.914052,83.8750313 373.949205,83.8750313 C374.789047,83.8750313 375.472639,83.9140936 375.999982,83.9922185 L375.999982,86.3652597 L374.593735,86.3652597 C374.066392,86.3652597 373.705065,86.482447 373.509753,86.7168214 C373.353504,86.9121336 373.275379,87.2246325 373.275379,87.6543192 L373.275379,89.5000179 L375.765607,89.5000179 L375.414045,92.1660272 L373.275379,92.1660272 L373.275379,98.8749955 L370.521479,98.8749955 Z"></path>
            </g>
        </g>
    </g>
</svg>