<?xml version="1.0" encoding="UTF-8"?>
<svg width="11px" height="16px" viewBox="0 0 11 16" version="1.1" xmlns="http://www.w3.org/2000/svg" xmlns:xlink="http://www.w3.org/1999/xlink">
    <!-- Generator: Sketch 53 (72520) - https://sketchapp.com -->
    <title>hot</title>
    <desc>Created with Sketch.</desc>
    <g id="design" stroke="none" stroke-width="1" fill="none" fill-rule="evenodd">
        <g id="catalog-round" transform="translate(-756.000000, -137.000000)" fill="#F14F10" fill-rule="nonzero">
            <g id="hot" transform="translate(756.000000, 137.000000)">
                <path d="M2.85714286,3.42857143 C4.23543848,4.32068008 5.1300469,5.79415277 5.28571429,7.42857143 C5.32425245,7.5458213 5.43372194,7.62507146 5.55714286,7.62507146 C5.68056377,7.62507146 5.79003326,7.5458213 5.82857143,7.42857143 C6.40394875,5.31215865 6.06170822,3.05129694 4.88571429,1.2 C4.7910369,1.10532261 4.79103691,0.951820245 4.88571429,0.857142861 C4.98039167,0.762465476 5.13389404,0.762465475 5.22857143,0.857142857 C8.51080923,2.71033702 10.5250175,6.2023612 10.4857143,9.97142857 C10.4935953,11.3553282 9.94339674,12.6840015 8.95945407,13.6571907 C7.9755114,14.6303799 6.64087236,15.165945 5.25714286,15.1428571 C3.89204433,15.2131684 2.557677,14.7215361 1.56451582,13.7823511 C0.57135464,12.8431661 0.00600136169,11.5383235 0,10.1714286 C0,6.57142857 3.02857143,6.28571429 2.4,3.71428571 C2.32110218,3.5880492 2.35947777,3.42175496 2.48571429,3.34285714 C2.6119508,3.26395932 2.77824504,3.30233491 2.85714286,3.42857143 Z" id="Path"></path>
            </g>
        </g>
    </g>
</svg>