<?xml version="1.0" encoding="UTF-8"?>
<svg width="34px" height="29px" viewBox="0 0 34 29" version="1.1" xmlns="http://www.w3.org/2000/svg" xmlns:xlink="http://www.w3.org/1999/xlink">
    <!-- Generator: sketchtool 53.1 (72631) - https://sketchapp.com -->
    <title>158ADDF0-72EC-4748-96A6-6EE8F7CDFB7E</title>
    <desc>Created with sketchtool.</desc>
    <g id="design" stroke="none" stroke-width="1" fill="none" fill-rule="evenodd" opacity="0.1">
        <g id="2-slide" transform="translate(-1233.000000, -183.000000)">
            <g id="fish_bg" transform="translate(1250.007330, 198.842940) rotate(-30.000000) translate(-1250.007330, -198.842940) translate(1238.007330, 180.842940)">
                <circle id="Oval" fill="#472821" cx="18.1401031" cy="28.1356701" r="1.18465979"></circle>
                <path d="M5.77521649,2.22123711 C3.70206186,1.5918866 1.48082474,2.25825773 0.444247423,4.36843299 C-0.222123711,5.73819588 1.33274227,6.84881443 2.88760825,7.51518557 C3.55397938,7.81135052 3.88716495,8.51474227 3.73908247,9.21813402 C2.18421649,15.7707835 2.81356701,22.7676804 6.92285567,28.3207732 C7.03391753,28.4688557 7.14497938,28.6539588 7.29306186,28.8020412 C7.33008247,28.8760825 7.40412371,28.9501237 7.44114433,28.9871443 C10.6619381,32.9853711 15.6597216,36.0580825 20.9166495,35.5768144 C21.2498351,35.6138351 21.5830206,35.4657526 21.7681237,35.0955464 C24.1744639,30.3939278 24.3965876,24.6187113 23.100866,19.5468866 C21.9532268,15.0673918 19.4728454,11.2172474 16.0669485,8.32963918 C15.9929072,8.25559794 15.918866,8.21857732 15.8818454,8.14453608 C15.8078041,8.10751546 15.7707835,8.07049485 15.6967423,7.99645361 C14.6971856,7.182 13.6235876,6.44158763 12.4759485,5.77521649 C11.9206392,5.44203093 11.6985155,4.77565979 11.9576598,4.1833299 C12.327866,3.33185567 12.5499897,2.40634021 12.5870103,1.44380412 C12.5870103,1.14763918 12.4019072,0.740412371 12.1057423,0.592329897 C9.7734433,-0.370206186 7.33008247,0.333185567 5.77521649,2.22123711 Z M9.84748454,2.11017526 L9.84748454,2.11017526 C10.2547113,2.11017526 10.5138557,2.48038144 10.4027938,2.85058763 C10.1806701,3.62802062 9.7734433,4.36843299 9.25515464,4.96076289 C9.1811134,5.07182474 9.10707216,5.1828866 9.07005155,5.29394845 C8.99601031,5.44203093 8.95898969,5.62713402 8.95898969,5.77521649 C8.95898969,6.07138144 9.10707216,6.33052577 9.47727835,6.51562887 C14.5120825,8.7738866 18.436268,12.5870103 20.4353814,17.6218144 C21.6570619,20.8796289 21.9902474,24.5076495 21.4719588,27.950567 C21.1757938,29.9496804 20.7315464,32.7262268 18.2141443,32.8743093 C16.6222577,32.9853711 14.6971856,32.0598557 13.3274227,31.2824227 C12.1797835,30.6160515 11.1802268,29.8756392 10.3287526,28.9871443 C9.69940206,28.3577938 9.62536082,27.3952577 10.0696082,26.6548454 C11.6244742,24.1744639 14.3269794,22.5085361 17.3256495,22.5455567 C18.5843505,22.5455567 18.5843505,20.6204845 17.3256495,20.5834639 C13.9937938,20.5834639 11.0321443,22.1753505 9.07005155,24.6927526 C8.55176289,25.3591237 7.51518557,25.2480619 7.182,24.4706289 C4.84970103,19.3617835 4.99778351,12.9572165 6.25648454,7.51518557 C6.25648454,7.47816495 6.25648454,7.47816495 6.29350515,7.44114433 C6.36754639,7.21902062 6.36754639,7.03391753 6.29350515,6.88583505 C6.25648454,6.5896701 6.03436082,6.29350515 5.5901134,6.25648454 C4.70161856,6.14542268 3.70206186,5.81223711 2.88760825,5.25692784 C2.5914433,5.03480412 2.55442268,4.5905567 2.85058763,4.33141237 L2.85058763,4.33141237 C3.73908247,3.591 4.84970103,3.88716495 5.84925773,4.29439175 C6.33052577,4.51651546 6.70073196,4.29439175 6.88583505,3.92418557 C6.92285567,3.88716495 6.92285567,3.88716495 6.95987629,3.85014433 C7.62624742,2.81356701 8.58878351,2.11017526 9.84748454,2.11017526 Z" id="Shape" fill="#42210B" fill-rule="nonzero"></path>
                <path d="M17.3996907,17.2886289 C17.4367113,17.177567 17.4367113,17.0665052 17.3996907,16.9554433 C16.8443814,15.4746186 15.0303711,15.4005773 14.0678351,16.2520515 C13.7716701,16.5111959 13.2163608,16.696299 12.809134,16.6592784 C12.7721134,16.6592784 12.7350928,16.6592784 12.6980722,16.6592784 C12.5499897,16.6592784 12.4389278,16.5852371 12.3648866,16.4741753 C12.031701,16.0669485 11.6244742,15.7707835 11.1432062,15.6597216 C10.8470412,15.5856804 10.6989588,15.2895155 10.8470412,15.0303711 C11.1432062,14.5491031 11.6614948,14.0308144 12.5870103,14.845268 C12.809134,15.0303711 12.9942371,15.0673918 13.1793402,14.9193093 C13.3644433,14.8082474 13.5125258,14.5861237 13.3644433,14.3269794 C12.8461546,13.4384845 11.8465979,13.0312577 10.8470412,13.4384845 C10.3657732,13.6235876 9.99556701,13.9937938 9.81046392,14.4380412 C9.69940206,14.6231443 9.47727835,14.7342062 9.29217526,14.6601649 C8.88494845,14.5120825 8.40368041,14.5491031 7.95943299,14.7342062 C7.03391753,15.141433 6.55264948,16.1039691 6.7747732,17.1035258 C6.84881443,17.3626701 7.03391753,17.473732 7.25604124,17.473732 C7.47816495,17.473732 7.66326804,17.3996907 7.70028866,17.1405464 C7.70028866,17.1035258 7.70028866,17.0294845 7.70028866,16.9924639 C7.70028866,16.9924639 7.70028866,16.9554433 7.70028866,16.9554433 C7.73730928,16.2150309 8.40368041,15.622701 9.03303093,15.7337629 C9.36621649,15.7707835 9.47727835,16.1780103 9.29217526,16.4371546 C8.88494845,16.9184227 8.73686598,17.5847938 8.88494845,18.2141443 C8.88494845,18.2141443 8.88494845,18.2141443 8.88494845,18.2141443 C8.92196907,18.2881856 8.88494845,18.3622268 8.81090722,18.436268 C8.07049485,19.0285979 7.92241237,20.0281546 8.36665979,20.8796289 C8.47772165,21.1387732 8.69984536,21.1757938 8.88494845,21.1017526 C9.14409278,21.0277113 9.32919588,20.768567 9.1811134,20.4724021 C8.81090722,19.509866 10.2176907,18.5473299 10.8470412,19.4728454 C10.9951237,19.6579485 11.1802268,19.6949691 11.3283093,19.5839072 C11.4763918,19.5468866 11.6244742,19.4358247 11.6244742,19.2507216 C11.6244742,19.2507216 11.6244742,19.213701 11.6244742,19.213701 C11.6244742,19.1766804 11.6244742,19.1026392 11.6244742,19.0656186 C11.6244742,19.0656186 11.6244742,19.0285979 11.6244742,19.0285979 C11.6614948,18.0660619 12.809134,17.3996907 13.5125258,18.1401031 C13.5125258,18.1401031 13.5495464,18.1771237 13.5495464,18.1771237 C13.586567,18.2141443 13.6235876,18.2881856 13.6606082,18.3252062 C13.8086907,18.5103093 13.9937938,18.4732887 14.1788969,18.3622268 C14.2899588,18.3252062 14.4010206,18.2141443 14.4380412,18.1030825 C14.4750619,18.0660619 14.4750619,17.9920206 14.4750619,17.9179794 C14.4750619,17.9179794 14.4750619,17.8809588 14.4750619,17.8809588 C14.6601649,16.7703402 15.8818454,16.6222577 16.5852371,17.4367113 C16.5852371,17.4367113 16.6222577,17.473732 16.6222577,17.473732 C16.696299,17.5847938 16.7703402,17.6588351 16.8443814,17.6588351 C17.0665052,17.7328763 17.2886289,17.5847938 17.3996907,17.3626701 C17.3996907,17.3626701 17.3996907,17.3626701 17.3996907,17.3626701 C17.3996907,17.3256495 17.3996907,17.2886289 17.3996907,17.2886289 Z M10.0325876,17.2886289 C10.1436495,17.1405464 10.291732,16.9924639 10.4768351,16.9184227 C10.8840619,16.696299 11.2912887,17.177567 11.0321443,17.5847938 C10.9951237,17.6588351 10.9581031,17.7328763 10.9210825,17.7698969 C10.8100206,17.955 10.6249175,18.0290412 10.4398144,17.9920206 C10.4027938,17.9920206 10.3657732,17.9920206 10.3657732,17.9920206 C9.99556701,17.9179794 9.84748454,17.5477732 10.0325876,17.2886289 Z" id="Shape" fill="#42210B" fill-rule="nonzero"></path>
            </g>
        </g>
    </g>
</svg>