<?xml version="1.0" encoding="UTF-8"?>
<svg width="46px" height="42px" viewBox="0 0 46 42" version="1.1" xmlns="http://www.w3.org/2000/svg" xmlns:xlink="http://www.w3.org/1999/xlink">
    <!-- Generator: sketchtool 53.1 (72631) - https://sketchapp.com -->
    <title>D6D395C3-B470-407B-BACC-B41995440BE8</title>
    <desc>Created with sketchtool.</desc>
    <g id="design" stroke="none" stroke-width="1" fill="none" fill-rule="evenodd">
        <g id="2-slide" transform="translate(-359.000000, -2227.000000)" fill="#42210B" fill-rule="nonzero">
            <g id="Group-15" transform="translate(277.000000, 1774.000000)">
                <path d="M97.3106934,493.721583 L105.101858,491.392266 C105.744428,491.231623 106.386999,491.552908 106.547641,492.195479 L107.190212,494.444475 C107.913103,496.934435 111.768525,495.809937 111.045633,493.239655 L110.403063,490.910338 C110.24242,490.348089 110.563705,489.705519 111.206276,489.544876 C113.937199,488.741663 116.748444,487.858129 119.479368,487.054916 C121.969328,486.332025 120.764509,482.396282 118.274549,483.199495 C115.543625,484.002708 112.893023,484.80592 110.162099,485.689455 C109.519529,485.850097 108.876959,485.528812 108.716316,484.886242 L108.716316,484.80592 C108.555673,484.243671 108.876959,483.601101 109.439208,483.440459 C112.08981,482.637246 114.740412,481.834033 117.391015,480.950499 C118.435191,480.629214 119.077762,479.504716 118.756477,478.380218 C117.391015,474.042868 116.105874,469.705519 114.740412,465.368169 C114.419127,464.323993 113.294629,463.681422 112.170131,464.002708 L107.270533,465.528812 C105.583786,466.01074 103.97736,464.484635 104.459288,462.797888 C105.503465,459.103109 108.234388,455.970579 112.009489,454.203511 C114.338806,453.079013 112.170131,449.625198 109.840814,450.749696 C105.905071,452.677406 102.852862,455.890258 101.166115,459.826001 C100.84483,460.548892 100.041617,460.709535 99.4793681,460.147286 C96.4271593,457.25572 92.3307738,455.649294 87.9131031,455.488651 C85.2625007,455.40833 85.5034645,459.424394 88.0737457,459.585037 C92.5717376,459.74568 96.1861955,461.914354 98.3548702,465.368169 C99.158083,466.572989 98.5155127,468.259736 97.1500509,468.661342 C94.8207336,469.384234 92.4110951,470.107125 90.0817778,470.830017 C89.5195288,470.990659 89.1982436,471.311945 88.9572798,471.713551 C88.5556734,472.2758 88.4753521,473.159334 89.1179224,474.12319 C90.3227416,478.139254 91.4472396,481.834033 92.7323802,485.850097 C92.8127015,487.215559 94.1781633,488.099093 95.3829826,487.697487 C98.033585,486.894274 100.764509,486.01074 103.415111,485.207527 C104.057681,485.046884 104.700252,485.368169 104.860894,486.01074 C104.860894,486.01074 104.860894,486.01074 104.860894,486.01074 C105.021537,486.572989 104.700252,487.215559 104.057681,487.376202 L96.1058742,489.78584 C93.6159143,490.589053 94.8207336,494.524796 97.3106934,493.721583 Z M94.4191272,473.801904 C96.1861955,473.239655 97.8729424,472.757728 99.6400107,472.195479 C100.282581,471.954515 101.005473,472.356121 101.166115,473.079013 C101.166115,473.079013 101.166115,473.079013 101.166115,473.159334 C101.326758,473.801904 101.005473,474.444475 100.362902,474.685439 C98.595834,475.247688 96.909087,475.729615 95.1420187,476.291864 C94.4994485,476.452507 93.7765569,476.131222 93.6159143,475.488651 L93.6159143,475.488651 C93.3749505,474.685439 93.7765569,473.962547 94.4191272,473.801904 Z M110.965312,471.392266 C109.519529,471.793872 108.154067,472.2758 106.708284,472.677406 C105.985392,472.91837 105.262501,472.516764 105.101858,471.793872 C105.101858,471.793872 105.101858,471.793872 105.101858,471.793872 C104.941216,471.151302 105.342822,470.42841 105.985392,470.267768 C107.431175,469.866161 108.796637,469.384234 110.24242,468.982627 C110.884991,468.741663 111.607882,469.14327 111.848846,469.78584 L111.848846,469.866161 C112.009489,470.508732 111.607882,471.151302 110.965312,471.392266 Z M113.776557,476.211543 C113.776557,476.291864 113.776557,476.291864 113.776557,476.211543 C114.017521,477.014756 113.615914,477.817969 112.812701,477.978611 C111.44724,478.380218 110.001457,478.862145 108.635995,479.263752 C107.832782,479.504716 107.029569,479.022788 106.868926,478.299896 C106.868926,478.299896 106.868926,478.299896 106.868926,478.219575 C106.627963,477.496684 107.10989,476.693471 107.832782,476.452507 C109.198244,476.0509 110.644027,475.568973 112.009489,475.167366 C112.812701,475.087045 113.535593,475.488651 113.776557,476.211543 Z M95.6239465,481.914354 C95.6239465,481.834033 95.6239465,481.834033 95.6239465,481.914354 C95.3829826,481.111141 95.784589,480.307929 96.5878019,480.066965 C98.1139063,479.585037 99.6400107,479.103109 101.246436,478.621182 C102.049649,478.380218 102.852862,478.862145 103.093826,479.585037 C103.093826,479.585037 103.093826,479.585037 103.093826,479.585037 C103.33479,480.307929 102.852862,481.111141 102.129971,481.352105 C100.603866,481.834033 99.0777617,482.315961 97.471336,482.797888 C96.6681232,483.038852 95.8649103,482.637246 95.6239465,481.914354 Z" id="sale_ierogliph" transform="translate(103.441254, 473.182325) rotate(133.000000) translate(-103.441254, -473.182325) "></path>
            </g>
        </g>
    </g>
</svg>