<?xml version="1.0" encoding="UTF-8"?>
<svg width="22px" height="24px" viewBox="0 0 22 24" version="1.1" xmlns="http://www.w3.org/2000/svg" xmlns:xlink="http://www.w3.org/1999/xlink">
    <!-- Generator: sketchtool 53.1 (72631) - https://sketchapp.com -->
    <title>BA2940B8-02D3-49BE-B4E8-C0F5098678C2</title>
    <desc>Created with sketchtool.</desc>
    <g id="design" stroke="none" stroke-width="1" fill="none" fill-rule="evenodd" opacity="0.1">
        <g id="2-slide" transform="translate(-1310.000000, -2538.000000)" fill="#42210B" fill-rule="nonzero">
            <path d="M1327.98757,2547.67021 C1329.99378,2547.76597 1331.52233,2546.23385 1331.90447,2544.31871 C1331.90447,2544.12719 1332,2544.03144 1332,2543.83992 C1332,2543.64841 1332,2543.55265 1331.90447,2543.36114 C1331.80893,2542.49932 1331.33126,2541.73326 1330.75806,2541.06296 C1323.78407,2532.54057 1305.82366,2543.45689 1310.88697,2553.60716 C1310.9825,2553.79867 1311.07803,2553.89443 1311.17357,2553.99019 C1311.84231,2555.13927 1313.08425,2555.90533 1314.42173,2556.00109 C1316.42794,2556.09685 1317.95649,2554.56473 1318.33862,2552.64959 C1318.33862,2552.45807 1318.43416,2552.36232 1318.43416,2552.1708 C1318.43416,2551.97929 1318.43416,2551.88353 1318.33862,2551.69201 C1317.95649,2549.58536 1316.42794,2548.8193 1315.28153,2548.53203 C1314.61279,2548.34051 1314.32619,2547.57445 1314.61279,2546.99991 C1314.70833,2546.90415 1314.80386,2546.71264 1314.8994,2546.61688 C1315.4726,2545.85082 1316.61901,2545.94658 1317.00115,2546.8084 C1318.62523,2550.06414 1321.10911,2555.33079 1322.35106,2558.77805 C1323.21086,2561.26774 1325.59922,2562.99137 1328.17864,2561.3635 C1331.52233,2559.16108 1327.41436,2552.64959 1326.17242,2549.96838 C1325.12155,2547.67021 1323.97514,2545.37204 1322.63766,2543.26538 C1322.25552,2542.59508 1322.73319,2541.73326 1323.49747,2541.73326 C1323.49747,2541.73326 1323.593,2541.73326 1323.593,2541.73326 C1324.1662,2541.73326 1324.54834,2542.21205 1324.45281,2542.78659 C1324.35727,2543.07386 1324.26174,2543.45689 1324.26174,2543.83992 C1324.1662,2545.94658 1325.88582,2547.57445 1327.98757,2547.67021 Z" id="grib"></path>
        </g>
    </g>
</svg>