<?xml version="1.0" encoding="UTF-8"?>
<svg width="114px" height="392px" viewBox="0 0 114 392" version="1.1" xmlns="http://www.w3.org/2000/svg" xmlns:xlink="http://www.w3.org/1999/xlink">
    <!-- Generator: sketchtool 53.1 (72631) - https://sketchapp.com -->
    <title>C8527E02-3C8A-4FAD-9395-2319C28ABB95</title>
    <desc>Created with sketchtool.</desc>
    <g id="design" stroke="none" stroke-width="1" fill="none" fill-rule="evenodd" opacity="0.1">
        <g id="2-slide" transform="translate(-1326.000000, -426.000000)" fill="#FEF5E3" fill-rule="nonzero" stroke="#472821" stroke-width="2">
            <path d="M1342,440 L1401.8,440 C1402,435.8 1402.2,431.8 1402.2,427.8 L1423.2,427.8 C1423.2,432 1423,436 1423,440 L1495.2,440 L1495.2,459.2 L1421.4,459.2 C1421,462.8 1420.4,466.2 1419.8,469.6 L1487.6,469.6 L1487.6,488 L1416.2,488 C1415.4,491.4 1414.4,494.6 1413.4,497.8 L1505.6,497.8 L1505.6,517.2 L1470.8,517.2 L1470.8,532.6 L1502.2,532.6 L1502.2,552 L1470.8,552 L1470.8,590.2 C1470.8,604 1463.8,611 1450,611 L1428,611 L1423.4,591.8 C1430.2,592.6 1436.8,593 1443.2,593 C1448,593 1450.4,590.4 1450.4,585.2 L1450.4,552 L1385.4,552 C1372.8,567.8 1357.2,581.2 1338.8,592 L1327.4,573.8 C1352.4,560.2 1371,541.2 1383.4,517.2 L1332.6,517.2 L1332.6,497.8 L1391.6,497.8 C1392.6,494.4 1393.6,491.2 1394.6,488 L1349,488 L1349,469.6 L1398.6,469.6 C1399.2,466 1399.8,462.6 1400.2,459.2 L1342,459.2 L1342,440 Z M1450.4,532.6 L1450.4,517.2 L1406.2,517.2 C1403.8,522.6 1401.2,527.8 1398.4,532.6 L1450.4,532.6 Z M1391.4,557.4 C1404.2,562.6 1416.2,568.8 1427,576.2 L1416.2,592.6 C1405,584.2 1393.4,577.4 1381.4,572.6 L1391.4,557.4 Z M1346.4,730.6 L1439.2,730.6 L1439.2,797 L1346.4,797 L1346.4,730.6 Z M1419.2,778.6 L1419.2,749 L1366.2,749 L1366.2,778.6 L1419.2,778.6 Z M1472,830.4 L1444.4,830.4 L1439,810.4 L1467.4,811 C1471.8,811 1474,807.4 1474,800.6 L1474,673 L1340.8,673 L1340.8,653 L1494.8,653 L1494.8,806.4 C1494.8,822.4 1487.2,830.4 1472,830.4 Z M1329.6,692.4 L1457.4,692.4 L1457.4,711.4 L1329.6,711.4 L1329.6,692.4 Z" id="寿司"></path>
        </g>
    </g>
</svg>