<?xml version="1.0" encoding="UTF-8"?>
<svg width="78px" height="45px" viewBox="0 0 78 45" version="1.1" xmlns="http://www.w3.org/2000/svg" xmlns:xlink="http://www.w3.org/1999/xlink">
    <!-- Generator: sketchtool 53.1 (72631) - https://sketchapp.com -->
    <title>95EBE254-2119-472C-ACCC-733BA82EA2CA</title>
    <desc>Created with sketchtool.</desc>
    <g id="design" stroke="none" stroke-width="1" fill="none" fill-rule="evenodd">
        <g id="оплата-и-доставка" transform="translate(-1126.000000, -1310.000000)" fill-rule="nonzero">
            <g id="imbir" transform="translate(1126.000000, 1310.000000)">
                <path d="M9.14285714,21.1428571 C3.82857143,17.1142857 1.42857143,11.9714286 3.4,9.14285714 C5.37142857,6.31428571 11.9714286,6.57142857 18.4857143,10.7714286 C21.7445286,12.8037417 24.2906673,15.7991989 25.7714286,19.3428571" id="Path" fill="#F14F10"></path>
                <path d="M47.1142857,19.9428571 C45.6571429,16.3428571 50.1142857,11.3714286 56.9714286,8.45714286 C63.8285714,5.54285714 70.6,6.48571429 72.0571429,10.1714286 C73.5142857,13.8571429 69.1428571,19 62.2,21.6571429" id="Path" fill="#F14F10"></path>
                <path d="M26.2857143,20.5428571 C27.9142857,13.2571429 33.0571429,8.11428571 38.0285714,9.14285714 C42.4022146,10.6073469 45.2488632,14.8246041 44.9714286,19.4285714" id="Path" fill="#F14F10"></path>
                <path d="M36.9142857,5.54285714 C34.2056532,2.4948549 30.3614111,0.696741641 26.2857143,0.571428571 C21.8230926,-0.111023468 17.2961777,1.31353016 14.0285714,4.42857143 C18.6243154,5.81810147 22.7087038,8.53108935 25.7714286,12.2285714 C27.9468998,8.09508455 32.2433402,5.51722032 36.9142857,5.54285714 Z" id="Path" fill="#F14F10"></path>
                <path d="M60.5714286,5.37142857 C57.8266235,2.43351183 53.8515972,0.970702166 49.8571429,1.42857143 C45.6611434,1.04617743 41.5131438,2.55454093 38.5428571,5.54285714 C42.2543614,5.99192262 45.331433,8.62941253 46.3428571,12.2285714 C49.7420454,7.83072698 55.0136486,5.2901953 60.5714286,5.37142857 L60.5714286,5.37142857 Z" id="Path" fill="#F14F10"></path>
                <path d="M69.1428571,30.4857143 L9.14285714,30.4857143 C7.95938982,30.4857143 7,29.5263245 7,28.3428571 C7.04603109,27.1929916 7.99207099,26.2847933 9.14285714,26.2857143 L69.1428571,26.2857143 C70.3263245,26.2857143 71.2857143,27.2451041 71.2857143,28.4285714 C71.2396832,29.578437 70.2936433,30.4866353 69.1428571,30.4857143 Z" id="Path" fill="#F14F10"></path>
                <path d="M57.9142857,44.7142857 L20.6285714,44.7142857 C19.9571904,44.7014337 19.327396,44.3865365 18.9142857,43.8571429 L1.08571429,21.6571429 C0.499036307,21.0755247 0.298943965,20.2084579 0.571428571,19.4285714 C0.938636942,18.6786283 1.70803813,18.2102971 2.54285714,18.2285714 L75.7428571,18.2285714 C76.5545116,18.2285714 77.296504,18.6871479 77.6594868,19.4131137 C78.0224697,20.1390795 77.9441355,21.0078193 77.4571429,21.6571429 L59.5428571,43.8571429 C59.1488298,44.3641291 58.5552747,44.6765265 57.9142857,44.7142857 L57.9142857,44.7142857 Z M21.6571429,40.4285714 L56.8857143,40.4285714 L71.2857143,22.5142857 L7.17142857,22.5142857 L21.6571429,40.4285714 Z" id="Shape" fill="#3D2615"></path>
            </g>
        </g>
    </g>
</svg>