<?xml version="1.0" encoding="UTF-8"?>
<svg width="16px" height="17px" viewBox="0 0 16 17" version="1.1" xmlns="http://www.w3.org/2000/svg" xmlns:xlink="http://www.w3.org/1999/xlink">
    <g class="subscribe-ink" stroke="none" stroke-width="1" fill="#472821" fill-rule="evenodd">
        <g transform="translate(-510.000000, -4891.000000)" fill-rule="nonzero">
            <g transform="translate(-39.000000, 4807.000000)">
                <path d="M557.124981,88.207057 C557.851542,88.207057 558.525368,88.3886974 559.146461,88.7519776 C559.767553,89.1152578 560.25974,89.6074441 560.62302,90.2285365 C560.9863,90.849629 561.16794,91.5234551 561.16794,92.2500161 C561.16794,92.976577 560.9863,93.6504032 560.62302,94.2714956 C560.25974,94.8925881 559.767553,95.3847744 559.146461,95.7480546 C558.525368,96.1113348 557.851542,96.2929752 557.124981,96.2929752 C556.39842,96.2929752 555.724594,96.1113348 555.103502,95.7480546 C554.482409,95.3847744 553.990223,94.8925881 553.626943,94.2714956 C553.263662,93.6504032 553.082022,92.976577 553.082022,92.2500161 C553.082022,91.5234551 553.263662,90.849629 553.626943,90.2285365 C553.990223,89.6074441 554.482409,89.1152578 555.103502,88.7519776 C555.724594,88.3886974 556.39842,88.207057 557.124981,88.207057 Z M557.124981,94.8867286 C557.851542,94.8867286 558.472634,94.6289169 558.988258,94.1132929 C559.503882,93.597669 559.761694,92.976577 559.761694,92.2500161 C559.761694,91.5234551 559.503882,90.9023632 558.988258,90.3867393 C558.472634,89.8711153 557.851542,89.6133036 557.124981,89.6133036 C556.39842,89.6133036 555.777328,89.8711153 555.261704,90.3867393 C554.74608,90.9023632 554.488269,91.5234551 554.488269,92.2500161 C554.488269,92.976577 554.74608,93.597669 555.261704,94.1132929 C555.777328,94.6289169 556.39842,94.8867286 557.124981,94.8867286 Z M562.292938,88.0312762 C562.2695,88.2890879 562.169891,88.5117439 561.99411,88.6992433 C561.818329,88.8867427 561.601533,88.9804926 561.343721,88.9804926 C561.085909,88.9804926 560.863253,88.8867427 560.675754,88.6992433 C560.488255,88.5117439 560.394505,88.2890879 560.394505,88.0312762 C560.394505,87.7734644 560.488255,87.5508084 560.675754,87.363309 C560.863253,87.1758096 561.085909,87.0820597 561.343721,87.0820597 C561.601533,87.0820597 561.824189,87.1758096 562.011688,87.363309 C562.199188,87.5508084 562.292938,87.7734644 562.292938,88.0312762 Z M564.964806,88.9804926 C564.988244,89.6367413 564.999962,90.7265824 564.999962,92.2500161 C564.999962,93.7734498 564.982384,94.8691505 564.947228,95.5371176 C564.912072,96.2050848 564.812463,96.7851615 564.648401,97.2773479 C564.437464,97.8632841 564.115199,98.3730485 563.681606,98.8066411 C563.248014,99.2402336 562.738249,99.5624987 562.152313,99.7734357 C561.660127,99.9374979 561.08005,100.037107 560.412083,100.072263 C559.744116,100.107419 558.648415,100.124997 557.124981,100.124997 C555.601548,100.124997 554.505847,100.107419 553.83788,100.072263 C553.169913,100.037107 552.589836,99.9257789 552.097649,99.7382795 C551.511713,99.5507801 551.001949,99.2402336 550.568356,98.8066411 C550.134764,98.3730485 549.812499,97.8632841 549.601562,97.2773479 C549.437499,96.7851615 549.33789,96.2050848 549.302734,95.5371176 C549.267578,94.8691505 549.25,93.7734498 549.25,92.2500161 C549.25,90.7265824 549.267578,89.6308817 549.302734,88.9629146 C549.33789,88.2949474 549.437499,87.7148707 549.601562,87.2226843 C549.812499,86.636748 550.134764,86.1269836 550.568356,85.6933911 C551.001949,85.2597986 551.511713,84.9375335 552.097649,84.7265965 C552.589836,84.5625342 553.169913,84.4629253 553.83788,84.4277691 C554.505847,84.392613 555.601548,84.3750349 557.124981,84.3750349 C558.648415,84.3750349 559.744116,84.392613 560.412083,84.4277691 C561.08005,84.4629253 561.660127,84.5625342 562.152313,84.7265965 C562.738249,84.9375335 563.248014,85.2597986 563.681606,85.6933911 C564.115199,86.1269836 564.437464,86.636748 564.648401,87.2226843 C564.812463,87.7148707 564.917932,88.3008069 564.964806,88.9804926 Z M563.27731,96.89063 C563.417935,96.4921937 563.511685,95.8593827 563.55856,94.9921971 C563.581997,94.4765731 563.593716,93.7500127 563.593716,92.8125148 L563.593716,91.6875174 C563.593716,90.7265824 563.581997,90.0000215 563.55856,89.5078351 C563.511685,88.6172124 563.417935,87.9844014 563.27731,87.6094022 C562.996061,86.8828412 562.492156,86.3789363 561.765595,86.097687 C561.390596,85.9570623 560.757785,85.8633124 559.867162,85.8164377 C559.351538,85.7930001 558.624978,85.7812815 557.68748,85.7812815 L556.562483,85.7812815 C555.624985,85.7812815 554.898424,85.7930001 554.3828,85.8164377 C553.515615,85.8633124 552.882804,85.9570623 552.484367,86.097687 C551.757806,86.3789363 551.253901,86.8828412 550.972652,87.6094022 C550.832027,87.9844014 550.738278,88.6172124 550.691403,89.5078351 C550.667965,90.0234591 550.656247,90.7500195 550.656247,91.6875174 L550.656247,92.8125148 C550.656247,93.7500127 550.667965,94.4765731 550.691403,94.9921971 C550.738278,95.8593827 550.832027,96.4921937 550.972652,96.89063 C551.277339,97.617191 551.781244,98.1210958 552.484367,98.4023452 C552.882804,98.5429698 553.515615,98.6367198 554.3828,98.6835945 C554.898424,98.7070321 555.624985,98.7187507 556.562483,98.7187507 L557.68748,98.7187507 C558.648415,98.7187507 559.374976,98.7070321 559.867162,98.6835945 C560.757785,98.6367198 561.390596,98.5429698 561.765595,98.4023452 C562.492156,98.0976582 562.996061,97.5937534 563.27731,96.89063 Z" id=""></path>
            </g>
        </g>
    </g>
</svg>