<?xml version="1.0" encoding="UTF-8"?>
<svg width="34px" height="39px" viewBox="0 0 34 39" version="1.1" xmlns="http://www.w3.org/2000/svg" xmlns:xlink="http://www.w3.org/1999/xlink">
    <!-- Generator: sketchtool 53.1 (72631) - https://sketchapp.com -->
    <title>C18040D6-001E-43BE-8152-E1F8617B0916</title>
    <desc>Created with sketchtool.</desc>
    <g id="design" stroke="none" stroke-width="1" fill="none" fill-rule="evenodd" opacity="0.1">
        <g id="2-slide" transform="translate(-473.000000, -327.000000)" fill="#42210B" fill-rule="nonzero">
            <g id="lapsha_bg" transform="translate(489.537590, 347.132823) rotate(-146.000000) translate(-489.537590, -347.132823) translate(470.537590, 329.632823)">
                <path d="M9.07630522,32.1285141 C9.47791165,32.5301205 9.95983936,32.6104418 10.3614458,32.4497992 C10.5220884,32.4497992 10.6024096,32.4497992 10.7630522,32.5301205 C13.7349398,34.1365462 17.0281124,34.2971888 19.9196787,33.4136546 C20.0803213,33.3333333 20.2409639,33.4136546 20.3212851,33.4136546 C25.3815261,36.064257 31.4056225,34.8594378 34.939759,30.2811245 C39.1164659,24.8995984 37.9919679,17.6706827 33.0923695,13.0923695 C33.0923695,13.0923695 33.0120482,13.0120482 33.0120482,13.0120482 C32.6104418,9.87951807 31.0843373,6.82730924 28.6746988,4.41767068 C28.5943775,4.17670683 28.4337349,4.01606426 28.1927711,3.85542169 C26.8273092,2.97188755 25.3012048,2.24899598 23.7751004,1.68674699 C16.626506,-0.883534137 8.51405622,0.16064257 3.53413655,6.66666667 C-2.97188755,15.2610442 1.6064257,25.8634538 9.07630522,32.1285141 Z M27.9518072,24.1767068 C27.9518072,24.1767068 27.9518072,24.1767068 27.9518072,24.1767068 C28.4337349,23.8554217 29.0763052,24.4176707 28.7550201,24.8995984 C28.6746988,24.9799197 28.6746988,25.060241 28.5943775,25.1405622 C28.1927711,25.62249 27.7911647,26.0240964 27.2289157,26.2650602 C27.3895582,25.7028112 27.5502008,25.1405622 27.7108434,24.5783133 C27.7108434,24.3373494 27.7911647,24.2570281 27.9518072,24.1767068 Z M28.5140562,19.1967871 C26.184739,22.6506024 22.1686747,23.4538153 18.6345382,22.0883534 C18.313253,21.9277108 18.1526104,21.5261044 18.3935743,21.2851406 C18.5542169,21.0441767 18.6345382,20.8835341 18.7951807,20.6425703 C18.9558233,20.4016064 19.1967871,20.3212851 19.437751,20.4016064 C22.0080321,21.2851406 24.8995984,20.6425703 26.6666667,18.3935743 C28.6746988,15.8232932 28.3534137,12.3694779 26.5060241,9.87951807 C26.3453815,9.7188755 26.3453815,9.47791165 26.5060241,9.23694779 C26.6666667,8.99598394 26.8273092,8.75502008 26.9879518,8.51405622 C27.2289157,8.19277108 27.7108434,8.19277108 27.8714859,8.51405622 C30.1204819,11.6465863 30.9236948,15.6626506 28.5140562,19.1967871 Z M24.3373494,16.064257 C23.7751004,17.0281124 22.8915663,17.5100402 22.0080321,17.5903614 C21.5261044,17.6706827 21.2048193,17.1084337 21.4457831,16.7068273 C22.1686747,15.5823293 22.9718876,14.4578313 23.6947791,13.3333333 C23.935743,12.9317269 24.5783133,13.0120482 24.6586345,13.4939759 C24.9799197,14.37751 24.8995984,15.2610442 24.3373494,16.064257 Z M16.8674699,24.7389558 C17.0281124,24.8192771 17.188755,24.8995984 17.2690763,24.8995984 C17.751004,25.1405622 17.6706827,25.8634538 17.188755,25.9437751 C16.9477912,26.0240964 16.7068273,26.0240964 16.4658635,26.0240964 C16.064257,26.0240964 15.7429719,25.5421687 15.9839357,25.1405622 L16.1445783,24.8995984 C16.3052209,24.7389558 16.626506,24.6586345 16.8674699,24.7389558 Z M23.2128514,4.89959839 C24.0963855,5.30120482 24.4176707,6.42570281 23.935743,7.22891566 L14.37751,21.3654618 C14.2971888,21.4457831 14.2971888,21.5261044 14.2168675,21.686747 C13.253012,23.0522088 12.2891566,24.497992 11.4056225,25.8634538 C10.6024096,27.0682731 8.75502008,27.1485944 7.95180723,25.8634538 C7.46987952,25.1405622 6.98795181,24.4176707 6.58634538,23.6144578 C4.01606426,18.6345382 4.25702811,13.4939759 7.63052209,8.91566265 C11.4859438,3.93574297 17.6706827,2.81124498 23.2128514,4.89959839 C23.2128514,4.89959839 23.2128514,4.89959839 23.2128514,4.89959839 Z M12.9317269,29.3172691 L13.1726908,28.9959839 C13.3333333,28.7550201 13.5742972,28.6746988 13.815261,28.8353414 C16.9477912,30.0401606 20.3212851,28.9959839 22.3293173,26.0240964 C22.3293173,26.0240964 22.3293173,26.0240964 22.3293173,26.0240964 C22.5702811,26.0240964 22.7309237,26.0240964 22.9718876,25.9437751 C23.4538153,25.8634538 23.6947791,26.3453815 23.5341365,26.746988 C21.5261044,30.3614458 17.188755,31.7269076 13.1726908,30.2008032 C12.9317269,30.0401606 12.7710843,29.6385542 12.9317269,29.3172691 Z M32.7710843,27.7108434 C30.8433735,30.5220884 27.7911647,31.8875502 24.8192771,31.5662651 C24.3373494,31.4859438 24.1767068,30.9236948 24.497992,30.6024096 C24.7389558,30.3614458 25.060241,30.0401606 25.3012048,29.7188755 C25.3815261,29.5582329 25.62249,29.4779116 25.7831325,29.5582329 C27.8714859,29.7188755 29.8795181,28.7550201 31.2449799,26.9076305 C32.7710843,24.8192771 32.7710843,22.5702811 31.8072289,20.4016064 C31.7269076,20.2409639 31.7269076,20.0803213 31.8072289,19.9196787 C32.0481928,19.5180723 32.2088353,19.1164659 32.3694779,18.7148594 C32.5301205,18.2329317 33.1726908,18.2329317 33.3333333,18.7148594 C34.6987952,21.6064257 34.7791165,24.8192771 32.7710843,27.7108434 Z" id="Shape"></path>
            </g>
        </g>
    </g>
</svg>