<?xml version="1.0" encoding="UTF-8"?>
<svg width="117px" height="35px" viewBox="0 0 117 35" version="1.1" xmlns="http://www.w3.org/2000/svg" xmlns:xlink="http://www.w3.org/1999/xlink">
    <!-- Generator: Sketch 53 (72520) - https://sketchapp.com -->
    <title>logo_mob</title>
    <desc>Created with Sketch.</desc>
    <g id="mobile" stroke="none" stroke-width="1" fill="none" fill-rule="evenodd">
        <g id="catalog-filter" transform="translate(-102.000000, -19.000000)">
            <g id="logo_mob" transform="translate(102.000000, 19.000000)">
                <polygon id="Path" fill="#000000" points="77.6245167 7.86692308 77.4897241 7.93153846 77.4897241 7.93153846"></polygon>
                <polygon id="Path" fill="#472821" points="89.6534107 8.56153846 89.5725352 8.56153846 89.5725352 8.56153846"></polygon>
                <path d="M5.99571489,3.42461538 L6.05502365,3.38692308 C6.03739382,3.40256617 6.01737111,3.41529114 5.99571489,3.42461538 L5.99571489,3.42461538 Z" id="Path" fill="#472821"></path>
                <path d="M1.39119876,30.4553846 C2.0080802,32.2227179 3.35506309,33.6404848 5.08990844,34.3484615 C6.78009303,35.0097538 8.68919048,34.7855682 10.179678,33.7507692 C12.1422587,32.3346154 12.8755306,29.9815385 12.8755306,27.6230769 C12.8844612,27.2284015 12.7187734,26.8498539 12.4226385,26.5883527 C12.1265037,26.3268515 11.7300226,26.208977 11.3388946,26.2661538 C10.9133016,26.115171 10.4409382,26.1782178 10.0699825,26.4355168 C9.69902687,26.6928159 9.47492365,27.1128461 9.46797296,27.5638462 C9.50663664,28.396015 9.36311792,29.226594 9.04741996,29.9976923 C9.10133701,29.8523077 8.89645222,30.2884615 8.85871028,30.3476923 C8.82096835,30.4069231 8.70235084,30.5953846 8.62147526,30.7192308 C8.81018494,30.4338462 8.50285775,30.8484615 8.43815729,30.9130769 C8.37345683,30.9776923 8.10387158,31.1876923 8.16857204,31.15 L7.9205536,31.3061538 L7.88281167,31.3061538 C7.93133701,31.3061538 7.88281167,31.3330769 7.80193609,31.3492308 L7.80193609,31.3492308 L7.73723563,31.3815385 L7.79115268,31.3815385 C7.65636005,31.4192308 7.52695913,31.4623077 7.39216651,31.4946154 L7.32207434,31.4946154 L7.24119876,31.4946154 C7.11382163,31.483876 6.98576483,31.483876 6.8583877,31.4946154 L6.73437849,31.4838462 C6.60497757,31.4838462 6.48636005,31.4138462 6.36235084,31.3761538 L6.15746605,31.2684615 L5.91483932,31.1176923 L5.69917111,30.9453846 L5.47811121,30.7084615 L5.41341075,30.6223077 C5.3594937,30.5307692 5.30018494,30.4446154 5.25165959,30.3584615 C5.20313425,30.2723077 5.13843379,30.1484615 5.08990844,30.0407692 C5.16539231,30.1969231 4.99285775,29.75 4.97129093,29.68 C4.91198217,29.4861538 4.86884853,29.2869231 4.82571489,29.0876923 C4.71788079,28.5815385 4.64239692,28.07 4.56691305,27.5584615 C4.56691305,27.4992308 4.56691305,27.44 4.56691305,27.3753846 L4.50221259,26.8369231 C4.45907895,26.4707692 4.42133701,26.0992308 4.38359508,25.7276923 C4.03233398,22.0107036 3.899111,18.2763754 3.9846089,14.5438462 C4.02774254,12.6161538 4.13018494,10.6884615 4.35663655,8.77692308 L4.38898678,8.49153846 C4.38898678,8.49153846 4.38898678,8.34615385 4.42133701,8.26538462 C4.45368724,8.18461538 4.45368724,8.02846154 4.45368724,8.04461538 C4.45368724,7.95846154 4.45368724,7.86692308 4.49142918,7.77538462 C4.56152134,7.35 4.63161351,6.92461538 4.71788079,6.49923077 C4.83775568,5.72523473 5.05890989,4.97031637 5.37566881,4.25384615 C5.4629766,4.08726142 5.56207621,3.92711111 5.67221259,3.77461538 C5.63986236,3.83384615 5.92023102,3.51076923 5.98493148,3.45153846 L6.01189001,3.42461538 L5.98493148,3.42461538 L6.01189001,3.42461538 C6.08198217,3.37076923 6.17903287,3.32230769 6.07119876,3.38692308 L6.23834162,3.28461538 L6.41087618,3.19846154 C6.08737388,3.36 6.33539231,3.23076923 6.41087618,3.19846154 L6.57262734,3.16076923 L6.80986236,3.16076923 C6.92337819,3.20398886 7.04071617,3.23643972 7.16032319,3.25769231 C7.19267342,3.25769231 7.3867748,3.37076923 7.46765038,3.41923077 L7.55930936,3.47846154 L7.7048854,3.60230769 C7.76419416,3.65615385 8.0283877,3.96307692 8.00682088,3.92 C8.10027711,4.04923077 8.18654439,4.18384615 8.26562273,4.32384615 C8.30875637,4.39923077 8.47589922,4.77615385 8.45972411,4.71692308 C8.52981628,4.92153846 8.59451674,5.12076923 8.64843379,5.33076923 C8.64843379,5.43846154 8.69695913,5.55153846 8.71852595,5.66461538 L8.74548448,5.77230769 C8.74316206,5.79738238 8.74316206,5.82261762 8.74548448,5.84769231 C8.78952885,6.41830648 8.77688653,6.99187412 8.70774254,7.56 C8.71069864,8.33494635 9.33901088,8.96243241 10.1149776,8.96538462 C10.2406174,8.96621609 10.3657825,8.94991166 10.4870052,8.91692308 C11.1885099,9.02389839 11.8588056,8.58843164 12.045208,7.90461538 C12.3848854,5.71846154 11.953549,3.48384615 10.362996,1.86846154 C9.07786721,0.487567012 7.1413482,-0.0841623588 5.31096835,0.376923077 C3.04645222,1.04461538 2.04359508,3.15 1.44511581,5.25538462 C0.779955989,7.69927309 0.357364303,10.202632 0.183456829,12.7292308 C-0.154996894,17.2177117 -0.0248955028,21.7291811 0.571659594,26.1907692 C0.68404128,27.6384754 0.958945451,29.0689873 1.39119876,30.4553846 L1.39119876,30.4553846 Z" id="Path" fill="#472821"></path>
                <path d="M16.4017057,9.22384615 C17.9759645,10.0289312 19.8469526,10.0047431 21.3998163,9.15923077 C21.3998163,10.8320513 21.3872356,12.5066667 21.3620743,14.1830769 C21.3405075,17.5107692 21.3243324,20.8402564 21.313549,24.1715385 L21.313549,26.4761538 C21.313549,26.8530769 21.313549,27.2353846 21.2811988,27.6123077 C21.2811988,27.6876923 21.2811988,27.7576923 21.2811988,27.8330769 C21.2811988,27.9084615 21.2811988,27.8707692 21.2811988,27.8869231 L21.2811988,27.8869231 C21.2811988,28.07 21.2164983,28.2530769 21.1733647,28.4253846 C21.1005154,28.7399538 21.0068536,29.0493509 20.892996,29.3515385 L20.892996,29.4161538 C20.8742223,29.4452205 20.8579873,29.4758462 20.8444707,29.5076923 C20.7635951,29.6530769 20.6881112,29.8038462 20.5964522,29.9492308 C20.5403667,30.0440144 20.4791707,30.1356878 20.4131342,30.2238462 C20.380784,30.2615385 20.3538255,30.2992308 20.3160836,30.3369231 C20.2783416,30.3746154 20.1381573,30.52 20.0411066,30.6115385 L19.9817978,30.6653846 L19.9817978,30.6653846 C19.868572,30.7246154 19.7499545,30.8 19.6367287,30.87 L19.6043785,30.87 L19.5450697,30.87 L19.3725352,30.9130769 C19.4210605,30.9130769 19.3725352,30.9130769 19.3078347,30.9130769 L19.2269591,30.9130769 L19.2970513,30.9130769 L19.1083416,30.9130769 C19.0090285,30.8828987 18.9082555,30.8577386 18.8064061,30.8376923 L18.7578808,30.8053846 C18.7118738,30.7710488 18.6631936,30.7404386 18.6123048,30.7138462 C18.5368209,30.6438462 18.4559453,30.5738462 18.3804614,30.4930769 C18.3416931,30.4543342 18.3056619,30.4129528 18.2726273,30.3692308 L18.2726273,30.3692308 C18.2025352,30.24 18.1162679,30.1269231 18.0461757,29.9976923 L17.9437333,29.7930769 L17.9437333,29.7930769 L17.9437333,29.7930769 C17.6707869,29.0563523 17.5231736,28.2792164 17.5070052,27.4938462 C17.4958799,27.1076315 17.3295648,26.7421442 17.0455541,26.4797797 C16.7615434,26.2174153 16.3837443,26.0802587 15.9973278,26.0992308 C15.9220531,26.0912934 15.8461508,26.0912934 15.7708762,26.0992308 C15.3502332,25.9831182 14.899423,26.070076 14.5523331,26.3342783 C14.2052433,26.5984806 14.0017898,27.0095438 14.0023969,27.4453846 C13.9592633,30.1861538 15.2317057,33.3684615 18.2618439,33.8423077 C21.1625813,34.3215385 23.5780651,32.3884615 24.5970974,29.7876923 C25.298019,27.9892308 25.1362679,26.0184615 25.1362679,24.1015385 C25.1362679,21.714359 25.1111066,19.3271795 25.060784,16.94 C24.999678,13.4220513 24.908019,9.90948718 24.7858071,6.40230769 C24.73189,4.85153846 24.6725813,3.30615385 24.586314,1.76076923 C24.5740047,1.3666654 24.3964869,0.995852432 24.0970834,0.738826919 C23.79768,0.481801406 23.403933,0.362207057 23.0119361,0.409230769 C22.6189267,0.351205171 22.2201148,0.467171464 21.919723,0.726823837 C21.6193313,0.986476211 21.4472105,1.3640122 21.4483416,1.76076923 C21.4483416,2.16461538 21.4483416,2.56846154 21.3944246,2.96692308 C21.3765427,3.25165524 21.3350644,3.53441776 21.2704154,3.81230769 C21.2068052,4.13110845 21.1239817,4.44578339 21.0223969,4.75461538 C20.9792633,4.88923077 20.9307379,5.02384615 20.8822126,5.15307692 L20.7689868,5.39 C20.6449776,5.62692308 20.4994015,5.84230769 20.3646089,6.06846154 C20.3646089,6.06846154 20.3646089,6.06846154 20.3646089,6.10076923 C20.3512644,6.10863449 20.3401343,6.11974996 20.3322587,6.13307692 C20.2513831,6.22461538 20.1705075,6.31615385 20.0788485,6.40769231 C19.9871895,6.49923077 19.9224891,6.54230769 19.8470052,6.61769231 L19.8470052,6.61769231 L19.7984799,6.65 C19.7190118,6.70533526 19.6361796,6.75568858 19.5504614,6.80076923 C19.4102771,6.88153846 19.1137333,6.93538462 19.4803693,6.84923077 C19.302443,6.89230769 19.1299084,6.96230769 18.9411988,7.00538462 L18.9411988,7.00538462 L18.8225813,6.97846154 L18.5206458,6.89230769 L18.5206458,6.89230769 L18.0246089,6.60153846 L18.0246089,6.60153846 L17.9814753,6.55846154 L17.7226734,6.31615385 L17.5177886,6.08461538 C17.5052122,6.06362401 17.4907766,6.04380105 17.474655,6.02538462 C17.3290789,5.79923077 17.1942863,5.57307692 17.0702771,5.33076923 C17.0702771,5.28230769 17.0217518,5.22846154 16.9947932,5.17461538 C16.9408762,5.01846154 16.8815674,4.86230769 16.8330421,4.70076923 C16.7367354,4.37524334 16.6593255,4.04443664 16.6011988,3.71 C16.6001323,3.69566078 16.6001323,3.6812623 16.6011988,3.66692308 C16.6011988,3.60769231 16.6011988,3.46230769 16.6011988,3.44076923 C16.6011988,3.25769231 16.5742402,3.08 16.5688485,2.90230769 C16.5553774,2.46230444 16.5661772,2.02189416 16.6011988,1.58307692 C16.5953292,0.809345499 15.9687139,0.183554161 15.1939637,0.177692308 C15.1015479,0.175422462 15.0092016,0.184464122 14.9189868,0.204615385 C14.8359872,0.185030161 14.7508444,0.175984331 14.6655766,0.177692308 C13.8932266,0.189249817 13.2699143,0.811742428 13.2583416,1.58307692 C12.9671895,4.38307692 13.7489868,7.75923077 16.4017057,9.22384615 Z M16.9570513,5.16923077 L16.9570513,5.16923077 C16.9894015,5.26615385 17.0001849,5.32538462 16.9570513,5.18538462 L16.9570513,5.16923077 Z" id="Shape" fill="#472821" fill-rule="nonzero"></path>
                <path d="M27.1311988,26.8153846 C27.1311988,29.2976923 27.5894937,32.5015385 30.1235951,33.7023077 C30.9441512,34.1096633 31.8732868,34.2454556 32.776314,34.09 C33.7534643,33.8513268 34.6044981,33.2533099 35.1594476,32.4153846 C35.3834457,32.7385262 35.645973,33.033255 35.9412448,33.2930769 C36.7989107,34.0712277 37.974438,34.3986647 39.1115674,34.1761538 C41.4192172,33.8046154 42.7132264,31.6292308 43.0636872,29.4861538 C43.2370292,28.1203007 43.3055239,26.7432084 43.268572,25.3669231 C43.268572,24.0961538 43.2811527,22.8289744 43.306314,21.5653846 C43.3764061,15.5130769 43.5004154,9.45 43.306314,3.39769231 C43.306314,2.82692308 43.2847472,2.25615385 43.2416135,1.68538462 C43.2391531,0.912004781 42.6245157,0.279142134 41.8505536,0.253076923 C41.7597318,0.253212541 41.6692437,0.264056837 41.5809683,0.285384615 C41.4891507,0.263408448 41.395016,0.25256104 41.3005997,0.253076923 C40.5165784,0.256042817 39.8825756,0.891619396 39.8825813,1.67461538 C40.1521665,7.24230769 39.9796319,12.8423077 39.8825813,18.4153846 C39.8394476,20.93 39.7855306,23.4446154 39.7639637,25.9538462 C39.8182532,27.1987971 39.7405398,28.445991 39.5321204,29.6746154 C39.4730408,29.9322863 39.3974002,30.1858885 39.3056688,30.4338462 C39.2935205,30.465358 39.279105,30.4959507 39.2625352,30.5253846 C39.2086181,30.6276923 39.1331342,30.73 39.0846089,30.8376923 C39.035787,30.8785022 38.9906799,30.92355 38.9498163,30.9723077 C38.8984831,31.0001973 38.849762,31.0326353 38.8042402,31.0692308 L38.7017978,31.1015385 L38.5670052,31.1015385 L38.2812448,31.1015385 C38.2111527,31.1015385 38.1356688,31.1015385 38.0601849,31.1015385 C38.3351619,31.1015385 38.2542863,31.1015385 38.1248854,31.1015385 L38.0170513,31.0476923 L38.0170513,31.0476923 C37.9523508,30.9776923 37.8553001,30.8646154 37.8660836,30.8915385 C37.8013831,30.7946154 37.7420743,30.6976923 37.6881573,30.6007692 C37.6396319,30.5146154 37.5964983,30.4284615 37.5533647,30.3369231 C37.5533647,30.3369231 37.4670974,30.0838462 37.4509223,30.03 C37.3390626,29.6780086 37.2543451,29.3179826 37.1975121,28.9530769 C36.9387103,27.4615385 37.0681112,25.7223077 37.0411527,24.1338462 C36.9764522,19.7974359 36.8973739,15.4664103 36.8039177,11.1407692 C36.7392172,8.06076923 36.7338255,4.97538462 36.6098163,1.89538462 C36.612607,1.84337064 36.612607,1.79124474 36.6098163,1.73923077 L36.6098163,1.50230769 C36.60727,1.49351347 36.60727,1.48417884 36.6098163,1.47538462 C36.5019822,-0.226153846 33.8007379,-0.193846154 33.8007379,1.58307692 L33.8007379,1.64769231 C33.7432264,4.23948718 33.6875121,6.82948718 33.6335951,9.41769231 C33.5473278,13.8617949 33.4628578,18.3023077 33.3801849,22.7392308 C33.3801849,24.1230769 33.3370513,25.5069231 33.3316596,26.8907692 C33.3407125,27.5498895 33.2992551,28.2087354 33.2076504,28.8615385 C33.1540775,29.1986518 33.0766015,29.5315403 32.9758071,29.8576923 C32.9758071,29.9169231 32.8787564,30.1484615 32.8571895,30.2076923 L32.7170052,30.4930769 C32.6576965,30.6007692 32.592996,30.6976923 32.5282955,30.7946154 L32.4258531,30.9076923 L32.3341942,30.9453846 C32.1778347,31.0261538 32.1023508,31.0261538 32.3341942,30.9830769 L32.1508762,31.0369231 L32.0969591,31.0369231 L31.7680651,31.0369231 L31.6817978,31.0369231 L31.5577886,30.9992308 C31.5166816,30.9691972 31.4734329,30.9422023 31.4283877,30.9184615 C31.3807959,30.86555 31.3304012,30.8152215 31.27742,30.7676923 L31.27742,30.7676923 L31.27742,30.7353846 C31.239678,30.6546154 31.185761,30.5792308 31.1426273,30.4984615 C31.111581,30.4393198 31.0845612,30.3781555 31.0617518,30.3153846 C30.9808762,30.0838462 30.9053923,29.8469231 30.8460836,29.6046154 C30.6933582,28.8969623 30.6192237,28.1746498 30.6250236,27.4507692 C30.58189,25.1138462 30.5764983,22.7769231 30.5387564,20.4507692 C30.4417057,14.7269231 30.2907379,8.98692308 30.4470974,3.26307692 C30.4470974,2.72461538 30.4794476,2.15923077 30.5064061,1.61 C30.5123965,0.82697911 29.8831955,0.186567679 29.0991711,0.177692308 C29.0051088,0.178507939 28.911297,0.187516443 28.8188025,0.204615385 C28.406508,0.121903644 27.9788438,0.229151916 27.6545862,0.49657387 C27.3303285,0.763995825 27.1440088,1.16311276 27.1473739,1.58307692 C26.8616135,7.46846154 27.0071895,13.3807692 27.07189,19.2715385 C27.0880651,21.7915385 27.1258071,24.3007692 27.1311988,26.8153846 Z" id="Shape" fill="#472821" fill-rule="nonzero"></path>
                <path d="M51.2914292,33.9176923 C52.6044074,33.746017 53.8099181,33.1029026 54.6828117,32.1084615 C55.3064763,32.764533 56.0176798,33.3316605 56.7963601,33.7938462 C57.2364878,34.102124 57.8261397,34.0890378 58.2521204,33.7615385 C58.4458278,33.6436074 58.6085042,33.481145 58.7265905,33.2876923 C58.9608946,32.8694802 58.9608946,32.3597505 58.7265905,31.9415385 C58.605951,31.7003948 58.4189015,31.498647 58.18742,31.36 C57.2330882,30.7461538 56.8233186,29.9707692 56.5699084,28.7430769 C56.4604082,28.1368119 56.3991109,27.5228449 56.3865905,26.9069231 C56.3542402,26.0669231 56.3865905,25.2215385 56.3865905,24.3761538 C56.3865905,24.3061538 56.3865905,24.2415385 56.3865905,24.1769231 C56.3865905,23.31 56.3865905,22.4430769 56.413549,21.5761538 C56.4836412,15.4484615 56.6076504,9.31538462 56.413549,3.18769231 C56.413549,2.59538462 56.3758071,1.99769231 56.3488485,1.40538462 C56.3327457,0.650441355 55.7345758,0.0365946119 54.9793554,0 C54.8013519,0.0351172244 54.6181885,0.0351172244 54.4401849,0 C53.6645355,0.00581880109 53.0363508,0.630783029 53.0275582,1.40538462 C53.2971435,7.03230769 53.1246089,12.6807692 53.0275582,18.3076923 C52.9844246,20.8384615 52.9305075,23.3746154 52.9143324,25.9053846 C52.9937031,27.1514484 52.8531786,28.4017475 52.4991711,29.5992308 L52.4668209,29.7069231 L52.4344707,29.7553846 C52.3751619,29.8469231 52.3320283,29.9492308 52.2781112,30.0407692 L52.1594937,30.2184615 L51.9977425,30.4015385 C51.9492172,30.4553846 51.8737333,30.5038462 51.825208,30.5576923 L51.7982495,30.5576923 C51.7180324,30.5973198 51.6405763,30.6422932 51.5664061,30.6923077 L51.5664061,30.6923077 L51.6041481,30.6923077 L51.5664061,30.6923077 C51.404655,30.7838462 51.404655,30.7407692 51.5178808,30.6923077 C51.3938716,30.7246154 51.2698624,30.7838462 51.1458531,30.8107692 L50.9894937,30.8107692 C50.8816596,30.8107692 50.7738255,30.8107692 50.6605997,30.8107692 L50.5150236,30.8107692 L50.4341481,30.8107692 L50.3101389,30.7730769 L50.0729038,30.6438462 C50.0293529,30.6184458 49.9878866,30.5896376 49.9488946,30.5576923 C49.8518439,30.4769231 49.7601849,30.3907692 49.6739177,30.3046154 L49.5121665,30.1215385 L49.4798163,30.0838462 L49.4258992,30.0030769 C49.3827656,29.9276923 49.3288485,29.8576923 49.2857149,29.7823077 C49.138537,29.5596377 49.0207442,29.3189324 48.9352541,29.0661538 C48.3960836,27.5207692 48.5686181,25.7330769 48.5416596,24.0853846 C48.4769591,19.7274359 48.3978808,15.3694872 48.3044246,11.0115385 C48.2397241,7.87230769 48.2397241,4.72230769 48.1049315,1.58307692 L48.1049315,1.35692308 C48.1049315,-0.414615385 45.4090789,-0.452307692 45.2904614,1.24923077 L45.2904614,1.24923077 C45.2877945,1.27608798 45.2877945,1.30314279 45.2904614,1.33 L45.2904614,23.9453846 C45.2904614,25.7761538 45.1071435,27.7684615 45.6894476,29.5238462 C46.449678,32.0223077 48.5578347,34.2892308 51.2914292,33.9176923 Z" id="Path" fill="#472821"></path>
                <path d="M100.226544,21.0538462 L100.172627,21.0538462 L100.226544,21.0538462 Z" id="Path" fill="#472821"></path>
                <path d="" id="Path" fill="#472821"></path>
                <path d="M79.4630882,31.7315385 L79.4199545,31.7315385 L79.4630882,31.7315385 Z" id="Path" fill="#472821"></path>
                <path d="M83.323549,32.7007692 C83.080373,32.0576862 82.8733683,31.4015352 82.7035029,30.7353846 C82.7035029,30.6707692 82.7035029,30.6061538 82.665761,30.5415385 L82.665761,30.5092308 C82.665761,30.3584615 82.6388025,30.2023077 82.628019,30.0515385 C82.6172356,29.9007692 82.628019,29.68 82.628019,29.5130769 C82.628019,29.1146154 82.628019,28.7107692 82.628019,28.3123077 C82.628019,28.2261538 82.628019,28.14 82.628019,28.0538462 C82.628019,27.9676923 82.628019,27.7738462 82.628019,27.6284615 C82.6308198,27.58543 82.6308198,27.5422623 82.628019,27.4992308 L82.628019,25.8084615 C82.6711527,21.8238462 82.75742,17.8338462 82.628019,13.8492308 C82.628019,13.4669231 82.6010605,13.0792308 82.5848854,12.6915385 C82.5707852,12.1919345 82.1685573,11.7902355 81.6682955,11.7761538 C81.5514241,11.8048986 81.4293145,11.8048986 81.312443,11.7761538 C80.8074491,11.7790946 80.3987978,12.1872086 80.3958531,12.6915385 C80.5683877,16.3476923 80.4551619,20.0253846 80.3958531,23.6815385 C80.3635029,25.2969231 80.3311527,26.9553846 80.3203693,28.5923077 C80.3738076,29.3996227 80.288093,30.2101082 80.0669591,30.9884615 C80.0669591,31.0207692 80.0400006,31.0476923 80.0292172,31.08 L80.0292172,31.08 C79.9914753,31.1392308 79.9645167,31.2092308 79.9267748,31.2684615 C79.8890329,31.3276923 79.8405075,31.3976923 79.8027656,31.4623077 C79.905208,31.3007692 79.8027656,31.4623077 79.7488485,31.5107692 C79.6949315,31.5592308 79.6517978,31.5915385 79.6140559,31.6346154 L79.4684799,31.7207692 L79.4415213,31.7207692 L79.4415213,31.7207692 C79.3660375,31.7584615 79.3336872,31.7584615 79.3983877,31.7207692 C79.3282955,31.7207692 79.2635951,31.7692308 79.1935029,31.7853846 L79.0856688,31.7853846 L78.8700006,31.7853846 L78.7459914,31.7853846 L78.7028578,31.7853846 L78.6489407,31.7853846 L78.497973,31.6992308 L78.4548393,31.6992308 L78.4548393,31.6992308 L78.2715213,31.4838462 C78.2488352,31.4672476 78.228833,31.4472717 78.2122126,31.4246154 L78.1852541,31.3869231 L78.0235029,31.1338462 C77.9294162,30.9830998 77.8568284,30.8199921 77.8078347,30.6492308 C77.4789407,29.6423077 77.5921665,28.4953846 77.5705997,27.4184615 C77.5166826,24.5915385 77.4465905,21.77 77.3764983,18.9430769 C77.3225813,16.9023077 77.3117978,14.8507692 77.2147472,12.81 L77.2147472,12.6646154 C77.2034363,12.182166 76.8190349,11.7913499 76.3362295,11.7714372 C75.853424,11.7515246 75.4380644,12.1093557 75.3869591,12.5892308 C75.384323,12.6034691 75.384323,12.6180694 75.3869591,12.6323077 L75.3869591,27.3753846 C75.3869591,28.5653846 75.2683416,29.8576923 75.645761,30.9992308 C76.1849315,32.5715385 77.5382495,34.0523077 79.3175121,33.8153846 C80.0018615,33.7254071 80.6448064,33.4371176 81.166867,32.9861538 C81.3929373,33.2792243 81.6684459,33.5306825 81.9810144,33.7292308 C82.1405714,33.8325292 82.3314716,33.8763786 82.5201849,33.8530769 C82.5839701,33.8520453 82.6473716,33.8429999 82.7088946,33.8261538 C82.8218987,33.7823962 82.9260244,33.7185434 83.0162218,33.6376923 C83.1002943,33.56806 83.1714677,33.4842224 83.2264983,33.39 C83.2610119,33.3364128 83.2882105,33.2784654 83.3073739,33.2176923 C83.3670666,33.0513715 83.3727267,32.8704878 83.323549,32.7007692 L83.323549,32.7007692 Z" id="Path" fill="#472821"></path>
                <path d="M74.0498163,15.0607692 C73.9042402,13.5423077 73.268019,11.8784615 71.5642402,11.5984615 C71.1950221,11.5338872 70.8173754,11.5338872 70.4481573,11.5984615 C70.3441055,11.6140829 70.2413745,11.637482 70.1408301,11.6684615 L69.9736872,11.7223077 C68.9621068,12.0990366 68.1533092,12.8794559 67.7415213,13.8761538 C67.5365979,14.4568653 67.4061588,15.0611626 67.3533186,15.6746154 C67.2400928,16.4769231 67.1484338,17.29 67.0621665,18.0869231 C66.5825465,22.4345162 66.420367,26.8112032 66.576913,31.1823077 C66.576913,31.43 66.6038716,31.6776923 66.614655,31.9253846 L65.352996,31.9253846 C64.8467774,31.9253846 64.4364061,32.3352163 64.4364061,32.8407692 C64.4364061,33.3463222 64.8467774,33.7561538 65.352996,33.7561538 L72.9876504,33.7561538 C73.1232656,33.7591834 73.2578137,33.7315729 73.3812448,33.6753846 C73.752635,33.5674146 74.0076834,33.2270653 74.0066826,32.8407692 C74.0605997,31.1392308 74.0983416,29.4376923 74.1306919,27.7361538 C74.1953923,24.64 74.2439177,21.5438462 74.1953923,18.4423077 C74.1738255,17.3169231 74.1576504,16.1861538 74.0498163,15.0607692 Z M69.0247472,31.9253846 C68.916913,28.4953846 68.9816135,25.0546154 69.100231,21.63 C69.1595398,19.9661538 69.2350236,18.3076923 69.3698163,16.6492308 C69.3967748,16.3530769 69.4237333,16.0569231 69.4560836,15.7607692 C69.4560836,15.6369231 69.4830421,15.5130769 69.4992172,15.3892308 L69.4992172,15.3892308 L69.4992172,15.3892308 C69.4992172,15.2976923 69.4992172,15.2923077 69.4992172,15.33 C69.5018368,15.3013416 69.5018368,15.2725045 69.4992172,15.2438462 C69.4992172,15.1307692 69.5369591,15.0176923 69.5639177,14.91 C69.5908762,14.8023077 69.6070513,14.7161538 69.6340098,14.6246154 C69.6635249,14.5562533 69.6887353,14.4861167 69.7094937,14.4146154 C69.7749386,14.2836591 69.8469184,14.156063 69.9251619,14.0323077 L69.9521204,13.9784615 L69.9521204,13.9784615 C70.0114292,13.9138462 70.0599545,13.8546154 70.1192633,13.7953846 L70.2324891,13.6930769 L70.3511066,13.6123077 L70.5128578,13.5207692 L70.5829499,13.5207692 L70.7123508,13.4938462 C70.6638255,13.4938462 70.6692172,13.4938462 70.7554845,13.4938462 L70.8687103,13.4938462 C70.9137834,13.5108211 70.9609312,13.521687 71.0088946,13.5261538 L71.0358531,13.5261538 L71.1221204,13.58 L71.2299545,13.6769231 C71.2838716,13.7307692 71.3755306,13.8815385 71.2892633,13.7361538 C71.3377886,13.8115385 71.386314,13.8869231 71.4294476,13.9676923 C71.4725813,14.0484615 71.5049315,14.14 71.5103232,14.14 C71.5805657,14.3385583 71.636424,14.541903 71.677466,14.7484615 C71.677466,14.8130769 71.677466,14.8830769 71.715208,14.9530769 C71.7529499,15.0230769 71.715208,14.9961538 71.715208,15.0176923 L71.7475582,15.3138462 L71.7960836,16.0084615 C71.8284338,16.5792308 71.8500006,17.15 71.860784,17.7207692 C71.9362679,20.7523077 71.8931342,23.7892308 71.860784,26.8153846 C71.8284338,28.5384615 71.7529499,30.2669231 71.7259914,31.9846154 L69.0247472,31.9253846 Z" id="Shape" fill="#472821" fill-rule="nonzero"></path>
                <path d="M100.237328,14.9746154 C100.205983,14.1950021 99.9698316,13.4373411 99.5525813,12.7776923 C99.0698993,12.0855478 98.3067861,11.6404915 97.4659914,11.5607692 C95.9262094,11.4576051 94.4825221,12.3145376 93.8373739,13.7146154 C93.5830444,14.3768885 93.4321131,15.074255 93.3898624,15.7823077 C93.3035951,16.52 93.249678,17.2576923 93.2011527,18.0007692 C92.9199761,22.3769853 92.9001714,26.7660463 93.1418439,31.1446154 C93.1741942,31.6830769 93.2065444,32.2538462 93.249678,32.8030769 C93.2481618,33.0939858 93.3860065,33.3680851 93.6205695,33.5405817 C93.8551326,33.7130783 94.158139,33.7631788 94.4358531,33.6753846 C94.7141314,33.7627841 95.0174493,33.7126771 95.2527235,33.5404404 C95.4879976,33.3682038 95.6271289,33.0944081 95.62742,32.8030769 C95.566314,31.2523077 95.5141942,29.7015385 95.4710605,28.1507692 L98.0429038,28.0646154 C97.9997702,29.61 97.9350697,31.1607692 97.9350697,32.7061538 L97.9350697,32.8030769 C97.9237794,33.0805169 98.0470745,33.3463847 98.2662535,33.5172263 C98.4854326,33.6880679 98.773625,33.7429388 99.0403693,33.6646154 C99.3123722,33.7370883 99.6026249,33.6814831 99.8284671,33.5136355 C100.054309,33.3457879 100.190991,33.0840925 100.199586,32.8030769 C100.253503,31.0907692 100.291245,29.3784615 100.323595,27.6607692 C100.388296,24.5538462 100.436821,21.4415385 100.382904,18.3346154 C100.366729,17.2253846 100.350554,16.0946154 100.237328,14.9746154 Z M95.3847932,21.6030769 C95.3847932,19.9338462 95.3847932,18.2592308 95.4710605,16.59 C95.4710605,16.2884615 95.5088025,15.9815385 95.535761,15.68 L95.5681112,15.3192308 C95.5681112,15.2707692 95.5681112,15.2223077 95.5681112,15.1738462 C95.5681112,15.0446154 95.6058531,14.9153846 95.6382034,14.7861538 C95.6705536,14.6569231 95.681337,14.63 95.7082955,14.5492308 L95.7568209,14.4038462 L95.7568209,14.4038462 C95.8323048,14.2584615 95.9131803,14.1184615 95.9994476,13.9784615 L95.9994476,13.9461538 L96.0371895,13.9084615 C96.10189,13.8438462 96.1611988,13.7738462 96.2312909,13.7092308 C96.3013831,13.6446154 96.4631342,13.5369231 96.2798163,13.6607692 L96.4415674,13.5530769 L96.6033186,13.4669231 L96.7111527,13.4292308 L96.8405536,13.4292308 C96.8028117,13.4292308 96.8135951,13.4292308 96.8836872,13.4292308 L96.9214292,13.4292308 L96.8836872,13.4292308 L97.034655,13.4292308 L97.1910144,13.4615385 L97.1910144,13.4615385 C97.2465951,13.4987888 97.3041945,13.5329434 97.363549,13.5638462 L97.363549,13.5638462 L97.3958992,13.5961538 C97.4282495,13.6392308 97.4659914,13.6769231 97.5037333,13.72 C97.5391897,13.7663202 97.5716077,13.8148832 97.600784,13.8653846 C97.6420141,13.9306785 97.6780687,13.9990921 97.7086181,14.07 L97.7679269,14.2261538 C97.8056688,14.35 97.8434107,14.4738462 97.8703693,14.5976923 C97.8973278,14.7215385 97.8973278,14.7323077 97.9081112,14.8023077 C97.9126221,14.8236106 97.9126221,14.8456202 97.9081112,14.8669231 L97.9081112,14.9207692 L97.9404614,15.2115385 L97.9889868,15.9007692 C98.021337,16.4661538 98.0429038,17.0315385 98.0590789,17.6023077 C98.1291711,20.4884615 98.0914292,23.3853846 98.0590789,26.2769231 L95.4009683,26.3630769 C95.3794015,24.7512821 95.3668209,23.1646154 95.3632264,21.6030769 L95.3847932,21.6030769 Z" id="Shape" fill="#472821" fill-rule="nonzero"></path>
                <path d="M90.2464983,27.1761538 C90.1131998,27.071279 89.9726674,26.9759146 89.8259453,26.8907692 C90.493681,26.2040336 90.9211249,25.3200483 91.0444707,24.3707692 C91.2636875,22.685805 91.3268581,20.9842423 91.2331803,19.2876923 C91.2331803,18.1246154 91.184655,16.9615385 91.1684799,15.7930769 C91.219858,14.8037983 90.9473205,13.8247097 90.3920743,13.0038462 C89.3730421,11.6469231 87.3619361,11.0061538 85.8684338,12.0130769 C84.5205075,12.9176923 84.3587564,14.4846154 84.2778808,15.9653846 C84.1053462,19.1638462 84.1754384,22.3838462 84.2239637,25.5823077 C84.2617057,27.9569231 84.2832725,30.3369231 84.3857149,32.7115385 C84.3830264,32.7527769 84.3830264,32.7941462 84.3857149,32.8353846 C84.3971152,33.3361458 84.8008842,33.7393839 85.3023048,33.7507692 C85.7836564,33.7750716 86.2659301,33.7750716 86.7472817,33.7507692 C87.6126224,33.8027441 88.4782342,33.6534427 89.2759914,33.3146154 C90.4484343,32.7559341 91.240769,31.623179 91.3625813,30.3315385 C91.6074836,29.1542779 91.1774847,27.938587 90.2464983,27.1761538 Z M88.8284799,14.42 L88.8284799,14.42 C88.8608301,14.5169231 88.844655,14.4738462 88.8284799,14.4415385 L88.8284799,14.42 Z M87.6962218,13.3915385 L87.8094476,13.3915385 L87.9873739,13.4507692 C87.7609223,13.3807692 87.9873739,13.4507692 88.057466,13.4938462 L88.2515674,13.6123077 L88.3054845,13.6607692 C88.3647932,13.72 88.424102,13.7738462 88.478019,13.8330769 L88.5588946,13.9246154 L88.5588946,13.9246154 C88.6534936,14.0686201 88.7398977,14.2178307 88.8176965,14.3715385 L88.8662218,14.5169231 C88.9039637,14.63 88.9309223,14.7376923 88.9578808,14.8507692 C88.9848393,14.9638462 88.9956227,15.0661538 89.0010144,15.0930769 C89.0064061,15.12 89.0010144,15.3084615 89.0010144,15.3515385 C89.0010144,15.6584615 89.0010144,15.9653846 89.0010144,16.2776923 C89.0010144,16.8161538 89.0010144,17.3546154 89.0387564,17.9307692 C89.08189,19.6538462 89.1897241,21.3769231 89.1142402,23.1 C89.1142402,23.4069231 89.0764983,23.7138462 89.0441481,24.0207692 L89.0441481,24.0207692 L89.0441481,24.0207692 C89.0441481,24.0746154 89.0441481,24.1284615 89.0171895,24.1823077 C88.990231,24.2361538 88.9686642,24.4407692 88.936314,24.57 C88.9039637,24.6992308 88.8770052,24.7907692 88.844655,24.8984615 C88.8123048,25.0061538 88.806913,24.99 88.7907379,25.0384615 C88.7745628,25.0869231 88.7044707,25.2161538 88.6505536,25.3023077 C88.6272149,25.3394455 88.6020219,25.3753883 88.5750697,25.41 C88.5211527,25.4692308 88.4672356,25.5338462 88.4025352,25.5930769 L88.3216596,25.6576923 L88.3216596,25.6576923 L88.0628578,25.8084615 L88.0628578,25.8084615 L88.1221665,25.8084615 L88.0628578,25.8084615 C87.9819822,25.8515385 87.9927656,25.8084615 88.0628578,25.8084615 L87.9658071,25.8461538 C87.7297396,25.9219407 87.4882026,25.9795453 87.2433186,26.0184615 L87.2433186,26.0184615 L87.0653923,26.0184615 L86.8119822,26.0184615 L86.3914292,26.0184615 C86.3482955,23.3261538 86.3159453,20.6769231 86.3914292,18.0115385 C86.3914292,16.9346154 86.4291711,15.8038462 86.5531803,14.7107692 C86.5511158,14.6964843 86.5511158,14.6819773 86.5531803,14.6676923 L86.6017057,14.4253846 C86.6017057,14.3338462 86.6448393,14.2476923 86.6717978,14.1615385 C86.6987564,14.0753846 86.7904154,13.8707692 86.74189,13.9623077 L86.8551158,13.7523077 C86.8899957,13.70931 86.9223983,13.6643656 86.9521665,13.6176923 L87.0653923,13.4992308 L87.0977425,13.4615385 L87.1300928,13.4615385 L87.3188025,13.3538462 L87.3295859,13.3538462 C87.3995876,13.3460021 87.4683823,13.3297301 87.5344707,13.3053846 L87.4751619,13.3053846 L87.5883877,13.3053846 L87.6962218,13.3915385 Z M86.4992633,31.9307692 C86.4615213,30.6169231 86.4345628,29.2976923 86.4076043,27.9784615 L86.8281573,27.9784615 L86.9413831,27.9784615 L87.1408762,27.9784615 L87.1786181,27.9784615 L87.2379269,27.9784615 L87.5236872,28.0323077 C87.7060289,28.0705066 87.886044,28.1190467 88.0628578,28.1776923 L88.2353923,28.2423077 L88.4348854,28.3446154 C88.5103693,28.3823077 88.5750697,28.4361538 88.6505536,28.4792308 L88.6505536,28.4792308 L88.6936872,28.5169231 L88.8608301,28.6946154 C88.8926853,28.7374292 88.921511,28.7824102 88.9470974,28.8292308 C88.9848393,28.8938462 89.0549315,29.12 88.9956227,28.91 L89.0764983,29.1846154 C89.0764983,29.1846154 89.0764983,29.2223077 89.0764983,29.2438462 C89.0764983,29.2653846 89.0764983,29.2976923 89.0764983,29.3138462 C89.0764983,29.4753846 89.0764983,29.6315385 89.0764983,29.7930769 C89.0764983,29.9546154 89.0764983,30.03 89.0441481,30.1430769 C89.0441481,30.1430769 89.0117978,30.3369231 89.0010144,30.38 C88.990231,30.4230769 88.9470974,30.5953846 88.9093554,30.7030769 C88.9093554,30.7030769 88.9093554,30.7461538 88.9093554,30.7730769 C88.9093554,30.8 88.8662218,30.8753846 88.8500467,30.9076923 C88.8338716,30.94 88.7476043,31.0692308 88.7044707,31.1553846 L88.7044707,31.1553846 L88.6397702,31.2307692 C88.5750697,31.2953846 88.5103693,31.36 88.4402771,31.4192308 L88.2947011,31.5107692 C88.2515674,31.5107692 88.0466826,31.6346154 88.0628578,31.6346154 L87.7770974,31.7315385 C87.6620743,31.7638462 87.5488485,31.7907692 87.43742,31.8123077 L87.1732264,31.8553846 C86.9953001,31.8553846 86.8173739,31.8876923 86.6340559,31.8930769 L86.4992633,31.9307692 Z" id="Shape" fill="#472821" fill-rule="nonzero"></path>
                <path d="M108.923365,26.2930769 C108.923365,25.6361538 108.901798,24.9792308 108.858664,24.3223077 C108.858664,21.9153846 108.885623,19.5084615 108.891014,17.1015385 C108.891014,15.6423077 108.891014,14.1884615 108.891014,12.7292308 C108.898484,12.536783 108.841574,12.3473302 108.729263,12.1907692 C108.624272,11.7718796 108.250397,11.475824 107.818065,11.4692308 C107.31547,11.4778619 106.910118,11.882681 106.901475,12.3846154 C106.545623,16.3746154 106.836775,20.3592308 107.003918,24.3492308 C107.003918,24.9846154 107.003918,25.62 107.003918,26.2553846 L104.151706,26.3469231 C104.151706,25.6146154 104.113964,24.8823077 104.087005,24.1446154 L104.043872,22.9653846 C104.076222,21.0323077 104.119355,19.0992308 104.151706,17.1715385 C104.176867,15.7069231 104.191245,14.2458974 104.194839,12.7884615 C104.203146,12.5959085 104.146156,12.4061886 104.033088,12.25 C103.931105,11.8298009 103.560047,11.5298155 103.127282,11.5176923 C102.624686,11.5263235 102.219334,11.9311426 102.210692,12.4330769 C101.984235,15.8827075 101.984235,19.3434464 102.210692,22.7930769 C102.17295,24.5269231 102.151383,26.2661538 102.151383,28 C102.151383,29.7338462 102.151383,31.4138462 102.216084,33.1207692 C102.216084,34.2946154 104.076222,34.3 104.049263,33.1207692 C104.049263,33.0292308 104.049263,32.9323077 104.049263,32.8353846 C104.049263,32.7384615 104.049263,32.7976923 104.049263,32.7761538 C104.140922,31.2415385 104.178664,29.7015385 104.178664,28.1669231 L107.009309,28.0753846 L107.009309,28.0753846 C107.009309,29.6692308 107.009309,31.2630769 107.009309,32.8569231 L107.009309,32.8569231 L107.009309,33.2015385 C107.009309,33.7070914 107.419681,34.1169229 107.925899,34.1169229 C108.432118,34.1169229 108.842489,33.7070914 108.842489,33.2015385 L108.842489,32.8461538 C108.93954,31.1930769 108.977282,29.54 108.966498,27.8869231 C109.228347,27.7019884 109.380394,27.3986528 109.371729,27.0784801 C109.363064,26.7583074 109.194834,26.4636166 108.923365,26.2930769 L108.923365,26.2930769 Z" id="Path" fill="#472821"></path>
                <path d="M116.541844,33.2607692 C116.533201,32.7588349 116.127849,32.3540158 115.625254,32.3453846 L112.503457,32.1407692 C112.562766,30.8538462 112.584332,29.5669231 112.578941,28.28 L113.689632,28.2261538 C114.189894,28.2120722 114.592122,27.8103732 114.606222,27.3107692 C114.592404,26.8896729 114.326636,26.5180873 113.932259,26.3684615 L112.54659,26.1638462 C112.54659,25.5984615 112.508849,25.0384615 112.487282,24.4730769 C112.487282,22.0679487 112.499862,19.6610256 112.525024,17.2523077 C112.525024,16.1 112.525024,14.9476923 112.525024,13.7953846 L115.086084,13.6230769 C115.587504,13.6116916 115.991273,13.2084535 116.002673,12.7076923 C116.000357,12.5791708 115.970964,12.4525773 115.916406,12.3361538 C115.80368,11.9745702 115.465211,11.730929 115.086084,11.7384615 L111.716268,11.6630769 C111.632516,11.6370261 111.545179,11.6243063 111.457466,11.6253846 C110.957204,11.6394663 110.554976,12.0411653 110.540876,12.5407692 C110.190415,16.5253846 110.476176,20.5153846 110.64871,24.5 C110.64871,25.7492308 110.64871,27.0038462 110.64871,28.2692308 C110.64871,29.8846154 110.64871,31.4515385 110.64871,33.0453846 L110.64871,33.0453846 C110.643281,33.0774648 110.643281,33.1102275 110.64871,33.1423077 L110.64871,33.39 C110.646078,33.6709103 110.77663,33.9365149 111.000769,34.1062543 C111.224907,34.2759937 111.516224,34.3298686 111.78636,34.2515385 C111.908183,34.2990449 112.038482,34.3210384 112.169171,34.3161538 L115.646821,34.2461538 C116.015765,34.234715 116.336541,33.9901199 116.444793,33.6376923 C116.504472,33.5206951 116.537607,33.3920041 116.541844,33.2607692 Z" id="Path" fill="#472821"></path>
                <path d="M104.92272,3.15 C104.92272,2.47692308 104.949678,1.80384615 104.971245,1.12538462 C104.984917,0.891489049 104.895531,0.663311391 104.726561,0.500775577 C104.557592,0.338239763 104.325923,0.257587625 104.092397,0.28 C103.854508,0.260604355 103.619205,0.340504399 103.442457,0.500694432 C103.26571,0.660884465 103.163316,0.887046822 103.159632,1.12538462 C103.159632,1.80384615 103.159632,2.47692308 103.159632,3.15 C103.159632,3.31692308 103.159632,3.48384615 103.159632,3.64538462 C99.1643785,2.89692308 95.1205997,3.07461538 91.092996,3.58615385 C86.6664061,4.12461538 82.2667748,4.93230769 77.7916596,5.00769231 L77.2524891,5.00769231 C74.6198966,4.99218288 71.9941473,4.73806341 69.4075582,4.24846154 L69.375208,3.14461538 C69.375208,2.47153846 69.375208,1.79846154 69.4183416,1.12 C69.4336813,0.886621773 69.3455934,0.658294967 69.1774223,0.495528618 C69.0092512,0.33276227 68.7779754,0.251989292 68.5448854,0.274615385 C68.3069968,0.25521974 68.0716931,0.335119783 67.8949456,0.495309816 C67.718198,0.655499849 67.6158042,0.881662207 67.6121204,1.12 C67.6121204,1.79846154 67.6121204,2.47153846 67.6121204,3.14461538 C67.6121204,4.87307692 67.6121204,6.59615385 67.6444707,8.32461538 C67.6444707,8.48076923 67.6444707,8.63692308 67.6067287,8.79307692 C67.609672,9.27659024 68.0014267,9.66782986 68.4855766,9.67076923 C68.594417,9.67137207 68.7023768,9.65127045 68.8036872,9.61153846 C69.184508,9.53138624 69.4458094,9.18036338 69.4129499,8.79307692 C69.4129499,8.63692308 69.4129499,8.48076923 69.4129499,8.32461538 C69.466867,7.58153846 69.4776504,6.83846154 69.466867,6.09 C72.2549815,6.56639259 75.0823083,6.77554882 77.9102771,6.71461538 C79.5277886,6.71461538 81.1776504,6.61769231 82.8167287,6.45615385 C87.0761757,6.02538462 91.2924891,5.25 95.5788946,5.08846154 C98.1087617,4.98769424 100.642638,5.09756128 103.15424,5.41692308 C103.15424,6.3825641 103.170415,7.34641026 103.202766,8.30846154 C103.202766,8.46461538 103.175807,8.62076923 103.159632,8.77692308 C103.161436,9.06702414 103.305799,9.33773657 103.545831,9.50113097 C103.785864,9.66452538 104.090945,9.69975785 104.361982,9.59538462 C104.741428,9.51309593 105.00166,9.16351041 104.971245,8.77692308 C104.971245,8.62076923 104.971245,8.46461538 104.971245,8.30846154 C105.079079,6.61230769 104.971245,4.87846154 104.92272,3.15 Z" id="Path" fill="#D3501C"></path>
                <path d="M114.471429,10.0046154 C114.560749,10.0034279 114.649543,9.99075967 114.735623,9.96692308 C114.985068,10.0157876 115.243261,9.9493682 115.438026,9.78623164 C115.632791,9.62309508 115.743233,9.38074337 115.73848,9.12692308 C115.73848,8.21692308 115.668388,7.30692308 115.603687,6.39692308 C115.571796,5.27449262 115.463714,4.15551459 115.280185,3.04769231 C115.130659,2.32664846 114.765991,1.66773043 114.234194,1.15769231 C113.624528,0.607375107 112.852698,0.269199109 112.034378,0.193846154 L111.991245,0.193846154 C111.921153,0.193846154 111.845669,0.193846154 111.770185,0.193846154 L111.770185,0.193846154 C111.32406,0.18045851 110.878977,0.244218438 110.454609,0.382307692 C109.028402,0.821038573 107.994976,2.05783124 107.818065,3.53769231 C107.725882,4.79241612 107.725882,6.05219926 107.818065,7.30692308 C107.818065,7.91538462 107.850415,8.52384615 107.871982,9.13769231 C107.890731,9.37847638 108.007407,9.6010855 108.194844,9.75368673 C108.382282,9.90628796 108.624122,9.97556407 108.864056,9.94538462 C109.108544,9.9834192 109.357398,9.91201348 109.544383,9.75017309 C109.731367,9.5883327 109.837511,9.35247784 109.834563,9.10538462 L109.834563,6.57461538 L113.608756,6.40769231 L113.608756,6.57461538 C113.661786,7.41772756 113.652775,8.26358993 113.581798,9.10538462 C113.577434,9.34331418 113.669409,9.57293216 113.836882,9.74221259 C114.004356,9.91149302 114.233151,10.0061063 114.471429,10.0046154 L114.471429,10.0046154 Z M109.829171,5.15846154 C109.829171,4.72230769 109.829171,4.28615385 109.829171,3.85538462 C109.851487,3.60587163 109.903989,3.35997761 109.985531,3.12307692 C110.035596,3.01331204 110.093247,2.90715836 110.158065,2.80538462 C110.260508,2.62230769 110.195807,2.71384615 110.309033,2.59538462 C110.441316,2.42119384 110.613189,2.2809235 110.810461,2.18615385 L111.015346,2.08384615 C111.128572,2.04615385 111.241798,2.01384615 111.360415,1.98692308 L111.495208,1.98692308 L111.872627,1.98692308 C111.954428,2.00724846 112.037207,2.02342303 112.120646,2.03538462 C112.174563,2.03538462 112.422581,2.14307692 112.352489,2.11076923 C112.543567,2.18883087 112.714852,2.30838839 112.853918,2.46076923 C113.16736,2.8249977 113.356245,3.27961237 113.393088,3.75846154 C113.452397,4.16769231 113.490139,4.59307692 113.517097,5.01846154 L109.829171,5.15846154 Z" id="Shape" fill="#D3501C" fill-rule="nonzero"></path>
                <path d="M13.6681112,12.25 C13.3853196,12.4092957 13.0397047,12.4092957 12.756913,12.25 C10.3090789,10.8607692 6.82603747,13.1169231 7.26815729,16.52 C7.64557664,19.4438462 9.96400982,21.7323077 12.6167287,22.82 C12.8050636,22.9531716 13.0334415,23.0177936 13.2637333,23.0030769 C13.4924521,23.0187762 13.7194559,22.9540033 13.9053462,22.82 C16.6011988,21.7107692 18.9681573,19.3469231 19.2970513,16.3584615 C19.6367287,12.9607692 16.1105536,10.8823077 13.6681112,12.25 Z M16.1159453,17.7746154 C15.6145711,18.5812771 14.9314439,19.2598184 14.1210144,19.7561538 C13.9808301,19.8423077 13.8406458,19.9284615 13.7004614,20.0038462 C13.4237968,20.1572024 13.0874948,20.1572024 12.8108301,20.0038462 L12.5897702,19.8746154 C11.7472581,19.3887683 11.0292659,18.7141163 10.4923969,17.9038462 C9.99096835,17.1176923 9.47336466,15.7984615 10.0610605,14.9423077 C10.7727656,13.9030769 11.6408301,14.4038462 12.0775582,15.3407692 C12.3085347,15.7464437 12.7398351,15.9970196 13.2071204,15.9970196 C13.6744057,15.9970196 14.1057061,15.7464437 14.3366826,15.3407692 C14.768019,14.4361538 15.5444246,13.9461538 16.3477886,14.8023077 C17.1511527,15.6584615 16.5958071,16.9453846 16.1159453,17.7746154 Z" id="Shape" fill="#D3501C" fill-rule="nonzero"></path>
            </g>
        </g>
    </g>
</svg>