<?xml version="1.0" encoding="UTF-8"?>
<svg width="193px" height="152px" viewBox="0 0 193 152" version="1.1" xmlns="http://www.w3.org/2000/svg" xmlns:xlink="http://www.w3.org/1999/xlink">
    <g stroke="none" stroke-width="1" fill="none" fill-rule="evenodd" opacity="0.131975446">
        <g stroke="#2EBD9D" stroke-width="2">
            <g >
                <path d="M107.8125,81.6694533 C121.090797,79.4262497 126.076743,67.5119943 139.836647,67.3943516 C153.59655,67.2767088 163.974937,82.7612981 182.876915,82.2047189 C201.778893,81.6481396 209.167925,67.031132 224.318245,67.1887658 C239.468565,67.3463995 243.582099,80.8314571 257.8125,82.8125" id="Path-9-Copy-59" transform="translate(182.812500, 75.000000) rotate(-270.000000) translate(-182.812500, -75.000000) "></path>
                <path d="M90.3125,81.6694533 C103.590797,79.4262497 108.576743,67.5119943 122.336647,67.3943516 C136.09655,67.2767088 146.474937,82.7612981 165.376915,82.2047189 C184.278893,81.6481396 191.667925,67.031132 206.818245,67.1887658 C221.968565,67.3463995 226.082099,80.8314571 240.3125,82.8125" id="Path-9-Copy-58" transform="translate(165.312500, 75.000000) rotate(-270.000000) translate(-165.312500, -75.000000) "></path>
                <path d="M72.8125,81.6694533 C86.0907965,79.4262497 91.0767435,67.5119943 104.836647,67.3943516 C118.59655,67.2767088 128.974937,82.7612981 147.876915,82.2047189 C166.778893,81.6481396 174.167925,67.031132 189.318245,67.1887658 C204.468565,67.3463995 208.582099,80.8314571 222.8125,82.8125" id="Path-9-Copy-57" transform="translate(147.812500, 75.000000) rotate(-270.000000) translate(-147.812500, -75.000000) "></path>
                <path d="M55.3125,81.6694533 C68.5907965,79.4262497 73.5767435,67.5119943 87.3366465,67.3943516 C101.09655,67.2767088 111.474937,82.7612981 130.376915,82.2047189 C149.278893,81.6481396 156.667925,67.031132 171.818245,67.1887658 C186.968565,67.3463995 191.082099,80.8314571 205.3125,82.8125" id="Path-9-Copy-56" transform="translate(130.312500, 75.000000) rotate(-270.000000) translate(-130.312500, -75.000000) "></path>
                <path d="M37.8125,81.6694533 C51.0907965,79.4262497 56.0767435,67.5119943 69.8366465,67.3943516 C83.5965496,67.2767088 93.9749373,82.7612981 112.876915,82.2047189 C131.778893,81.6481396 139.167925,67.031132 154.318245,67.1887658 C169.468565,67.3463995 173.582099,80.8314571 187.8125,82.8125" id="Path-9-Copy-55" transform="translate(112.812500, 75.000000) rotate(-270.000000) translate(-112.812500, -75.000000) "></path>
                <path d="M20.3125,81.6694533 C33.5907965,79.4262497 38.5767435,67.5119943 52.3366465,67.3943516 C66.0965496,67.2767088 76.4749373,82.7612981 95.3769151,82.2047189 C114.278893,81.6481396 121.667925,67.031132 136.818245,67.1887658 C151.968565,67.3463995 156.082099,80.8314571 170.3125,82.8125" id="Path-9-Copy-53" transform="translate(95.312500, 75.000000) rotate(-270.000000) translate(-95.312500, -75.000000) "></path>
                <path d="M2.8125,81.6694533 C16.0907965,79.4262497 21.0767435,67.5119943 34.8366465,67.3943516 C48.5965496,67.2767088 58.9749373,82.7612981 77.8769151,82.2047189 C96.7788929,81.6481396 104.167925,67.031132 119.318245,67.1887658 C134.468565,67.3463995 138.582099,80.8314571 152.8125,82.8125" id="Path-9-Copy-51" transform="translate(77.812500, 75.000000) rotate(-270.000000) translate(-77.812500, -75.000000) "></path>
                <path d="M-14.6875,81.6694533 C-1.40920347,79.4262497 3.57674346,67.5119943 17.3366465,67.3943516 C31.0965496,67.2767088 41.4749373,82.7612981 60.3769151,82.2047189 C79.2788929,81.6481396 86.6679247,67.031132 101.818245,67.1887658 C116.968565,67.3463995 121.082099,80.8314571 135.3125,82.8125" id="Path-9-Copy-49" transform="translate(60.312500, 75.000000) rotate(-270.000000) translate(-60.312500, -75.000000) "></path>
                <path d="M-32.1875,81.6694533 C-18.9092035,79.4262497 -13.9232565,67.5119943 -0.163353479,67.3943516 C13.5965496,67.2767088 23.9749373,82.7612981 42.8769151,82.2047189 C61.7788929,81.6481396 69.1679247,67.031132 84.3182448,67.1887658 C99.468565,67.3463995 103.582099,80.8314571 117.8125,82.8125" id="Path-9-Copy-47" transform="translate(42.812500, 75.000000) rotate(-270.000000) translate(-42.812500, -75.000000) "></path>
                <path d="M-49.6875,81.6694533 C-36.4092035,79.4262497 -31.4232565,67.5119943 -17.6633535,67.3943516 C-3.90345041,67.2767088 6.47493732,82.7612981 25.3769151,82.2047189 C44.2788929,81.6481396 51.6679247,67.031132 66.8182448,67.1887658 C81.968565,67.3463995 86.0820995,80.8314571 100.3125,82.8125" id="Path-9-Copy-45" transform="translate(25.312500, 75.000000) rotate(-270.000000) translate(-25.312500, -75.000000) "></path>
                <path d="M-67.1875,81.6694533 C-53.9092035,79.4262497 -48.9232565,67.5119943 -35.1633535,67.3943516 C-21.4034504,67.2767088 -11.0250627,82.7612981 7.87691513,82.2047189 C26.7788929,81.6481396 34.1679247,67.031132 49.3182448,67.1887658 C64.468565,67.3463995 68.5820995,80.8314571 82.8125,82.8125" id="Path-9-Copy-43" transform="translate(7.812500, 75.000000) rotate(-270.000000) translate(-7.812500, -75.000000) "></path>
            </g>
        </g>
    </g>
</svg>