<?xml version="1.0" encoding="UTF-8"?>
<svg width="59px" height="40px" viewBox="0 0 59 40" version="1.1" xmlns="http://www.w3.org/2000/svg" xmlns:xlink="http://www.w3.org/1999/xlink">
    <!-- Generator: sketchtool 53.1 (72631) - https://sketchapp.com -->
    <title>1E6355C5-936B-4CF7-84A0-82928124BA43</title>
    <desc>Created with sketchtool.</desc>
    <g id="design" stroke="none" stroke-width="1" fill="none" fill-rule="evenodd">
        <g id="2-slide" transform="translate(-972.000000, -164.000000)" fill="#2EBD9D">
            <g id="myau" transform="translate(1002.957016, 187.717230) rotate(24.000000) translate(-1002.957016, -187.717230) translate(978.457016, 161.717230)">
                <path d="M42.5009366,7.2403734 C42.3588273,7.2403734 42.2877727,7.2403734 42.1456635,7.2403734 C41.2219534,2.71237246 35.1112562,-1.0493514 30.8479791,1.11015674 C30.1374329,1.45846451 29.3558321,1.45846451 28.645286,1.1798183 C25.660992,0.134895001 21.6819334,1.45846451 20.260841,4.31458818 C19.9055679,5.01120371 19.3371309,5.49883458 18.5555301,5.70781924 C16.4949462,6.12578856 14.5054169,7.65834272 13.5817068,9.53920465 C13.1553791,10.3751433 12.3027237,11.0020973 11.3079591,11.1414204 C8.89210203,11.5593897 6.476245,13.5099132 5.69464419,15.8087444 C5.41042572,16.6446831 4.77093415,17.271637 3.98933335,17.7592679 C2.21296789,18.7345296 1.36031247,21.172684 1.78664018,23.2625306 C1.92874942,23.9591461 1.78664018,24.7254232 1.43136709,25.4220387 C0.0102747172,28.1388393 1.36031247,31.8309016 3.84722411,33.7117635 C4.48671568,34.1993944 4.98409801,34.8263484 5.19726187,35.5926255 C5.83675343,38.7970569 9.81581207,40.3992726 13.0132699,39.7723186 C13.7948707,39.6329955 14.5764715,39.8419802 15.2159631,40.3296111 C17.7739293,42.3497961 22.2503703,41.583519 24.3820089,39.0757031 C24.9504458,38.3790876 25.8031012,37.9611183 26.7268113,37.9611183 C29.2137229,37.9611183 31.8427438,36.2195794 32.9796177,33.9904097 C33.477,33.0848096 34.2586008,32.388194 35.2533655,32.1792094 C37.5271133,31.6915785 39.6587518,29.8803781 40.5114072,27.7905315 C40.7956257,27.0242545 41.5061719,26.466962 42.2877727,26.2579774 C50.3879992,23.9591461 51.5959277,9.12123534 42.5009366,7.2403734 Z M40.2271888,23.5411768 C40.1561342,23.4018537 40.0850795,23.3321921 40.0140249,23.192869 C39.0192603,21.7299764 36.5323486,23.1232075 37.5981679,24.5861001 C39.3745333,27.0242545 35.1112562,30.5769937 32.7664538,28.9747779 C32.7664538,28.9051164 32.6953992,28.9051164 32.6953992,28.8354548 C32.4822354,28.5568086 32.1980169,28.347824 31.9137984,28.2781624 C31.4164161,28.0691777 30.9190338,28.2085009 30.5637607,28.4871471 C30.2084876,28.7657933 29.9242691,29.1837626 29.9953237,29.6017319 C29.9953237,29.8803781 30.0663783,30.2286859 30.3505968,30.5073321 C30.4216514,30.5769937 30.4216514,30.5769937 30.492706,30.6466552 C31.4164161,32.9454865 28.0057944,35.8016101 25.8031012,34.7566868 C25.5899374,34.6173637 25.3767735,34.4780406 25.2346643,34.269056 C24.5951727,33.0848096 22.3924795,33.8510866 22.676698,35.3836408 C23.1740803,37.6824721 19.4792402,39.2150262 17.4186562,38.309426 C16.7791647,38.0307798 16.4949462,37.3341643 16.7791647,36.7072103 C16.9212739,36.4285641 16.9923285,36.2195794 17.0633831,35.9409332 C17.4897109,34.1993944 14.7896354,33.5027789 14.3633076,35.1746562 C13.7948707,37.2645027 10.8816313,37.4038258 9.1763205,36.289241 C8.32366508,35.7319486 8.46577432,34.5477022 9.38948436,34.1297329 C9.38948436,34.1297329 9.38948436,34.1297329 9.38948436,34.1297329 C11.0237406,33.3634558 9.60264821,30.994963 7.96839199,31.7612401 C5.26831648,33.015148 2.35507713,28.2085009 4.06038797,26.1883158 C4.20249721,26.2579774 4.34460644,26.3276389 4.5577703,26.3276389 C6.33413576,26.8152698 7.04468195,24.1681308 5.3393711,23.6804999 C3.56300564,23.192869 4.41566106,19.7097914 6.26308114,19.918776 C6.26308114,19.918776 6.33413576,19.9884376 6.33413576,19.9884376 C7.39995504,21.3816687 9.81581207,19.9884376 8.74999279,18.5952065 C6.83151809,16.0873906 11.2369044,12.1863437 13.5817068,14.1368671 C13.6527615,14.2761903 13.7238161,14.4155134 13.8659253,14.5548365 C14.9317446,15.9480675 17.3476016,14.5548365 16.2817823,13.1616054 C14.3633076,10.6537895 19.0529125,6.54375787 21.2556056,8.84258912 C22.5345888,10.0964971 24.5241181,8.14597359 23.245135,6.89206564 C23.1740803,6.82240409 23.1030257,6.75274253 23.0319711,6.68308098 C22.6056434,6.33477322 22.5345888,5.77748079 22.7477526,5.28984992 C23.7425173,3.26966488 28.2189582,2.57304935 29.0005591,5.01120371 C29.568996,6.68308098 32.2690715,5.98646545 31.7006346,4.24492663 C31.6295799,4.10560352 31.5585253,3.96628041 31.5585253,3.82695731 C34.969147,1.38880295 41.293008,6.40443477 38.8060964,10.1661586 C37.8113317,11.6290512 40.2271888,13.0222823 41.2219534,11.5593897 C41.3640627,11.350405 41.4351173,11.2110819 41.5772265,11.0020973 C41.9324996,10.3751433 42.7141004,10.0964971 43.2825374,10.4448048 C48.185306,13.3705901 46.337886,23.4715152 40.2271888,23.5411768 Z" id="Shape" fill-rule="nonzero"></path>
                <path d="M10.5056943,46.0878927 C10.2137235,43.5896861 8.24292062,41.5323395 5.5421907,41.5323395 C2.84146077,41.5323395 0.578687045,43.8101161 0.578687045,46.5287527 C0.578687045,49.1739126 2.76846807,51.3782126 5.39620529,51.5251659 C8.16992792,51.6721193 10.2137235,49.541296 10.5056943,46.9696127 C10.5056943,46.8226594 10.578687,46.675706 10.578687,46.5287527 C10.578687,46.3083227 10.5056943,46.234846 10.5056943,46.0878927 Z M3.49839507,46.5287527 C3.49839507,43.8101161 7.51299361,43.8101161 7.65897902,46.5287527 C7.51299361,49.1739126 3.49839507,49.2473893 3.49839507,46.5287527 Z" id="Shape" fill-rule="nonzero"></path>
                <path d="M14.2412483,19.5227098 C13.1483355,18.5251622 11.7821945,19.5227098 11.9871157,20.8765243 C12.1920368,22.2303389 12.396958,23.5841534 12.6018791,24.937968 C11.167431,24.7954612 9.80129003,24.7242078 8.36684196,24.581701 C7.13731505,24.5104476 6.65916569,26.1492757 7.41054325,27.0043165 C9.18652657,28.9281582 10.8942028,30.7807466 12.6701862,32.7045883 C13.8997131,33.9871495 15.8123105,31.9920543 14.5827836,30.7094932 C13.6264849,29.7119456 12.7384932,28.7143981 11.7821945,27.6455971 C12.6018791,27.7168505 13.4215637,27.7881039 14.1729413,27.8593573 C15.12924,27.9306107 15.6073893,26.9330631 15.4707752,26.0780223 C15.4024682,25.4367418 15.2658541,24.7242078 15.197547,24.0829272 C16.7003022,25.4367418 18.2030573,26.7905563 19.7058124,28.1443709 C21.0036464,29.3556786 22.9162438,27.3605835 21.6184098,26.1492757 C19.159356,23.9404204 16.7003022,21.7315651 14.2412483,19.5227098 Z" id="Path"></path>
                <path d="M33.9218674,22.0699426 C30.234171,19.2250342 26.5464745,16.3801258 22.7864703,13.5352173 C22.7141626,12.6817448 21.7018538,11.7571496 20.6172372,12.3261313 C16.857233,14.104199 16.2787708,19.509525 19.6049283,21.9276972 C20.9064682,22.8522924 22.2080082,23.1367832 23.5095481,22.8522924 C23.7987792,22.7811697 24.0880103,22.9234151 24.2326258,23.1367832 C25.751089,25.2704645 26.2572435,27.6886367 23.6541636,29.4667045 C22.1357004,30.5335451 23.5818559,32.9517173 25.1003191,31.8848766 C29.1495544,29.1110909 29.0049388,25.1282191 26.6910901,21.6432063 C26.5464745,21.3587155 26.5464745,21.0742246 26.7633979,20.8608565 C26.7633979,20.8608565 26.7633979,20.8608565 26.7633979,20.8608565 C26.9803212,20.5763657 27.4141678,20.505243 27.7033989,20.7897338 C29.1495544,21.8565745 30.5234021,22.9234151 31.9695575,24.0613785 C33.3434052,25.1282191 35.3680229,23.1367832 33.9218674,22.0699426 Z M21.8464693,20.007384 C20.4003138,19.2961569 20.038775,17.80258 20.4726216,16.5223712 C20.6172372,16.0956349 21.1956993,15.9533895 21.629546,16.2378803 C22.4972393,16.8779847 23.2926248,17.5180891 24.160318,18.1581935 C24.5941647,18.5138071 24.5941647,19.1539115 24.2326258,19.509525 C23.5818559,20.0785067 22.7864703,20.4341202 21.8464693,20.007384 Z" id="Shape" fill-rule="nonzero"></path>
                <path d="M36.9631306,12.5883479 C35.1653624,10.0859952 32.2889333,7.92179821 29.8439685,6.56917512 C28.2619325,5.68997011 26.8237179,7.98942937 28.4057539,8.86863438 C29.700147,9.61257708 31.6417367,10.897569 33.2237727,12.3854544 C33.6552371,12.7912413 33.3675942,13.535184 32.7203976,13.535184 C30.4192543,13.4675529 27.1832715,11.1004625 25.9607892,10.0859952 C24.5944853,8.93626553 22.5809849,10.8299379 23.9472888,11.9796675 C26.536075,14.1438644 31.2102723,17.1196352 34.6619873,15.8346433 C35.0934517,15.699381 35.5968268,15.9022745 35.6687375,16.3756925 C35.8125589,17.2548976 35.5968268,18.2017337 34.8777195,19.0133076 C33.7271478,20.3659307 35.7406482,22.259603 36.8912199,20.9069799 C39.1923632,18.2017337 38.7608988,15.4964875 37.1788628,12.9941348 C37.2507735,12.8588725 37.1069521,12.7236102 36.9631306,12.5883479 Z" id="Path"></path>
            </g>
        </g>
    </g>
</svg>