<?xml version="1.0" encoding="UTF-8"?>
<svg width="57px" height="71px" viewBox="0 0 57 71" version="1.1" xmlns="http://www.w3.org/2000/svg" xmlns:xlink="http://www.w3.org/1999/xlink">
    <!-- Generator: sketchtool 53.1 (72631) - https://sketchapp.com -->
    <title>04EBECCF-68BB-4207-8BEF-08E511E511C4</title>
    <desc>Created with sketchtool.</desc>
    <g id="design" stroke="none" stroke-width="1" fill="none" fill-rule="evenodd" opacity="0.1">
        <g id="2-slide" transform="translate(-513.000000, -3911.000000)" fill="#42210B">
            <path d="M536.072369,3981.23578 C547.224851,3967.44457 558.377334,3953.57271 569.529817,3939.7815 C570.332154,3938.8137 570.011219,3937.68459 569.289116,3937.03939 C568.647247,3936.15224 567.523975,3935.74899 566.480937,3936.63614 C565.437899,3937.60394 564.394861,3938.57175 563.271589,3939.53955 C560.944812,3937.12004 558.136633,3935.42638 554.445883,3935.34573 C549.872563,3935.26508 545.860879,3935.74899 542.651531,3931.55517 C540.404988,3928.65176 540.806156,3924.69989 539.763118,3921.39322 C538.158444,3916.47355 533.906059,3913.48949 529.493206,3911.23128 C527.086195,3910.02152 525.401288,3913.89274 527.808298,3915.1025 C532.381619,3917.44136 535.510733,3920.10282 536.393303,3925.34509 C537.035173,3928.89371 537.596809,3932.28102 540.164287,3935.02313 C542.972466,3938.08785 546.743449,3939.70085 550.835367,3939.70085 C552.440041,3939.70085 554.124949,3939.37825 555.809856,3939.70085 C557.655231,3940.02345 559.019204,3941.07191 560.302943,3942.36232 C558.93897,3943.65272 557.574997,3944.94313 556.211025,3946.23353 C553.964481,3943.97532 551.236536,3942.52362 547.786487,3942.44297 C543.213167,3942.36232 539.201482,3942.84622 535.992135,3938.6524 C533.745592,3935.74899 534.14676,3931.79712 533.103722,3928.49045 C531.499048,3923.57078 527.246663,3920.58672 522.83381,3918.32851 C520.426799,3917.11876 518.741892,3920.98997 521.148902,3922.19973 C525.722223,3924.53859 528.851336,3927.20005 529.733907,3932.44232 C530.375777,3935.99094 530.937412,3939.37825 533.50489,3942.12036 C536.31307,3945.18508 540.084053,3946.79808 544.175971,3946.79808 C545.780645,3946.79808 547.465552,3946.47548 549.15046,3946.79808 C550.835367,3947.12069 552.119106,3948.00784 553.322612,3949.13694 C551.717938,3950.6693 550.113264,3952.28231 548.50859,3953.81466 C546.342281,3951.95971 543.93527,3950.74995 540.806156,3950.6693 C536.232836,3950.58865 532.221151,3951.07255 529.011804,3946.87873 C526.765261,3943.97532 527.166429,3940.02345 526.123391,3936.71679 C524.518717,3931.79712 520.266332,3928.81306 515.853479,3926.55485 C513.446468,3925.34509 511.761561,3929.21631 514.168571,3930.42606 C518.741892,3932.76492 521.871005,3935.42638 522.753576,3940.66866 C523.395446,3944.21727 523.957081,3947.60459 526.524559,3950.3467 C529.332739,3953.41141 533.103722,3955.02442 537.19564,3955.02442 C538.800314,3955.02442 540.485221,3954.70182 542.170129,3955.02442 C543.534102,3955.26637 544.657373,3955.91157 545.700411,3956.79873 C539.843352,3962.6862 534.066526,3968.81563 528.450168,3974.94506 C526.604793,3976.96132 529.974608,3979.62278 531.739749,3977.60652 C536.473537,3972.4449 541.287558,3967.28327 546.181813,3962.28295 C541.76896,3967.68653 537.356108,3973.17075 533.023488,3978.57432 C531.017646,3980.67123 534.387461,3983.33269 536.072369,3981.23578 Z" id="palki"></path>
        </g>
    </g>
</svg>