<?xml version="1.0" encoding="UTF-8"?>
<svg width="81px" height="52px" viewBox="0 0 81 52" version="1.1" xmlns="http://www.w3.org/2000/svg" xmlns:xlink="http://www.w3.org/1999/xlink">
    <!-- Generator: sketchtool 53.1 (72631) - https://sketchapp.com -->
    <title>84ACA4A8-C09C-4940-99FC-1C38470C5C08</title>
    <desc>Created with sketchtool.</desc>
    <g id="design" stroke="none" stroke-width="1" fill="none" fill-rule="evenodd">
        <g id="оплата-и-доставка" transform="translate(-460.000000, -1305.000000)">
            <g id="palochki" transform="translate(504.885246, 1338.000000) rotate(52.000000) translate(-504.885246, -1338.000000) translate(478.000000, 1298.000000)">
                <circle id="Oval" fill="#F15A24" cx="29.7704918" cy="23.9934426" r="5.83606557"></circle>
                <path d="M50.1245902,15.3704918 C47.8688525,18.0415301 45.6153005,20.7081967 43.3639344,23.3704918 C42.7868852,16.2163934 37.1934426,10.3737705 29.7704918,10.347541 C26.1044857,10.3574044 22.599615,11.8554349 20.0590164,14.4983607 L20.0590164,1.90163934 C20.0590164,-0.629508197 16.1245902,-0.636065574 16.1245902,1.90163934 L16.1245902,55.5934426 L7.27868852,66.0852459 L1.14754098,73.3114754 C-0.478688525,75.2327869 2.29508197,78.0327869 3.93442623,76.0655738 L16.1245902,61.6393443 L16.1245902,77.7377049 C16.1245902,80.2688525 20.0590164,80.2754098 20.0590164,77.7377049 L20.0590164,57.0098361 L46.7737705,25.4098361 L52.904918,18.157377 C54.5311475,16.2295082 51.757377,13.4360656 50.1245902,15.3704918 Z M29.7967213,14.2819672 C35.2262295,14.2819672 39.304918,18.695082 39.5081967,23.9934426 C39.304918,29.2852459 35.2262295,33.6983607 29.7967213,33.6983607 C26.2681605,33.7900735 22.9676685,31.9600222 21.1763806,28.9185685 C19.3850927,25.8771149 19.3850927,22.103213 21.1763806,19.0617593 C22.9676685,16.0203057 26.2681605,14.1902544 29.7967213,14.2819672 L29.7967213,14.2819672 Z M31.4163934,37.5278689 L20.0590164,50.9377049 L20.0590164,33.4819672 C22.6065441,36.1148449 26.1069599,37.6109713 29.7704918,37.6327869 C30.3120258,37.6311375 30.8529428,37.5960984 31.3901639,37.5278689 L31.4163934,37.5278689 Z" id="Shape" fill="#42210B" fill-rule="nonzero"></path>
            </g>
        </g>
    </g>
</svg>