<?xml version="1.0" encoding="UTF-8"?>
<svg width="66px" height="66px" viewBox="0 0 66 66" version="1.1" xmlns="http://www.w3.org/2000/svg" xmlns:xlink="http://www.w3.org/1999/xlink">
    <!-- Generator: sketchtool 53.1 (72631) - https://sketchapp.com -->
    <title>DC344125-AE57-48F8-9D8D-F9BFE7584C1D</title>
    <desc>Created with sketchtool.</desc>
    <g id="design" stroke="none" stroke-width="1" fill="none" fill-rule="evenodd" opacity="0.1">
        <g id="2-slide" transform="translate(-1081.000000, -2794.000000)" fill="#42210B" fill-rule="nonzero">
            <g id="pizza_full" transform="translate(1081.000000, 2794.000000)">
                <g id="Group">
                    <path d="M44.1,2.175 C31.5,-2.4 16.725,1.65 8.175,11.925 C-0.75,22.575 -2.025,38.1 5.325,49.95 C12.375,61.275 25.95,67.2 39.075,64.875 C54.525,62.175 65.1,48.225 65.325,32.85 C65.1,19.2 57,6.9 44.1,2.175 Z M38.85,4.8 C46.65,6.375 52.95,11.175 56.925,17.475 C57.225,18 57.075,18.75 56.475,19.05 L56.475,19.05 C55.95,19.275 55.35,19.125 55.05,18.6 C52.125,13.875 47.775,10.125 42.225,8.1 C36.75,6 30.75,6 25.275,7.725 C24.75,7.875 24.225,7.65 24,7.2 L24,7.2 C23.625,6.6 24,5.85 24.675,5.625 C29.175,4.125 34.125,3.825 38.85,4.8 Z M46.8,47.925 C45.825,46.2 44.925,44.55 43.95,42.825 C44.85,43.425 45.9,43.875 47.025,43.875 C50.25,44.025 52.65,41.55 52.95,38.475 C52.95,38.325 53.025,38.175 53.025,38.025 C53.025,37.875 53.025,37.725 52.95,37.575 C52.575,34.65 50.4,32.175 47.25,32.175 C44.1,32.175 41.4,34.8 41.4,38.025 C41.4,38.1 41.4,38.175 41.4,38.325 C40.2,36.15 38.925,33.9 37.725,31.725 C37.725,31.725 37.725,31.725 37.725,31.725 C39.15,30.975 40.65,30.225 42.075,29.475 C42.975,30.15 44.025,30.525 45.225,30.525 C48.45,30.675 50.85,28.2 51.15,25.125 C51.225,24.975 51.225,24.75 51.15,24.525 C51.075,24 51.375,23.475 51.9,23.25 L52.125,23.175 C52.5,23.025 52.95,23.175 53.175,23.625 C54.375,26.4 55.05,29.475 55.125,32.7 C55.05,38.475 52.875,43.95 49.125,48.075 C48.525,48.975 47.25,48.9 46.8,47.925 Z M31.425,17.325 C31.425,13.65 36.9,13.65 37.125,17.325 C36.9,21 31.425,21 31.425,17.325 Z M33.675,30.6 C32.175,31.35 30.75,32.1 29.25,32.85 C29.25,30.225 31.95,29.475 33.675,30.6 C33.675,30.525 33.675,30.6 33.675,30.6 Z M34.875,33.3 C34.5,35.325 32.325,36 30.825,35.325 C32.175,34.65 33.525,33.975 34.875,33.3 Z M31.725,27.075 C28.725,27.3 26.325,29.85 26.325,32.85 C26.325,33.3 26.4,33.75 26.475,34.2 C25.5,34.65 24.525,35.175 23.625,35.625 C23.7,35.4 23.7,35.1 23.775,34.875 C23.775,34.725 23.85,34.575 23.85,34.425 C23.85,34.275 23.85,34.125 23.775,33.975 C23.4,31.05 21.225,28.575 18.075,28.575 C14.925,28.575 12.225,31.2 12.225,34.425 C12.225,36.75 13.65,38.775 15.6,39.675 L13.875,40.575 C13.05,41.025 12,40.575 11.775,39.675 C9.825,33.6 10.5,26.7 13.95,21.075 C16.05,17.7 18.975,15 22.35,13.2 C23.1,12.825 24,13.05 24.375,13.8 C26.775,18.225 29.25,22.65 31.725,27.075 Z M15.15,34.5 C15.15,30.825 20.625,30.825 20.85,34.5 C20.625,38.175 15.15,38.175 15.15,34.5 Z M27.9,36.825 C28.95,37.875 30.375,38.625 31.875,38.7 C33.975,38.775 35.7,37.8 36.75,36.225 C37.8,38.175 38.925,40.05 39.975,42 C39.225,41.625 38.4,41.475 37.5,41.475 C34.35,41.475 31.65,44.1 31.65,47.325 C31.65,50.4 34.2,53.025 37.275,53.1 C40.5,53.25 42.825,50.85 43.2,47.85 L44.625,50.4 C45,51.15 44.775,52.05 44.1,52.425 C43.05,53.025 41.925,53.55 40.725,54 C32.1,57.15 22.125,54.525 16.05,47.625 C15.45,46.95 14.925,46.275 14.475,45.525 C13.95,44.775 14.25,43.725 15.075,43.35 C19.35,41.1 23.625,39 27.9,36.825 Z M40.35,47.175 C40.125,50.85 34.65,50.85 34.65,47.175 C34.65,43.5 40.2,43.5 40.35,47.175 Z M44.4,38.175 C44.4,34.5 49.875,34.5 50.1,38.175 C49.875,41.85 44.4,41.85 44.4,38.175 Z M42.675,24.9 C42.675,21.825 46.575,21.3 47.925,23.4 C46.275,24.225 44.55,25.125 42.9,25.95 C42.75,25.65 42.675,25.275 42.675,24.9 Z M47.175,27.075 C46.95,27.3 46.65,27.375 46.35,27.525 C46.65,27.375 46.875,27.225 47.175,27.075 Z M50.475,22.05 C49.5,20.25 47.775,19.05 45.525,19.05 C42.375,19.05 39.675,21.675 39.675,24.9 C39.675,25.725 39.9,26.55 40.2,27.3 L36.525,29.175 C36.3,28.95 36.075,28.65 35.85,28.5 C34.8,26.625 33.75,24.825 32.775,22.95 C33.225,23.1 33.675,23.175 34.125,23.175 C37.35,23.325 39.75,20.85 40.05,17.775 C40.05,17.625 40.125,17.475 40.125,17.325 C40.125,17.175 40.125,17.025 40.05,16.875 C39.675,13.95 37.5,11.475 34.35,11.475 C31.725,11.475 29.475,13.275 28.725,15.675 L27.375,13.2 C26.85,12.3 27.375,11.175 28.425,10.95 C31.425,10.275 34.5,10.2 37.5,10.8 C43.275,12 48,15.3 51.15,19.8 C51.6,20.625 51.3,21.675 50.475,22.05 L50.475,22.05 Z M8.7,17.775 C11.4,13.425 15.225,9.975 19.65,7.65 C20.175,7.35 20.775,7.575 21.075,8.1 L21.075,8.1 C21.375,8.625 21.15,9.3 20.625,9.6 C17.625,11.175 14.925,13.35 12.675,15.975 C6.6,23.25 4.95,33.525 8.25,42.3 C8.475,42.825 8.25,43.425 7.725,43.65 C7.725,43.65 7.725,43.65 7.725,43.65 C7.125,43.95 6.45,43.65 6.225,43.05 C3.225,34.875 3.975,25.35 8.7,17.775 Z M11.25,51.3 C9.9,49.8 8.775,48.15 7.875,46.35 C9.075,45.675 8.55,45.975 9.75,45.3 C9.975,45.675 10.2,46.125 10.425,46.5 C16.2,55.875 27.3,60.675 38.1,58.725 C41.1,58.2 43.875,57.075 46.35,55.575 C46.875,55.275 47.55,55.425 47.85,56.025 L47.85,56.025 C48.15,56.55 47.925,57.225 47.4,57.525 C45.9,58.425 44.25,59.175 42.525,59.775 C31.5,63.75 18.9,60.225 11.25,51.3 Z M50.175,54 L50.175,54 C49.875,53.55 50.025,52.95 50.4,52.575 C55.8,47.625 59.025,40.425 59.175,32.775 C59.1,29.4 58.425,26.1 57.225,23.025 C57,22.5 57.225,21.9 57.75,21.6 L57.75,21.6 C58.35,21.3 59.025,21.6 59.25,22.2 C60.525,25.5 61.275,29.025 61.275,32.775 C61.125,41.025 57.75,48.9 51.825,54.225 C51.375,54.75 50.475,54.675 50.175,54 Z" id="Shape"></path>
                    <path d="M27.075,21.675 C26.7,18.75 24.525,16.275 21.375,16.275 C18.225,16.275 15.525,18.9 15.525,22.125 C15.525,25.2 18.075,27.825 21.15,27.9 C24.375,28.05 26.775,25.575 27.075,22.5 C27.075,22.35 27.15,22.2 27.15,22.05 C27.15,21.975 27.15,21.825 27.075,21.675 Z M18.525,22.125 C18.525,18.45 24,18.45 24.225,22.125 C24,25.8 18.525,25.8 18.525,22.125 Z" id="Shape"></path>
                    <path d="M25.125,51 C28.35,51.15 30.75,48.675 31.05,45.6 C31.05,45.45 31.125,45.3 31.125,45.15 C31.125,45 31.125,44.85 31.05,44.7 C30.675,41.775 28.5,39.3 25.35,39.3 C22.2,39.3 19.5,41.925 19.5,45.15 C19.5,48.3 22.05,50.925 25.125,51 Z M28.125,45.225 C27.9,48.9 22.425,48.9 22.425,45.225 C22.425,41.55 27.975,41.55 28.125,45.225 Z" id="Shape"></path>
                </g>
            </g>
        </g>
    </g>
</svg>