<?xml version="1.0" encoding="UTF-8"?>
<svg width="63px" height="40px" viewBox="0 0 63 40" version="1.1" xmlns="http://www.w3.org/2000/svg" xmlns:xlink="http://www.w3.org/1999/xlink">
    <!-- Generator: sketchtool 53.1 (72631) - https://sketchapp.com -->
    <title>F4A78E58-E005-4F27-84C0-FB9248282B09</title>
    <desc>Created with sketchtool.</desc>
    <g id="design" stroke="none" stroke-width="1" fill="none" fill-rule="evenodd" opacity="0.1">
        <g id="2-slide" transform="translate(-1209.000000, -565.000000)" fill="#42210B" fill-rule="nonzero">
            <g id="pizza_bg" transform="translate(1242.339494, 582.315788) rotate(98.000000) translate(-1242.339494, -582.315788) translate(1223.291875, 550.315788)">
                <path d="M33.1688659,0.734366036 C28.0283037,0.0611971696 22.3369669,1.89711226 17.5635877,3.67183018 C14.5037292,4.8345764 11.5050679,6.2421113 8.68999809,7.89443488 C6.18091413,9.36316695 3.30464716,11.0154905 1.59112641,13.4021801 C-1.22394339,17.318799 8.74300632e-16,23.1325301 4.89577357,23.438516 C5.20175942,24.6624594 5.50774527,25.8252056 5.87492828,26.9879518 C5.87492828,26.9879518 5.87492828,26.9879518 5.87492828,27.049149 C7.22126602,31.394148 8.8735896,35.6779499 10.9542934,39.7169631 C11.0154905,39.9005546 11.0766877,40.0841461 11.199082,40.2677376 C12.7290113,43.2052018 14.442532,46.0814687 16.3396443,48.7741442 C16.7680245,49.4473131 17.2576018,50.0592848 17.685982,50.7324536 C17.7471792,50.9160451 17.8695735,51.0996366 18.053165,51.2832282 C19.2159113,52.8743546 20.5010518,54.4042838 21.8473896,55.8730159 C24.2952763,58.6880857 27.049149,61.3807611 30.0478103,63.4614649 C31.0881622,64.1958309 32.9240773,63.5226621 32.6792886,62.05393 C29.4970358,44.3067508 31.5165424,24.6012622 37.4526678,7.71084337 C38.9213999,4.0390132 36.9630905,1.28514056 33.1688659,0.734366036 Z M26.0699943,55.6894244 C24.7848537,54.3430866 23.4997131,52.8743546 22.3369669,51.4668197 C22.0921782,51.1608338 21.8473896,50.854848 21.6026009,50.5488621 C21.2354179,50.0592848 21.2354179,49.3861159 21.6026009,48.9577357 C22.7653471,47.6725951 24.7848537,46.9994263 26.6207688,47.0606234 C27.2939377,47.0606234 27.8447122,47.611398 27.8447122,48.2845668 C27.9059094,49.5697074 27.9671065,50.854848 28.0895009,52.1399885 C28.150698,53.1803404 28.8850641,55.7506215 27.5387263,56.2401989 C27.1103461,56.3625932 26.6207688,56.1178046 26.0699943,55.6894244 Z M10.3423217,28.4566839 C10.2199273,27.9671065 10.5871103,27.4775292 11.1378849,27.5387263 C12.4842226,27.6611207 13.6469688,28.3954867 14.2589405,30.0478103 C14.8709122,31.7001339 14.6261235,33.4136546 13.8917575,34.9435839 C13.6469688,35.5555556 12.7902085,35.4943584 12.5454198,34.8823867 C11.6886594,32.8016829 10.9542934,30.659782 10.3423217,28.4566839 Z M24.8460509,25.1520367 C25.1520367,22.4593613 26.7431631,20.6234462 28.9462612,19.6442915 C29.5582329,19.3383056 30.2314018,19.9502773 30.1090075,20.6234462 C29.4358386,23.805699 28.8850641,26.9879518 28.517881,30.2314018 C28.4566839,30.8433735 27.7223178,31.2105565 27.2327405,30.8433735 C25.4580226,29.5582329 24.540065,27.5387263 24.8460509,25.1520367 Z M20.8070377,24.8460509 C20.195066,29.9254159 23.438516,33.9644291 28.0283037,35.371964 C27.9059094,37.3302735 27.8447122,39.3497801 27.8447122,41.3080895 C27.8447122,42.1036527 27.2327405,42.7768216 26.4371773,42.8992159 C24.172882,43.1440046 21.9697839,44.1231593 20.3174603,45.6530885 C19.5830943,46.3262574 18.4815452,46.1426659 17.9307707,45.3471027 C17.1964047,44.1843565 16.4620386,43.0828074 15.7888698,41.9200612 C15.4216867,41.1856952 15.0545037,40.4513291 14.6873207,39.7169631 C17.7471792,36.4123159 19.4606999,31.761331 17.1352075,27.4775292 C15.6664754,24.7236565 13.0349971,23.5609103 10.4035188,23.8668962 C9.73034997,23.9280933 9.17957544,23.4997131 8.99598394,22.8265443 L8.99598394,22.8265443 C8.8735896,22.3369669 9.11837828,21.8473896 9.48556129,21.5414037 C15.5440811,17.3799962 22.9489386,14.7485179 30.2314018,13.4633773 C31.026965,13.340983 31.761331,14.075349 31.5165424,14.8709122 L31.5165424,14.8709122 C31.394148,15.2992924 31.026965,15.6052783 30.5985848,15.6664754 C25.7028112,16.2784471 21.4190094,19.5218971 20.8070377,24.8460509 Z M3.54943584,16.4620386 C4.34499904,14.5037292 6.30330847,13.2797858 8.01682922,12.1170396 C11.6886594,9.60795563 15.7888698,7.71084337 20.0114745,6.18091413 C21.663798,5.56894244 36.5959074,1.16274622 34.5152037,6.30330847 C34.3316122,6.73168866 34.1480207,7.16006885 34.0256263,7.52725186 C33.536049,8.81239243 32.3733027,9.73034997 31.026965,9.97513865 C22.3981641,11.3826736 13.5245745,14.442532 6.48689998,19.6442915 C5.87492828,20.1338688 5.01816791,20.2562631 4.34499904,19.9502773 C3.12105565,19.5218971 2.93746414,18.053165 3.54943584,16.4620386 Z" id="Shape"></path>
            </g>
        </g>
    </g>
</svg>