<?xml version="1.0" encoding="UTF-8"?>
<svg width="26px" height="25px" viewBox="0 0 26 25" version="1.1" xmlns="http://www.w3.org/2000/svg" xmlns:xlink="http://www.w3.org/1999/xlink">
    <!-- Generator: sketchtool 53.1 (72631) - https://sketchapp.com -->
    <title>3AFE70AE-CBCE-4088-B748-DF6454D11C2C</title>
    <desc>Created with sketchtool.</desc>
    <g id="design" stroke="none" stroke-width="1" fill="none" fill-rule="evenodd" opacity="0.1">
        <g id="2-slide" transform="translate(-328.000000, -245.000000)">
            <g id="roll_bg" transform="translate(328.000000, 245.000000)">
                <ellipse id="Oval" fill="#FBF5E2" cx="9.41417611" cy="13.9921659" rx="8.30662598" ry="8.44354839"></ellipse>
                <ellipse id="Oval" fill="#472821" cx="10.5217262" cy="13.8313364" rx="3.87642546" ry="4.18156682"></ellipse>
                <path d="M24.3661029,6.59400922 C22.3883348,2.2516129 17.6416914,-0.321658986 12.9741587,0.643317972 C10.3635048,1.2062212 7.99018309,2.89493088 5.6959721,4.34239631 C5.37952921,4.50322581 5.06308631,4.74447005 4.74664342,4.98571429 C4.66753269,5.06612903 4.58842197,5.06612903 4.50931125,5.14654378 C4.27197908,5.30737327 4.11375763,5.46820276 4.0346469,5.62903226 C1.74043592,7.63940092 0.316442895,10.6147465 0.316442895,13.8313364 C0.316442895,19.5407834 4.90486486,24.6069124 10.600837,24.6069124 C12.1039407,24.6069124 13.448823,24.2852535 14.6354839,23.7223502 C14.7937053,23.6419355 14.872816,23.6419355 15.0310375,23.5615207 C15.1101482,23.5615207 15.1892589,23.481106 15.1892589,23.481106 C15.4265911,23.3202765 15.6639233,23.159447 15.9012554,22.9986175 C17.8790235,21.8728111 19.9359024,20.7470046 21.6763383,19.3799539 C21.6763383,19.3799539 21.6763383,19.3799539 21.6763383,19.3799539 C21.6763383,19.3799539 21.6763383,19.3799539 21.755449,19.3799539 C21.9136704,19.2995392 22.0718919,19.1387097 22.2301133,18.9778802 C25.473653,15.8417051 26.1856495,10.5343318 24.3661029,6.59400922 Z M3.95553618,13.8313364 C3.95553618,11.5797235 5.06308631,9.48894009 6.72441151,8.20230415 C7.11996513,7.96105991 7.51551874,7.71981567 7.91107236,7.47857143 C8.7021796,7.0764977 9.57239756,6.9156682 10.5217262,6.9156682 C14.319041,6.9156682 16.9296949,10.2126728 17.0879163,13.9117512 C17.0088056,16.1633641 15.9803662,18.2541475 14.319041,19.5407834 C13.9234874,19.7820276 13.5279337,20.0232719 13.1323801,20.2645161 C12.3412729,20.6665899 11.4710549,20.8274194 10.4426155,20.8274194 C6.88263296,20.8274194 3.95553618,17.5304147 3.95553618,13.8313364 Z" id="Shape" fill="#42210B" fill-rule="nonzero"></path>
            </g>
        </g>
    </g>
</svg>