<?xml version="1.0" encoding="UTF-8"?>
<svg width="37px" height="40px" viewBox="0 0 37 40" version="1.1" xmlns="http://www.w3.org/2000/svg" xmlns:xlink="http://www.w3.org/1999/xlink">
    <!-- Generator: sketchtool 53.1 (72631) - https://sketchapp.com -->
    <title>6542E4C1-B655-472B-A659-964C69BF41F5</title>
    <desc>Created with sketchtool.</desc>
    <g id="design" stroke="none" stroke-width="1" fill="none" fill-rule="evenodd" opacity="0.1">
        <g id="2-slide" transform="translate(-540.000000, -154.000000)" fill="#42210B">
            <g id="samuray_bg" transform="translate(540.000000, 154.000000)">
                <path d="M33.1738636,13.875 C33.1738636,13.875 33.1738636,13.875 33.1738636,13.875 C33.1738636,13.875 33.1738636,13.875 33.1738636,13.875 C30.4829545,12.375 27.5818182,11.2083333 24.6386364,10.2916667 C23.7556818,10 23.0409091,9.375 22.6625,8.54166667 L19.3829545,0.958333333 C18.7943182,-0.416666667 16.6079545,0.541666667 17.2386364,1.91666667 C18.1215909,3.95833333 19.0045455,6.04166667 19.8875,8.08333333 C20.0556818,8.5 19.6772727,8.95833333 19.2147727,8.875 C18.2477273,8.66666667 17.2386364,8.45833333 16.2715909,8.25 C16.0193182,8.125 15.725,8.08333333 15.4306818,8.20833333 C15.2204545,8.25 15.0102273,8.41666667 14.8840909,8.58333333 C14.5056818,8.875 14.1693182,9.16666667 13.7909091,9.45833333 C13.4125,9.79166667 12.8238636,9.45833333 12.8659091,8.95833333 C13.0340909,7.04166667 13.1602273,5.16666667 13.3284091,3.25 C13.4545455,1.75 11.1,1.5 10.9738636,3 C10.8056818,5.20833333 10.5113636,8.95833333 10.3431818,10.9583333 C10.2590909,11.8333333 9.83863636,12.625 9.16590909,13.1666667 C6.30681818,15.4166667 3.48977273,17.7083333 0.630681818,19.9583333 C0.630681818,19.9583333 0.588636364,19.9583333 0.588636364,20 C0.588636364,20 0.546590909,20.0416667 0.546590909,20.0416667 C0.0840909091,20.375 -6.94305724e-14,20.8333333 0.168181818,21.2083333 C0.210227273,21.5416667 0.4625,21.875 0.882954545,22.0416667 C0.967045455,22.0833333 1.09318182,22.125 1.17727273,22.125 C2.69090909,22.75 4.28863636,23.25 5.88636364,23.625 C5.25568182,26.7916667 4.625,29.9583333 4.03636364,33.125 C3.91022727,33.7916667 4.49886364,34.2916667 5.0875,34.4166667 C6.18068182,34.625 7.31590909,34.7083333 8.45113636,34.7083333 C9.25,34.6666667 9.88068182,35.3333333 9.79659091,36.0833333 C9.75454545,36.8333333 9.67045455,37.5833333 9.62840909,38.375 C9.50227273,39.875 11.8568182,40.125 11.9829545,38.625 C11.9829545,38.625 12.1931818,36.25 12.3193182,34.625 C12.3613636,34.25 12.5715909,33.9583333 12.9079545,33.7916667 C13.2022727,33.6666667 13.4965909,33.5416667 13.7909091,33.4166667 C15.8090909,35 18.4579545,35.6666667 21.0227273,35.2916667 C23.8397727,34.875 26.3204545,33.2083333 27.6659091,30.7083333 C27.7079545,30.6666667 27.7079545,30.625 27.7079545,30.5833333 C28.1704545,30.625 28.6329545,30.625 29.0954545,30.625 C29.6,30.625 30.1045455,30.9166667 30.2727273,31.375 L31.7863636,34.7916667 C32.4170455,36.1666667 34.5613636,35.2083333 33.9306818,33.8333333 C33.5522727,33 33.2159091,32.1666667 32.8375,31.3333333 C32.5431818,30.7083333 32.8375,29.9166667 33.5102273,29.6666667 C34.6034091,29.25 35.6545455,28.6666667 36.5795455,28.0416667 C37.1261364,27.6666667 37.0840909,26.875 36.7477273,26.375 C34.9818182,23.8333333 33.2159091,21.25 31.4920455,18.7083333 C32.4590909,17.7083333 33.1738636,16.5833333 33.5943182,15.2916667 C33.7625,14.7916667 33.6784091,14.125 33.1738636,13.875 Z M19.8875,20.7916667 C15.6829545,21.7083333 11.3102273,21.9166667 7.06363636,21.2083333 C5.84431818,21 5.46590909,19.4583333 6.475,18.7083333 C9.62840909,16.375 12.6556818,13.9166667 15.5147727,11.25 C15.8931818,10.9166667 16.4397727,10.7916667 16.9022727,10.9583333 C20.7284091,12.2083333 24.5125,13.4583333 28.3386364,14.75 C29.3897727,15.0833333 29.6420455,16.5 28.7590909,17.1666667 C26.2363636,19.0416667 22.8306818,20.125 19.8875,20.7916667 Z M9.67045455,24.9166667 C9.83863636,26.9583333 10.3431818,29 11.3943182,30.75 C11.6886364,31.2083333 11.3943182,31.7916667 10.8897727,31.9583333 C9.79659091,32.25 8.66136364,32.375 7.52613636,32.3333333 C7.02159091,32.3333333 6.64318182,31.875 6.76931818,31.375 C7.18977273,29.2083333 7.61022727,27.0416667 8.03068182,24.875 C8.11477273,24.4583333 8.53522727,24.1666667 8.95568182,24.25 C8.95568182,24.25 8.95568182,24.25 8.95568182,24.25 C9.37613636,24.25 9.67045455,24.5416667 9.67045455,24.9166667 Z M20.6022727,32.9583333 C15.725,33.6666667 12.8238636,29.8333333 12.1511364,25.625 C12.0670455,25.0833333 12.4875,24.5416667 13.0761364,24.5833333 C16.1454545,24.6666667 19.2568182,24.3333333 22.2420455,23.5 C23.0829545,23.2916667 23.9238636,23 24.8068182,22.7083333 C25.3113636,22.5 25.9,22.8333333 26.0261364,23.375 C26.825,27.5416667 25.6897727,32.2083333 20.6022727,32.9583333 Z M32.8795455,27.4166667 C31.9965909,27.7916667 31.0295455,28.0416667 30.0625,28.1666667 C29.3056818,28.2916667 28.6329545,27.6666667 28.675,26.875 C28.8011364,25.2916667 28.5909091,23.7083333 28.1704545,22.1666667 C28.0443182,21.6666667 28.2545455,21.125 28.7170455,20.8333333 C28.7170455,20.8333333 28.7170455,20.8333333 28.7170455,20.8333333 C29.2636364,20.5 29.9784091,20.6666667 30.3147727,21.2083333 C31.3238636,22.7083333 32.3329545,24.1666667 33.3840909,25.6666667 C33.8465909,26.25 33.5943182,27.125 32.8795455,27.4166667 Z" id="Shape" fill-rule="nonzero"></path>
                <path d="M17.0284091,26.2916667 C16.3136364,26.25 15.5988636,26.2083333 14.8840909,26.1666667 C13.7488636,26.0833333 13.5386364,27.8333333 14.6738636,27.9166667 C15.3886364,27.9583333 16.1034091,28 16.8181818,28.0416667 C17.9954545,28.0833333 18.1636364,26.3333333 17.0284091,26.2916667 Z" id="Path"></path>
                <path d="M19.425,28.9583333 C19.0045455,28.7916667 18.4159091,29 18.2897727,29.4583333 C18.1215909,29.9166667 18.3318182,30.4166667 18.7943182,30.5833333 C19.1727273,30.7083333 19.5511364,30.8333333 19.8875,30.9583333 C20.3079545,31.125 20.8965909,30.9166667 21.0227273,30.4583333 C21.1909091,30 20.9806818,29.5 20.5181818,29.3333333 C20.1397727,29.2083333 19.7613636,29.0833333 19.425,28.9583333 Z" id="Path"></path>
                <path d="M23.125,24.9583333 C22.4522727,25.2083333 21.7795455,25.4583333 21.1068182,25.75 C20.0556818,26.1666667 20.7704545,27.75 21.8215909,27.375 C22.4943182,27.125 23.1670455,26.875 23.8397727,26.5833333 C24.9329545,26.125 24.2181818,24.5416667 23.125,24.9583333 Z" id="Path"></path>
            </g>
        </g>
    </g>
</svg>