<?xml version="1.0" encoding="UTF-8"?>
<svg width="51px" height="66px" viewBox="0 0 51 66" version="1.1" xmlns="http://www.w3.org/2000/svg" xmlns:xlink="http://www.w3.org/1999/xlink">
    <!-- Generator: sketchtool 53.1 (72631) - https://sketchapp.com -->
    <title>87FA146A-75A7-4E11-A17B-432AB5805E50</title>
    <desc>Created with sketchtool.</desc>
    <g id="design" stroke="none" stroke-width="1" fill="none" fill-rule="evenodd">
        <g id="оплата-и-доставка" transform="translate(-810.000000, -1550.000000)" fill-rule="nonzero">
            <g id="servetki" transform="translate(810.000000, 1550.000000)">
                <path d="M41.9416667,25.1416667 L44.8583333,22.1666667 C45.3148315,21.8242931 45.5297082,21.2471259 45.4082458,20.6895802 C45.2867835,20.1320346 44.8512988,19.6965498 44.2937531,19.5750875 C43.7362075,19.4536252 43.1590403,19.6685019 42.8166667,20.125 L39.8416667,23.3333333 L26.1333333,9.39166667 L29.05,6.475 C29.4854441,5.89440789 29.4277065,5.08197838 28.9145307,4.56880261 C28.401355,4.05562684 27.5889254,3.99788925 27.0083333,4.43333333 L24.0916667,7.29166667 L22.75,5.83333333 C22.4751286,5.54815352 22.0960831,5.38704551 21.7,5.38704551 C21.3039169,5.38704551 20.9248714,5.54815352 20.65,5.83333333 C20.3680248,6.09797222 20.2080706,6.46745776 20.2080706,6.85416667 C20.2080706,7.24087557 20.3680248,7.61036112 20.65,7.875 L22.05,9.275 L8.925,22.4583333 L7.23333333,20.7083333 C6.65466223,20.181691 5.77033777,20.181691 5.19166667,20.7083333 C4.90648685,20.9832047 4.74537884,21.3622503 4.74537884,21.7583333 C4.74537884,22.1544164 4.90648685,22.533462 5.19166667,22.8083333 L6.88333333,24.5 L4.49166667,26.8916667 C4.14666687,27.1684536 3.94592846,27.5868592 3.94592846,28.0291667 C3.94592846,28.4714741 4.14666687,28.8898797 4.49166667,29.1666667 C4.91977187,29.3515943 5.40522813,29.3515943 5.83333333,29.1666667 C6.06392477,29.2172542 6.30274189,29.2172542 6.53333333,29.1666667 L8.925,26.7166667 L22.6333333,40.25 L20.0083333,42.875 C19.4735809,43.4728714 19.4735809,44.3771286 20.0083333,44.975 C20.6062047,45.5097524 21.510462,45.5097524 22.1083333,44.975 L24.7333333,42.35 L27.2416667,44.8583333 C27.5190415,45.1354779 27.899928,45.2836004 28.2916667,45.2666667 C28.6239021,45.243865 28.9357842,45.09832 29.1666667,44.8583333 C29.4486419,44.5936944 29.6085961,44.2242089 29.6085961,43.8375 C29.6085961,43.4507911 29.4486419,43.0813056 29.1666667,42.8166667 L26.775,40.25 L39.8416667,27.1833333 L42.7,29.9833333 C42.9573066,30.2619082 43.3130085,30.4292973 43.6916667,30.45 C44.0907822,30.4446937 44.4702794,30.2760282 44.7416667,29.9833333 C45.0236419,29.7186944 45.1835961,29.3492089 45.1835961,28.9625 C45.1835961,28.5757911 45.0236419,28.2063056 44.7416667,27.9416667 L41.9416667,25.1416667 Z M24.7333333,38.2083333 L11.025,24.5 L24.0916667,11.6666667 L37.8,25.1416667 L24.7333333,38.2083333 Z" id="Shape" fill="#F14F10"></path>
                <path d="M25.025,58.3333333 C24.6386259,58.3211885 24.2680653,58.1770816 23.975,57.925 L0.641666667,34.5916667 C0.106914251,33.9937953 0.106914251,33.089538 0.641666667,32.4916667 C0.916538047,32.2064869 1.29558359,32.0453788 1.69166667,32.0453788 C2.08774974,32.0453788 2.46679529,32.2064869 2.74166667,32.4916667 L25.025,54.5416667 L47.5416667,31.9666667 C48.1215657,31.3867677 49.0617677,31.3867677 49.6416666,31.9666667 C50.2215656,32.5465657 50.2215656,33.4867677 49.6416667,34.0666667 L26.3083333,57.4 C26.0620568,57.9048932 25.5812106,58.2545995 25.025,58.3333333 Z" id="Path" fill="#3D2615"></path>
                <path d="M25.025,65.7416667 C24.6258845,65.7363603 24.2463873,65.5676949 23.975,65.275 L0.641666667,41.9416667 C0.115024352,41.3629956 0.115024352,40.4786711 0.641666667,39.9 C0.916538047,39.6148202 1.29558359,39.4537122 1.69166667,39.4537122 C2.08774974,39.4537122 2.46679529,39.6148202 2.74166667,39.9 L25.2583333,62.4166667 L47.5416667,39.6666667 C47.816538,39.3814869 48.1955836,39.2203788 48.5916667,39.2203788 C48.9877497,39.2203788 49.3667953,39.3814869 49.6416667,39.6666667 C49.9236419,39.9313056 50.0835961,40.3007911 50.0835961,40.6875 C50.0835961,41.0742089 49.9236419,41.4436944 49.6416667,41.7083333 L26.3083333,65.0416667 C26.0368283,65.4880348 25.5472836,65.7550592 25.025,65.7416667 Z" id="Path" fill="#3D2615"></path>
                <path d="M49.6416667,23.975 L26.3083333,0.641666667 C25.710462,0.106914251 24.8062047,0.106914251 24.2083333,0.641666667 L0.875,23.975 C0.448629991,24.1863487 0.130997591,24.5675076 0,25.025 C0.0108000115,25.3942532 0.155995301,25.7468703 0.408333333,26.0166667 L23.7416667,49.35 C24.0074329,49.6513506 24.3898659,49.823987 24.7916667,49.823987 C25.1934675,49.823987 25.5759004,49.6513506 25.8416667,49.35 L49.175,26.0166667 C49.427338,25.7468703 49.5725333,25.3942532 49.5833333,25.025 C49.7138349,24.6900856 49.7342669,24.322309 49.6416667,23.975 Z M32.8416667,38.7333333 L27.0083333,32.9 L32.8416667,27.0666667 L38.675,32.9 L32.8416667,38.7333333 Z M24.7333333,30.5666667 L18.55,24.7333333 L24.3833333,18.9 L30.3333333,24.9666667 L24.7333333,30.5666667 Z M10.7333333,32.2583333 L16.5666667,26.425 L22.6916667,32.6666667 L16.8583333,38.5 L10.7333333,32.2583333 Z M16.975,11.6666667 L22.1083333,16.8 L16.275,22.6333333 L11.3166667,17.5 L16.975,11.6666667 Z M26.25,16.8 L32.0833333,10.9666667 L38.4416667,16.9166667 L32.6083333,22.75 L26.25,16.8 Z M25.025,3.5 L30.2166667,8.69166667 L24.3833333,14.525 L19.25,9.33333333 L25.025,3.5 Z M9.275,19.25 L14.4666667,24.4416667 L8.63333333,30.275 L3.5,25.025 L9.275,19.25 Z M25.025,46.6666667 L19.1916667,40.8333333 L25.025,35 L30.8583333,40.8333333 L25.025,46.6666667 Z M40.8333333,31.0333333 L35,25.2 L40.8333333,19.3666667 L46.6666667,25.2 L40.8333333,31.0333333 Z" id="Shape" fill="#3D2615"></path>
            </g>
        </g>
    </g>
</svg>