<?xml version="1.0" encoding="UTF-8"?>
<svg width="60px" height="64px" viewBox="0 0 60 64" version="1.1" xmlns="http://www.w3.org/2000/svg" xmlns:xlink="http://www.w3.org/1999/xlink">
    <!-- Generator: sketchtool 53.1 (72631) - https://sketchapp.com -->
    <title>1100C482-0FC7-4BE7-A028-5F6167774B9F</title>
    <desc>Created with sketchtool.</desc>
    <g id="design" stroke="none" stroke-width="1" fill="none" fill-rule="evenodd" opacity="0.1">
        <g id="2-slide" transform="translate(-1077.000000, -311.000000)">
            <g id="susha_sleep_bg" transform="translate(1107.643587, 342.955021) rotate(-71.000000) translate(-1107.643587, -342.955021) translate(1078.028202, 315.455021)">
                <polygon id="Path" fill="#FBF5E2" points="9.51498301 16.5832561 6.11677479 28.0691999 1.97096077 38.5356812 46.6234167 50.2255175 50.4973741 43.2931727 48.8662342 39.2153228 52.1964782 35.7491504 50.8371949 33.5742972 56.2063639 28.7488415 54.0315107 21.2048193 58.8569663 18.214396 53.9635465 12.2335496 50.2255175 10.0586963 42.8853877 7.06827309 20.5251776 2.10688909 13.660797 2.10688909 13.7967254 7.00030893 9.44701884 10.1946247"></polygon>
                <g id="Group" fill="#42210B">
                    <path d="M42.8853877,23.17578 C44.5844918,23.583565 45.1961693,21.0009268 43.4970652,20.5251776 C42.4096386,20.253321 41.3222119,19.9135002 40.3707136,19.3018227 C40.1668211,19.1658943 39.1473587,18.5542169 39.2153228,18.214396 C39.283287,17.9425394 40.3707136,17.8066111 40.5746061,17.8066111 C41.7299969,17.6706827 42.9533519,17.8066111 44.1087427,18.0784677 C45.8078468,18.4862527 46.4195243,15.8356503 44.7204201,15.4278653 C42.4096386,14.884152 37.3123262,14.3404387 36.5647204,17.6027186 C35.7491504,20.7970343 40.5746061,22.5641026 42.8853877,23.17578 Z" id="Path"></path>
                    <path d="M41.2542478,29.9042323 C40.1668211,29.6323757 39.0793945,29.2925548 38.1278962,28.6808774 C37.9240037,28.544949 36.9045412,27.9332715 36.9725054,27.5934507 C37.0404696,27.3215941 38.1278962,27.1856657 38.3317887,27.1856657 C39.4871795,27.0497374 40.7105344,27.1856657 41.8659252,27.4575224 C43.5650293,27.8653074 44.1767068,25.214705 42.4776027,24.80692 C40.1668211,24.2632067 35.0695088,23.7194934 34.321903,26.9817732 C33.5742972,30.2440531 38.3317887,32.0111214 40.6425703,32.6227989 C42.3416744,32.9626197 42.9533519,30.3120173 41.2542478,29.9042323 Z" id="Path"></path>
                    <path d="M26.1662033,24.5350633 C26.8458449,25.8263825 28.3410565,26.4380599 29.9721965,25.4865616 C32.9626197,23.8554217 30.3799815,20.5931418 30.6518381,18.1464319 C30.7877665,16.8551128 28.8168057,16.3793636 28.6808774,17.6706827 C28.4769849,19.3697868 29.0886623,20.7970343 29.360519,22.4281742 C29.4964473,23.0398517 29.2925548,24.0593142 28.3410565,23.9233859 C27.8653074,23.8554217 27.5934507,23.3796725 27.6614149,22.9039234 C27.7293791,22.5641026 27.6614149,22.2922459 27.5254866,22.0883534 C27.3895582,21.8164968 27.1177016,21.6805684 26.8458449,21.6126043 C26.5739883,21.5446401 26.2341674,21.5446401 26.0302749,21.7485326 C25.8263825,21.8844609 25.6904541,22.0203892 25.5545258,22.2922459 C25.3506333,22.7679951 24.8748842,23.17578 24.399135,23.0398517 C23.5156009,22.7000309 23.7194934,21.8164968 24.1272783,21.2727834 C25.1467408,19.9135002 26.3021316,18.9620019 26.9138091,17.3308619 C27.3895582,16.107507 25.4185975,15.6317578 24.9428483,16.8551128 C24.0593142,19.1658943 20.3212851,20.8649985 22.2242817,23.7194934 C23.3796725,25.214705 24.9428483,25.2826691 26.1662033,24.5350633 Z" id="Path"></path>
                    <path d="M38.3317887,50.7692308 C41.7299969,51.4488724 45.2641335,51.5848007 48.6623417,51.5168366 C49.2740192,51.5168366 49.8177325,51.0410874 49.9536608,50.4973741 L50.1575533,49.5458758 C50.2934816,49.0701267 50.1575533,48.7303058 49.9536608,48.4584492 C49.8177325,48.2545567 49.61384,48.1186284 49.3419833,47.9827 C51.3809082,45.8078468 52.4683349,42.0018536 51.4488724,39.4192153 C51.5848007,39.3512512 51.6527649,39.283287 51.7886932,39.2153228 C53.1479765,38.1958604 53.4877973,36.5647204 53.2159407,34.9335805 C53.0800124,34.1180105 53.4198332,33.3704047 54.0315107,32.8266914 C56.0704356,31.0596231 56.9539697,27.3215941 56.2743281,24.399135 C56.0704356,23.5156009 56.3422922,22.6320667 56.9539697,21.9524251 C59.6045721,19.3697868 60.0123571,14.2045103 55.9345073,12.3015137 C55.8665431,12.2335496 55.7306148,12.2335496 55.6626506,12.1655854 C54.7111523,9.58294717 51.8566574,8.15569972 49.1380908,8.42755638 C47.9147359,8.56348471 46.7593451,8.01977139 45.9437751,7.13623726 C44.1087427,5.16527649 40.9823911,4.28174235 38.3317887,4.82545567 C37.1084337,5.09731233 35.8850788,4.7574915 34.9335805,3.94192153 C33.4383689,2.71856657 31.3314798,2.24281742 29.4964473,2.65060241 C28.3410565,2.92245907 27.1177016,2.51467408 26.1662033,1.83503244 C24.6030275,0.611677479 22.3602101,0.135928329 20.4572135,0.679641643 C19.7096077,0.883534137 18.9620019,0.883534137 18.214396,0.611677479 C16.0395428,-0.135928329 13.3889404,0.135928329 12.1655854,2.31078159 C11.4859438,3.60210071 11.5539079,4.89341983 12.0976213,6.11677479 C8.7673772,7.20420142 7.00030893,11.6218721 7.8158789,15.0880445 C8.15569972,16.5152919 7.74791474,17.9425394 6.79641643,19.0979302 C5.50509731,20.7290701 4.82545567,22.9718876 4.961384,25.1467408 C5.02934816,26.3021316 4.62156318,27.4575224 3.87395737,28.3410565 C2.17485326,30.3120173 1.42724745,33.5742972 2.03892493,36.0889713 C1.42724745,36.1569354 0.951498301,36.7006487 0.883534137,37.3123262 C0.815569972,37.652147 0.747605808,37.9240037 0.679641643,38.2638245 C0.339820822,39.0793945 0.815569972,39.9629286 1.56317578,40.1668211 C8.97126969,42.1377819 16.3113994,44.1767068 23.6515292,46.3515601 C23.8554217,46.5554526 23.99135,46.7593451 24.1952425,46.9632376 C24.4670992,49.61384 25.6904541,52.0605499 28.4090207,53.2839049 C32.0111214,54.8470806 35.7491504,53.351869 38.3317887,50.7692308 Z M37.4482546,47.7108434 C37.4482546,47.7108434 37.3802904,47.7108434 37.4482546,47.7108434 C36.8365771,47.574915 36.2928638,47.4389867 35.6811863,47.3030584 C36.2248996,47.4389867 36.8365771,47.574915 37.4482546,47.7108434 Z M11.2820513,19.7096077 C12.2335496,19.845536 12.7772629,19.1658943 12.9131912,18.4182885 C13.1170837,17.7386469 12.9131912,16.8551128 12.0296571,16.5832561 C8.63144887,15.4958295 10.4664813,8.08773556 13.9326537,8.63144887 C13.9326537,8.63144887 13.9326537,8.63144887 13.9326537,8.63144887 C14.1365462,8.83534137 14.3404387,8.97126969 14.5443312,9.10719802 C15.9715786,10.0586963 17.2628977,7.67995057 15.8356503,6.72845227 C14.9521162,6.11677479 13.7967254,4.82545567 14.476367,3.67006487 C15.0200803,2.71856657 16.2434353,2.8544949 17.2628977,3.19431572 C17.0590053,3.53413655 16.9230769,3.94192153 16.7871486,4.34970652 C16.2434353,6.04881063 18.8940377,6.66048811 19.437751,4.961384 C20.4572135,1.69910411 26.0302749,3.0583874 25.4865616,6.38863145 C25.214705,7.27216559 25.8263825,7.8158789 26.5060241,7.95180723 C27.1856657,8.15569972 28.0012357,7.88384306 28.137164,7.00030893 C29.1566265,3.73802904 34.729688,5.09731233 34.1859747,8.42755638 C33.914118,9.31109052 34.4578313,9.85480383 35.137473,9.99073216 C35.8171146,10.1946247 36.6326846,9.99073216 36.7686129,9.03923386 C37.8560395,5.64102564 45.2641335,7.47605808 44.7204201,10.9422305 C44.7204201,11.0781588 44.7204201,11.2820513 44.7204201,11.4179796 C44.5844918,11.6898363 44.5165276,11.8937288 44.3805993,12.1655854 C43.836886,13.8646895 46.4874884,14.476367 47.0312017,12.7772629 C48.0506642,9.51498301 53.759654,10.8742663 53.1479765,14.2724745 C53.0120482,15.0200803 53.4877973,15.5637936 54.0315107,15.8356503 C55.8665431,16.5152919 56.4102564,18.8940377 54.8470806,20.1173926 C54.3713315,20.4572135 53.8276182,20.661106 53.2159407,20.661106 C53.1479765,20.661106 53.0800124,20.5931418 52.944084,20.5931418 C52.7401915,20.5251776 52.536299,20.5251776 52.4003707,20.5931418 C52.4003707,20.5931418 52.3324065,20.5931418 52.3324065,20.5931418 C50.6333024,20.0494285 50.021625,22.7000309 51.7207291,23.2437442 C51.7886932,23.2437442 51.8566574,23.3117084 51.9246216,23.3117084 C52.8081557,23.583565 53.4877973,24.3311708 53.6916898,25.214705 C53.8955823,26.4380599 53.6916898,28.0012357 53.2159407,29.2245907 C52.8081557,30.176089 51.7886932,30.8557306 50.7692308,30.7877665 C49.7497683,30.7198023 48.6623417,31.7392648 49.4099475,32.7587272 C50.0895891,33.6422614 51.3129441,35.8171146 50.2255175,36.9045412 C50.021625,37.1084337 49.8856966,37.1763979 49.6818041,37.2443621 C49.6818041,37.2443621 49.6818041,37.2443621 49.6818041,37.2443621 C49.4779116,37.1763979 49.3419833,37.1084337 49.1380908,37.1084337 C48.6623417,37.0404696 48.1865925,36.9045412 47.7788075,36.6326846 C47.2350942,36.2248996 46.7593451,35.7491504 46.4874884,35.4093296 C45.4000618,34.0500463 43.0892802,35.4772938 44.1767068,36.8365771 C44.1767068,36.8365771 44.1767068,36.8365771 44.1767068,36.8365771 C42.8174235,38.875502 36.3608279,37.1084337 36.6326846,34.5937597 C36.7006487,33.9820822 36.4287921,33.6422614 36.0210071,33.4383689 C35.4093296,32.6907631 33.914118,32.6907631 33.5742972,33.914118 C32.8946555,36.1569354 28.0691999,35.2054371 28.3410565,32.8946555 C28.3410565,32.8946555 28.3410565,32.8266914 28.3410565,32.8266914 C28.3410565,32.7587272 28.4090207,32.7587272 28.4090207,32.6907631 C28.8168057,31.0596231 26.4380599,30.4479456 25.8263825,31.8751931 C25.8263825,31.9431572 25.7584183,32.0111214 25.7584183,32.0790856 C25.7584183,32.0790856 25.7584183,32.0790856 25.7584183,32.0790856 C25.214705,34.1859747 21.8844609,33.6422614 22.2242817,31.3994439 C22.2242817,31.3314798 22.2242817,31.1955514 22.2242817,31.1275873 C22.2922459,30.9916589 22.3602101,30.7877665 22.4281742,30.6518381 C22.9718876,29.0206982 20.3212851,28.4090207 19.7775718,30.0401606 C18.8940377,32.5548347 11.5539079,30.7877665 11.7578004,28.0691999 C11.8937288,26.5060241 9.65091134,26.4380599 9.17516219,27.7293791 C9.10719802,27.7293791 9.03923386,27.6614149 9.03923386,27.6614149 C8.97126969,27.1856657 8.69941304,26.7099166 8.01977139,26.6419524 C8.01977139,26.6419524 8.01977139,26.6419524 7.95180723,26.6419524 C6.66048811,24.1272783 8.35959222,19.2338585 11.2820513,19.7096077 Z M6.8643806,29.2245907 C7.40809391,29.7003398 8.01977139,30.0401606 8.69941304,30.3120173 C9.03923386,30.4479456 9.31109052,30.3799815 9.58294717,30.3120173 C11.146123,33.1665122 16.1754711,34.5257955 19.5057152,33.3024405 C19.7096077,33.2344764 19.9135002,33.3024405 19.9814643,33.506333 C20.5251776,34.729688 21.6126043,35.6132221 23.0398517,35.9530429 C24.1272783,36.2248996 25.214705,36.0210071 26.1662033,35.4772938 C26.3700958,35.4093296 26.5739883,35.4093296 26.6419524,35.545258 C28.3410565,37.652147 31.8072289,38.3317887 34.1180105,37.0404696 C34.321903,36.9725054 34.5257955,36.9725054 34.5937597,37.1763979 C36.4967563,39.9629286 41.7299969,41.0503553 44.8563485,39.4192153 C45.6719184,39.0114303 46.6913809,39.0114303 47.5069509,39.4192153 C47.5069509,39.4192153 47.5069509,39.4192153 47.5069509,39.4192153 C48.6623417,39.9629286 49.3419833,41.1862836 49.1380908,42.4096386 C48.7303058,44.5844918 47.1671301,47.0991659 45.6039543,46.9632376 L27.2536299,42.3416744 C27.4575224,41.3901761 27.7293791,40.506642 28.0012357,39.7590361 C28.544949,38.1278962 25.9623108,37.5162187 25.3506333,39.1473587 C25.0787766,39.9629286 24.80692,40.7784986 24.6030275,41.7299969 C19.2338585,40.3707136 13.7967254,39.0114303 8.42755638,37.652147 C7.47605808,37.4482546 6.59252394,37.1763979 5.64102564,36.9725054 C5.57306148,36.9725054 5.57306148,36.9045412 5.50509731,36.9045412 C3.39820822,36.0889713 4.7574915,29.9721965 6.8643806,29.2245907 Z M29.4964473,50.7692308 C28.0012357,50.021625 27.2536299,48.79827 26.9138091,47.3030584 C29.2925548,48.0506642 31.7392648,48.7303058 34.1180105,49.61384 C34.4578313,49.7497683 34.7976521,49.8177325 35.137473,49.9536608 C33.4383689,51.1090516 31.3994439,51.7207291 29.4964473,50.7692308 Z" id="Shape" fill-rule="nonzero"></path>
                </g>
            </g>
        </g>
    </g>
</svg>