<?xml version="1.0" encoding="UTF-8"?>
<svg width="26px" height="55px" viewBox="0 0 26 55" version="1.1" xmlns="http://www.w3.org/2000/svg" xmlns:xlink="http://www.w3.org/1999/xlink">
    <!-- Generator: sketchtool 53.1 (72631) - https://sketchapp.com -->
    <title>1F04829A-BB65-4C30-8CBC-70094165AEEE</title>
    <desc>Created with sketchtool.</desc>
    <g id="design" stroke="none" stroke-width="1" fill="none" fill-rule="evenodd">
        <g id="оплата-и-доставка" transform="translate(-822.000000, -1305.000000)">
            <g id="sous" transform="translate(822.000000, 1305.000000)">
                <polygon id="Path" fill="#F15A24" points="8.28680851 12.7917526 1.07319149 27.0634021 1.65957447 52.8907216 25.3970213 52.142268 24.1855319 24.1659794 17.3370213 12.7917526"></polygon>
                <path d="M16.767234,6.71340206 C16.767234,10.6824742 16.1753191,15.2582474 17.9123404,18.9381443 C19.4944681,22.2778351 22.3378723,24.0412371 22.5259574,28.0896907 C22.5702128,29.042268 22.5259574,30.0005155 22.5259574,30.9530928 L22.5259574,52.8963918 L24.1855319,51.1953608 L1.65957447,51.1953608 C-0.475744681,51.1953608 -0.481276596,54.5974227 1.65957447,54.5974227 L24.1855319,54.5974227 C25.1020896,54.5974227 25.8451064,53.8358452 25.8451064,52.8963918 L25.8451064,30.9530928 C25.8451064,26.6721649 25.3638298,23.1680412 22.4817021,19.7489691 C19.3561702,16.0350515 20.086383,11.2835052 20.086383,6.70773196 C20.086383,4.51907216 16.767234,4.51340206 16.767234,6.70773196 L16.767234,6.71340206 Z" id="Path" fill="#42210B"></path>
                <path d="M24.1855319,51.1953608 L3.31914894,51.1953608 L3.31914894,30.9530928 C3.31914894,30.0005155 3.27489362,29.042268 3.31914894,28.0896907 C3.50723404,23.9561856 6.33404255,22.3231959 7.93276596,18.9381443 C9.44297872,15.7402062 9.19404255,11.8675258 9.1,8.30103093 L18.7753191,8.30103093 C19.1886013,8.30837153 19.5873679,8.14488038 19.8817021,7.84742268 L19.9370213,7.79072165 L19.9702128,7.75670103 C20.2640674,7.45705094 20.4259041,7.047472 20.4182979,6.62268041 L20.4182979,1.70103093 C20.4182979,0.761577487 19.6752811,5.75249324e-17 18.7587234,0 L6.78765957,0 C5.8711019,-5.75249324e-17 5.12808511,0.761577487 5.12808511,1.70103093 L5.12808511,6.6 C5.13102605,7.12446873 5.36984467,7.61822178 5.77531915,7.93814433 C5.85829787,12.1226804 6.21787234,16.3752577 3.36340426,19.7603093 C0.50893617,23.1453608 0,26.6494845 0,30.9530928 L0,52.8963918 C3.36851291e-15,53.8358452 0.743016798,54.5974227 1.65957447,54.5974227 L24.1855319,54.5974227 C26.3208511,54.5974227 26.326383,51.1953608 24.1855319,51.1953608 Z" id="Path" fill="#42210B"></path>
            </g>
        </g>
    </g>
</svg>