<?xml version="1.0" encoding="UTF-8"?>
<svg width="86px" height="104px" viewBox="0 0 86 104" version="1.1" xmlns="http://www.w3.org/2000/svg" xmlns:xlink="http://www.w3.org/1999/xlink">
    <!-- Generator: sketchtool 53.1 (72631) - https://sketchapp.com -->
    <title>4CAB78A9-8B28-4B93-A748-9506D38D42C3</title>
    <desc>Created with sketchtool.</desc>
    <g id="design" stroke="none" stroke-width="1" fill="none" fill-rule="evenodd">
        <g id="2-slide" transform="translate(-1339.000000, -4633.000000)">
            <g id="summo_delivery" transform="translate(1382.000000, 4685.000000) scale(-1, 1) translate(-1382.000000, -4685.000000) translate(1339.000000, 4633.000000)">
                <path d="M79.0607735,38.6091503 C86.2055249,32.2196078 86.7447514,20.1202614 79.6674033,12.4392157 C76.4320442,8.90457516 70.0287293,4.69019608 65.4453039,8.29281046 C62.9513812,10.2640523 62.6143646,13.1189542 63.4232044,15.7699346 C63.6928177,16.5856209 63.1535912,17.5372549 62.3447514,17.7411765 C59.3790055,18.4888889 56.7502762,20.2562092 54.7955801,22.8392157 C54.2563536,23.5189542 53.3127072,23.7228758 52.5712707,23.3830065 C52.3016575,23.2470588 51.9646409,23.1111111 51.6950276,22.9751634 C50.8861878,22.5673203 50.279558,21.751634 50.279558,20.8679739 C50.279558,19.7124183 50.0773481,18.5568627 49.7403315,17.3333333 C48.2574586,12.0993464 44.4828729,7.88496732 40.3038674,4.55424837 C38.7535912,0.203921569 32.4176796,-4.02899936e-13 28.6430939,0.747712418 C26.958011,1.0875817 24.801105,1.90326797 22.9812155,3.12679739 C21.4983425,2.03921569 19.5436464,1.56339869 17.6563536,1.97124183 C14.1513812,2.71895425 11.7922652,6.25359477 12.398895,9.85620915 C13.0055249,13.5947712 16.3756906,15.7019608 19.880663,15.4980392 C19.880663,16.3137255 19.9480663,17.1294118 20.1502762,17.8771242 C20.5546961,19.848366 21.6331492,22.0235294 23.1834254,23.5189542 C23.8574586,24.1986928 23.9248619,25.2183007 23.3856354,25.9660131 C22.9138122,26.5777778 22.441989,27.2575163 22.0375691,28.0052288 C21.5657459,28.820915 20.6895028,29.3647059 19.7458564,29.4326797 C9.02872928,30.4522876 -0.812154696,40.0366013 0.266298343,51.2522876 C0.805524862,57.0300654 4.10828729,63.5555556 9.43314917,66.2065359 C11.5226519,67.2261438 14.6906077,67.7019608 17.6563536,67.2941176 C20.0828729,67.1581699 22.441989,66.4104575 23.9248619,64.9150327 C23.9922652,64.9830065 23.9922652,65.1189542 24.0596685,65.1869281 C22.3071823,68.1777778 22.7790055,71.5084967 24.6662983,73.9555556 C24.7337017,74.4993464 24.801105,75.0431373 24.8685083,75.5869281 C25.0707182,76.7424837 24.3966851,77.8300654 23.318232,78.1699346 C17.6563536,79.6653595 12.5337017,85.2392157 13.679558,91.0849673 C14.6232044,96.1150327 20.6895028,101.00915 25.2055249,98.7660131 C25.8121547,98.4261438 26.5535912,98.5620915 27.0254144,99.1058824 C28.6430939,101.077124 32.9569061,104.88366 41.1127072,103.660131 C45.2917127,103.048366 49.6055249,100.261438 50.5491713,96.1150327 C50.6839779,95.4352941 51.1558011,94.9594771 51.8298343,94.8235294 C52.638674,94.6196078 53.4475138,95.0954248 53.7171271,95.8431373 C55.9414365,102.504575 65.040884,103.388235 71.1071823,99.5137255 C74.881768,97.1346405 77.4430939,92.3764706 76.4320442,87.8222222 C76.2298343,86.8026144 75.8254144,85.9189542 75.2861878,85.103268 C77.5779006,84.2875817 79.5325967,82.9281046 81.0828729,81.296732 C83.5093923,80.4810458 85.7337017,78.8496732 85.9359116,76.2666667 C86.0033149,75.3150327 85.7337017,74.4313725 84.9248619,73.8875817 C85.598895,70.9647059 85.6662983,67.7699346 84.9922652,64.6431373 C83.6441989,58.3215686 80.0044199,53.2915033 75.2861878,49.6888889 C74.2751381,48.9411765 73.8707182,47.5816993 74.2077348,46.4261438 C74.5447514,45.3385621 74.6121547,44.2509804 74.5447514,43.1633987 C74.4773481,42.2797386 74.881768,41.4640523 75.6906077,41.0562092 C76.7690608,40.5124183 77.7801105,39.9006536 78.6563536,39.1529412 C78.7237569,39.0849673 78.7911602,39.0849673 78.7911602,39.0169935 C78.7911602,38.8810458 78.9259669,38.745098 79.0607735,38.6091503 Z M70.1635359,81.8405229 C70.1635359,81.7045752 70.1635359,81.5006536 70.0961326,81.3647059 C71.1071823,81.5686275 72.0508287,81.7045752 73.0618785,81.8405229 C72.6574586,82.0444444 72.1856354,82.1803922 71.7812155,82.3163399 C71.3093923,82.0444444 70.7027624,81.9084967 70.1635359,81.8405229 Z M75.2861878,78.3738562 C73.2640884,78.2379085 71.1745856,77.9660131 69.2198895,77.4901961 C68.9502762,76.8104575 68.6132597,76.0627451 68.2088398,75.4509804 C71.7138122,76.130719 75.2187845,76.5385621 78.7237569,76.8104575 C78.3867403,77.3542484 78.0497238,77.8980392 77.6453039,78.4418301 C76.8364641,78.5098039 76.0276243,78.4418301 75.2861878,78.3738562 Z M29.519337,25.2183007 C29.7889503,25.0823529 29.9237569,24.9464052 30.1259669,24.8104575 C33.2265193,23.1111111 33.9005525,18.7607843 33.4961326,15.4300654 C33.4961326,15.2941176 33.4961326,15.1581699 33.4287293,15.0222222 C33.4287293,14.8862745 33.361326,14.7503268 33.2939227,14.6143791 C29.7889503,22.1821351 28.5307551,25.7167756 29.519337,25.2183007 Z M24.0596685,56.4183007 C23.4530387,55.6026144 22.7116022,54.9228758 21.8353591,54.4470588 C22.5093923,54.3111111 23.2508287,54.1071895 23.9248619,53.8352941 C23.7900552,54.6509804 23.8574586,55.5346405 24.0596685,56.4183007 Z M26.5535912,68.3137255 C29.9237569,71.0326797 35.3834254,72.2562092 40.7082873,72.7320261 C41.1801105,72.8 41.2475138,73.4797386 40.7756906,73.6156863 C37.6751381,74.4313725 34.439779,74.703268 31.2718232,74.0235294 C28.3734807,73.275817 25.8121547,71.1686275 26.5535912,68.3137255 Z" id="Path-2" fill="#FEF5E3"></path>
                <g id="Group">
                    <polygon id="Path" fill="#F14F10" points="26.0068027 65 36.0408163 70.4068441 51.0918367 70.1330798 60.9920635 70.6121673 74.0362812 73.7604563 83 75.8821293 78.2505669 79.9885932 72.6315193 83 66.9455782 82.5893536 63.5340136 72.8707224 55.4399093 68.7642586 41.4591837 74.1026616 28.0136054 75.8136882 24 70.6806084 25.2040816 65.8212928"></polygon>
                    <path d="M37.7425414,17.5372549 C37.8099448,17.469281 37.9447514,17.469281 38.0121547,17.4013072 C37.6751381,17.5372549 37.8773481,17.469281 38.079558,17.4013072 C38.2143646,17.3333333 38.3491713,17.3333333 38.5513812,17.3333333 C38.5513812,17.3333333 38.5513812,17.3333333 38.5513812,17.3333333 C38.6187845,17.3333333 38.6861878,17.3333333 38.7535912,17.3333333 C38.8883978,17.3333333 38.9558011,17.3333333 39.0906077,17.3333333 C39.0906077,17.3333333 39.0906077,17.3333333 39.0906077,17.3333333 C39.0906077,17.3333333 39.0906077,17.3333333 39.158011,17.3333333 C39.4950276,17.4013072 39.8320442,17.5372549 40.1690608,17.8771242 C41.3823204,19.0326797 43.3370166,17.1973856 42.1237569,16.0418301 C40.640884,14.6143791 38.3491713,14.1385621 36.5292818,15.1581699 C34.9790055,15.9738562 36.1922652,18.3529412 37.7425414,17.5372549 Z" id="Shape" fill="#472821" fill-rule="nonzero"></path>
                    <path d="M79.0607735,38.6091503 C86.2055249,32.2196078 86.7447514,20.1202614 79.6674033,12.4392157 C76.4320442,8.90457516 70.0287293,4.69019608 65.4453039,8.29281046 C62.9513812,10.2640523 62.6143646,13.1189542 63.4232044,15.7699346 C63.6928177,16.5856209 63.1535912,17.5372549 62.3447514,17.7411765 C59.3790055,18.4888889 56.7502762,20.2562092 54.7955801,22.8392157 C54.2563536,23.5189542 53.3127072,23.7228758 52.5712707,23.3830065 C52.3016575,23.2470588 51.9646409,23.1111111 51.6950276,22.9751634 C50.8861878,22.5673203 50.279558,21.751634 50.279558,20.8679739 C50.279558,19.7124183 50.0773481,18.5568627 49.7403315,17.3333333 C48.2574586,12.0993464 44.4828729,7.88496732 40.3038674,4.55424837 C38.7535912,0.203921569 32.4176796,-4.146683e-14 28.6430939,0.747712418 C26.958011,1.0875817 24.801105,1.90326797 22.9812155,3.12679739 C21.4983425,2.03921569 19.5436464,1.56339869 17.6563536,1.97124183 C14.1513812,2.71895425 11.7922652,6.25359477 12.398895,9.85620915 C13.0055249,13.5947712 16.3756906,15.7019608 19.880663,15.4980392 C19.880663,16.3137255 19.9480663,17.1294118 20.1502762,17.8771242 C20.5546961,19.848366 21.6331492,22.0235294 23.1834254,23.5189542 C23.8574586,24.1986928 23.9248619,25.2183007 23.3856354,25.9660131 C22.9138122,26.5777778 22.441989,27.2575163 22.0375691,28.0052288 C21.5657459,28.820915 20.6895028,29.3647059 19.7458564,29.4326797 C9.02872928,30.4522876 -0.812154696,40.0366013 0.266298343,51.2522876 C0.805524862,57.0300654 4.10828729,63.5555556 9.43314917,66.2065359 C11.5226519,67.2261438 14.6906077,67.7019608 17.6563536,67.2941176 C20.0828729,67.1581699 22.441989,66.4104575 23.9248619,64.9150327 C23.9922652,64.9830065 23.9922652,65.1189542 24.0596685,65.1869281 C22.3071823,68.1777778 22.7790055,71.5084967 24.6662983,73.9555556 C24.7337017,74.4993464 24.801105,75.0431373 24.8685083,75.5869281 C25.0707182,76.7424837 24.3966851,77.8300654 23.318232,78.1699346 C17.6563536,79.6653595 12.5337017,85.2392157 13.679558,91.0849673 C14.6232044,96.1150327 20.6895028,101.00915 25.2055249,98.7660131 C25.8121547,98.4261438 26.5535912,98.5620915 27.0254144,99.1058824 C28.6430939,101.077124 32.9569061,104.88366 41.1127072,103.660131 C45.2917127,103.048366 49.6055249,100.261438 50.5491713,96.1150327 C50.6839779,95.4352941 51.1558011,94.9594771 51.8298343,94.8235294 L51.8298343,94.8235294 C52.638674,94.6196078 53.4475138,95.0954248 53.7171271,95.8431373 C55.9414365,102.504575 65.040884,103.388235 71.1071823,99.5137255 C74.881768,97.1346405 77.4430939,92.3764706 76.4320442,87.8222222 C76.2298343,86.8026144 75.8254144,85.9189542 75.2861878,85.103268 C77.5779006,84.2875817 79.5325967,82.9281046 81.0828729,81.296732 C83.5093923,80.4810458 85.7337017,78.8496732 85.9359116,76.2666667 C86.0033149,75.3150327 85.7337017,74.4313725 84.9248619,73.8875817 C85.598895,70.9647059 85.6662983,67.7699346 84.9922652,64.6431373 C83.6441989,58.3215686 80.0044199,53.2915033 75.2861878,49.6888889 C74.2751381,48.9411765 73.8707182,47.5816993 74.2077348,46.4261438 C74.5447514,45.3385621 74.6121547,44.2509804 74.5447514,43.1633987 C74.4773481,42.2797386 74.881768,41.4640523 75.6906077,41.0562092 C76.7690608,40.5124183 77.7801105,39.9006536 78.6563536,39.1529412 C78.7237569,39.0849673 78.7911602,39.0849673 78.7911602,39.0169935 C78.7911602,38.8810458 78.9259669,38.745098 79.0607735,38.6091503 Z M59.1093923,23.3830065 C62.0077348,20.6640523 65.7149171,20.2562092 69.4895028,21.2078431 C71.7138122,21.751634 72.7248619,18.3529412 70.5005525,17.8091503 C70.2983425,17.7411765 70.0961326,17.7411765 69.8939227,17.6732026 C68.7480663,17.4013072 67.8044199,16.5176471 67.5348066,15.2941176 C67.1303867,13.3228758 67.5348066,11.4196078 70.2309392,11.5555556 C74.0729282,11.827451 77.038674,16.7215686 78.521547,19.848366 C81.4198895,26.0339869 80.678453,33.103268 75.6906077,36.7738562 C75.5558011,36.8418301 75.4209945,36.9777778 75.2861878,37.0457516 C75.2861878,37.0457516 75.2187845,37.0457516 75.2187845,37.1137255 C75.0165746,37.2496732 74.8143646,37.3856209 74.6121547,37.5215686 C73.6685083,38.0653595 72.4552486,37.7934641 71.7812155,36.9098039 C68.8828729,33.0352941 64.0972376,29.6366013 59.3790055,26.9176471 C58.2331492,26.1699346 57.9635359,24.4026144 59.1093923,23.3830065 C59.041989,23.3830065 59.041989,23.3830065 59.1093923,23.3830065 Z M70.1635359,81.8405229 C70.1635359,81.7045752 70.1635359,81.5006536 70.0961326,81.3647059 C71.1071823,81.5686275 72.0508287,81.7045752 73.0618785,81.8405229 C72.6574586,82.0444444 72.1856354,82.1803922 71.7812155,82.3163399 C71.3093923,82.0444444 70.7027624,81.9084967 70.1635359,81.8405229 Z M75.2861878,78.3738562 C73.2640884,78.2379085 71.1745856,77.9660131 69.2198895,77.4901961 C68.9502762,76.8104575 68.6132597,76.0627451 68.2088398,75.4509804 C71.7138122,76.130719 75.2187845,76.5385621 78.7237569,76.8104575 C78.3867403,77.3542484 78.0497238,77.8980392 77.6453039,78.4418301 C76.8364641,78.5098039 76.0276243,78.4418301 75.2861878,78.3738562 Z M29.519337,25.2183007 C29.7889503,25.0823529 29.9237569,24.9464052 30.1259669,24.8104575 C33.2265193,23.1111111 33.9005525,18.7607843 33.4961326,15.4300654 C33.4961326,15.2941176 33.4961326,15.1581699 33.4287293,15.0222222 C33.4287293,14.8862745 33.361326,14.7503268 33.2939227,14.6143791 L33.2939227,14.6143791 C33.159116,14.1385621 33.4287293,13.5947712 33.8331492,13.4588235 C35.5856354,12.779085 37.4055249,11.7594771 38.6861878,10.4679739 C39.4276243,9.72026144 40.7082873,9.72026144 41.4497238,10.4679739 C46.639779,16.1098039 48.9314917,23.5189542 42.6629834,30.0444444 C41.1127072,31.675817 43.4718232,34.3267974 45.0895028,32.627451 C46.4375691,31.2 47.5834254,29.6366013 48.4596685,27.9372549 C49.0662983,26.8496732 50.4143646,26.3738562 51.4928177,26.9856209 L51.8298343,27.1895425 C54.7281768,28.7529412 57.4917127,30.4522876 60.120442,32.3555556 C63.6254144,34.8705882 68.478453,38.745098 69.6243094,43.2313725 C69.961326,44.5908497 68.680663,45.8143791 67.3325967,45.3385621 C64.3668508,44.1830065 61.198895,43.4352941 57.9635359,43.1633987 C56.9524862,43.027451 56.3458564,43.6392157 56.2110497,44.454902 C56.0088398,45.4065359 56.5480663,46.6300654 57.8287293,46.7660131 C67.7370166,48.0575163 77.038674,54.2431373 79.7348066,64.3712418 C80.5436464,67.3620915 80.6110497,70.5568627 79.9370166,73.4117647 C78.319337,73.275817 76.7690608,73.1398693 75.2187845,72.9359477 C71.3767956,72.4601307 67.5348066,71.848366 63.760221,70.896732 C60.0530387,68.3137255 55.4696133,67.4980392 51.1558011,69.1294118 C51.0883978,69.1294118 51.0883978,69.1294118 51.0209945,69.1973856 C50.7513812,69.1973856 50.481768,69.2653595 50.279558,69.2653595 C49.2685083,69.3333333 48.2574586,69.4013072 47.2464088,69.4013072 C44.2132597,69.469281 41.1127072,69.3333333 38.079558,68.9254902 C33.9679558,68.3816993 29.3845304,67.0222222 27.5646409,63.8954248 C27.0928177,63.0797386 28.0364641,62.2640523 28.7779006,62.8078431 C29.519337,63.351634 30.3281768,63.7594771 31.2044199,64.1673203 C33.2939227,65.1189542 34.3049724,61.6522876 32.2154696,60.7686275 C32.7546961,60.972549 31.5414365,60.3607843 31.2718232,60.2248366 C30.3281768,59.6810458 29.4519337,59.0013072 28.7779006,58.1176471 C28.440884,57.7098039 28.1712707,57.3019608 27.9690608,56.8941176 C27.5646409,56.0104575 28.7104972,55.2627451 29.3171271,56.0104575 C30.6651934,57.5058824 32.4176796,58.7294118 34.3049724,59.6130719 C36.3270718,60.5647059 38.281768,57.5058824 36.1922652,56.5542484 C33.0243094,55.0588235 28.7779006,51.8640523 30.6651934,47.9215686 C30.6651934,47.9215686 30.6651934,47.9215686 30.6651934,47.8535948 C30.8674033,47.5137255 31.0022099,47.1058824 31.2044199,46.6980392 C32.080663,44.5908497 28.7104972,43.503268 27.8342541,45.6784314 C27.9690608,45.2705882 27.4972376,46.2901961 27.3624309,46.4941176 C27.3624309,46.4941176 27.3624309,46.5620915 27.2950276,46.5620915 C27.160221,46.6300654 27.0928177,46.7660131 26.958011,46.9019608 C26.5535912,47.4457516 26.1491713,47.9215686 25.8121547,48.5333333 C25.6773481,48.7372549 25.4751381,48.8732026 25.2729282,49.0091503 C22.3071823,51.7281046 18.6,51.7281046 14.960221,50.5045752 C13.881768,50.1647059 12.7359116,50.9803922 12.6685083,52.1359477 C12.5337017,55.2627451 13.4773481,58.5934641 15.9038674,60.6326797 C17.6563536,62.0601307 20.2176796,59.6810458 18.4651934,58.1856209 C18.4651934,58.1856209 18.3977901,58.1176471 18.3977901,58.1176471 C17.9259669,57.7098039 18.2629834,56.9620915 18.8696133,57.0300654 L18.8696133,57.0300654 C18.8696133,57.0300654 18.8696133,57.0300654 18.9370166,57.0300654 C20.1502762,57.4379085 21.5657459,59.6130719 21.3635359,61.0405229 C21.161326,62.4 19.4762431,63.1477124 18.3977901,63.5555556 C17.6563536,63.827451 16.9149171,63.9633987 16.1734807,64.0313725 C11.320442,63.9633987 7.7480663,59.6130719 6.33259669,54.9228758 C4.17569061,47.8535948 6.4,41.2601307 12.2640884,36.8418301 C15.7016575,34.1908497 20.8917127,32.2875817 25.2729282,33.4431373 C26.4861878,33.7830065 27.3624309,32.8313725 27.4972376,31.8797386 C27.6320442,31.1320261 27.2276243,30.3163399 26.2839779,30.0444444 L26.2839779,30.0444444 C25.6773481,29.9084967 25.4077348,29.1607843 25.7447514,28.6849673 C26.7558011,27.1895425 28.0364641,25.9660131 29.519337,25.2183007 Z M24.0596685,56.4183007 C23.4530387,55.6026144 22.7116022,54.9228758 21.8353591,54.4470588 C22.5093923,54.3111111 23.2508287,54.1071895 23.9248619,53.8352941 C23.7900552,54.6509804 23.8574586,55.5346405 24.0596685,56.4183007 Z M26.5535912,68.3137255 C29.9237569,71.0326797 35.3834254,72.2562092 40.7082873,72.7320261 C41.1801105,72.8 41.2475138,73.4797386 40.7756906,73.6156863 C37.6751381,74.4313725 34.439779,74.703268 31.2718232,74.0235294 C28.3734807,73.275817 25.8121547,71.1686275 26.5535912,68.3137255 Z M28.5756906,95.4352941 C28.3734807,95.2313725 28.1712707,95.027451 28.0364641,94.7555556 C27.8342541,94.4836601 27.6320442,94.2117647 27.4298343,94.0078431 C27.4298343,94.0078431 27.4298343,94.0078431 27.3624309,93.9398693 C27.160221,93.6679739 26.958011,93.3960784 26.7558011,93.124183 C26.7558011,93.124183 26.7558011,93.124183 26.7558011,93.124183 C26.5535912,92.8522876 26.3513812,92.5124183 26.2165746,92.2405229 C25.6773481,91.220915 24.598895,91.1529412 23.7900552,91.5607843 C23.1160221,91.9006536 22.6441989,92.648366 22.9138122,93.5320261 C22.9812155,93.6679739 22.9812155,93.8039216 23.0486188,93.8718954 C23.0486188,93.8718954 23.0486188,93.8718954 23.0486188,93.8718954 C23.4530387,94.551634 22.9138122,95.4352941 22.1049724,95.3673203 C19.6110497,95.1633987 17.319337,91.6287582 17.9259669,88.9098039 C18.6674033,85.3751634 22.6441989,81.6366013 26.4187845,81.4326797 C28.6430939,86.6666667 32.4850829,91.0169935 37.8099448,93.4640523 C39.7646409,94.3477124 41.7867403,94.9594771 43.8088398,95.2313725 C44.9546961,95.3673203 45.2917127,96.930719 44.3480663,97.6104575 C42.7977901,98.6980392 40.8430939,99.4457516 39.2928177,99.7176471 C34.9116022,100.465359 31.2718232,98.6300654 28.5082873,95.5712418 C28.6430939,95.503268 28.6430939,95.503268 28.5756906,95.4352941 Z M72.9944751,90.6771242 C72.5900552,93.7359477 70.5679558,95.979085 67.8718232,97.2705882 C64.0972376,99.0379085 59.1767956,98.8339869 57.4243094,95.5712418 C56.7502762,94.4156863 57.2220994,92.9202614 58.3679558,92.2405229 C58.9071823,91.9006536 59.4464088,91.5607843 59.9856354,91.220915 C60.0530387,91.220915 60.0530387,91.1529412 60.120442,91.1529412 C60.1878453,91.1529412 60.1878453,91.0849673 60.2552486,91.0849673 C60.3226519,91.0169935 60.4574586,90.9490196 60.5248619,90.8810458 C61.401105,90.2013072 61.2662983,89.3176471 60.7270718,88.6379085 C60.3226519,87.8222222 59.4464088,87.3464052 58.4353591,87.9581699 C47.5834254,94.9594771 33.0243094,88.7738562 29.0475138,77.1503268 C36.7314917,79.8013072 45.561326,76.5385621 52.2342541,72.6640523 C52.4364641,72.5960784 52.638674,72.5281046 52.840884,72.3921569 C55.8740331,71.2366013 59.1767956,71.9843137 61.8055249,73.8196078 C61.9403315,73.9555556 62.1425414,74.0915033 62.3447514,74.227451 C62.7491713,74.5673203 63.2209945,74.9071895 63.558011,75.3150327 C67.0629834,78.8496732 67.6696133,83.8797386 65.5801105,88.3660131 C64.6364641,90.4052288 67.6022099,92.3084967 68.6132597,90.269281 C69.0176796,89.3856209 69.3546961,88.5019608 69.6243094,87.5503268 C69.961326,86.4627451 71.3767956,86.1228758 72.0508287,87.0065359 C72.6574586,87.7542484 73.1966851,88.9777778 72.9944751,90.6771242 Z" id="Shape" fill="#472821" fill-rule="nonzero"></path>
                </g>
                <ellipse id="Oval" fill="#D3501C" transform="translate(38.603930, 23.690726) rotate(-87.915966) translate(-38.603930, -23.690726) " cx="38.6039297" cy="23.6907263" rx="3.19733466" ry="3.64599753"></ellipse>
            </g>
        </g>
    </g>
</svg>