<?xml version="1.0" encoding="UTF-8"?>
<svg width="60px" height="59px" viewBox="0 0 60 59" version="1.1" xmlns="http://www.w3.org/2000/svg" xmlns:xlink="http://www.w3.org/1999/xlink">
    <!-- Generator: sketchtool 53.1 (72631) - https://sketchapp.com -->
    <title>CB4198CC-A4ED-4F5F-8426-6DDC31F9A5A6</title>
    <desc>Created with sketchtool.</desc>
    <g id="design" stroke="none" stroke-width="1" fill="none" fill-rule="evenodd">
        <g id="оплата-и-доставка" transform="translate(-1137.000000, -1555.000000)" fill-rule="nonzero">
            <g id="surprise" transform="translate(1137.000000, 1554.000000)">
                <path d="M47.46,10.52 C46.09324,9.20026535 44.2487403,8.49278603 42.35,8.56 C39.8505668,8.55651992 37.4091917,9.31334621 35.35,10.73 C35.9489851,8.88745809 35.9489851,6.90254191 35.35,5.06 C34.4638877,2.61640432 32.1392865,0.991984213 29.54,1 C26.3647993,0.854638393 23.4902323,2.86683533 22.54,5.9 C22.2150718,7.28114672 22.2150718,8.71885328 22.54,10.1 C20.8314443,9.12654687 18.906062,8.59706675 16.94,8.56 C15.0412597,8.49278603 13.19676,9.20026535 11.83,10.52 C10.5606471,11.6666959 9.82527679,13.2895821 9.8,15 C9.81272504,16.7974077 10.57605,18.5077073 11.9054556,19.7174664 C13.2348612,20.9272255 15.0093598,21.5263453 16.8,21.37 C17.7664983,21.37 18.55,20.5864983 18.55,19.62 C18.55,18.6535017 17.7664983,17.87 16.8,17.87 C15.7743253,17.9227428 14.7689172,17.57085 14,16.89 C13.5458557,16.3653397 13.2971771,15.6939074 13.3,15 C13.3,13.67 14.21,12.13 16.73,12.13 C20.5086996,12.6838545 23.8971207,14.757366 26.11,17.87 L24.22,17.87 L24.22,59.1 L35,59.1 L35,17.8 L32.97,17.8 C35.1828793,14.687366 38.5713004,12.6138545 42.35,12.06 C44.87,12.06 45.78,13.6 45.78,14.93 C45.7855873,15.6718881 45.4810826,16.382399 44.94,16.89 C44.2285229,17.5197392 43.2990128,17.8463239 42.35,17.8 C41.3835017,17.8 40.6,18.5835017 40.6,19.55 C40.6,20.5164983 41.3835017,21.3 42.35,21.3 C44.0700555,21.3565058 45.7411704,20.7222046 46.9905229,19.5386075 C48.2398754,18.3550104 48.9635152,16.7205966 49,15 C49.1043636,13.3610895 48.5499855,11.748353 47.46,10.52 Z M25.9,6.95 C26.3872929,5.3797617 27.9018291,4.36036233 29.54,4.5 C30.7603417,4.40635 31.887084,5.15751153 32.27,6.32 C33.0595701,9.73492737 31.9652327,13.3115421 29.4,15.7 C26.6561943,13.6925209 25.2975745,10.2959716 25.9,6.95 L25.9,6.95 Z M31.36,55.95 L28,55.95 L28,21.3 L31.64,21.3 L31.36,55.95 Z" id="Shape" fill="#F14F10"></path>
                <path d="M57.33,17.8 L1.75,17.8 C0.783501688,17.8 1.18361906e-16,18.5835017 0,19.55 L0,27.67 C-8.81297862e-16,28.1341289 0.184374471,28.5792482 0.512563133,28.9074369 C0.840751795,29.2356255 1.28587114,29.42 1.75,29.42 L4.13,29.42 L4.13,48.18 C4.13,54.2109495 9.01905053,59.1 15.05,59.1 L43.96,59.1 C46.8682735,59.1186432 49.6638352,57.9763819 51.7268971,55.9264605 C53.789959,53.8765391 54.9500598,51.0883332 54.95,48.18 L54.95,29.42 L57.33,29.42 C58.2964983,29.42 59.08,28.6364983 59.08,27.67 L59.08,19.55 C59.08,18.5835017 58.2964983,17.8 57.33,17.8 Z M51.45,48.18 C51.4500881,50.1600949 50.6587387,52.0580872 49.2520422,53.451637 C47.8453458,54.8451867 45.9400068,55.6186801 43.96,55.6 L15.05,55.6 C10.9520472,55.6 7.63,52.2779528 7.63,48.18 L7.63,29.42 L51.45,29.42 L51.45,48.18 Z M55.58,25.92 L3.5,25.92 L3.5,21.3 L55.58,21.3 L55.58,25.92 Z" id="Shape" fill="#3D2615"></path>
            </g>
        </g>
    </g>
</svg>