<?xml version="1.0" encoding="UTF-8"?>
<svg width="97px" height="120px" viewBox="0 0 97 120" version="1.1" xmlns="http://www.w3.org/2000/svg" xmlns:xlink="http://www.w3.org/1999/xlink">
    <!-- Generator: sketchtool 53.1 (72631) - https://sketchapp.com -->
    <title>0722DA0E-5B30-465B-B0F7-2557F19E19FE</title>
    <desc>Created with sketchtool.</desc>
    <g id="design" stroke="none" stroke-width="1" fill="none" fill-rule="evenodd">
        <g id="2-slide" transform="translate(-314.000000, -3056.000000)">
            <g id="Group-14" transform="translate(278.000000, 3026.000000)">
                <g id="Group" transform="translate(84.235827, 89.895901) scale(-1, -1) rotate(-180.000000) translate(-84.235827, -89.895901) translate(36.235827, 30.395901)">
                    <polygon id="Path-10" fill="#FEF5E3" points="21.3652548 78.2731866 21.3652548 34.8822674 13.677341 34.8822674 27.3287736 5 61.9817925 16.8268272 60.8339926 23.5145349 71.4738304 28.0529485 81.4318521 16.8268272 87.2617814 40.7210687 82.9845462 79.865933 92 91.0905172 82.7203982 105.492248 61.9817925 115 34.5540903 113.188746 15.609153 97.3336102 9 100.978959 9 77.27201 16.8217638 86.3929956"></polygon>
                    <path d="M36.2008443,53.6218134 L36.2008443,53.6218134 C37.7300976,55.0480374 38.348375,57.2067753 37.807363,59.231031 L37.7022636,59.5929161 C37.0857581,61.9087636 35.0822065,63.5825246 32.7025373,63.7696722 L30.120096,63.9807718 C27.6029596,64.1887629 25.2545332,62.6923831 24.36966,60.3166861 L24.36966,60.3166861 C23.7896847,58.7873043 23.8960493,57.080834 24.6614062,55.6360274 C25.4267631,54.1912207 26.7764456,53.1490304 28.3634354,52.777415 L30.9759051,52.1441162 C32.8544724,51.7111771 34.8232976,52.2679926 36.2008443,53.6218134 L36.2008443,53.6218134 Z" id="_Контур_4" fill="#F14F10" fill-rule="nonzero"></path>
                    <path d="M69.9540014,53.4388795 L69.9540014,53.4388795 C68.3773876,54.8039088 67.6802254,56.9203323 68.1386087,58.949992 L68.2271645,59.3173995 C68.7609304,61.6403275 70.7059029,63.3768568 73.0829709,63.652808 L75.6658466,63.9614302 C78.1838437,64.254822 80.5924269,62.8518143 81.5695626,60.5224961 L81.5695626,60.5224961 C82.1906853,59.0252697 82.1375209,57.3347613 81.4235357,55.8791648 C80.7095505,54.4235683 79.4032322,53.3425093 77.8354622,52.9098127 L75.2378272,52.2043903 C73.3803691,51.6920188 71.3887365,52.1573348 69.9540014,53.4388795 L69.9540014,53.4388795 Z" id="_Контур_5" fill="#F14F10" fill-rule="nonzero"></path>
                    <path d="M51.6988788,106.672544 L51.6988788,106.672544 C52.1003737,106.223066 52.1003737,105.547563 51.6988788,105.098085 C51.523245,104.880794 51.2573959,104.754393 50.9763818,104.754567 L50.8607822,104.754567 C48.2453429,104.081844 47.2482969,101.07606 49.5891874,99.4157216 L49.7192369,99.4157216 C49.8603418,99.3551258 49.9880071,99.2675781 50.0949354,99.1580829 C50.312302,98.9318863 50.4225878,98.6249666 50.3983841,98.3136006 C50.5089596,97.8215775 50.2100657,97.3302328 49.7192369,97.1971664 C49.5871268,97.1226004 49.43779,97.083154 49.2857386,97.0826604 L49.1412392,97.0826604 C46.6413994,96.2095516 46.9448482,92.8316224 49.0978894,91.6149954 L49.2279389,91.6149954 C49.3486809,91.5862873 49.4619371,91.5326337 49.5602875,91.4575496 L49.5602875,91.4575496 C49.8857744,91.1638325 50.027639,90.7200073 49.9321238,90.2942546 C49.8366086,89.868502 49.518328,89.525964 49.0978894,89.3964403 C46.2079011,88.9527292 46.9014983,84.6587515 49.5747375,84.4154261 C49.9407447,84.4332005 50.2931162,84.2758477 50.5220337,83.9924075 C50.7509513,83.7089672 50.8285823,83.3339011 50.7307328,82.9841002 C50.7382324,82.7004241 50.6185111,82.4280243 50.4037765,82.2401823 C50.189042,82.0523403 49.9013468,81.9683471 49.6180873,82.0107986 C47.2622593,81.8906762 45.1421877,83.4179618 44.531708,85.6749929 C44.4739226,85.8754607 44.3055396,86.025572 44.0982097,86.0614509 L44.0982097,86.0614509 C42.4670427,86.3749942 41.0832829,87.4375296 40.3701249,88.9241027 C40.2092114,89.2736388 39.8741049,89.5131854 39.4885032,89.554319 C39.1029014,89.5954525 38.7239886,89.4320729 38.4916325,89.1244883 C38.0464388,88.3610873 37.938241,87.4497853 38.1924854,86.6049045 C38.4467298,85.7600237 39.0409793,85.0561245 39.835477,84.6587515 L39.9366266,84.6587515 C40.0667611,84.6173185 40.1888953,84.5544094 40.2978751,84.4726791 C40.5409868,84.3309159 40.7095815,84.0911668 40.7595581,83.8161456 C40.8095346,83.5411244 40.7359214,83.2581902 40.5579741,83.0413532 C40.3603864,82.4977611 39.7808754,82.1891431 39.2141296,82.3256903 C36.6559692,82.8037618 34.8549898,85.0903978 35.0091966,87.6645359 C35.0583868,88.8447477 35.5355075,89.9678261 36.3530412,90.8277662 C36.7386067,91.2148297 36.7815566,91.8225954 36.4541908,92.2590921 C35.6392777,93.249037 35.2270089,94.5047721 35.2981955,95.7801538 C35.4387486,98.3935715 37.5707172,100.468107 40.2111755,100.560782 C40.5139533,100.598764 40.8182974,100.503143 41.04362,100.29924 C41.2689427,100.095337 41.3925167,99.8037177 41.3816207,99.5016011 C41.5116702,98.9576973 41.2515713,98.5282995 40.572424,98.2420344 C37.6824358,97.0110941 38.1881837,95.2219367 39.0262803,93.9480566 C39.2370269,93.6484132 39.5823988,93.4698076 39.9510766,93.4698076 C40.3197543,93.4698076 40.6651262,93.6484132 40.8758728,93.9480566 C41.6744588,94.9808399 42.8342188,95.6803253 44.1271096,95.9089731 C44.4687044,95.9658208 44.7603551,96.1851648 44.9074064,96.4958167 L45.0374559,96.7105156 C45.5724865,97.7525796 45.7305956,98.9448634 45.4854041,100.088445 C44.5895077,103.208735 46.7714489,107.373894 50.8463323,106.973122 C51.1363648,106.947537 51.407788,106.820718 51.6121792,106.615291 L51.6988788,106.672544 Z M45.2397551,89.6540789 L45.3842545,89.8401513 C45.7223835,90.2584795 45.7223835,90.853149 45.3842545,91.2714772 C45.268655,91.4432363 45.1530554,91.6006822 45.0519058,91.7867545 C44.7980723,92.2377656 44.2680358,92.4611565 43.7639512,92.3295798 C43.2598666,92.1980032 42.9098011,91.7448873 42.9133145,91.2285374 C42.9323053,90.7283262 43.0657081,90.2389152 43.3034629,89.7972115 C43.4799897,89.4428261 43.8324967,89.2072807 44.23034,89.1778717 C44.6281833,89.1484627 45.0120809,89.3295724 45.2397551,89.6540789 Z" id="Shape" fill="#472821" fill-rule="nonzero"></path>
                    <path d="M72.867056,41.6277081 C72.645833,40.9542419 72.1506408,40.4128736 71.5102208,40.1443496 C65.8836285,37.4195666 59.1665606,39.7183302 56.2530423,45.3657716 C55.8697354,46.1336013 55.9250969,47.0552578 56.3973865,47.7688124 C56.8433441,48.5064618 57.6170312,48.9679433 58.461508,49 L58.5769834,49 C59.3297796,48.9727258 60.0042848,48.5144395 60.3235478,47.8133132 C62.1711532,44.0604161 65.9385359,42.8588957 70.0956479,44.6834267 C70.593538,44.9314715 71.170564,44.9503057 71.6827678,44.7352306 C72.1949715,44.5201554 72.5940535,44.0914518 72.7804495,43.5560742 C73.0396022,42.9462235 73.0704444,42.2594972 72.867056,41.6277081 L72.867056,41.6277081 Z" id="Shape" fill="#472821" fill-rule="nonzero"></path>
                    <path d="M32.5966336,39.9219995 C31.7701141,40.2317853 31.1756641,40.9556977 31.0396775,41.8180376 C30.8839906,42.6764432 31.1928101,43.5528851 31.854533,44.1306295 C32.4179798,44.5775301 33.1867506,44.677238 33.8480188,44.3891801 C38.1114592,42.7804205 41.8656149,44.0731738 43.6553868,47.7790664 C43.9572264,48.4601911 44.6083502,48.9271485 45.3578528,49 L45.4888117,49 C46.3237051,48.9754224 47.096658,48.5592319 47.5696034,47.8796139 C48.0588871,47.2028252 48.1369167,46.3170209 47.7733173,45.567022 C45.049185,39.9909027 38.3710371,37.5069414 32.5966336,39.9219995 Z" id="Shape" fill="#472821" fill-rule="nonzero"></path>
                    <path d="M64.6255357,56.5523977 C63.7552887,54.6588922 61.7458792,53.5521989 59.6720874,53.8242588 C57.821779,54.1042894 56.2865688,55.3957108 55.7005357,57.1651347 C55.5686392,57.4569143 55.4367426,57.7924608 55.2901909,58.1571852 C55.0496947,58.8760866 54.7198368,59.5622288 54.3082944,60.1996421 C54.0480553,60.5724945 53.6039376,60.7739631 53.1505358,60.7248453 C52.6859915,60.6715334 52.2845308,60.3773485 52.0953633,59.9516295 C51.7205,58.7892873 51.6054575,57.5594103 51.7582944,56.348152 L51.7582944,56.1001394 C52.570203,55.8488988 53.1491656,55.1342278 53.2238116,54.2911061 C53.2238116,53.065632 51.7582944,52.0298146 50.0143289,52.0006366 C48.2703634,51.9714587 46.7315703,52.9489202 46.7169151,54.1743943 C46.7572468,54.9548598 47.2323707,55.6474346 47.9479496,55.9688386 L47.9479496,56.2168512 C47.9479496,57.0630119 47.9479496,57.9383506 47.9479496,58.7991002 C47.9316319,59.722058 47.4161095,60.5643653 46.5996737,61.0020359 C45.2807082,61.6439509 43.903122,60.7248453 42.8919151,60.0537523 C42.3929786,59.6326794 41.6905239,59.5467022 41.1039841,59.8349177 C40.4761366,60.1731037 40.0625936,60.804339 40.0048462,61.5126501 C39.9561472,62.1735615 40.2773177,62.8073921 40.840191,63.1612046 C43.5513979,64.9702378 47.3324323,65.6267418 49.7945013,63.1612046 C50.2991055,63.7489498 50.9044649,64.2429049 51.5824323,64.6201023 C53.108482,65.4820763 54.8256755,65.9532994 56.5798461,65.9914663 C58.8669291,66.0987409 61.0839364,65.1902932 62.6324322,63.51134 C63.6436391,62.4025777 65.8858805,59.4701932 64.6255357,56.5523977 Z M60.3608805,60.929091 C59.5367863,61.7523531 58.4346181,62.2411486 57.2686392,62.3004549 C57.5777999,61.7778954 57.8331201,61.2255711 58.0307081,60.6519004 C58.1332943,60.3747098 58.2505357,60.0975193 58.3677771,59.8203287 C58.4850185,59.5431381 58.4850185,59.4993712 58.5729495,59.2951255 C58.8513978,58.5364986 59.2763978,57.3839694 59.8772598,57.2234907 C60.0671751,57.2021689 60.2588963,57.2021689 60.4488116,57.2234907 C60.7265183,57.2315346 60.9981026,57.3066339 61.2401909,57.4423253 C61.4735632,57.5934499 61.6288432,57.8386436 61.6651909,58.1134183 C61.5290981,59.1495045 61.0733692,60.1180143 60.3608805,60.8853241 L60.3608805,60.929091 Z" id="Shape" fill="#472821" fill-rule="nonzero"></path>
                    <path d="M95.7761834,91.9128658 C93.9517268,88.6685866 91.7143639,85.6792514 89.1210999,83.021025 C88.5128284,82.3982299 88.1969988,81.5429542 88.2530455,80.6703085 C88.947489,68.8437222 89.6998028,54.3890056 89.6998028,42.9128367 C89.7079582,37.0561001 89.3552333,31.2045188 88.64367,25.3919681 C88.2324748,21.0102914 87.0621218,16.7355111 85.1859201,12.762342 C84.730865,11.9683048 83.8128872,11.5704165 82.9289787,11.7840935 C77.7351201,13.5215796 74.1037593,18.2084119 72.1795721,23.3040646 C71.7818415,24.3103279 70.7296571,24.8872967 69.676682,24.6765326 C68.9099006,24.5305254 68.2299247,24.4137196 67.3908055,24.2969138 C66.9243703,24.243051 66.538014,23.9068083 66.4166493,23.4491138 C66.2952847,22.9914193 66.4635997,22.5053773 66.8410377,22.223611 C67.6367542,21.6103806 68.4324707,20.9679487 68.8809655,20.5445278 C69.320112,20.1056344 69.5366683,19.4884097 69.4690352,18.8684224 C69.4014022,18.248435 69.0569818,17.6935376 68.5337438,17.36157 C56.1251698,9.6644357 42.6677394,3.84037159 28.5887751,0.0743129447 C27.7233065,-0.165787188 26.8035786,0.188936082 26.3173662,0.950356375 C19.296035,11.9109027 13.387503,23.5579003 8.68139487,35.7146798 C8.14609468,37.0433457 8.68139487,38.8830369 10.3885685,38.7954325 L11.6472473,38.7954325 C12.8335883,38.7954325 14.0054617,38.8976376 15.1918027,38.9122383 C16.486995,38.9353529 17.5336597,39.9852096 17.5644846,41.2921563 C17.7380955,53.206347 18.5627471,69.2671432 18.6929553,81.2981396 C18.696356,81.8481277 18.4768318,82.3756149 18.0853172,82.758212 L18.0853172,82.758212 C17.8297892,83.0004052 17.4706888,83.0966463 17.129763,83.0143063 C16.7888373,82.9319663 16.5118132,82.6820893 16.3926112,82.3493917 C16.0944505,81.4928729 15.726688,80.6626754 15.2930757,79.8672687 C12.7869615,75.527611 8.41342695,72.6211032 3.47306865,72.0120793 L3.14031447,72.0120793 C2.37605681,71.9465925 1.66368071,72.4079074 1.40420573,73.136335 C1.27069855,73.389327 1.19180666,73.6679898 1.17272457,73.9539755 C0.000851164889,78.2903905 0.000851164889,84.2182844 2.63394942,88.7007066 C3.189543,89.5933408 3.189543,90.7282172 2.63394942,91.6208514 C-0.418708448,96.293083 -0.418708448,102.556794 0.63742437,106.893208 C0.695667058,107.146069 0.80392816,107.384449 0.955710973,107.594043 C1.20835551,108.551825 2.12213533,109.174926 3.09691175,109.054116 C7.69469823,108.355138 11.7787373,105.710074 14.3237483,101.782955 C14.6727037,101.253107 15.2520964,100.924086 15.8819754,100.898082 C16.5118544,100.872077 17.1159409,101.152237 17.5066143,101.651549 C21.0987716,106.480815 25.5844759,110.56155 30.7155083,113.667944 C36.5366226,117.047745 43.1124225,118.881399 49.8271721,118.997209 L50.1020559,118.997209 C61.8207899,119.128615 74.1182269,114.616991 84.7229578,106.221575 C89.2201564,102.901249 92.9801199,98.6690378 95.7617159,93.7963592 L95.7617159,93.6357513 C96.0741712,93.1061458 96.0797001,92.4477394 95.7761834,91.9128658 Z M17.4921467,32.8091358 C17.130562,32.7986341 16.7994574,32.602103 16.6146424,32.2882826 C16.4298274,31.9744622 16.4170162,31.5870156 16.5806896,31.261459 C20.3856613,22.9682479 23.4961895,14.4998281 28.661113,6.44022854 C28.9722317,5.95771494 29.5633949,5.74293754 30.1078703,5.91460248 C40.2940702,8.85893344 50.0990008,13.0101016 59.3178998,18.2814156 C59.5912731,18.4551807 59.7571207,18.7584044 59.7571207,19.0844554 C59.7571207,19.4105063 59.5912731,19.71373 59.3178998,19.8874952 C56.1986382,22.0743344 52.8859719,23.9658559 49.42208,25.5379753 C39.5136633,30.5195738 28.5601776,33.0139277 17.4921467,32.8091358 Z M23.4383192,73.5159538 C23.4383192,63.1056377 23.2502407,50.7972275 22.801746,41.0877462 C22.716512,39.6074322 23.7998478,38.3211897 25.2612334,38.1676014 C36.5350629,37.0246838 47.4794476,33.6719696 57.4805181,28.2975121 C57.8683991,28.0793202 58.2970634,27.9450621 58.7391969,27.9032926 C63.3406167,27.6118608 67.9577928,28.1054699 72.3965857,29.363365 C73.4616567,29.666795 74.5722017,29.057824 74.8994758,27.9908969 C75.8509246,25.1290865 77.4914121,22.5503865 79.6737748,20.4861249 C80.0836245,20.1206329 80.6553323,20.0030892 81.1741986,20.1776364 C81.6930649,20.3521836 82.0805482,20.7924003 82.1911325,21.3329668 C83.9561764,30.1810055 83.7970331,39.5692709 83.6378898,48.4757124 C83.5655519,55.3234519 82.8566409,68.6101106 82.5383543,74.4357994 C82.5042305,75.0258929 82.167736,75.555343 81.6505272,75.8327322 C81.1333184,76.1101214 80.5102283,76.0953152 80.006529,75.7936667 C75.6692575,73.1911116 70.952928,71.2941155 66.0308536,70.1723881 C53.8659548,67.3703845 41.119706,68.8008122 29.8619215,74.2313893 C28.9215293,74.6840117 27.9956046,75.1658356 27.1130827,75.6914617 C26.3437574,76.0766132 25.4338871,76.0444522 24.6931477,75.6059248 C23.9524082,75.1673974 23.4806058,74.3815901 23.4383192,73.5159538 Z M34.723026,109.054116 C27.5821049,105.486858 21.3761189,100.269273 16.6096248,93.8255607 C16.2230444,93.2641524 15.5196696,93.021621 14.8735161,93.226931 C14.2376958,93.2961063 13.7062251,93.7459584 13.5280318,94.3657875 C13.4475136,94.5302673 13.3984318,94.7085879 13.3833561,94.8914135 C12.1627006,98.8799259 9.15748872,102.058763 5.26704768,103.476639 L5.26704768,103.476639 C4.88830873,102.336122 4.64073496,101.155448 4.52920147,99.9578647 C4.11825172,96.9199479 5.28195381,93.8819147 7.61079448,91.9128658 C8.02629975,91.5958043 8.26360783,91.0950481 8.24736769,90.5695993 C8.25466921,90.506544 8.25466921,90.4428451 8.24736769,90.3797898 C8.29090623,89.8465866 8.06849954,89.3265113 7.6541972,88.9927211 L7.23463759,88.5400986 C5.2540729,86.3508086 4.40286402,83.3522626 4.93429351,80.4366969 C5.03916079,79.3770389 5.24754206,78.3304342 5.55639914,77.312142 C8.32845447,78.1213051 10.6920106,79.9637866 12.1680799,82.4661975 C12.8389817,83.8458491 13.2882621,85.3243774 13.4990966,86.8464147 C13.4990966,87.1530299 13.6148372,87.4596451 13.6871751,87.7662603 C13.6790809,87.8145866 13.6790809,87.8639412 13.6871751,87.9122675 C13.6356566,88.5359421 13.9382269,89.1353427 14.468424,89.4599442 C14.8005175,89.8099567 15.2614221,90.0055297 15.7415704,90.000171 C16.2114983,89.9830458 16.6503775,89.7589184 16.942379,89.3869406 C23.4961895,81.809165 33.637958,76.7719152 45.5303029,75.2096378 C48.2394601,74.8451077 50.971695,74.6840571 53.7044816,74.7278139 C54.3344467,74.7350527 54.9262904,75.0335999 55.310139,75.5377652 C55.6939875,76.0419305 55.8273955,76.6959641 55.6720715,77.312142 C54.3413151,82.3593521 53.9440503,87.6109221 54.5001981,92.80351 C55.2193395,98.3799868 57.0448468,103.752972 59.8676676,108.601493 C60.3070934,109.310582 60.3607034,110.19604 60.0100907,110.953847 C59.659478,111.711653 58.9523728,112.238645 58.1315589,112.353879 C50.1771742,113.626792 42.0273568,112.47796 34.723026,109.054116 L34.723026,109.054116 Z M67.9984436,109.667346 L67.9984436,109.667346 C66.9191397,110.040682 65.7265298,109.625445 65.104929,108.659896 C61.8106293,103.718971 59.7642509,98.0396377 59.144289,92.117276 C58.8524678,87.4473757 59.4014572,82.762753 60.7646571,78.2903905 C61.2557083,76.6115887 62.9466426,75.5991523 64.6419667,75.9688754 C69.3064847,76.9705771 73.7939886,78.6787239 77.9521337,81.0353266 C82.1230338,83.4031933 85.817997,86.5379047 88.846216,90.2775848 C89.8458688,91.5633876 89.8458688,93.3719991 88.846216,94.6578019 C83.378029,101.442056 76.2094206,106.624741 68.085249,109.667346 L67.9984436,109.667346 Z" id="Shape" fill="#472821" fill-rule="nonzero"></path>
                    <path d="M70.6606214,83.0047221 C66.9936621,82.8571875 64.7699238,86.1914691 64.0483133,89.5405042 C63.9358806,89.98705 64.0218047,90.4604898 64.2839412,90.8388086 C64.5687777,91.2445273 65.0140664,91.5078855 65.506261,91.561728 C65.8763155,91.6391119 66.2618619,91.5615183 66.5733748,91.3469648 C66.8848876,91.1324112 67.095265,90.799564 67.1556563,90.4257117 C67.3323772,89.6880388 68.0834412,87.312732 70.454447,87.47502 C72.1673869,87.7153599 73.526655,89.0412585 73.8121446,90.7502878 C73.8631303,91.1437457 74.0701545,91.5000478 74.3864877,91.7387695 C74.6261017,91.9001023 74.9077652,91.9873198 75.1964586,91.9895783 C75.3040093,92.0034739 75.4128962,92.0034739 75.520447,91.9895783 C76.0041643,91.9443689 76.4446159,91.691457 76.72804,91.2961658 C76.9827337,90.9368536 77.0637586,90.4822912 76.9489411,90.0568753 C76.4629586,86.6488263 74.3128539,83.2407774 70.6606214,83.0047221 Z" id="Shape" fill="#472821" fill-rule="nonzero"></path>
                    <ellipse id="Oval" fill="#F14F10" fill-rule="nonzero" transform="translate(70.663445, 99.230728) rotate(-13.000000) translate(-70.663445, -99.230728) " cx="70.6634451" cy="99.2307283" rx="5.71713301" ry="4.5608314"></ellipse>
                </g>
            </g>
        </g>
    </g>
</svg>