<?xml version="1.0" encoding="UTF-8"?>
<svg width="49px" height="53px" viewBox="0 0 49 53" version="1.1" xmlns="http://www.w3.org/2000/svg" xmlns:xlink="http://www.w3.org/1999/xlink">
    <!-- Generator: sketchtool 53.1 (72631) - https://sketchapp.com -->
    <title>1985D1C5-251A-4C23-BFA8-1572FB42BC40</title>
    <desc>Created with sketchtool.</desc>
    <g id="design" stroke="none" stroke-width="1" fill="none" fill-rule="evenodd">
        <g id="2-slide" transform="translate(-872.000000, -511.000000)" fill="#2EBD9D" fill-rule="nonzero">
            <g id="Group-11" transform="translate(328.000000, 283.000000)">
                <g id="orange-circle" transform="translate(0.000000, 216.000000)">
                    <path d="M567.361326,40.6655103 L554.761326,40.6655103 L554.761326,47.3655103 L567.361326,47.3655103 L567.361326,40.6655103 Z M573.211326,52.4655103 L554.761326,52.4655103 L554.761326,56.0655103 L548.961326,56.0655103 L548.961326,35.5655103 L573.211326,35.5655103 L573.211326,52.4655103 Z M575.811326,26.6655103 L575.811326,31.8655103 L546.411326,31.8655103 L546.411326,26.6655103 L575.811326,26.6655103 Z M586.911326,17.4655103 L586.911326,53.6155103 C586.911326,57.0155103 586.311326,58.8155103 584.161326,59.8655103 C582.111326,60.9155103 578.911326,61.0655103 574.461326,61.0155103 C574.261326,59.2655103 573.361326,56.3155103 572.511326,54.5655103 C575.311326,54.7655103 578.611326,54.7155103 579.561326,54.6655103 C580.461326,54.6655103 580.811326,54.4155103 580.811326,53.5655103 L580.811326,23.1155103 L545.911326,23.1155103 L545.911326,17.4655103 L586.911326,17.4655103 Z" id="animate_small" transform="translate(566.411326, 39.244673) rotate(17.000000) translate(-566.411326, -39.244673) "></path>
                </g>
            </g>
        </g>
    </g>
</svg>