<?xml version="1.0" encoding="UTF-8"?>
<svg width="105px" height="92px" viewBox="0 0 105 92" version="1.1" xmlns="http://www.w3.org/2000/svg" xmlns:xlink="http://www.w3.org/1999/xlink">
    <!-- Generator: sketchtool 53.1 (72631) - https://sketchapp.com -->
    <title>E894925B-462C-4C40-ACC9-D966071A289A</title>
    <desc>Created with sketchtool.</desc>
    <g id="design" stroke="none" stroke-width="1" fill="none" fill-rule="evenodd">
        <g id="2-slide" transform="translate(-429.000000, -671.000000)" fill="#2EBD9D" fill-rule="nonzero">
            <g id="Group-11" transform="translate(328.000000, 283.000000)">
                <g id="orange-circle" transform="translate(0.000000, 216.000000)">
                    <g id="1-5">
                        <path d="M158.950222,234.63672 L174.850222,234.63672 C168.850222,228.23672 163.450222,220.73672 158.950222,212.63672 L158.950222,234.63672 Z M130.750222,234.63672 L146.450222,234.63672 L146.450222,212.83672 C141.950222,220.83672 136.650222,228.23672 130.750222,234.63672 Z M196.850222,201.63672 L166.150222,201.63672 C173.950222,216.63672 186.750222,230.43672 201.050222,237.93672 C198.050222,240.33672 193.950222,245.33672 191.850222,248.73672 C186.050222,245.13672 180.550222,240.63672 175.550222,235.33672 L175.550222,246.73672 L158.950222,246.73672 L158.950222,263.63672 L146.450222,263.63672 L146.450222,246.73672 L129.250222,246.73672 L129.250222,236.23672 C124.450222,241.13672 119.150222,245.53672 113.650222,249.03672 C111.550222,246.03672 107.750222,241.43672 104.950222,239.13672 C119.050222,231.43672 131.650222,217.03672 139.350222,201.63672 L108.850222,201.63672 L108.850222,189.63672 L146.450222,189.63672 L146.450222,170.33672 L158.950222,170.33672 L158.950222,189.63672 L196.850222,189.63672 L196.850222,201.63672 Z" id="本" transform="translate(153.000222, 216.986720) rotate(-27.000000) translate(-153.000222, -216.986720) "></path>
                    </g>
                </g>
            </g>
        </g>
    </g>
</svg>