<?xml version="1.0" encoding="UTF-8"?>
<svg width="117px" height="111px" viewBox="0 0 117 111" version="1.1" xmlns="http://www.w3.org/2000/svg" xmlns:xlink="http://www.w3.org/1999/xlink">
    <!-- Generator: sketchtool 53.1 (72631) - https://sketchapp.com -->
    <title>319278F6-28E5-4A07-BF2C-68A7A8BCFB73</title>
    <desc>Created with sketchtool.</desc>
    <g id="design" stroke="none" stroke-width="1" fill="none" fill-rule="evenodd">
        <g id="2-slide" transform="translate(-1100.000000, -706.000000)" fill="#2EBD9D" fill-rule="nonzero">
            <g id="Group-11" transform="translate(328.000000, 283.000000)">
                <g id="orange-circle" transform="translate(0.000000, 216.000000)">
                    <path d="M851.357832,271.95093 L851.357832,263.92093 L828.477832,263.92093 C827.487832,266.67093 826.387832,269.31093 825.177832,271.95093 L851.357832,271.95093 Z M883.147832,263.92093 L864.667832,263.92093 L864.667832,271.95093 L881.387832,271.95093 L881.387832,283.39093 L864.667832,283.39093 L864.667832,299.45093 C864.667832,305.83093 863.567832,309.35093 859.167832,311.22093 C854.767832,313.31093 848.827832,313.53093 840.687832,313.42093 C840.137832,309.68093 838.157832,304.29093 836.397832,300.77093 C841.567832,300.99093 847.507832,300.99093 849.267832,300.88093 C850.807832,300.88093 851.357832,300.55093 851.357832,299.01093 L851.357832,283.39093 L819.237832,283.39093 C817.147832,286.80093 814.947832,290.10093 812.417832,293.18093 L822.757832,286.69093 C827.487832,291.20093 833.207832,297.69093 835.957832,301.98093 L824.737832,309.35093 C822.317832,305.06093 816.817832,298.35093 812.307832,293.40093 C806.917832,299.89093 800.757832,305.50093 793.387832,310.23093 C791.187832,307.70093 784.917832,302.42093 781.507832,299.89093 C789.537832,295.49093 796.137832,289.99093 801.527832,283.39093 L785.907832,283.39093 L785.907832,271.95093 L809.337832,271.95093 C810.657832,269.42093 811.977832,266.67093 813.187832,263.92093 L784.037832,263.92093 L784.037832,252.70093 L817.367832,252.70093 C818.027832,250.61093 818.687832,248.52093 819.237832,246.32093 L794.597832,246.32093 L794.597832,235.76093 L821.657832,235.76093 C821.987832,233.89093 822.427832,231.91093 822.757832,229.93093 L789.977832,229.93093 L789.977832,218.93093 L824.407832,218.93093 C824.737832,216.29093 824.957832,213.65093 825.287832,211.01093 L839.587832,212.22093 C839.367832,214.53093 839.037832,216.73093 838.707832,218.93093 L876.877832,218.93093 L876.877832,229.93093 L837.057832,229.93093 C836.727832,231.91093 836.397832,233.89093 836.067832,235.76093 L872.917832,235.76093 L872.917832,246.32093 L833.757832,246.32093 C833.207832,248.52093 832.657832,250.61093 832.107832,252.70093 L883.147832,252.70093 L883.147832,263.92093 Z" id="animate_big" transform="translate(832.327832, 262.227325) rotate(19.000000) translate(-832.327832, -262.227325) "></path>
                </g>
            </g>
        </g>
    </g>
</svg>