<?xml version="1.0" encoding="UTF-8"?>
<svg width="14px" height="12px" viewBox="0 0 14 12" version="1.1" xmlns="http://www.w3.org/2000/svg" xmlns:xlink="http://www.w3.org/1999/xlink">
    <g class="subscribe-ink" stroke="none" stroke-width="1" fill="#472821" fill-rule="evenodd">
        <g transform="translate(-386.000000, -4892.000000)" fill-rule="nonzero">
            <g id="footer" transform="translate(-39.000000, 4807.000000)">
                <path d="M438.970672,86.775415 L436.978489,96.091799 C436.900364,96.4238293 436.768529,96.6337899 436.582982,96.7216804 C436.397436,96.8095708 436.167944,96.775391 435.894507,96.6191415 L432.876936,94.3925843 L431.412096,95.798831 C431.31444,95.8964869 431.236315,95.9648464 431.177722,96.0039086 C431.080066,96.0625022 430.953113,96.091799 430.796863,96.091799 L431.031238,93.0156345 L436.626927,87.9472872 C436.705052,87.8886936 436.729466,87.8349829 436.70017,87.7861548 C436.670873,87.7373266 436.612279,87.7177957 436.524389,87.7275612 C436.436498,87.7373266 436.343725,87.7715064 436.246069,87.8301 L429.332023,92.195324 L426.343749,91.2578262 C426.011719,91.1601703 425.855469,91.0136863 425.875,90.8183741 C425.894531,90.6230619 426.099609,90.4472811 426.490233,90.2910316 L438.121065,85.8086204 C438.414033,85.7109646 438.648407,85.7451439 438.824188,85.9111593 C438.999969,86.0771746 439.048797,86.3652597 438.970672,86.775415 Z" id="tg"></path>
            </g>
        </g>
    </g>
</svg>