<?xml version="1.0" encoding="UTF-8"?>
<svg width="78px" height="60px" viewBox="0 0 78 60" version="1.1" xmlns="http://www.w3.org/2000/svg" xmlns:xlink="http://www.w3.org/1999/xlink">
    <!-- Generator: sketchtool 53.1 (72631) - https://sketchapp.com -->
    <title>23DECB18-0656-4497-BD3E-F89BE1B0B580</title>
    <desc>Created with sketchtool.</desc>
    <g id="design" stroke="none" stroke-width="1" fill="none" fill-rule="evenodd">
        <g id="оплата-и-доставка" transform="translate(-463.000000, -1553.000000)" fill-rule="nonzero">
            <g id="vassabi" transform="translate(463.000000, 1553.000000)">
                <path d="M69.1428571,45.2571429 L9.14285714,45.2571429 C8.54207018,45.2374812 7.97716586,44.9663809 7.58596957,44.5099853 C7.19477328,44.0535896 7.01325961,43.4538688 7.08571429,42.8571429 C7.21206774,41.8070178 8.0857283,41.0061623 9.14285714,40.9714286 L69.1428571,40.9714286 C70.2972545,40.8708736 71.3224618,41.7062277 71.4571429,42.8571429 C71.5067135,43.4924967 71.2819099,44.1186755 70.8395479,44.5774212 C70.397186,45.036167 69.7795931,45.2835846 69.1428571,45.2571429 Z" id="Path" fill="#F14F10"></path>
                <path d="M15.6571429,35.0571429 C13.6307116,28.6443208 15.5412683,21.6389465 20.5428571,17.1428571 L39.2285714,0 L58,17.1428571 C63.0391955,21.6896459 64.9213546,28.7813523 62.8,35.2285714 C61.7714286,38.1428571 15.6571429,35.0571429 15.6571429,35.0571429 Z" id="Path" fill="#2EBD9D"></path>
                <path d="M57.9142857,59.4 L20.6285714,59.4 C19.9571904,59.387148 19.327396,59.0722508 18.9142857,58.5428571 L1.08571429,36.3428571 C0.563250824,35.7959585 0.367795472,35.0141371 0.571428571,34.2857143 C0.938636942,33.5357711 1.70803813,33.06744 2.54285714,33.0857143 L75.7428571,33.0857143 C76.5545116,33.0857143 77.296504,33.5442908 77.6594868,34.2702566 C78.0224697,34.9962224 77.9441355,35.8649622 77.4571429,36.5142857 L59.5428571,58.5428571 C59.1488298,59.0498434 58.5552747,59.3622408 57.9142857,59.4 Z M21.6571429,55.1142857 L56.8857143,55.1142857 L71.2857143,37.2 L7.17142857,37.2 L21.6571429,55.1142857 Z" id="Shape" fill="#3D2615"></path>
            </g>
        </g>
    </g>
</svg>