<?xml version="1.0" encoding="UTF-8"?>
<svg width="18px" height="19px" viewBox="0 0 18 19" version="1.1" xmlns="http://www.w3.org/2000/svg" xmlns:xlink="http://www.w3.org/1999/xlink">
    <g class="subscribe-ink" stroke="none" stroke-width="1" fill="#472821" fill-rule="evenodd">
        <g transform="translate(-446.000000, -4890.000000)" fill-rule="nonzero">
            <g transform="translate(-39.000000, 4807.000000)">
                <path d="M500.609338,85.0078459 C501.382773,85.6875316 501.933554,86.730498 502.261678,88.1367447 C502.589802,89.6601783 502.624958,91.5000181 502.367146,93.6562627 C502.156209,95.3671963 501.51168,96.6679745 500.433557,97.5585972 C499.847621,98.0273459 499.085904,98.3789076 498.148406,98.6132822 L497.937469,98.6484383 C497.585907,98.7656254 497.023409,98.8710939 496.249973,98.9648438 C495.031226,99.1289061 493.812479,99.1640623 492.593732,99.0703123 C492.101546,99.6093734 491.749984,99.9960912 491.539047,100.230466 L491.257798,100.546871 C490.999986,100.828121 490.812486,101.01562 490.695299,101.10937 C490.484362,101.249995 490.261706,101.285151 490.027332,101.214838 C489.886707,101.167964 489.787098,101.080073 489.728504,100.951167 C489.669911,100.822261 489.628895,100.687496 489.605458,100.546871 L489.605458,98.5078137 C488.316398,98.156252 487.320307,97.4765663 486.617184,96.468756 C486.10156,95.6718828 485.761717,94.664073 485.597655,93.4453257 C485.480468,92.7422024 485.445312,91.8047045 485.492186,90.6328324 C485.515624,89.3906481 485.656249,88.3359631 485.91406,87.4687775 C486.19531,86.5078425 486.640621,85.7226877 487.249995,85.1133144 C487.789056,84.621128 488.492179,84.2226917 489.359365,83.9180047 C490.03905,83.6836301 490.812486,83.5078493 491.679672,83.3906622 C492.289045,83.2969123 492.910137,83.2500376 493.542948,83.2500376 L494.316384,83.2500376 C496.050755,83.2734752 497.550751,83.5195683 498.816373,83.988317 C499.589809,84.293004 500.187464,84.6328466 500.609338,85.0078459 Z M501.101524,93.3398572 C501.335899,91.5117366 501.312461,89.9414277 501.031212,88.628931 C500.7734,87.3867466 500.31637,86.4844048 499.660121,85.9219062 C499.331997,85.6172192 498.816373,85.347689 498.11325,85.1133144 C497.01169,84.7383151 495.722631,84.5390972 494.246072,84.5156595 L493.578105,84.5156595 C493.039044,84.5156595 492.511701,84.5508157 491.996077,84.621128 C491.269516,84.714878 490.613268,84.8555027 490.027332,85.043002 C489.300771,85.3008137 488.714835,85.6406569 488.269523,86.0625308 C487.7539,86.5547172 487.367182,87.2109658 487.10937,88.0312762 C486.898433,88.7578371 486.781246,89.6367413 486.757808,90.6679886 L486.757808,90.8789256 C486.734371,91.8867359 486.757808,92.6718901 486.828121,93.2343887 C486.968745,94.2187614 487.249995,95.0390718 487.671869,95.6953204 C488.234367,96.4921937 489.042959,97.0429732 490.097644,97.3476602 L490.062488,100.37109 C490.062488,100.535153 490.103504,100.634762 490.185535,100.669918 C490.267565,100.705074 490.367175,100.664058 490.484362,100.546871 C490.718737,100.312497 491.187485,99.7851542 491.890609,98.9648438 L492.874981,97.7695342 C493.906229,97.8398465 494.949195,97.8046903 496.00388,97.6640657 C496.683566,97.5703157 497.175752,97.4765663 497.480439,97.3828164 L497.691376,97.3476602 C498.441374,97.1601608 499.050748,96.8789115 499.519497,96.5039122 C500.386682,95.8007889 500.914025,94.7461039 501.101524,93.3398572 Z M496.214817,90.4922078 C496.214817,90.6562701 496.138645,90.7383009 495.986302,90.7383009 C495.833959,90.7383009 495.757787,90.6679886 495.757787,90.527364 C495.710912,89.7773659 495.324194,89.378929 494.597633,89.3320543 C494.457009,89.3320543 494.392556,89.2558824 494.404274,89.1035392 C494.415993,88.951196 494.492165,88.8750241 494.63279,88.8750241 C495.6406,88.9218988 496.167942,89.4609604 496.214817,90.4922078 Z M496.91794,90.8789256 C496.941378,90.1289276 496.718722,89.4961166 496.249973,88.9804926 C495.781224,88.4648687 495.113257,88.1719008 494.246072,88.1015885 C494.105447,88.1015885 494.040994,88.0254166 494.052713,87.8730734 C494.064431,87.7207302 494.140603,87.6445583 494.281228,87.6445583 C495.265601,87.7148707 496.033177,88.0547138 496.583957,88.6640871 C497.134737,89.2734605 497.398408,90.0234591 497.37497,90.9140818 C497.37497,91.0547064 497.298799,91.1250188 497.146455,91.1250188 C496.994112,91.1250188 496.91794,91.0429879 496.91794,90.8789256 Z M498.57028,91.3711119 C498.57028,91.5117366 498.494108,91.5820489 498.341765,91.5820489 C498.189422,91.5820489 498.11325,91.5117366 498.11325,91.3711119 C498.11325,89.9883029 497.691376,88.8867427 496.847628,88.0664323 C496.074192,87.3164343 495.08982,86.941435 493.89451,86.941435 C493.730448,86.941435 493.648417,86.8652631 493.648417,86.7129199 C493.648417,86.5605767 493.730448,86.4844048 493.89451,86.4844048 C495.230444,86.4844048 496.332004,86.9179974 497.19919,87.785183 C498.11325,88.6758057 498.57028,89.8711153 498.57028,91.3711119 Z M498.183562,94.8164162 C497.949188,95.2148526 497.691376,95.5195395 497.410127,95.7304765 C497.035127,96.0117259 496.683566,96.0937568 496.355442,95.9765697 C495.957005,95.8593827 495.406225,95.6132895 494.703102,95.2382902 C493.929666,94.8164162 493.273418,94.3945422 492.734357,93.9726682 C492.195296,93.5507942 491.703109,93.0586079 491.257798,92.4961093 C490.882798,92.0039229 490.531237,91.4707209 490.203113,90.8965037 C489.874989,90.3222865 489.628895,89.8125221 489.464833,89.3672105 L489.253896,88.9101803 C489.160146,88.5820563 489.242178,88.2304946 489.499989,87.8554953 C489.734364,87.574246 490.050769,87.3164343 490.449206,87.0820597 C490.77733,86.9179974 491.058579,86.9648726 491.292954,87.2226843 L491.925765,87.99612 C492.089827,88.2304946 492.265608,88.5117439 492.453107,88.839868 C492.546857,89.0273673 492.576154,89.2090077 492.540998,89.3847885 C492.505841,89.5605694 492.42967,89.6953345 492.312483,89.7890845 L491.890609,90.10549 C491.796859,90.1758023 491.738265,90.2812708 491.714828,90.4218955 L491.714828,90.5976763 L491.855452,90.9843941 C491.972639,91.2890811 492.124983,91.5820489 492.312483,91.8632983 C492.570294,92.2617346 492.874981,92.5898592 493.226543,92.8476709 C493.648417,93.1992326 494.128885,93.4453257 494.667946,93.5859504 L494.843727,93.5507942 C494.984351,93.5273566 495.08982,93.4687634 495.160132,93.3750134 L495.511694,92.9531394 C495.605444,92.8359524 495.740209,92.7597805 495.91599,92.7246243 C496.09177,92.6894682 496.261692,92.7304839 496.425754,92.8476709 C497.082003,93.1992326 497.621064,93.5742319 498.042938,93.9726682 C498.300749,94.2070429 498.347625,94.4882922 498.183562,94.8164162 Z" id="vb"></path>
            </g>
        </g>
    </g>
</svg>