<?xml version="1.0" encoding="UTF-8"?>
<svg width="15px" height="34px" viewBox="0 0 15 34" version="1.1" xmlns="http://www.w3.org/2000/svg" xmlns:xlink="http://www.w3.org/1999/xlink">
    <!-- Generator: sketchtool 53.1 (72631) - https://sketchapp.com -->
    <title>D5D1E5BC-2BE7-4AAD-BB66-EDFC22B63110</title>
    <desc>Created with sketchtool.</desc>
    <g id="design" stroke="none" stroke-width="1" fill="none" fill-rule="evenodd">
        <g id="2-slide" transform="translate(-1178.000000, -43.000000)" fill="#2EBD9D" fill-rule="nonzero">
            <g id="menu" transform="translate(1178.000000, 30.000000)">
                <path d="M12.525,13.15 L12.525,26.5 L10.95,26.5 L10.95,25.465 L4.335,25.465 L4.335,26.515 L2.76,26.515 L2.76,13.15 L12.525,13.15 Z M4.335,23.935 L10.95,23.935 L10.95,19.9 L4.335,19.9 L4.335,23.935 Z M4.335,18.37 L10.95,18.37 L10.95,14.68 L4.335,14.68 L4.335,18.37 Z M1.005,35.265 L6.705,35.265 L6.705,32.715 L8.295,32.715 L8.295,35.265 L13.98,35.265 L13.98,36.78 L9.465,36.78 C10.455,38.985 12.135,40.95 14.505,42.675 L13.44,44.025 C10.995,41.88 9.285,39.48 8.295,36.825 L8.295,42.15 L11.34,42.15 L11.34,43.665 L8.295,43.665 L8.295,46.575 L6.705,46.575 L6.705,43.665 L3.78,43.665 L3.78,42.15 L6.705,42.15 L6.705,36.825 C5.625,39.84 3.855,42.3 1.365,44.22 L0.45,42.75 C2.76,41.19 4.44,39.195 5.52,36.78 L1.005,36.78 L1.005,35.265 Z" id="日本" transform="translate(7.477500, 29.862500) rotate(-360.000000) translate(-7.477500, -29.862500) "></path>
            </g>
        </g>
    </g>
</svg>