<?xml version="1.0" encoding="UTF-8"?>
<svg width="119px" height="119px" viewBox="0 0 119 119" version="1.1" xmlns="http://www.w3.org/2000/svg" xmlns:xlink="http://www.w3.org/1999/xlink">
    <!-- Generator: sketchtool 53.1 (72631) - https://sketchapp.com -->
    <title>61954CBC-61E9-42FC-AF64-59E8CFED21A8</title>
    <desc>Created with sketchtool.</desc>
    <g id="design" stroke="none" stroke-width="1" fill="none" fill-rule="evenodd">
        <g id="2-slide" transform="translate(-831.000000, -1015.000000)" fill="#2EBD9D">
            <g id="Group-14" transform="translate(830.000000, 1014.000000)">
                <path d="M58.8102489,114.538702 L52.915397,118.557016 C51.5882591,119.461679 49.7840522,119.16061 48.822566,117.874043 L44.5518578,112.159398 C43.8133583,111.17121 42.5452038,110.735852 41.3554663,111.062075 L34.4752694,112.94861 C32.9262959,113.373335 31.3176027,112.502754 30.8259602,110.973703 L28.6421931,104.181996 C28.2645717,103.00756 27.2064898,102.184022 25.975291,102.106262 L18.8553252,101.656584 C17.2523713,101.555345 16.0135188,100.209593 16.044997,98.6037534 L16.1848162,91.4709717 C16.208994,90.2375568 15.4756442,89.1150814 14.3364037,88.6417657 L7.74822773,85.9046026 C6.26499834,85.2883712 5.53023544,83.6132805 6.08142321,82.104671 L8.529677,75.4037623 C8.95303395,74.2450278 8.62388628,72.945253 7.70005825,72.127672 L2.35760329,67.3996387 C1.15482935,66.3351926 1.00377899,64.5122859 2.01494659,63.2643874 L6.50632873,57.7214991 C7.28298753,56.7630117 7.39371017,55.4267883 6.78540581,54.3535396 L3.26760969,48.1469919 C2.47563045,46.7496804 2.92466127,44.9764978 4.286233,44.1245394 L10.3340325,40.3403295 C11.3798302,39.6859564 11.9184246,38.4580847 11.6915631,37.2454715 L10.3796336,30.2329852 C10.0842723,28.6542286 11.0847249,27.122922 12.6491533,26.7592267 L19.5979973,25.1437731 C20.7996054,24.8644256 21.7077065,23.8779648 21.8868719,22.6573925 L22.922977,15.5988792 C23.1562406,14.0097603 24.5997003,12.8862705 26.1974553,13.0502504 L33.2943288,13.7786124 C34.5215344,13.9045622 35.7007354,13.2664106 36.2665123,12.1701471 L39.5383738,5.83050633 C40.2749846,4.40323089 42.0050302,3.80930548 43.4629703,4.48319065 L49.9388168,7.47643906 C51.0586332,7.99403758 52.3811494,7.77334866 53.272227,6.92019128 L58.4252881,1.9864214 C59.5854229,0.875656813 61.4145771,0.875656813 62.5747119,1.9864214 L67.727773,6.92019128 C68.6188506,7.77334866 69.9413668,7.99403758 71.0611832,7.47643906 L77.5370297,4.48319065 C78.9949698,3.80930548 80.7250154,4.40323089 81.4616262,5.83050633 L84.7334877,12.1701471 C85.2992646,13.2664106 86.4784656,13.9045622 87.7056712,13.7786124 L94.8025447,13.0502504 C96.4002997,12.8862705 97.8437594,14.0097603 98.077023,15.5988792 L99.1131281,22.6573925 C99.2922935,23.8779648 100.200395,24.8644256 101.402003,25.1437731 L108.350847,26.7592267 C109.915275,27.122922 110.915728,28.6542286 110.620366,30.2329852 L109.308437,37.2454715 C109.081575,38.4580847 109.62017,39.6859564 110.665967,40.3403295 L116.713767,44.1245394 C118.075339,44.9764978 118.52437,46.7496804 117.73239,48.1469919 L114.214594,54.3535396 C113.60629,55.4267883 113.717012,56.7630117 114.493671,57.7214991 L118.985053,63.2643874 C119.996221,64.5122859 119.845171,66.3351926 118.642397,67.3996387 L113.299942,72.127672 C112.376114,72.945253 112.046966,74.2450278 112.470323,75.4037623 L114.918577,82.104671 C115.469765,83.6132805 114.735002,85.2883712 113.251772,85.9046026 L106.663596,88.6417657 C105.524356,89.1150814 104.791006,90.2375568 104.815184,91.4709717 L104.955003,98.6037534 C104.986481,100.209593 103.747629,101.555345 102.144675,101.656584 L95.024709,102.106262 C93.7935102,102.184022 92.7354283,103.00756 92.3578069,104.181996 L90.1740398,110.973703 C89.6823973,112.502754 88.0737041,113.373335 86.5247306,112.94861 L79.6445337,111.062075 C78.4547962,110.735852 77.1866417,111.17121 76.4481422,112.159398 L72.177434,117.874043 C71.2159478,119.16061 69.4117409,119.461679 68.084603,118.557016 L62.1897511,114.538702 C61.1704015,113.843847 59.8295985,113.843847 58.8102489,114.538702 Z" id="Star"></path>
            </g>
        </g>
    </g>
</svg>