<?xml version="1.0" encoding="UTF-8"?>
<svg width="37px" height="20px" viewBox="0 0 37 20" version="1.1" xmlns="http://www.w3.org/2000/svg" xmlns:xlink="http://www.w3.org/1999/xlink">
    <!-- Generator: Sketch 57 (83077) - https://sketch.com -->
    <title>2</title>
    <desc>Created with Sketch.</desc>
    <g id="design" stroke="none" stroke-width="1" fill="none" fill-rule="evenodd">
        <g id="catalog-round-ingridients-copy" transform="translate(-658.000000, -242.000000)">
            <g id="2" transform="translate(675.829145, 252.246697) rotate(-68.000000) translate(-675.829145, -252.246697) translate(663.829145, 234.746697)">
                <polygon id="Path" fill="#2EBD9D" points="18.4381443 33.1958763 10.2474227 30.2731959 5.98969072 23.4536082 3.86082474 16.0206186 4.58247423 7.61340206 1.33505155 5.23195876 3.86082474 3.03092784 5.98969072 3.03092784 9.70618557 1.22680412 11.7628866 2.05670103 9.88659794 5.77319588 15.443299 9.05670103 19.7731959 14.2525773 22.0824742 20.5670103 22.5876289 26.2680412 20.3505155 33.1958763"></polygon>
                <path d="M19.8814433,30.742268 C19.8814433,30.742268 24.7886598,15.3350515 6.81958763,6.20618557 C6.81958763,6.20618557 10.1030928,2.41752577 8.08247423,2.45360825 C6.06185567,2.48969072 8.08247423,2.45360825 8.08247423,2.45360825 L8.08247423,1.2628866 L10.8247423,1.73195876 L10.0670103,5.44845361 L18.8350515,11.9793814 L22.0824742,20.5670103 L21.4329897,30.3814433 L19.8814433,30.742268" id="Path" fill="#FBF5E2"></path>
                <path d="M17.9329897,33.7010309 C17.9329897,33.7010309 17.3556701,32.6907216 15.9123711,31.7886598 C14.4690722,30.8865979 13.0257732,29.6597938 12.6649485,28.1443299 C12.3041237,26.628866 11.6546392,24.3917526 10.2474227,24.2113402 C8.84020619,24.0309278 7.1443299,21.4329897 7.18041237,19.7371134 C7.21649485,18.0412371 7.64948454,15.5876289 6.49484536,13.6391753 C5.34020619,11.6907216 6.09793814,7.25257732 6.09793814,7.25257732 L4.83505155,7.54123711 L3.68041237,14.7938144 L6.81958763,24.7886598 L11.943299,32.0051546 L17.9329897,33.7010309 Z" id="Path" fill="#579171"></path>
                <circle id="Oval" fill="#FBF5E2" cx="17.6804124" cy="27.4226804" r="1.15463918"></circle>
                <path d="M5.62886598,2.16494845 C3.60824742,1.55154639 1.44329897,2.20103093 0.432989691,4.25773196 C-0.216494845,5.59278351 1.29896907,6.67525773 2.81443299,7.32474227 C3.46391753,7.61340206 3.78865979,8.29896907 3.6443299,8.98453608 C2.12886598,15.371134 2.74226804,22.1907216 6.74742268,27.6030928 C6.8556701,27.7474227 6.96391753,27.9278351 7.10824742,28.0721649 C7.1443299,28.1443299 7.21649485,28.2164948 7.25257732,28.2525773 C10.3917526,32.1494845 15.2628866,35.1443299 20.3865979,34.6752577 C20.7113402,34.7113402 21.0360825,34.5670103 21.2164948,34.2061856 C23.5618557,29.6237113 23.7783505,23.9948454 22.5154639,19.0515464 C21.3969072,14.685567 18.9793814,10.9329897 15.6597938,8.1185567 C15.5876289,8.04639175 15.5154639,8.01030928 15.4793814,7.93814433 C15.4072165,7.90206186 15.371134,7.86597938 15.2989691,7.79381443 C14.3247423,7 13.2783505,6.27835052 12.1597938,5.62886598 C11.6185567,5.30412371 11.4020619,4.65463918 11.6546392,4.07731959 C12.0154639,3.24742268 12.2319588,2.34536082 12.2680412,1.40721649 C12.2680412,1.1185567 12.0876289,0.721649485 11.7989691,0.577319588 C9.5257732,-0.360824742 7.1443299,0.324742268 5.62886598,2.16494845 Z M9.59793814,2.05670103 L9.59793814,2.05670103 C9.99484536,2.05670103 10.2474227,2.41752577 10.1391753,2.77835052 C9.92268041,3.53608247 9.5257732,4.25773196 9.02061856,4.83505155 C8.94845361,4.94329897 8.87628866,5.05154639 8.84020619,5.15979381 C8.76804124,5.30412371 8.73195876,5.48453608 8.73195876,5.62886598 C8.73195876,5.91752577 8.87628866,6.17010309 9.2371134,6.35051546 C14.1443299,8.55154639 17.9690722,12.2680412 19.9175258,17.1752577 C21.1082474,20.3505155 21.4329897,23.8865979 20.9278351,27.242268 C20.6391753,29.1907216 20.2061856,31.8969072 17.7525773,32.0412371 C16.2010309,32.1494845 14.3247423,31.2474227 12.9896907,30.4896907 C11.871134,29.8402062 10.8969072,29.1185567 10.0670103,28.2525773 C9.45360825,27.6391753 9.3814433,26.7010309 9.81443299,25.9793814 C11.3298969,23.5618557 13.9639175,21.9381443 16.8865979,21.9742268 C18.1134021,21.9742268 18.1134021,20.0979381 16.8865979,20.0618557 C13.6391753,20.0618557 10.7525773,21.6134021 8.84020619,24.0670103 C8.33505155,24.7164948 7.32474227,24.6082474 7,23.8505155 C4.72680412,18.871134 4.87113402,12.628866 6.09793814,7.32474227 C6.09793814,7.28865979 6.09793814,7.28865979 6.13402062,7.25257732 C6.20618557,7.03608247 6.20618557,6.8556701 6.13402062,6.71134021 C6.09793814,6.42268041 5.8814433,6.13402062 5.44845361,6.09793814 C4.58247423,5.98969072 3.60824742,5.66494845 2.81443299,5.12371134 C2.5257732,4.90721649 2.48969072,4.4742268 2.77835052,4.22164948 L2.77835052,4.22164948 C3.6443299,3.5 4.72680412,3.78865979 5.70103093,4.18556701 C6.17010309,4.40206186 6.53092784,4.18556701 6.71134021,3.82474227 C6.74742268,3.78865979 6.74742268,3.78865979 6.78350515,3.75257732 C7.43298969,2.74226804 8.37113402,2.05670103 9.59793814,2.05670103 Z" id="Shape" fill="#42210B" fill-rule="nonzero"></path>
                <path d="M16.9587629,16.8505155 C16.9948454,16.742268 16.9948454,16.6340206 16.9587629,16.5257732 C16.4175258,15.0824742 14.6494845,15.0103093 13.7113402,15.8402062 C13.4226804,16.0927835 12.8814433,16.2731959 12.4845361,16.2371134 C12.4484536,16.2371134 12.4123711,16.2371134 12.3762887,16.2371134 C12.2319588,16.2371134 12.1237113,16.1649485 12.0515464,16.056701 C11.7268041,15.6597938 11.3298969,15.371134 10.8608247,15.2628866 C10.5721649,15.1907216 10.4278351,14.9020619 10.5721649,14.6494845 C10.8608247,14.1804124 11.3659794,13.6752577 12.2680412,14.4690722 C12.4845361,14.6494845 12.6649485,14.685567 12.8453608,14.5412371 C13.0257732,14.4329897 13.1701031,14.2164948 13.0257732,13.9639175 C12.5206186,13.0979381 11.5463918,12.7010309 10.5721649,13.0979381 C10.1030928,13.2783505 9.74226804,13.6391753 9.56185567,14.0721649 C9.45360825,14.2525773 9.2371134,14.3608247 9.05670103,14.2886598 C8.65979381,14.1443299 8.19072165,14.1804124 7.75773196,14.3608247 C6.8556701,14.757732 6.38659794,15.6958763 6.60309278,16.6701031 C6.67525773,16.9226804 6.8556701,17.0309278 7.07216495,17.0309278 C7.28865979,17.0309278 7.46907216,16.9587629 7.50515464,16.7061856 C7.50515464,16.6701031 7.50515464,16.5979381 7.50515464,16.5618557 C7.50515464,16.5618557 7.50515464,16.5257732 7.50515464,16.5257732 C7.54123711,15.8041237 8.19072165,15.2268041 8.80412371,15.3350515 C9.12886598,15.371134 9.2371134,15.7680412 9.05670103,16.0206186 C8.65979381,16.4896907 8.51546392,17.1391753 8.65979381,17.7525773 C8.65979381,17.7525773 8.65979381,17.7525773 8.65979381,17.7525773 C8.69587629,17.8247423 8.65979381,17.8969072 8.58762887,17.9690722 C7.86597938,18.5463918 7.72164948,19.5206186 8.15463918,20.3505155 C8.2628866,20.6030928 8.47938144,20.6391753 8.65979381,20.5670103 C8.91237113,20.4948454 9.09278351,20.242268 8.94845361,19.9536082 C8.58762887,19.0154639 9.95876289,18.0773196 10.5721649,18.9793814 C10.7164948,19.1597938 10.8969072,19.1958763 11.0412371,19.0876289 C11.185567,19.0515464 11.3298969,18.943299 11.3298969,18.7628866 C11.3298969,18.7628866 11.3298969,18.7268041 11.3298969,18.7268041 C11.3298969,18.6907216 11.3298969,18.6185567 11.3298969,18.5824742 C11.3298969,18.5824742 11.3298969,18.5463918 11.3298969,18.5463918 C11.3659794,17.6082474 12.4845361,16.9587629 13.1701031,17.6804124 C13.1701031,17.6804124 13.2061856,17.7164948 13.2061856,17.7164948 C13.242268,17.7525773 13.2783505,17.8247423 13.314433,17.8608247 C13.4587629,18.0412371 13.6391753,18.0051546 13.8195876,17.8969072 C13.9278351,17.8608247 14.0360825,17.7525773 14.0721649,17.6443299 C14.1082474,17.6082474 14.1082474,17.5360825 14.1082474,17.4639175 C14.1082474,17.4639175 14.1082474,17.4278351 14.1082474,17.4278351 C14.2886598,16.3453608 15.4793814,16.2010309 16.1649485,16.9948454 C16.1649485,16.9948454 16.2010309,17.0309278 16.2010309,17.0309278 C16.2731959,17.1391753 16.3453608,17.2113402 16.4175258,17.2113402 C16.6340206,17.2835052 16.8505155,17.1391753 16.9587629,16.9226804 C16.9587629,16.9226804 16.9587629,16.9226804 16.9587629,16.9226804 C16.9587629,16.8865979 16.9587629,16.8505155 16.9587629,16.8505155 Z M9.77835052,16.8505155 C9.88659794,16.7061856 10.0309278,16.5618557 10.2113402,16.4896907 C10.6082474,16.2731959 11.0051546,16.742268 10.7525773,17.1391753 C10.7164948,17.2113402 10.6804124,17.2835052 10.6443299,17.3195876 C10.5360825,17.5 10.3556701,17.5721649 10.1752577,17.5360825 C10.1391753,17.5360825 10.1030928,17.5360825 10.1030928,17.5360825 C9.74226804,17.4639175 9.59793814,17.1030928 9.77835052,16.8505155 Z" id="Shape" fill="#42210B" fill-rule="nonzero"></path>
            </g>
        </g>
    </g>
</svg>