<?xml version="1.0" encoding="UTF-8"?>
<svg width="18px" height="17px" viewBox="0 0 18 17" version="1.1" xmlns="http://www.w3.org/2000/svg" xmlns:xlink="http://www.w3.org/1999/xlink">
    <!-- Generator: sketchtool 53 (72520) - https://sketchapp.com -->
    <title>550AB39B-0883-4BF3-AD64-F3AF3410003B</title>
    <desc>Created with sketchtool.</desc>
    <g id="design" stroke="none" stroke-width="1" fill="none" fill-rule="evenodd">
        <g id="search" transform="translate(-1032.000000, -137.000000)" fill-rule="nonzero">
            <g id="handroll" transform="translate(1032.000000, 136.000000)">
                <path d="M17.6,17.064 L17.6,17.064 L13.2,4.304 C13.1111858,4.09084595 12.9029169,3.952 12.672,3.952 C12.4410831,3.952 12.2328142,4.09084595 12.144,4.304 C11.3933009,5.67894572 10.3761661,6.89053274 9.152,7.868 C8.01332117,8.91872398 6.66313911,9.7138312 5.192,10.2 C4.98436835,10.3047254 4.85340944,10.5174526 4.85340944,10.75 C4.85340944,10.9825474 4.98436835,11.1952746 5.192,11.3 L16.852,17.768 L16.852,17.768 C16.9788701,17.8448361 17.1322078,17.8647657 17.2745041,17.8229139 C17.4168004,17.781062 17.5349313,17.6812887 17.6,17.548 C17.6864583,17.3982499 17.6864583,17.2137501 17.6,17.064 Z" id="Path" fill="#472821"></path>
                <path d="M6.952,8.176 C5.148,9.628 2.772,9.32 0,7.208 C1.62727162,5.47325949 4.19082574,4.99259309 6.336,6.02 C6.336,6.02 6.336,6.02 6.336,6.02 C6.75463778,6.54310432 6.97304763,7.19833388 6.952,7.868 C6.99930016,7.96521868 6.99930016,8.07878132 6.952,8.176 Z" id="Path" fill="#F14F10"></path>
                <path d="M8.448,7.076 C9.63409938,6.1237891 10.6336166,4.96017205 11.396,3.644 C11.4538715,3.53479741 11.4574403,3.40483749 11.4056492,3.29262343 C11.3538581,3.18040937 11.2526464,3.09880973 11.132,3.072 C9.55470865,2.80042709 7.93892774,3.25284574 6.732,4.304 C6.56429713,4.47509114 6.56429713,4.74890886 6.732,4.92 C7.37017473,5.38869675 7.80970165,6.07938191 7.964,6.856 C8.04481033,7.04283033 8.25410186,7.13796285 8.448,7.076 Z" id="Path" fill="#F14F10"></path>
                <path d="M8.14,2.236 C6.96492631,2.5754149 5.93092556,3.28532586 5.192,4.26 C5.10659048,4.29019683 5.01340952,4.29019683 4.928,4.26 C4.24620298,4.13751559 3.5435585,4.21388999 2.904,4.48 C2.80852326,4.50299539 2.70817318,4.47109268 2.64350349,4.39718445 C2.57883379,4.32327622 2.5605342,4.21957933 2.596,4.128 C2.99538059,3.06228182 3.81625631,2.20822651 4.86532152,1.76695305 C5.91438673,1.32567958 7.09892758,1.33618666 8.14,1.796 C8.26150264,1.796 8.36,1.89449736 8.36,2.016 C8.36,2.13750264 8.26150264,2.236 8.14,2.236 Z" id="Path" fill="#2EBD9D"></path>
            </g>
        </g>
    </g>
</svg>