<?xml version="1.0" encoding="UTF-8"?>
<svg width="15px" height="16px" viewBox="0 0 15 16" version="1.1" xmlns="http://www.w3.org/2000/svg" xmlns:xlink="http://www.w3.org/1999/xlink">
    <!-- Generator: sketchtool 53 (72520) - https://sketchapp.com -->
    <title>7DEEB39B-6394-48FA-8555-125C1125207C</title>
    <desc>Created with sketchtool.</desc>
    <g id="design" stroke="none" stroke-width="1" fill="none" fill-rule="evenodd">
        <g id="catalog-round-ingridients" transform="translate(-880.000000, -136.000000)" fill="#F14F10" fill-rule="nonzero">
            <g id="goryachee" transform="translate(880.000000, 136.000000)">
                <path d="M13.5333333,14.0666667 L13.3333333,14.0666667 C13.1936949,11.253957 11.1367971,8.90716083 8.36666667,8.4 C8.36666667,7.79248678 7.87417989,7.3 7.26666667,7.3 C6.65915344,7.3 6.16666667,7.79248678 6.16666667,8.4 C3.35721073,8.85596853 1.25469564,11.2230385 1.13333333,14.0666667 L0.866666667,14.0666667 C0.388019883,14.0666667 2.23106542e-13,14.4546866 2.19646934e-13,14.9333333 C-0.00018160541,15.1602455 0.0921765892,15.3774196 0.25574247,15.5346945 C0.41930835,15.6919694 0.639935984,15.7757432 0.866666667,15.7666667 L13.5333333,15.7666667 C13.9992591,15.7670114 14.3820799,15.3989145 14.4,14.9333333 C14.4,14.4546866 14.0119801,14.0666667 13.5333333,14.0666667 L13.5333333,14.0666667 Z" id="Path"></path>
                <path d="M3.93333333,7.16666667 L3.73333333,7.16666667 C3.62224429,7.10979747 3.53856208,7.01080196 3.50098107,6.89179545 C3.46340007,6.77278894 3.47505181,6.64368797 3.53333333,6.53333333 C4.05732287,5.62575684 4.05732287,4.50757649 3.53333333,3.6 C2.93821527,2.67645728 2.93821527,1.49020938 3.53333333,0.566666667 C3.71213449,0.401488084 3.98786551,0.401488084 4.16666667,0.566666667 C4.33642934,0.756467104 4.33642934,1.0435329 4.16666667,1.23333333 C3.72977358,1.87733975 3.72977358,2.72266025 4.16666667,3.36666667 C4.84054633,4.46694127 4.91570967,5.83240856 4.36666667,7 C4.25265472,7.11489446 4.09495189,7.17554939 3.93333333,7.16666667 Z" id="Path"></path>
                <path d="M9.56666667,7.16666667 C9.50337945,7.19668643 9.42995389,7.19668643 9.36666667,7.16666667 C9.25557762,7.10979747 9.17189541,7.01080196 9.13431441,6.89179545 C9.0967334,6.77278894 9.10838515,6.64368797 9.16666667,6.53333333 C9.68421754,5.69572009 9.68421754,4.63761324 9.16666667,3.8 C8.61587914,2.75356072 8.74730537,1.47872635 9.5,0.566666667 C9.59791444,0.388137211 9.80027691,0.293701396 10,0.333333333 C10.1697627,0.52313377 10.1697627,0.810199563 10,1 C9.52814237,1.70621183 9.52814237,2.6271215 10,3.33333333 C10.6763399,4.46198916 10.6763399,5.87134418 10,7 C9.88598805,7.11489446 9.72828523,7.17554939 9.56666667,7.16666667 Z" id="Path"></path>
                <path d="M6.66666667,5.73333333 L6.43333333,5.73333333 C6.21410447,5.60319093 6.13989506,5.32119516 6.26666667,5.1 C6.57481613,4.39903806 6.57481613,3.60096194 6.26666667,2.9 C6.02316572,2.10275211 6.17153047,1.23729105 6.66666667,0.566666667 C6.8564671,0.396903995 7.1435329,0.396903995 7.33333333,0.566666667 C7.50309601,0.756467104 7.50309601,1.0435329 7.33333333,1.23333333 C7,1.73333333 7.1,2.13333333 7.33333333,2.76666667 C7.69301104,3.70834802 7.60723123,4.76221433 7.1,5.63333333 C6.98497837,5.74389703 6.81850616,5.7823137 6.66666667,5.73333333 Z" id="Path"></path>
            </g>
        </g>
    </g>
</svg>