<?xml version="1.0" encoding="UTF-8"?>
<svg width="82px" height="83px" viewBox="0 0 82 83" version="1.1" xmlns="http://www.w3.org/2000/svg" xmlns:xlink="http://www.w3.org/1999/xlink">
    <!-- Generator: sketchtool 53.1 (72631) - https://sketchapp.com -->
    <title>5E52C48A-4003-48EF-BFCF-6A9B2649CC73</title>
    <desc>Created with sketchtool.</desc>
    <g id="design" stroke="none" stroke-width="1" fill="none" fill-rule="evenodd" opacity="0.465945871">
        <g id="2-slide" transform="translate(-1278.000000, -671.000000)" fill="#472821" fill-rule="nonzero">
            <g id="ieroglips2" transform="translate(1278.672000, 671.880000)">
                <path d="M40.768,-3.97903932e-13 L41.92,-3.97903932e-13 C43.872,1.808 46.144,3.232 48.704,4.288 L47.872,5.744 C47.168,5.44 46.496,5.12 45.856,4.784 L45.856,10.4 C46.016,10.224 46.16,10.064 46.288,9.904 L47.696,10.624 C47.12,11.264 46.512,11.856 45.872,12.384 C46.704,12.784 47.456,13.2 48.16,13.616 L47.104,14.88 C45.472,13.776 43.392,12.752 40.832,11.808 L41.776,10.688 C42.736,11.024 43.632,11.376 44.48,11.744 C44.928,11.36 45.344,10.96 45.728,10.544 L38.624,10.544 L38.624,13.056 C39.76,12.848 40.848,12.592 41.888,12.304 L42.208,13.696 C40.736,14.144 38.912,14.528 36.72,14.848 L36.288,13.52 C36.736,13.376 36.976,12.976 36.976,12.304 L36.976,4.8 C36.272,5.184 35.536,5.552 34.768,5.904 L33.952,4.432 C36.672,3.248 38.944,1.776 40.768,-3.97903932e-13 Z M37.6,4.432 L40.736,4.432 C40.608,3.952 40.448,3.488 40.288,3.056 L41.808,2.816 C41.968,3.296 42.128,3.824 42.272,4.432 L45.232,4.432 C43.76,3.568 42.464,2.592 41.344,1.504 C40.304,2.576 39.056,3.552 37.6,4.432 Z M38.624,8.192 L38.624,9.072 L44.208,9.072 L44.208,8.192 L38.624,8.192 Z M44.208,6.784 L44.208,5.904 L38.624,5.904 L38.624,6.784 L44.208,6.784 Z M37.648,31.216 L37.648,36.832 L36.128,36.832 L36.128,31.472 C35.68,32.624 35.12,33.696 34.464,34.672 L33.792,32.96 C34.816,31.808 35.552,30.48 36.032,29.008 L34.336,29.008 L34.336,27.504 L36.128,27.504 L36.128,22.176 L37.648,22.176 L37.648,27.504 L39.248,27.504 L39.248,29.008 L37.648,29.008 L37.648,29.68 C38.352,30.4 39.04,31.2 39.728,32.064 L38.816,33.472 C38.368,32.576 37.968,31.824 37.648,31.216 Z M40.288,22.464 L47.68,22.464 L47.68,26.736 L40.288,26.736 L40.288,22.464 Z M46.128,25.648 L46.128,25.12 L41.84,25.12 L41.84,25.648 L46.128,25.648 Z M41.84,24.096 L46.128,24.096 L46.128,23.568 L41.84,23.568 L41.84,24.096 Z M39.648,27.216 L48.336,27.216 L48.336,28.496 L39.648,28.496 L39.648,27.216 Z M35.264,23.248 C35.472,24.24 35.664,25.376 35.824,26.656 L34.736,26.944 C34.544,25.792 34.32,24.704 34.048,23.648 L35.264,23.248 Z M38.336,23.104 L39.52,23.264 C39.456,24.592 39.28,25.776 39.024,26.816 L37.936,26.464 C38.16,25.504 38.288,24.384 38.336,23.104 Z M40.08,28.992 L47.888,28.992 L47.888,33.024 L44.768,33.024 L44.768,33.568 L47.936,33.568 L47.936,34.672 L44.768,34.672 L44.768,35.216 L48.528,35.216 L48.528,36.496 L39.36,36.496 L39.36,35.216 L43.168,35.216 L43.168,34.672 L40.016,34.672 L40.016,33.568 L43.168,33.568 L43.168,33.024 L40.08,33.024 L40.08,28.992 Z M46.384,32.016 L46.384,31.488 L44.768,31.488 L44.768,32.016 L46.384,32.016 Z M43.168,32.016 L43.168,31.488 L41.584,31.488 L41.584,32.016 L43.168,32.016 Z M41.584,30.528 L43.168,30.528 L43.168,29.968 L41.584,29.968 L41.584,30.528 Z M44.768,29.968 L44.768,30.528 L46.384,30.528 L46.384,29.968 L44.768,29.968 Z M48.704,54.48 C48.56,56.176 48.368,57.28 48.128,57.792 C47.888,58.288 47.36,58.544 46.544,58.544 L43.184,58.544 C42.384,58.544 41.984,57.984 41.984,56.896 L41.984,49.808 L46.224,49.808 L46.224,46.064 L41.872,46.064 L41.872,44.496 L47.824,44.496 L47.824,51.408 L43.616,51.408 L43.616,56.224 C43.616,56.704 43.712,56.96 43.92,56.992 L46.272,56.992 C46.592,56.992 46.784,56.768 46.864,56.352 C46.944,55.92 47.008,55.12 47.04,53.952 L48.704,54.48 Z M34.032,44.48 L41.472,44.48 L41.472,46.048 L39.6,46.048 L39.6,47.44 L41.28,47.44 L41.28,58.72 L39.808,58.72 L39.808,58 L35.824,58 L35.824,58.72 L34.352,58.72 L34.352,47.44 L36.016,47.44 L36.016,46.048 L34.032,46.048 L34.032,44.48 Z M35.824,56.432 L39.808,56.432 L39.808,55.28 L35.824,55.28 L35.824,56.432 Z M36.384,48.944 L35.824,48.944 L35.824,52.464 C36.176,51.824 36.368,50.912 36.384,49.76 L36.384,48.944 Z M35.824,52.928 L35.824,53.776 L39.808,53.776 L39.808,52.816 L39.296,52.816 C38.512,52.816 38.128,52.416 38.128,51.616 L38.128,48.944 L37.456,48.944 L37.456,49.76 C37.44,51.472 37.12,52.72 36.496,53.52 L35.824,52.928 Z M37.424,47.44 L38.192,47.44 L38.192,46.048 L37.424,46.048 L37.424,47.44 Z M39.808,51.552 L39.808,48.944 L39.216,48.944 L39.216,51.264 C39.216,51.456 39.344,51.552 39.632,51.552 L39.808,51.552 Z M35.456,66.112 C36.464,66.96 37.328,67.808 38.032,68.64 L36.88,69.792 C36.272,68.992 35.424,68.112 34.336,67.184 L35.456,66.112 Z M44.672,80.544 C43.808,80.544 42.864,80.528 41.84,80.512 C40.816,80.496 39.968,80.416 39.296,80.256 C38.656,80.064 38.096,79.696 37.648,79.184 C37.424,78.928 37.232,78.8 37.04,78.8 C36.72,78.8 36.144,79.488 35.312,80.88 L34.096,79.728 C34.896,78.48 35.632,77.696 36.288,77.36 L36.288,72.896 L34.112,72.896 L34.112,71.36 L37.872,71.36 L37.872,77.536 L38.016,77.68 C38.384,78.096 38.752,78.416 39.12,78.624 C39.584,78.848 40.288,78.976 41.216,79.008 C42.128,79.024 43.2,79.04 44.432,79.04 C45.232,79.04 46.032,79.024 46.864,79.024 C47.68,79.008 48.304,78.976 48.736,78.944 L48.352,80.544 L44.672,80.544 Z M42.688,66 L44.288,66 L44.288,66.848 L47.52,66.848 L47.52,68.288 L44.288,68.288 L44.288,69.056 L48.416,69.056 L48.416,70.496 L46.576,70.496 C46.448,70.864 46.288,71.216 46.128,71.568 L47.68,71.568 L47.68,72.976 L44.288,72.976 L44.288,73.712 L47.2,73.712 L47.2,75.04 L44.288,75.04 L44.288,75.808 L48.32,75.808 L48.32,77.312 L44.288,77.312 L44.288,78.464 L42.688,78.464 L42.688,77.312 L38.688,77.312 L38.688,75.808 L42.688,75.808 L42.688,75.04 L39.744,75.04 L39.744,73.712 L42.688,73.712 L42.688,72.976 L39.296,72.976 L39.296,71.568 L40.928,71.568 C40.768,71.184 40.592,70.816 40.416,70.496 L38.528,70.496 L38.528,69.056 L42.688,69.056 L42.688,68.288 L39.456,68.288 L39.456,66.848 L42.688,66.848 L42.688,66 Z M44.592,71.568 C44.768,71.216 44.912,70.848 45.024,70.496 L42,70.496 C42.144,70.832 42.288,71.184 42.448,71.568 L44.592,71.568 Z" id="食糧配達"></path>
                <path d="M79.328,45.472 C79.808,45.472 80.208,45.632 80.56,45.968 C80.896,46.304 81.072,46.72 81.072,47.216 C81.072,47.696 80.896,48.096 80.56,48.432 C80.208,48.768 79.808,48.944 79.328,48.944 C78.848,48.944 78.432,48.768 78.096,48.432 C77.744,48.096 77.584,47.696 77.584,47.216 C77.584,46.72 77.744,46.304 78.096,45.968 C78.432,45.632 78.848,45.472 79.328,45.472 Z M79.328,46.432 C79.104,46.432 78.928,46.512 78.768,46.672 C78.608,46.816 78.544,46.992 78.544,47.216 C78.544,47.424 78.608,47.6 78.768,47.76 C78.928,47.904 79.104,47.984 79.328,47.984 C79.536,47.984 79.728,47.904 79.888,47.76 C80.032,47.6 80.112,47.424 80.112,47.216 C80.112,46.992 80.032,46.816 79.888,46.672 C79.728,46.512 79.536,46.432 79.328,46.432 Z M68.496,47.056 L70.256,47.056 L70.224,52.288 C73.072,51.552 75.664,50.544 78,49.296 L78.976,50.672 C76.608,51.936 73.696,53.056 70.208,54.016 L70.208,56.16 C70.208,56.8 70.4,57.248 70.8,57.472 C71.296,57.76 72.336,57.904 73.904,57.904 C75.68,57.904 77.456,57.792 79.232,57.568 L79.216,59.28 C76.272,59.44 74.544,59.536 74.064,59.536 C71.824,59.536 70.352,59.328 69.616,58.944 C68.816,58.512 68.432,57.632 68.432,56.304 C68.432,52.688 68.448,49.616 68.496,47.056 Z M79.488,67.472 C80.256,68.16 80.848,68.88 81.264,69.616 L80.32,70.304 C79.856,69.504 79.296,68.784 78.624,68.144 L79.488,67.472 Z M78.128,68.544 C78.848,69.184 79.44,69.92 79.888,70.72 L78.96,71.376 C78.512,70.592 77.936,69.872 77.248,69.216 L78.128,68.544 Z M66.096,71.568 L69.184,71.568 L69.184,68.576 L70.96,68.576 L70.96,71.568 L75.44,71.568 L75.44,68.384 L77.168,68.384 L77.168,71.568 L80.56,71.568 L80.56,73.216 L77.168,73.216 L77.168,74.992 C77.168,76.752 76.784,78.192 76.016,79.28 C75.184,80.464 73.824,81.392 71.92,82.096 L70.96,80.64 C72.608,80.032 73.776,79.312 74.448,78.464 C75.104,77.6 75.44,76.448 75.44,74.992 L75.44,73.216 L70.96,73.216 L70.96,76.928 L69.184,76.928 L69.184,73.216 L66.096,73.216 L66.096,71.568 Z" id="ピザ"></path>
                <path d="M1.168,2.04 L5.952,2.04 C5.968,1.704 5.984,1.384 5.984,1.064 L7.664,1.064 C7.664,1.4 7.648,1.72 7.648,2.04 L13.424,2.04 L13.424,3.576 L7.52,3.576 C7.488,3.864 7.44,4.136 7.392,4.408 L12.816,4.408 L12.816,5.88 L7.104,5.88 C7.04,6.152 6.96,6.408 6.88,6.664 L14.256,6.664 L14.256,8.216 L11.472,8.216 L11.472,9.448 L13.984,9.448 L13.984,11 L11.472,11 L11.472,14.056 C11.472,15.16 10.912,15.72 9.808,15.72 L8.048,15.72 L7.68,14.184 C8.224,14.248 8.752,14.28 9.264,14.28 C9.648,14.28 9.84,14.072 9.84,13.656 L9.84,11 L4.64,11 C3.632,12.264 2.384,13.336 0.912,14.2 L1.13686838e-13,12.744 C2,11.656 3.488,10.136 4.48,8.216 L0.416,8.216 L0.416,6.664 L5.136,6.664 C5.216,6.392 5.296,6.136 5.376,5.88 L1.728,5.88 L1.728,4.408 L5.696,4.408 C5.744,4.12 5.792,3.848 5.824,3.576 L1.168,3.576 L1.168,2.04 Z M9.84,9.448 L9.84,8.216 L6.304,8.216 C6.112,8.648 5.904,9.064 5.68,9.448 L9.84,9.448 Z M5.12,11.432 C6.144,11.848 7.104,12.344 7.968,12.936 L7.104,14.248 C6.208,13.576 5.28,13.032 4.32,12.648 L5.12,11.432 Z M1.52,29.688 L8.944,29.688 L8.944,35 L1.52,35 L1.52,29.688 Z M7.344,33.528 L7.344,31.16 L3.104,31.16 L3.104,33.528 L7.344,33.528 Z M11.568,37.672 L9.36,37.672 L8.928,36.072 L11.2,36.12 C11.552,36.12 11.728,35.832 11.728,35.288 L11.728,25.08 L1.072,25.08 L1.072,23.48 L13.392,23.48 L13.392,35.752 C13.392,37.032 12.784,37.672 11.568,37.672 Z M0.176,26.632 L10.4,26.632 L10.4,28.152 L0.176,28.152 L0.176,26.632 Z" id="寿司"></path>
            </g>
        </g>
    </g>
</svg>