<?xml version="1.0" encoding="UTF-8"?>
<svg width="26px" height="23px" viewBox="0 0 26 23" version="1.1" xmlns="http://www.w3.org/2000/svg" xmlns:xlink="http://www.w3.org/1999/xlink">
    <!-- Generator: Sketch 57 (83077) - https://sketch.com -->
    <title>1</title>
    <desc>Created with Sketch.</desc>
    <g id="design" stroke="none" stroke-width="1" fill="none" fill-rule="evenodd">
        <g id="catalog-round-ingridients-copy" transform="translate(-384.000000, -239.000000)">
            <g id="1" transform="translate(399.521999, 251.574269) rotate(-33.000000) translate(-399.521999, -251.574269) translate(386.021999, 239.074269)">
                <ellipse id="Oval" fill="#D3501C" transform="translate(17.801432, 14.399377) rotate(-56.031823) translate(-17.801432, -14.399377) " cx="17.8014318" cy="14.3993773" rx="8.99947879" ry="4.95425853"></ellipse>
                <polygon id="Path" fill="#F14F10" points="9.63636364 19.7272727 3.45454545 12.3181818 1.59090909 5.31818182 3.59090909 2.40909091 10.8181818 1.86363636 20.9090909 4.90909091 13.7272727 11.6363636"></polygon>
                <path d="M0.5,5.5 C0.136363636,7.95454545 1.63636364,10.4090909 2.72727273,12.5 C2.77272727,12.5909091 2.81818182,12.6818182 2.90909091,12.8181818 C2.95454545,12.9090909 3,13 3.04545455,13.0909091 C3.13636364,13.2727273 3.27272727,13.5 3.36363636,13.6818182 C3.40909091,13.7272727 3.45454545,13.8181818 3.45454545,13.8636364 C3.59090909,14.0909091 3.72727273,14.2727273 3.81818182,14.5 C3.86363636,14.5454545 3.86363636,14.5909091 3.90909091,14.6818182 C4.04545455,14.9090909 4.18181818,15.0909091 4.31818182,15.3181818 C4.36363636,15.3636364 4.40909091,15.4090909 4.40909091,15.5 C4.54545455,15.6818182 4.68181818,15.9090909 4.81818182,16.0909091 C4.86363636,16.1363636 4.90909091,16.2272727 4.95454545,16.2727273 C5.09090909,16.4545455 5.22727273,16.6363636 5.36363636,16.8181818 C5.40909091,16.9090909 5.45454545,16.9545455 5.5,17.0454545 C5.63636364,17.2272727 5.77272727,17.4090909 5.86363636,17.5454545 C5.90909091,17.6363636 6,17.7272727 6.04545455,17.7727273 C6.18181818,17.9545455 6.31818182,18.1363636 6.45454545,18.2727273 C6.5,18.3181818 6.54545455,18.4090909 6.59090909,18.4545455 C6.59090909,18.4545455 6.59090909,18.4545455 6.59090909,18.4545455 C6.59090909,18.4545455 6.59090909,18.4545455 6.59090909,18.4545455 C6.63636364,18.5454545 6.72727273,18.5909091 6.77272727,18.6818182 C6.90909091,18.8181818 7,18.9545455 7.13636364,19.0909091 C7.13636364,19.1363636 7.18181818,19.1363636 7.18181818,19.1818182 C7.54545455,19.5909091 7.90909091,20 8.27272727,20.3636364 C8.27272727,20.3636364 8.31818182,20.4090909 8.31818182,20.4090909 C8.5,20.5909091 8.68181818,20.7727273 8.86363636,20.9545455 C8.90909091,21 8.95454545,21.0454545 9.04545455,21.0909091 C9.18181818,21.2272727 9.36363636,21.3636364 9.5,21.5454545 C9.63636364,21.6363636 9.77272727,21.7727273 9.90909091,21.8636364 C10,21.9545455 10.0909091,22 10.1818182,22.0909091 C10.3636364,22.2727273 10.5909091,22.4090909 10.8181818,22.5454545 C10.8181818,22.5454545 10.8636364,22.5909091 10.8636364,22.5909091 C11.0909091,22.7727273 11.3181818,22.9090909 11.5909091,23.0454545 C15.5909091,25.7272727 20.6363636,20.2727273 22.5909091,17.3636364 C24.5454545,14.4545455 27.7272727,7.72727273 23.7272727,5.04545455 C23.4545455,4.86363636 23.1818182,4.72727273 22.9090909,4.54545455 C22.8636364,4.5 22.8181818,4.5 22.7727273,4.45454545 C22.5454545,4.31818182 22.3181818,4.18181818 22.0909091,4.04545455 C22.0454545,4 22,4 21.9545455,3.95454545 C21.7272727,3.81818182 21.5,3.68181818 21.2727273,3.59090909 C21.2272727,3.54545455 21.1818182,3.54545455 21.1363636,3.5 C20.9090909,3.36363636 20.6818182,3.27272727 20.4090909,3.13636364 C20.3636364,3.09090909 20.3181818,3.09090909 20.2727273,3.04545455 C20.0454545,2.90909091 19.7727273,2.81818182 19.5454545,2.72727273 C19.5,2.72727273 19.4545455,2.68181818 19.4090909,2.68181818 C19.1818182,2.59090909 18.9090909,2.45454545 18.6818182,2.36363636 C18.6363636,2.36363636 18.5909091,2.31818182 18.5454545,2.31818182 C18.3181818,2.22727273 18.0454545,2.13636364 17.8181818,2.04545455 C17.7727273,2.04545455 17.7272727,2 17.6818182,2 C17.4545455,1.90909091 17.1818182,1.81818182 16.9545455,1.72727273 C16.9090909,1.72727273 16.8636364,1.68181818 16.7727273,1.68181818 C16.5454545,1.59090909 16.2727273,1.54545455 16.0454545,1.45454545 C16,1.45454545 15.9090909,1.40909091 15.8636364,1.40909091 C15.6363636,1.31818182 15.3636364,1.27272727 15.1363636,1.22727273 C15.0454545,1.22727273 15,1.18181818 14.9090909,1.18181818 C14.6818182,1.13636364 14.4545455,1.09090909 14.1818182,1 C14.0909091,1 14,0.954545455 13.9545455,0.954545455 C13.7272727,0.909090909 13.5,0.863636364 13.2727273,0.818181818 C13.1818182,0.818181818 13.0909091,0.772727273 13,0.772727273 C12.7727273,0.727272727 12.5909091,0.681818182 12.3636364,0.681818182 C12.2727273,0.681818182 12.1363636,0.636363636 12.0454545,0.636363636 C11.8636364,0.590909091 11.6363636,0.590909091 11.4545455,0.545454545 C11.3181818,0.545454545 11.2272727,0.5 11.0909091,0.5 C10.9090909,0.5 10.7272727,0.454545455 10.5454545,0.454545455 C10.4090909,0.454545455 10.2727273,0.454545455 10.1363636,0.409090909 C10.0909091,0.409090909 10,0.409090909 9.95454545,0.409090909 C9.77272727,0.409090909 9.59090909,0.409090909 9.40909091,0.409090909 C9.36363636,0.409090909 9.31818182,0.409090909 9.31818182,0.409090909 C5.45454545,0.409090909 1.13636364,1.04545455 0.5,5.5 Z M10.5909091,2.95454545 C10.7272727,2.95454545 10.9090909,3 11.0454545,3 C11.1818182,3 11.3181818,3.04545455 11.4545455,3.04545455 C11.5909091,3.04545455 11.6818182,3.09090909 11.8181818,3.09090909 C12,3.09090909 12.1363636,3.13636364 12.3181818,3.18181818 C12.4090909,3.18181818 12.5,3.22727273 12.5909091,3.22727273 C12.7727273,3.27272727 12.9545455,3.27272727 13.1363636,3.31818182 C13.2272727,3.31818182 13.2727273,3.36363636 13.3636364,3.36363636 C13.5909091,3.40909091 13.7727273,3.45454545 13.9545455,3.5 C14,3.5 14.0454545,3.54545455 14.1363636,3.54545455 C14.3636364,3.59090909 14.5909091,3.63636364 14.8181818,3.72727273 C14.8636364,3.72727273 14.9090909,3.72727273 14.9545455,3.77272727 C15.1818182,3.81818182 15.4090909,3.90909091 15.6363636,4 C15.6818182,4 15.6818182,4 15.7272727,4.04545455 C15.9545455,4.13636364 16.2272727,4.18181818 16.4545455,4.27272727 C16.4545455,4.27272727 16.5,4.27272727 16.5,4.27272727 C16.7272727,4.36363636 17,4.45454545 17.2272727,4.54545455 C17.2272727,4.54545455 17.2272727,4.54545455 17.2727273,4.54545455 C17.2727273,4.54545455 17.2727273,4.54545455 17.2727273,4.54545455 C17.8636364,4.77272727 18,5.59090909 17.4545455,5.95454545 C15.4545455,7.36363636 13.7272727,9.40909091 12.7727273,10.8636364 C11.9090909,12.2272727 10.7272727,14.4090909 10.1363636,16.5909091 C9.90909091,17.3636364 8.95454545,17.5909091 8.45454545,16.9545455 C7.68181818,16.0454545 7,15.0454545 6.36363636,14.0454545 C5.95454545,13.3636364 5.45454545,12.6363636 5.04545455,11.9090909 C4.40909091,10.6363636 3.81818182,9.40909091 3.36363636,8.22727273 C3.36363636,8.22727273 3.36363636,8.18181818 3.36363636,8.18181818 C3.31818182,8.04545455 3.27272727,7.86363636 3.22727273,7.72727273 C2.31818182,3.36363636 7,2.81818182 10.1818182,3 C10.2727273,2.90909091 10.4090909,2.90909091 10.5909091,2.95454545 Z M13.2727273,20.6818182 C10.7727273,19 13.6818182,13.7727273 14.7272727,12.1363636 C15.8636364,10.5454545 19.5909091,5.90909091 22.0909091,7.59090909 C24.5909091,9.27272727 21.7272727,14.5 20.6363636,16.1363636 C19.5454545,17.7727273 15.7727273,22.3636364 13.2727273,20.6818182 Z" id="Shape" fill="#42210B" fill-rule="nonzero"></path>
                <path d="M18.9545455,12.7727273 C18,11.9090909 16.9545455,12.8636364 16.4090909,13.6818182 C15.9090909,14.4545455 15.4090909,15.6363636 16.4090909,16.3181818 C17.3636364,16.9545455 18.3181818,16.0909091 18.8181818,15.3181818 C19.3181818,14.5454545 19.7727273,13.5 18.9545455,12.7727273 Z" id="Path" fill="#FBF5E2"></path>
            </g>
        </g>
    </g>
</svg>