<?xml version="1.0" encoding="UTF-8"?>
<svg width="22px" height="29px" viewBox="0 0 22 29" version="1.1" xmlns="http://www.w3.org/2000/svg" xmlns:xlink="http://www.w3.org/1999/xlink">
    <!-- Generator: sketchtool 53.1 (72631) - https://sketchapp.com -->
    <title>792A5ADC-ED65-468E-8C13-D42D756B4FBD</title>
    <desc>Created with sketchtool.</desc>
    <g id="design" stroke="none" stroke-width="1" fill="none" fill-rule="evenodd">
        <g id="2-slide" transform="translate(-54.000000, -445.000000)">
            <g id="lapsha" transform="translate(54.000000, 445.000000)">
                <path d="M1.10926316,19.31168 L20.7170526,19.31168 C21.6109474,19.31168 21.6132632,17.91968 20.7170526,17.91968 L1.10926316,17.91968 C0.215368421,17.91968 0.213052632,19.31168 1.10926316,19.31168 Z" id="Path" fill="#F15A24"></path>
                <path d="M21.8263158,15.72728 C21.7834983,13.0833228 20.3236321,10.6670616 18.0052632,9.40296 C17.7737505,7.92213646 17.0986008,6.54672803 16.0692632,5.45896 L17.8061053,1.0672 C18.1349474,0.232 16.7917895,-0.1276 16.4675789,0.696 C15.9642807,1.96581333 15.4625263,3.23485333 14.9623158,4.50312 C12.5442606,2.77440871 9.31087836,2.72453129 6.84084211,4.37784 C6.35452632,3.15288 5.86898246,1.9256 5.38421053,0.696 C5.05768421,-0.12528 3.70526316,0.232 4.04336842,1.0672 L5.71768421,5.29888 C4.58632803,6.41936677 3.84638718,7.87590058 3.608,9.45168 C1.41530877,10.789813 0.0550924324,13.1557148 0,15.72728 C0.0629573275,19.6497475 2.17177885,23.2527058 5.55789474,25.22304 C5.31396491,26.1866133 5.07003509,27.14864 4.82610526,28.10912 C4.76825881,28.3185692 4.81138712,28.5430659 4.94270188,28.7160428 C5.07401663,28.8890198 5.27844431,28.990621 5.49536842,28.99072 L16.5509474,28.99072 C16.7682784,28.9913468 16.9733799,28.8900499 17.1052294,28.7169675 C17.2370789,28.5438851 17.2804824,28.3189627 17.2225263,28.10912 C16.9677895,27.1084267 16.7138246,26.1077333 16.4606316,25.10704 C19.7372602,23.1099543 21.7627962,19.5691121 21.8263158,15.72728 Z M20.3789474,15.03128 L18.6096842,15.03128 C18.1442105,12.5512 15.7473684,11.1128 13.3250526,11.7508 C12.995984,11.2421236 12.607247,10.7747911 12.1671579,10.3588 C13.8712009,9.62915203 15.8176815,9.73907467 17.4290781,10.6559538 C19.0404748,11.572833 20.1316854,13.1913462 20.3789474,15.03128 L20.3789474,15.03128 Z M14.5107368,15.03128 C14.4302366,14.3302325 14.2525245,13.6438598 13.9827368,12.992 C15.4184796,12.7320337 16.813614,13.617427 17.1924211,15.02896 L14.5107368,15.03128 Z M8.50357895,8.53528 C9.0489332,7.87544788 9.86714634,7.50388497 10.721919,7.52789836 C11.5766916,7.55191176 12.3728341,7.96882727 12.8804211,8.65824 C12.188742,8.81614293 11.5234289,9.07321911 10.9050526,9.42152 C10.1646274,8.98402564 9.35085838,8.68528458 8.50357895,8.53992 L8.50357895,8.53528 Z M16.4212632,8.75336 C15.9142317,8.61057191 15.393204,8.52344641 14.8673684,8.49352 L15.4856842,6.93448 C15.8950042,7.48696219 16.2110624,8.10298543 16.4212632,8.758 L16.4212632,8.75336 Z M10.8124211,4.56576 C12.1293537,4.56240849 13.4073657,5.01294244 14.432,5.84176 L13.7650526,7.53304 C12.2391353,5.85898386 9.66922209,5.6822365 7.92926316,7.13168 C7.73782456,6.65685333 7.54947368,6.18125333 7.36421053,5.70488 C8.35843623,4.95780035 9.56963238,4.55768041 10.8124211,4.56576 L10.8124211,4.56576 Z M6.28968421,6.74424 C6.50273684,7.28712 6.71733333,7.82845333 6.93347368,8.36824 C6.91957895,8.39144 6.908,8.41696 6.89642105,8.44016 C6.32299669,8.47027708 5.75533896,8.56999255 5.20589474,8.73712 C5.44369028,8.01254748 5.81091724,7.33728787 6.28968421,6.74424 L6.28968421,6.74424 Z M7.28084211,9.8252 C8.37471144,9.82288191 9.44649178,10.1335711 10.3701053,10.72072 C10.4529783,10.829402 10.5668455,10.9103057 10.6966316,10.95272 C12.019034,11.9295574 12.891008,13.4005511 13.1143158,15.03128 L11.2477895,15.03128 C10.8633684,13.08016 9.26084211,11.55128 7.15810526,11.55128 C5.05536842,11.55128 3.45284211,13.08712 3.06610526,15.03128 L1.44505263,15.03128 C1.85263158,12.1336 4.24947368,9.8252 7.28084211,9.8252 Z M4.47410526,15.03128 C5.18273684,12.36792 9.13347368,12.36096 9.83978947,15.03128 L4.47410526,15.03128 Z M15.6593684,27.608 L6.39621053,27.608 C6.55059649,27.0264533 6.69803509,26.4441333 6.83852632,25.86104 C9.51987186,26.9695477 12.5358049,26.9385631 15.1938947,25.7752 L15.6593684,27.608 Z M10.912,25.288 C5.896,25.27408 1.85263158,21.30456 1.42884211,16.42328 L8.43178947,16.42328 C8.04338474,17.2520444 8.06741083,18.2156951 8.49663158,19.024 C8.72821053,19.46944 9.09642105,19.86152 9.28168421,20.33016 C9.58042105,21.0772 9.23073684,21.72216 8.81852632,22.3648 C8.33221053,23.1188 9.53410526,23.81712 10.0181053,23.0608 C10.7730526,21.9008 11.0578947,20.6712 10.3677895,19.4068 C10.1362105,18.97528 9.76568421,18.58784 9.60126316,18.12152 C9.38126316,17.49512 9.64757895,16.92904 9.99031579,16.41168 L13.2324211,16.41168 C13.0765808,16.9133957 13.0953597,17.4532496 13.2856842,17.94288 C13.6191579,18.79664 14.0174737,19.10288 13.4917895,20.03088 C13.0541053,20.81272 14.2536842,21.51568 14.6913684,20.72688 C15.1290526,19.93808 15.3652632,19.082 14.9762105,18.19808 C14.6381053,17.43248 14.4065263,17.09144 14.7261053,16.39312 L20.3974737,16.39312 C19.9736842,21.31152 15.9303158,25.26248 10.912,25.26944 L10.912,25.288 Z" id="Shape" fill="#42210B" fill-rule="nonzero"></path>
            </g>
        </g>
    </g>
</svg>