<?xml version="1.0" encoding="UTF-8"?>
<svg width="21px" height="16px" viewBox="0 0 21 16" version="1.1" xmlns="http://www.w3.org/2000/svg" xmlns:xlink="http://www.w3.org/1999/xlink">
    <!-- Generator: Sketch 53 (72520) - https://sketchapp.com -->
    <title>next</title>
    <desc>Created with Sketch.</desc>
    <g id="design" stroke="none" stroke-width="1" fill="none" fill-rule="evenodd">
        <g id="catalog-round-copy" transform="translate(-981.000000, -3015.000000)" fill="#000000" fill-rule="nonzero">
            <g id="next" transform="translate(981.000000, 3015.000000)">
                <path d="M13.4884615,15.76 L20.7576923,8.56 C20.9192308,8.4 21,8.16 21,8 C21,7.76 20.9192308,7.6 20.7576923,7.44 L13.4884615,0.24 C13.3269231,0.08 13.1653846,0 12.9230769,0 C12.6807692,0 12.5192308,0.08 12.3576923,0.24 L11.2269231,1.36 C10.9038462,1.68 10.9038462,2.16 11.2269231,2.48 L14.4576923,5.68 C14.7,5.92 14.5384615,6.4 14.1346154,6.4 L0.807692308,6.4 C0.323076923,6.4 0,6.72 0,7.2 L0,8.8 C0,9.28 0.323076923,9.6 0.807692308,9.6 L14.2153846,9.6 C14.5384615,9.6 14.7807692,10 14.5384615,10.32 L11.3076923,13.52 C10.9846154,13.84 10.9846154,14.32 11.3076923,14.64 L12.4384615,15.76 C12.6,15.92 12.7615385,16 13.0038462,16 C13.1653846,16 13.3269231,15.92 13.4884615,15.76 Z" id="Path"></path>
            </g>
        </g>
    </g>
</svg>