<?xml version="1.0" encoding="UTF-8"?>
<svg width="24px" height="22px" viewBox="0 0 24 22" version="1.1" xmlns="http://www.w3.org/2000/svg" xmlns:xlink="http://www.w3.org/1999/xlink">
    <!-- Generator: sketchtool 53.1 (72631) - https://sketchapp.com -->
    <title>113C9E5B-57B9-420C-9281-2268AED2E707</title>
    <desc>Created with sketchtool.</desc>
    <g id="design" stroke="none" stroke-width="1" fill="none" fill-rule="evenodd">
        <g id="2-slide" transform="translate(-52.000000, -354.000000)">
            <g id="pizza" transform="translate(63.945273, 364.826680) rotate(-91.000000) translate(-63.945273, -364.826680) translate(52.945273, 353.179621)">
                <polygon id="Path" fill="#F15A24" points="4.41294118 9.12676471 7.72264706 7.12411765 9.78029412 10.3238235 6.85882353 14.1608824"></polygon>
                <polygon id="Path" fill="#F15A24" points="15.7041176 13.3391176 11.9641176 11.4917647 14.4002941 6.82970588 17.8038235 8.59294118"></polygon>
                <polygon id="Path" fill="#F15A24" points="13.7726471 17.1632353 7.75823529 16.0082353 10.7994118 22.7505882"></polygon>
                <path d="M21.4144118,2.72411765 C14.9891176,-0.482058824 6.96558824,-0.391470588 0.485294118,2.48147059 C0.106091993,2.70438505 -0.0757915001,3.15444713 0.0420588235,3.57823529 L1.12911765,6.49 C1.20332783,6.74376261 1.37784839,6.95626902 1.61234051,7.07840034 C1.84683263,7.20053165 2.12099973,7.22171672 2.37147059,7.13705882 L9.96147059,22.7538235 C10.0986065,23.0851595 10.4403856,23.2838682 10.7961765,23.2391176 C11.1539762,23.2858183 11.4986835,23.0869487 11.6373529,22.7538235 C14.1651961,17.5514706 16.6930392,12.3512745 19.2208824,7.15323529 C19.6463753,7.29476727 20.1127381,7.11768457 20.3370588,6.72941176 L21.7638235,4.05058824 C21.8182087,3.94988345 21.8543536,3.8403533 21.8705882,3.72705882 C22.0032747,3.32494179 21.8047024,2.88836442 21.4144118,2.72411765 Z M19.5864706,4.01823529 L19.0688235,4.98882353 C13.9117647,2.80176471 7.80352941,2.98294118 2.62382353,4.96941176 L2.20647059,3.85647059 C7.59970588,1.70823529 14.2126471,1.65647059 19.5864706,4.01176471 L19.5864706,4.01823529 Z M17.0532353,7.18882353 C15.1379412,6.14705882 12.6823529,6.47058824 11.6179412,8.62529412 C10.5147059,10.8511765 11.8282353,12.8926471 13.8373529,13.8017647 C13.5461765,14.3970588 13.2582353,14.9891176 12.9702941,15.5844118 C11.5992562,14.9057399 9.99233718,14.8950032 8.61235294,15.5552941 L7.70647059,13.6885294 C9.68647059,12.7697059 10.9676471,10.7411765 9.87088235,8.53470588 C8.81617647,6.41235294 6.39617647,6.05647059 4.48735294,7.06588235 L4.18647059,6.44794118 C8.36323529,5.03088235 13.2452941,4.90147059 17.4285294,6.41558824 L17.0532353,7.18882353 Z M14.6817647,12.0611765 C13.6141176,11.6244118 12.7405882,10.6926471 13.3617647,9.47294118 C13.9829412,8.25323529 15.2091176,8.37294118 16.2023529,8.92941176 C15.6976471,9.97764706 15.1907843,11.0215686 14.6817647,12.0611765 Z M10.7994118,20.0588235 L9.44382353,17.2732353 C10.2332353,16.8008824 11.2814706,16.9497059 12.1194118,17.3411765 L10.7994118,20.0588235 Z M5.33823529,8.81617647 C6.325,8.28558824 7.52205882,8.20470588 8.13029412,9.38558824 C8.73852941,10.5664706 7.90705882,11.5047059 6.86205882,11.9511765 L5.33823529,8.81617647 Z" id="Shape" fill="#42210B" fill-rule="nonzero"></path>
            </g>
        </g>
    </g>
</svg>