<?xml version="1.0" encoding="UTF-8"?>
<svg width="33px" height="20px" viewBox="0 0 33 20" version="1.1" xmlns="http://www.w3.org/2000/svg" xmlns:xlink="http://www.w3.org/1999/xlink">
    <!-- Generator: Sketch 57 (83077) - https://sketch.com -->
    <title>3</title>
    <desc>Created with Sketch.</desc>
    <g id="design" stroke="none" stroke-width="1" fill="none" fill-rule="evenodd">
        <g id="catalog-round-ingridients-copy" transform="translate(-929.000000, -238.000000)">
            <g id="3" transform="translate(947.380944, 254.261246) rotate(49.000000) translate(-947.380944, -254.261246) translate(935.880944, 239.261246)">
                <polygon id="Path" fill="#F5DD9A" points="3.11708372 4.27710843 3.48779734 6.56317578 0.923694779 14.3790547 0.769230769 22.1022552 1.75780043 27.5084955 8.21439605 18.858511 15.2579549 11.2588817 21.0349089 6.65585419 19.8609824 3.41210998 13.0954588 1.62032746 5.21779425 0.384615385 2.8081557 2.33086191"></polygon>
                <polygon id="Path" fill="#EAAD40" points="3.20976213 5.5699722 9.35742972 5.38461538 14.5783133 7.1763979 17.6675935 9.43157244 10.7476058 16.2588817 5.09422305 23.858511 2.43744208 27.8745752 0.769230769 21.9122644 0.831016373 14.5288848"></polygon>
                <path d="M3.41983318,5.12511585 L3.20358357,3.39511894 C3.20358357,3.39511894 5.79857893,1.2635156 14.5103491,4.26011739 C19.8548038,6.08279271 18.9589126,7.22582638 18.1248069,7.90546803 C17.2907013,8.58510967 19.6076614,8.95582329 19.6076614,8.95582329 L21.2449799,6.08279271 L16.240346,2.46833488 L7.83750386,0.769230769 L3.41983318,1.75780043 L2.30769231,3.79672536 L3.41983318,5.12511585 Z" id="Path" fill="#FBF5E2"></path>
                <polygon id="Path" fill="#F5DD9A" points="3.11708372 6.92307692 5.18690145 9.7343219 4.13654618 12.9162805 0.769230769 14.0593142"></polygon>
                <polygon id="Path" fill="#F5DD9A" points="15.7043559 10.8649985 11.626506 10 8.84615385 12.347853 9.40222428 16.5801668"></polygon>
                <polygon id="Path" fill="#F5DD9A" points="6.45350633 21.8844609 4.3527958 20.4016064 0.769230769 20 2.06672845 28.7117702"></polygon>
                <path d="M21.0611677,4.43311708 C19.145814,2.64133457 16.2727834,1.71455051 13.8013593,1.03490887 C12.1949336,0.602409639 10.5576151,0.324374421 8.92029657,0.139017609 C7.46833488,0.015446401 5.80012357,-0.169910411 4.37905468,0.324374421 C2.06209453,1.09669447 0.857275255,3.84615385 2.77262898,5.42168675 C2.55637936,6.00864998 2.34012975,6.59561322 2.12388014,7.18257646 C2.12388014,7.18257646 2.12388014,7.18257646 2.12388014,7.21346926 C1.38245289,9.4068582 0.826382453,11.6311399 0.486561631,13.9172073 C0.455668829,14.0098857 0.424776027,14.1025641 0.424776027,14.2261353 C0.177633611,15.8943466 0.0540624035,17.5625579 0.0231696015,19.2307692 C0.0231696015,19.6323757 0.0231696015,20.0339821 0.0231696015,20.4355885 C-0.00772320049,20.5591597 -0.00772320049,20.6518381 0.0231696015,20.7754093 C0.0540624035,21.763979 0.115848007,22.7525487 0.239419215,23.7720111 C0.424776027,25.656472 0.733704047,27.540933 1.38245289,29.3018227 C1.5987025,29.8887859 2.55637936,30.1668211 2.86530738,29.4871795 C6.78869323,21.2696942 13.3997529,13.7936361 20.8140253,8.60364535 C22.4513438,7.46061168 22.4513438,5.76150757 21.0611677,4.43311708 Z M2.00030893,24.884152 C1.87673772,23.9264751 1.78405931,22.9996911 1.72227371,22.072907 C1.72227371,21.8566574 1.69138091,21.6713006 1.69138091,21.455051 C1.69138091,21.146123 1.87673772,20.8680877 2.18566574,20.8063021 C3.0506642,20.6209453 4.07012666,20.9607661 4.81155391,21.5168366 C5.08958913,21.7330862 5.15137473,22.1037998 4.96601792,22.381835 C4.6261971,22.9379055 4.25548347,23.4939759 3.91566265,24.0500463 C3.63762743,24.5134384 3.1742354,25.7800432 2.49459376,25.5637936 C2.21655854,25.4711152 2.06209453,25.19308 2.00030893,24.884152 Z M3.54494903,9.09793018 C3.63762743,8.85078777 3.94655545,8.75810936 4.13191226,8.94346617 C4.6570899,9.3759654 4.90423231,10.0247142 4.6570899,10.8897127 C4.40994748,11.7547112 3.82298424,12.3725672 3.081557,12.7741736 C2.80352178,12.9286376 2.46370096,12.6814952 2.52548656,12.3416744 C2.80352178,11.2604263 3.1433426,10.1791783 3.54494903,9.09793018 Z M10.4340439,12.0018536 C11.3299351,10.9823911 12.5347544,10.7043559 13.7395737,10.9514983 C14.0793945,11.0132839 14.1720729,11.4457831 13.9249305,11.6620327 C12.7201112,12.7432808 11.5461847,13.9172073 10.4340439,15.1220266 C10.2177943,15.369169 9.81618783,15.2764906 9.72350942,14.9984554 C9.4145814,14.0098857 9.63083102,12.8977448 10.4340439,12.0018536 Z M8.88940377,10.6734631 C7.15940686,12.5888168 7.28297807,15.1838122 8.73493976,17.0991659 C8.08619092,17.8714859 7.49922768,18.6746988 6.88137164,19.4779116 C6.63422922,19.8177325 6.20173,19.9104109 5.86190918,19.7250541 C4.87333951,19.1689836 3.66852023,18.9218412 2.55637936,19.0454124 C2.06209453,19.107198 1.66048811,18.7055916 1.66048811,18.2113068 C1.69138091,17.5316651 1.75316651,16.8520235 1.81495212,16.1723818 C1.87673772,15.7707754 1.93852332,15.369169 2.00030893,14.9366698 C4.22459067,14.4732777 6.2944084,13.0522088 6.63422922,10.6425703 C6.85047884,9.06703738 6.10905159,7.8313253 4.93512512,7.18257646 C4.6570899,7.02811245 4.53351869,6.65739883 4.6570899,6.34847081 L4.6570899,6.34847081 C4.7497683,6.10132839 4.99691072,5.97775718 5.24405314,5.97775718 C8.95118937,6.07043559 12.751004,7.15168366 16.1183194,8.75810936 C16.4890331,8.94346617 16.5508187,9.46864381 16.2109978,9.71578622 L16.2109978,9.71578622 C16.025641,9.83935743 15.8093914,9.87025023 15.5931418,9.77757183 C13.3997529,8.63453815 10.7120791,8.69632376 8.88940377,10.6734631 Z M4.28637627,2.17794254 C5.18226753,1.5909793 6.35619401,1.68365771 7.37565647,1.71455051 C9.63083102,1.77633611 11.8860056,2.17794254 14.0485017,2.82669138 C14.9135002,3.0738338 22.3277726,5.63793636 19.9490269,7.15168366 C19.7636701,7.27525487 19.5783133,7.39882607 19.3620636,7.52239728 C18.7751004,7.89311091 18.0336732,7.95489651 17.4158171,7.64596849 C13.4615385,5.69972196 8.92029657,4.34043868 4.50262589,4.40222428 C4.10101946,4.40222428 3.73030584,4.24776027 3.54494903,3.90793945 C3.20512821,3.29008341 3.57584183,2.64133457 4.28637627,2.17794254 Z" id="Shape" fill="#42210B" fill-rule="nonzero"></path>
            </g>
        </g>
    </g>
</svg>