<?xml version="1.0" encoding="UTF-8"?>
<svg width="27px" height="31px" viewBox="0 0 27 31" version="1.1" xmlns="http://www.w3.org/2000/svg" xmlns:xlink="http://www.w3.org/1999/xlink">
    <!-- Generator: Sketch 53.1 (72631) - https://sketchapp.com -->
    <title>Group</title>
    <desc>Created with Sketch.</desc>
    <g id="mobile" stroke="none" stroke-width="1" fill="none" fill-rule="evenodd">
        <g id="2-slide" transform="translate(-1322.000000, -2181.000000)">
            <g id="Group-15" transform="translate(277.000000, 1774.000000)">
                <g id="Group" transform="translate(1045.000000, 407.000000)">
                    <ellipse id="Oval" fill="#FBF5E2" cx="11.9454545" cy="19.3342105" rx="9.57272727" ry="9.54473684"></ellipse>
                    <ellipse id="Oval" fill="#D3501C" transform="translate(12.729436, 18.287373) rotate(-45.000000) translate(-12.729436, -18.287373) " cx="12.7294364" cy="18.2873732" rx="4.49338343" ry="4.73847597"></ellipse>
                    <path d="M18.3272727,1.22368421 C13.1727273,-0.652631579 7.28181818,1.14210526 4.25454545,5.71052632 C2.61818182,8.23947368 1.96363636,11.5842105 1.30909091,14.6026316 C1.14545455,15.0105263 1.06363636,15.5 0.981818182,15.9078947 C0.981818182,15.9894737 0.9,16.1526316 0.9,16.2342105 C0.818181818,16.4789474 0.818181818,16.8052632 0.818181818,17.05 C0.572727273,20.5578947 1.8,24.1473684 4.33636364,26.6763158 C8.91818182,31.2447368 16.6909091,31.5710526 21.3545455,26.9210526 C22.5818182,25.6973684 23.4,24.3105263 23.9727273,22.9236842 C24.0545455,22.7605263 24.1363636,22.5973684 24.1363636,22.4342105 C24.1363636,22.3526316 24.2181818,22.2710526 24.2181818,22.1894737 C24.3,21.8631579 24.3818182,21.5368421 24.4636364,21.2105263 C25.1181818,18.6815789 25.9363636,16.1526316 26.2636364,13.5421053 C26.2636364,13.5421053 26.2636364,13.5421053 26.2636364,13.5421053 C26.2636364,13.5421053 26.2636364,13.4605263 26.2636364,13.4605263 C26.3454545,13.2157895 26.3454545,12.9710526 26.3454545,12.7263158 C26.6727273,7.75 22.9090909,2.93684211 18.3272727,1.22368421 Z M7.44545455,23.7394737 C5.64545455,21.9447368 4.82727273,19.4157895 5.15454545,16.9684211 C5.31818182,16.3973684 5.4,15.9078947 5.56363636,15.3368421 C5.89090909,14.3578947 6.46363636,13.4605263 7.2,12.7263158 C10.3090909,9.62631579 15.1363636,10.1157895 18.2454545,12.9710526 C19.9636364,14.8473684 20.8636364,17.3763158 20.5363636,19.7421053 C20.3727273,20.2315789 20.2909091,20.8026316 20.1272727,21.2921053 C19.8,22.2710526 19.2272727,23.1684211 18.4090909,23.9026316 C15.3818182,26.9210526 10.3909091,26.6763158 7.44545455,23.7394737 Z" id="Shape" fill="#42210B" fill-rule="nonzero"></path>
                </g>
            </g>
        </g>
    </g>
</svg>