<?xml version="1.0" encoding="UTF-8"?>
<svg width="18px" height="19px" viewBox="0 0 18 19" version="1.1" xmlns="http://www.w3.org/2000/svg" xmlns:xlink="http://www.w3.org/1999/xlink">
    <!-- Generator: sketchtool 53 (72520) - https://sketchapp.com -->
    <title>9D9503E5-A77A-4B03-BC9B-055AC44FF166</title>
    <desc>Created with sketchtool.</desc>
    <g id="design" stroke="none" stroke-width="1" fill="none" fill-rule="evenodd">
        <g id="search" transform="translate(-1226.000000, -135.000000)" fill="#42210B">
            <g id="samuray_bg" transform="translate(1235.250000, 145.000000) rotate(11.000000) translate(-1235.250000, -145.000000) translate(1226.000000, 135.000000)">
                <path d="M16.5869318,6.9375 C16.5869318,6.9375 16.5869318,6.9375 16.5869318,6.9375 C16.5869318,6.9375 16.5869318,6.9375 16.5869318,6.9375 C15.2414773,6.1875 13.7909091,5.60416667 12.3193182,5.14583333 C11.8778409,5 11.5204545,4.6875 11.33125,4.27083333 L9.69147727,0.479166667 C9.39715909,-0.208333333 8.30397727,0.270833333 8.61931818,0.958333333 C9.06079545,1.97916667 9.50227273,3.02083333 9.94375,4.04166667 C10.0278409,4.25 9.83863636,4.47916667 9.60738636,4.4375 C9.12386364,4.33333333 8.61931818,4.22916667 8.13579545,4.125 C8.00965909,4.0625 7.8625,4.04166667 7.71534091,4.10416667 C7.61022727,4.125 7.50511364,4.20833333 7.44204545,4.29166667 C7.25284091,4.4375 7.08465909,4.58333333 6.89545455,4.72916667 C6.70625,4.89583333 6.41193182,4.72916667 6.43295455,4.47916667 C6.51704545,3.52083333 6.58011364,2.58333333 6.66420455,1.625 C6.72727273,0.875 5.55,0.75 5.48693182,1.5 C5.40284091,2.60416667 5.25568182,4.47916667 5.17159091,5.47916667 C5.12954545,5.91666667 4.91931818,6.3125 4.58295455,6.58333333 C3.15340909,7.70833333 1.74488636,8.85416667 0.315340909,9.97916667 C0.315340909,9.97916667 0.294318182,9.97916667 0.294318182,10 C0.294318182,10 0.273295455,10.0208333 0.273295455,10.0208333 C0.0420454545,10.1875 -3.29389294e-14,10.4166667 0.0840909091,10.6041667 C0.105113636,10.7708333 0.23125,10.9375 0.441477273,11.0208333 C0.483522727,11.0416667 0.546590909,11.0625 0.588636364,11.0625 C1.34545455,11.375 2.14431818,11.625 2.94318182,11.8125 C2.62784091,13.3958333 2.3125,14.9791667 2.01818182,16.5625 C1.95511364,16.8958333 2.24943182,17.1458333 2.54375,17.2083333 C3.09034091,17.3125 3.65795455,17.3541667 4.22556818,17.3541667 C4.625,17.3333333 4.94034091,17.6666667 4.89829545,18.0416667 C4.87727273,18.4166667 4.83522727,18.7916667 4.81420455,19.1875 C4.75113636,19.9375 5.92840909,20.0625 5.99147727,19.3125 C5.99147727,19.3125 6.09659091,18.125 6.15965909,17.3125 C6.18068182,17.125 6.28579545,16.9791667 6.45397727,16.8958333 C6.60113636,16.8333333 6.74829545,16.7708333 6.89545455,16.7083333 C7.90454545,17.5 9.22897727,17.8333333 10.5113636,17.6458333 C11.9198864,17.4375 13.1602273,16.6041667 13.8329545,15.3541667 C13.8539773,15.3333333 13.8539773,15.3125 13.8539773,15.2916667 C14.0852273,15.3125 14.3164773,15.3125 14.5477273,15.3125 C14.8,15.3125 15.0522727,15.4583333 15.1363636,15.6875 L15.8931818,17.3958333 C16.2085227,18.0833333 17.2806818,17.6041667 16.9653409,16.9166667 C16.7761364,16.5 16.6079545,16.0833333 16.41875,15.6666667 C16.2715909,15.3541667 16.41875,14.9583333 16.7551136,14.8333333 C17.3017045,14.625 17.8272727,14.3333333 18.2897727,14.0208333 C18.5630682,13.8333333 18.5420455,13.4375 18.3738636,13.1875 C17.4909091,11.9166667 16.6079545,10.625 15.7460227,9.35416667 C16.2295455,8.85416667 16.5869318,8.29166667 16.7971591,7.64583333 C16.88125,7.39583333 16.8392045,7.0625 16.5869318,6.9375 Z M9.94375,10.3958333 C7.84147727,10.8541667 5.65511364,10.9583333 3.53181818,10.6041667 C2.92215909,10.5 2.73295455,9.72916667 3.2375,9.35416667 C4.81420455,8.1875 6.32784091,6.95833333 7.75738636,5.625 C7.94659091,5.45833333 8.21988636,5.39583333 8.45113636,5.47916667 C10.3642045,6.10416667 12.25625,6.72916667 14.1693182,7.375 C14.6948864,7.54166667 14.8210227,8.25 14.3795455,8.58333333 C13.1181818,9.52083333 11.4153409,10.0625 9.94375,10.3958333 Z M4.83522727,12.4583333 C4.91931818,13.4791667 5.17159091,14.5 5.69715909,15.375 C5.84431818,15.6041667 5.69715909,15.8958333 5.44488636,15.9791667 C4.89829545,16.125 4.33068182,16.1875 3.76306818,16.1666667 C3.51079545,16.1666667 3.32159091,15.9375 3.38465909,15.6875 C3.59488636,14.6041667 3.80511364,13.5208333 4.01534091,12.4375 C4.05738636,12.2291667 4.26761364,12.0833333 4.47784091,12.125 C4.47784091,12.125 4.47784091,12.125 4.47784091,12.125 C4.68806818,12.125 4.83522727,12.2708333 4.83522727,12.4583333 Z M10.3011364,16.4791667 C7.8625,16.8333333 6.41193182,14.9166667 6.07556818,12.8125 C6.03352273,12.5416667 6.24375,12.2708333 6.53806818,12.2916667 C8.07272727,12.3333333 9.62840909,12.1666667 11.1210227,11.75 C11.5414773,11.6458333 11.9619318,11.5 12.4034091,11.3541667 C12.6556818,11.25 12.95,11.4166667 13.0130682,11.6875 C13.4125,13.7708333 12.8448864,16.1041667 10.3011364,16.4791667 Z M16.4397727,13.7083333 C15.9982955,13.8958333 15.5147727,14.0208333 15.03125,14.0833333 C14.6528409,14.1458333 14.3164773,13.8333333 14.3375,13.4375 C14.4005682,12.6458333 14.2954545,11.8541667 14.0852273,11.0833333 C14.0221591,10.8333333 14.1272727,10.5625 14.3585227,10.4166667 C14.3585227,10.4166667 14.3585227,10.4166667 14.3585227,10.4166667 C14.6318182,10.25 14.9892045,10.3333333 15.1573864,10.6041667 C15.6619318,11.3541667 16.1664773,12.0833333 16.6920455,12.8333333 C16.9232955,13.125 16.7971591,13.5625 16.4397727,13.7083333 Z" id="Shape" fill-rule="nonzero"></path>
                <path d="M8.51420455,13.1458333 C8.15681818,13.125 7.79943182,13.1041667 7.44204545,13.0833333 C6.87443182,13.0416667 6.76931818,13.9166667 7.33693182,13.9583333 C7.69431818,13.9791667 8.05170455,14 8.40909091,14.0208333 C8.99772727,14.0416667 9.08181818,13.1666667 8.51420455,13.1458333 Z" id="Path"></path>
                <path d="M9.7125,14.4791667 C9.50227273,14.3958333 9.20795455,14.5 9.14488636,14.7291667 C9.06079545,14.9583333 9.16590909,15.2083333 9.39715909,15.2916667 C9.58636364,15.3541667 9.77556818,15.4166667 9.94375,15.4791667 C10.1539773,15.5625 10.4482955,15.4583333 10.5113636,15.2291667 C10.5954545,15 10.4903409,14.75 10.2590909,14.6666667 C10.0698864,14.6041667 9.88068182,14.5416667 9.7125,14.4791667 Z" id="Path"></path>
                <path d="M11.5625,12.4791667 C11.2261364,12.6041667 10.8897727,12.7291667 10.5534091,12.875 C10.0278409,13.0833333 10.3852273,13.875 10.9107955,13.6875 C11.2471591,13.5625 11.5835227,13.4375 11.9198864,13.2916667 C12.4664773,13.0625 12.1090909,12.2708333 11.5625,12.4791667 Z" id="Path"></path>
            </g>
        </g>
    </g>
</svg>