<?xml version="1.0" encoding="UTF-8"?>
<svg width="12px" height="25px" viewBox="0 0 12 25" version="1.1" xmlns="http://www.w3.org/2000/svg" xmlns:xlink="http://www.w3.org/1999/xlink">
    <!-- Generator: sketchtool 53.1 (72631) - https://sketchapp.com -->
    <title>3927DA5B-37BA-4161-8ED0-EA3CAC4080E5</title>
    <desc>Created with sketchtool.</desc>
    <g id="design" stroke="none" stroke-width="1" fill="none" fill-rule="evenodd">
        <g id="2-slide" transform="translate(-58.000000, -543.000000)">
            <g id="souse" transform="translate(58.000000, 543.000000)">
                <polygon id="Path" fill="#F15A24" points="3.82468085 5.81443299 0.495319149 12.3015464 0.765957447 24.0412371 11.7217021 23.7010309 11.1625532 10.9845361 8.00170213 5.81443299"></polygon>
                <path d="M7.7387234,3.05154639 C7.7387234,4.8556701 7.46553191,6.93556701 8.26723404,8.60824742 C8.99744681,10.1262887 10.3097872,10.9278351 10.3965957,12.7680412 C10.4170213,13.2010309 10.3965957,13.6365979 10.3965957,14.0695876 L10.3965957,24.0438144 L11.1625532,23.2706186 L0.765957447,23.2706186 C-0.219574468,23.2706186 -0.22212766,24.8170103 0.765957447,24.8170103 L11.1625532,24.8170103 C11.5855798,24.8170103 11.9285106,24.4708387 11.9285106,24.0438144 L11.9285106,14.0695876 C11.9285106,12.1237113 11.706383,10.5309278 10.3761702,8.97680412 C8.93361702,7.28865979 9.2706383,5.12886598 9.2706383,3.04896907 C9.2706383,2.05412371 7.7387234,2.05154639 7.7387234,3.04896907 L7.7387234,3.05154639 Z" id="Path" fill="#42210B"></path>
                <path d="M11.1625532,23.2706186 L1.53191489,23.2706186 L1.53191489,14.0695876 C1.53191489,13.6365979 1.51148936,13.2010309 1.53191489,12.7680412 C1.6187234,10.8891753 2.92340426,10.1469072 3.6612766,8.60824742 C4.35829787,7.15463918 4.24340426,5.3943299 4.2,3.77319588 L8.66553191,3.77319588 C8.85627753,3.77653251 9.04032366,3.70221835 9.17617021,3.56701031 L9.20170213,3.54123711 L9.21702128,3.5257732 C9.35264647,3.38956861 9.42734036,3.20339637 9.42382979,3.01030928 L9.42382979,0.773195876 C9.42382979,0.346171585 9.08089896,2.61476966e-17 8.65787234,0 L3.13276596,0 C2.70973934,-2.61476966e-17 2.36680851,0.346171585 2.36680851,0.773195876 L2.36680851,3 C2.36816587,3.23839488 2.47838985,3.46282808 2.66553191,3.60824742 C2.70382979,5.51030928 2.86978723,7.44329897 1.55234043,8.98195876 C0.234893617,10.5206186 0,12.1134021 0,14.0695876 L0,24.0438144 C1.55469827e-15,24.4708387 0.34293083,24.8170103 0.765957447,24.8170103 L11.1625532,24.8170103 C12.1480851,24.8170103 12.1506383,23.2706186 11.1625532,23.2706186 Z" id="Path" fill="#42210B"></path>
            </g>
        </g>
    </g>
</svg>