<?xml version="1.0" encoding="UTF-8"?>
<svg width="39px" height="39px" viewBox="0 0 39 39" version="1.1" xmlns="http://www.w3.org/2000/svg" xmlns:xlink="http://www.w3.org/1999/xlink">
    <!-- Generator: Sketch 57 (83077) - https://sketch.com -->
    <title>Star</title>
    <desc>Created with Sketch.</desc>
    <g id="mobile" stroke="none" stroke-width="1" fill="none" fill-rule="evenodd" stroke-opacity="0.1">
        <g id="menu" transform="translate(-141.000000, -18.000000)" fill="#FEF5E3" stroke="#472821">
            <path d="M158.895203,55.6401114 C157.997834,56.251816 156.777887,56.0482428 156.12776,55.178307 C155.42639,54.2398011 154.221993,53.8263311 153.092071,54.1361533 C152.044704,54.423339 150.956957,53.8346797 150.624523,52.8007837 C150.265887,51.6853939 149.261001,50.9032598 148.091702,50.8294099 C147.007836,50.7609557 146.170163,49.8510005 146.191448,48.765183 C146.21441,47.5937792 145.51793,46.5277374 144.435966,46.0782181 C143.433053,45.661542 142.93623,44.5288988 143.308926,43.508825 C143.710998,42.4083469 143.398398,41.1739195 142.521017,40.3974432 C141.707739,39.6776986 141.605604,38.4451069 142.289323,37.6013175 C143.026935,36.691019 143.132091,35.4219755 142.554369,34.4026854 C142.018858,33.4578677 142.322479,32.2588979 143.24313,31.6828308 C144.236349,31.0613568 144.747865,29.8952176 144.53241,28.7435697 C144.332696,27.6760646 145.00917,26.6406437 146.066987,26.3947245 C147.208183,26.1294215 148.070628,25.1925559 148.240786,24.0333491 C148.398511,22.9588374 149.374533,22.1991693 150.454884,22.3100472 C151.620391,22.4296648 152.740306,21.8235968 153.277638,20.7824491 C153.775711,19.8173707 154.945513,19.4157772 155.931326,19.871437 C156.994842,20.3630127 158.250868,20.1534192 159.097146,19.3431551 C159.881592,18.5920913 161.118408,18.5920913 161.902854,19.3431551 C162.749132,20.1534192 164.005158,20.3630127 165.068674,19.871437 C166.054487,19.4157772 167.224289,19.8173707 167.722362,20.7824491 C168.259694,21.8235968 169.379609,22.4296648 170.545116,22.3100472 C171.625467,22.1991693 172.601489,22.9588374 172.759214,24.0333491 C172.929372,25.1925559 173.791817,26.1294215 174.933013,26.3947245 C175.99083,26.6406437 176.667304,27.6760646 176.46759,28.7435697 C176.252135,29.8952176 176.763651,31.0613568 177.75687,31.6828308 C178.677521,32.2588979 178.981142,33.4578677 178.445631,34.4026854 C177.867909,35.4219755 177.973065,36.691019 178.710677,37.6013175 C179.394396,38.4451069 179.292261,39.6776986 178.478983,40.3974432 C177.601602,41.1739195 177.289002,42.4083469 177.691074,43.508825 C178.06377,44.5288988 177.566947,45.661542 176.564034,46.0782181 C175.48207,46.5277374 174.78559,47.5937792 174.808552,48.765183 C174.829837,49.8510005 173.992164,50.7609557 172.908298,50.8294099 C171.738999,50.9032598 170.734113,51.6853939 170.375477,52.8007837 C170.043043,53.8346797 168.955296,54.423339 167.907929,54.1361533 C166.778007,53.8263311 165.57361,54.2398011 164.87224,55.178307 C164.222113,56.0482428 163.002166,56.251816 162.104797,55.6401114 C161.136696,54.9801911 159.863304,54.9801911 158.895203,55.6401114 Z" id="Star"></path>
        </g>
    </g>
</svg>