<?xml version="1.0" encoding="UTF-8"?>
<svg width="24px" height="17px" viewBox="0 0 24 17" version="1.1" xmlns="http://www.w3.org/2000/svg" xmlns:xlink="http://www.w3.org/1999/xlink">
    <!-- Generator: sketchtool 53.1 (72631) - https://sketchapp.com -->
    <title>758AC832-D2E1-4CB6-81F3-405AE028BCCD</title>
    <desc>Created with sketchtool.</desc>
    <g id="design" stroke="none" stroke-width="1" fill="none" fill-rule="evenodd">
        <g id="2-slide" transform="translate(-51.000000, -264.000000)">
            <g id="sushi-set" transform="translate(51.000000, 264.000000)">
                <rect id="Rectangle" fill="#F15A24" x="1.13581395" y="1.14540984" width="21.6586047" height="5.45393443" rx="2.72696721"></rect>
                <path d="M22.8837209,6.6495082 C23.8297674,5.62672131 23.8465116,3.82639344 23.5953488,2.34655738 C23.2772093,0.487704918 21.6334884,0.309344262 20.1069767,0.309344262 L6.82046512,0.309344262 C5.47534884,0.309344262 4.10790698,0.239672131 2.7655814,0.309344262 C0.212093023,0.445901639 0.226046512,2.85655738 0.298604651,4.81016393 C0.337674419,5.82737705 0.731162791,6.50737705 1.35348837,6.92262295 C1.00128484,7.38722471 0.828857744,7.96317573 0.867906977,8.54459016 C0.901826043,8.99952134 1.06656353,9.43499544 1.34232558,9.79868852 C0.997537795,10.2612077 0.829313206,10.8314017 0.867906977,11.4067213 C0.899233706,11.8352275 1.04790526,12.24689 1.29767442,12.5967213 C0.181395349,14.1490164 1.29767442,16.392459 3.31255814,16.4509836 C3.56356761,16.4736046 3.80845044,16.3650336 3.96,16.1639344 C4.43883083,16.5616057 5.05198181,16.7610563 5.67348837,16.7213115 C6.12904189,16.6874387 6.56511171,16.5229263 6.92930233,16.247541 C7.39245423,16.5918577 7.96342827,16.7598525 8.53953488,16.7213115 C9.03286704,16.6811116 9.50079734,16.4860005 9.87627907,16.1639344 C10.3534079,16.5507902 10.9599485,16.7420677 11.5730233,16.6990164 C12.0285768,16.6651437 12.4646466,16.5006312 12.8288372,16.2252459 C13.2919891,16.5695627 13.8629632,16.7375574 14.4390698,16.6990164 C14.9119531,16.6659845 15.3635803,16.4900516 15.7339535,16.1945902 C16.426565,16.7294588 17.3748753,16.7911967 18.1311628,16.3506557 C18.5052753,16.5643653 18.9348545,16.6614224 19.3646512,16.6293443 C19.6566824,16.6065643 19.9412664,16.5260423 20.2018605,16.392459 C20.3078323,16.4323589 20.4208089,16.4503725 20.5339535,16.4454098 C22.504186,16.3868852 23.6037209,14.232623 22.6130233,12.6859016 C23.0521153,12.2782215 23.3203317,11.7196198 23.3637209,11.122459 C23.4003582,10.5482165 23.2301028,9.97982634 22.8837209,9.52 C23.1603414,9.15654625 23.3260419,8.72108813 23.3609302,8.26590164 C23.3997602,7.68753683 23.230532,7.11433072 22.8837209,6.6495082 Z M1.97302326,2.85377049 C2.25209302,1.61918033 3.70325581,1.98147541 4.62418605,1.98147541 L20.6093023,1.98147541 C21.2093023,1.98147541 21.7032558,1.85885246 21.9572093,2.74508197 C22.1413953,3.38606557 22.1972093,5.65459016 21.2344186,5.76327869 L13.3506977,5.76327869 C10.0018605,5.76327869 6.54976744,6.02803279 3.21767442,5.76327869 C1.81116279,5.65459016 1.69116279,4.06327869 1.97302326,2.85377049 Z M19.1972093,14.9544262 C19.3646512,14.2521311 18.5665116,13.8647541 18.0027907,14.1183607 C17.8359262,14.1068879 17.6692839,14.1436539 17.5227907,14.2242623 C17.2588987,14.3746667 17.1048098,14.6629178 17.1265116,14.9655738 C16.9478873,14.9591006 16.7791904,14.8818868 16.6576744,14.7509836 C16.7553488,13.8842623 15.332093,13.5693443 14.9972093,14.5057377 C14.7767442,15.13 14.1795349,15.1355738 13.7832558,14.8095082 C13.9339535,13.9957377 12.7786047,13.6334426 12.2818605,14.2521311 C12.1252136,14.3860378 12.0180996,14.5685698 11.9776744,14.7704918 C11.6511628,15.1634426 11.0790698,15.0491803 10.7609302,14.6395082 C10.744186,13.8480328 9.42139535,13.5916393 9.08651163,14.4918033 C8.86604651,15.1160656 8.26883721,15.1216393 7.86976744,14.7955738 C8.02046512,13.9818033 6.86790698,13.6195082 6.37116279,14.2381967 C6.21593865,14.3773659 6.11262623,14.5650393 6.07813953,14.7704918 C5.69860465,15.2247541 4.98418605,14.9822951 4.72744186,14.424918 C4.36465116,13.625082 3.33209302,14.0459016 3.21209302,14.7593443 C2.94596357,14.7320355 2.71408423,14.5663481 2.60230056,14.3236223 C2.49051689,14.0808965 2.51546435,13.7972544 2.66790698,13.5777049 C3.64744186,13.8563934 4.06325581,12.3068852 3.06139535,11.9529508 C2.43906977,11.7439344 2.43348837,11.147541 2.76,10.7518033 C3.57488372,10.8995082 3.93767442,9.74852459 3.31813953,9.25245902 C3.18189877,9.09441202 2.99591469,8.98729789 2.79069767,8.94868852 C2.33302326,8.56967213 2.57860465,7.85622951 3.13674419,7.59983607 C3.22597297,7.56131919 3.30661505,7.50542057 3.37395349,7.43540984 L21.0306977,7.43540984 C21.0983515,7.44369133 21.1667648,7.44369133 21.2344186,7.43540984 L21.2762791,7.43540984 C21.6976744,7.7447541 21.8344186,8.33836066 21.4381395,8.67278689 C21.2284263,8.70766037 21.037725,8.81521504 20.8995349,8.97655738 C20.2883721,9.47262295 20.6511628,10.6263934 21.4576744,10.4759016 C21.784186,10.8716393 21.7786047,11.4680328 21.1562791,11.6881967 C20.8880695,11.7884933 20.6840493,12.0108109 20.6073399,12.2863668 C20.5306306,12.5619228 20.5904802,12.857496 20.7683721,13.0816393 C20.8185864,13.1884399 20.890868,13.2834174 20.9804651,13.3603279 C21.2689022,13.6004887 21.3692438,13.9990551 21.2288372,14.3468852 C21.0231793,14.1095866 20.7080436,13.9972606 20.3984049,14.0508884 C20.0887661,14.1045162 19.8299104,14.3162546 19.7162791,14.6088525 C19.6645813,14.844775 19.4351656,14.9975098 19.1972093,14.9544262 L19.1972093,14.9544262 Z" id="Shape" fill="#42210B" fill-rule="nonzero"></path>
            </g>
        </g>
    </g>
</svg>