<svg opacity="0.1" width="9px" height="120px" viewBox="0 0 9 120" version="1.1" xmlns="http://www.w3.org/2000/svg" xmlns:xlink="http://www.w3.org/1999/xlink">
    <g stroke="none" stroke-width="1" fill="none" fill-rule="evenodd">
        <g transform="translate(0.462211, -0.125000)" stroke="#F14F10">
            <path d="M-26,32.7927813 C-20.6886814,31.8954999 -18.6943026,27.1297977 -13.1903414,27.0827406 C-7.68638017,27.0356835 -3.53502507,33.2295192 4.02576605,33.0068875 C11.5865572,32.7842559 14.5421699,26.9374528 20.6022979,27.0005063 C26.662426,27.0635598 28.3078398,32.4575828 34,33.25" id="Path-9-Copy-40" transform="translate(4.000000, 30.125000) rotate(-810.000000) translate(-4.000000, -30.125000) "></path>
            <path d="M-26,92.7927813 C-20.6886814,91.8954999 -18.6943026,87.1297977 -13.1903414,87.0827406 C-7.68638017,87.0356835 -3.53502507,93.2295192 4.02576605,93.0068875 C11.5865572,92.7842559 14.5421699,86.9374528 20.6022979,87.0005063 C26.662426,87.0635598 28.3078398,92.4575828 34,93.25" id="Path-9-Copy-40" transform="translate(4.000000, 90.125000) scale(1, -1) rotate(-810.000000) translate(-4.000000, -90.125000) "></path>
        </g>
    </g>
</svg>