<svg viewBox="0 0 881 623" xmlns="http://www.w3.org/2000/svg" xmlns:xlink="http://www.w3.org/1999/xlink">
    <defs>
        <path d="M863.283 315.477C805.745 132.617 634.86 0 433 0 228.736 0 56.19 135.794.709 322.032c-12.173 40.861 876.034 36.221 862.574-6.555z" id="a"/>
        <path d="M863.283 315.477C805.745 132.617 634.86 0 433 0 228.736 0 56.19 135.794.709 322.032c-12.173 40.861 876.034 36.221 862.574-6.555z" id="c"/>
    </defs>
    <g class="cat__all" fill="none" fill-rule="evenodd">
        <path d="M214.75 24.25h74.75C289.75 19 290 14 290 9h26.25c0 5.25-.25 10.25-.25 15.25h90.25v24H314c-.5 4.5-1.25 8.75-2 13h84.75v23H307.5c-1 4.25-2.25 8.25-3.5 12.25h115.25v24.25h-43.5V140H415v24.25h-39.25V212c0 17.25-8.75 26-26 26h-27.5l-5.75-24c8.5 1 16.75 1.5 24.75 1.5 6 0 9-3.25 9-9.75v-41.5H269c-15.75 19.75-35.25 36.5-58.25 50L196.5 191.5c31.25-17 54.5-40.75 70-70.75H203V96.5h73.75c1.25-4.25 2.5-8.25 3.75-12.25h-57v-23h62c.75-4.5 1.5-8.75 2-13h-72.75v-24zM350.25 140v-19.25H295c-3 6.75-6.25 13.25-9.75 19.25h65zm-73.75 31c16 6.5 31 14.25 44.5 23.5L307.5 215c-14-10.5-28.5-19-43.5-25l12.5-19zm193.75-58.5h116v83h-116v-83zm91 60v-37H495v37h66.25zm66 64.75h-34.5l-6.75-25 35.5.75c5.5 0 8.25-4.5 8.25-13V40.5h-166.5v-25h192.5v191.75c0 20-9.5 30-28.5 30zm-178-172.5H609V88.5H449.25V64.75z" stroke="#472821" stroke-width="2" fill="#FEF5E3" fill-rule="nonzero" opacity=".1"/>
        <g transform="translate(-8 204)">
            <mask id="b" fill="#fff">
                <use xlink:href="#a"/>
            </mask>
            <path d="M-101.722 82.256C-3.439 71.966 33.467 17.31 135.315 16.771c101.848-.54 178.667 70.494 318.576 67.94C593.8 82.16 648.492 15.105 760.63 15.828c112.14.724 142.588 62.585 247.92 71.673" stroke="#FAC3A3" stroke-width="20" mask="url(#b)"/>
            <path d="M-101.722 39.256C-3.439 28.966 33.467-25.69 135.315-26.229c101.848-.54 178.667 70.494 318.576 67.94C593.8 39.16 648.492-27.895 760.63-27.172c112.14.724 142.588 62.585 247.92 71.673" stroke="#FCDFC7" stroke-width="20" mask="url(#b)"/>
            <path d="M-101.722 129.006c98.283-10.29 135.189-64.946 237.037-65.485 101.848-.54 178.667 70.494 318.576 67.94C593.8 128.91 648.492 61.855 760.63 62.578c112.14.724 142.588 62.585 247.92 71.673" stroke="#F14F10" stroke-width="20" opacity=".435" mask="url(#b)"/>
            <path d="M-101.722 176.756c98.283-10.29 135.189-64.946 237.037-65.485 101.848-.54 178.667 70.494 318.576 67.94 139.909-2.552 194.601-69.607 306.74-68.884 112.14.724 142.588 62.585 247.92 71.673" stroke="#F14F10" stroke-width="20" opacity=".64" mask="url(#b)"/>
            <path d="M-101.722 221.506c98.283-10.29 135.189-64.946 237.037-65.485 101.848-.54 178.667 70.494 318.576 67.94 139.909-2.552 194.601-69.607 306.74-68.884 112.14.724 142.588 62.585 247.92 71.673" stroke="#F14F10" stroke-width="20" opacity=".781" mask="url(#b)"/>
            <path d="M-101.722 268.256c98.283-10.29 135.189-64.946 237.037-65.485 101.848-.54 178.667 70.494 318.576 67.94 139.909-2.552 194.601-69.607 306.74-68.884 112.14.724 142.588 62.585 247.92 71.673" stroke="#F14F10" stroke-width="20" mask="url(#b)"/>
            <path class="cat__jap-2" d="M158.95 234.637h15.9c-6-6.4-11.4-13.9-15.9-22v22zm-28.2 0h15.7v-21.8c-4.5 8-9.8 15.4-15.7 21.8zm66.1-33h-30.7c7.8 15 20.6 28.8 34.9 36.3-3 2.4-7.1 7.4-9.2 10.8-5.8-3.6-11.3-8.1-16.3-13.4v11.4h-16.6v16.9h-12.5v-16.9h-17.2v-10.5c-4.8 4.9-10.1 9.3-15.6 12.8-2.1-3-5.9-7.6-8.7-9.9 14.1-7.7 26.7-22.1 34.4-37.5h-30.5v-12h37.6v-19.3h12.5v19.3h37.9v12z" fill="#2EBD9D" fill-rule="nonzero" mask="url(#b)" transform="rotate(-27 153 216.987)"/>
            <path d="M-101.722 320.006c98.283-10.29 135.189-64.946 237.037-65.485 101.848-.54 178.667 70.494 318.576 67.94 139.909-2.552 194.601-69.607 306.74-68.884 112.14.724 142.588 62.585 247.92 71.673" stroke="#F14F10" stroke-width="20" mask="url(#b)"/>
        </g>
        <path class="cat__jap-1" d="M558.904 244.881l-12.049-3.684-1.959 6.408 12.05 3.683 1.958-6.407zm2.145 12.995l-17.644-5.394-1.053 3.442-5.546-1.695 5.993-19.605 23.19 7.09-4.94 16.162zm10.03-23.913l-1.521 4.973-28.115-8.595 1.52-4.973 28.115 8.595zm13.304-5.552l-10.57 34.57c-.993 3.252-2.093 4.798-4.456 5.173-2.268.405-5.372-.387-9.613-1.736.32-1.732.323-4.816.021-6.738 2.62 1.01 5.79 1.926 6.713 2.156.86.264 1.269.127 1.517-.686l8.903-29.12-33.375-10.203 1.652-5.403 39.208 11.987z" fill="#2EBD9D" fill-rule="nonzero"/>
        <g transform="translate(-8 204)">
            <mask id="d" fill="#fff">
                <use xlink:href="#c"/>
            </mask>
            <path d="M-101.722 82.256C-3.439 71.966 33.467 17.31 135.315 16.771c101.848-.54 178.667 70.494 318.576 67.94C593.8 82.16 648.492 15.105 760.63 15.828c112.14.724 142.588 62.585 247.92 71.673" stroke="#FAC3A3" stroke-width="20" mask="url(#d)"/>
        </g>
        <path class="cat__jap-3" d="M839.155 481.617l2.615-7.593-21.634-7.449a102.466 102.466 0 0 1-5.734 6.518l24.753 8.524zm32.673 2.757l-17.473-6.016-2.615 7.592 15.81 5.444-3.725 10.816-15.81-5.443-5.228 15.185c-2.077 6.032-4.263 9.002-9.032 9.338-4.84.544-10.529-1.182-18.19-3.936.698-3.716.58-9.457.063-13.358 4.816 1.891 10.433 3.825 12.133 4.294 1.456.502 2.083.369 2.584-1.088l5.086-14.769-30.37-10.457c-3.087 2.544-6.241 4.948-9.636 7.036l11.89-2.77c3.004 5.805 6.3 13.803 7.503 18.755l-13.009 3.316c-.891-4.845-3.907-12.98-6.56-19.128-7.209 4.381-14.86 7.68-23.368 9.753-1.257-3.108-5.466-10.142-7.866-13.644 9.025-1.546 17.056-4.598 24.3-9.084l-14.768-5.085 3.724-10.817 22.154 7.628a136.063 136.063 0 0 0 6.254-6.339l-27.562-9.49 3.653-10.609 31.514 10.851c1.305-1.76 2.61-3.522 3.846-5.423l-23.298-8.022 3.438-9.985 25.586 8.81c.92-1.66 1.981-3.39 2.938-5.154L794.8 421.903l3.581-10.401 32.554 11.21c1.172-2.39 2.24-4.814 3.41-7.203l13.128 5.8c-.96 2.112-1.989 4.085-3.017 6.058l36.09 12.427-3.58 10.4-37.651-12.964a632.843 632.843 0 0 1-2.834 5.19l34.842 11.998-3.438 9.984-37.026-12.749c-1.237 1.901-2.437 3.698-3.638 5.495l48.26 16.617-3.653 10.609z" fill="#2EBD9D" fill-rule="nonzero"/>
        <g fill="#472821">
            <path class="cat__left-stick" d="M650.211 217.067l-129.28 311.27c-2.206 5.308.31 11.4 5.62 13.604 1.108.46 2.288.726 3.487.784a19.913 19.913 0 0 0 19.734-13.232l110.015-310.12a4.306 4.306 0 0 0-3.065-5.63 5.641 5.641 0 0 0-6.51 3.324"/>
            <path class="cat__right-stick" d="M202.102 219.664l123.489 318.023c2.583 6.652 10.069 9.95 16.72 7.368a12.92 12.92 0 0 0 3.339-1.91 22.35 22.35 0 0 0 6.48-26.784L214.753 214.363a6.874 6.874 0 0 0-8.914-3.494 6.848 6.848 0 0 0-3.738 8.795z"/>
        </g>
        <g class="cat__kitty">
            <path fill="#FEF5E3" d="M46.326 159.877V71.123H30.58L58.541 10l70.976 24.191-2.351 13.68 21.792 9.283 20.396-22.963 11.941 48.875-8.76 80.069L191 186.094l-19.006 29.458L129.517 235l-56.177-3.705-38.803-32.431L21 206.321v-48.492l16.02 18.657z"/>
            <path d="M76.899 110.071a11.16 11.16 0 0 1 3.184 11.072l-.208.714a11.16 11.16 0 0 1-9.91 8.244l-5.12.417a11.19 11.19 0 0 1-11.399-7.232 11.19 11.19 0 0 1 7.917-14.881l5.179-1.25a11.22 11.22 0 0 1 10.357 2.916zM145.024 109.298a11.458 11.458 0 0 0-3.66 11.16l.178.744a11.399 11.399 0 0 0 9.791 8.78l5.209.625a11.458 11.458 0 0 0 11.904-6.964 11.458 11.458 0 0 0-7.53-15.417l-5.237-1.428a11.399 11.399 0 0 0-10.655 2.5z" fill="#F14F10" fill-rule="nonzero"/>
            <path d="M107.524 219.208a2.47 2.47 0 0 0 0-3.273 1.905 1.905 0 0 0-1.488-.715h-.238c-5.387-1.399-7.44-7.649-2.62-11.101h.268a2.292 2.292 0 0 0 1.399-2.292 1.964 1.964 0 0 0-1.399-2.321 1.815 1.815 0 0 0-.892-.238h-.298c-5.149-1.816-4.524-8.84-.09-11.37h.269c.248-.059.481-.17.684-.327a2.53 2.53 0 0 0-.952-4.285c-5.953-.923-4.524-9.851.982-10.357a2.351 2.351 0 0 0 2.38-2.977 1.994 1.994 0 0 0-2.29-2.023 10.298 10.298 0 0 0-10.477 7.619 1.131 1.131 0 0 1-.893.803 10.774 10.774 0 0 0-7.679 5.953 2.262 2.262 0 0 1-3.869.416 6.667 6.667 0 0 1 2.768-9.285h.209a2.5 2.5 0 0 0 .744-.387 1.994 1.994 0 0 0 .535-2.977 2.351 2.351 0 0 0-2.767-1.488 10.655 10.655 0 0 0-8.661 11.102 10.208 10.208 0 0 0 2.768 6.577c.794.805.882 2.068.208 2.976a10.655 10.655 0 0 0-2.381 7.322 10.506 10.506 0 0 0 10.12 9.94 2.143 2.143 0 0 0 2.41-2.202c.268-1.131-.268-2.024-1.667-2.62-5.952-2.559-4.91-6.28-3.184-8.928a2.321 2.321 0 0 1 3.81 0 10.833 10.833 0 0 0 6.696 4.077 2.173 2.173 0 0 1 1.607 1.22l.268.447a10.625 10.625 0 0 1 .922 7.024c-1.845 6.488 2.649 15.149 11.042 14.315a2.53 2.53 0 0 0 1.577-.744l.179.12zM94.22 183.821l.298.387c.696.87.696 2.107 0 2.977-.238.357-.476.684-.685 1.071a2.351 2.351 0 0 1-4.404-1.16c.039-1.04.313-2.059.803-2.977a2.321 2.321 0 0 1 3.988-.298zM151.006 84.357a4.91 4.91 0 0 0-2.798-2.976c-11.601-5.467-25.45-.855-31.458 10.476a4.732 4.732 0 0 0 .298 4.822 5.238 5.238 0 0 0 4.256 2.47h.238a4.137 4.137 0 0 0 3.6-2.381c3.81-7.53 11.578-9.94 20.15-6.28a4.018 4.018 0 0 0 5.535-2.262 5.417 5.417 0 0 0 .179-3.869zM68.565 80.518a5.03 5.03 0 0 0-3.184 3.928 5.179 5.179 0 0 0 1.667 4.792 3.958 3.958 0 0 0 4.077.536c8.72-3.334 16.399-.655 20.06 7.024a4.256 4.256 0 0 0 3.482 2.53h.268a5.357 5.357 0 0 0 4.255-2.322c1.001-1.402 1.16-3.238.417-4.792-5.572-11.553-19.23-16.7-31.042-11.696zM135.321 115.28a9.673 9.673 0 0 0-10.06-5.566 10.09 10.09 0 0 0-8.065 6.816c-.267.595-.535 1.28-.833 2.024a18.542 18.542 0 0 1-1.994 4.166 2.53 2.53 0 0 1-2.351 1.072 2.679 2.679 0 0 1-2.143-1.578 17.083 17.083 0 0 1-.685-7.35v-.507a4.256 4.256 0 0 0 2.977-3.69c0-2.5-2.977-4.613-6.518-4.673-3.542-.06-6.667 1.935-6.697 4.435a4.256 4.256 0 0 0 2.5 3.66v5.774a5.208 5.208 0 0 1-2.738 4.494c-2.678 1.31-5.476-.565-7.53-1.934a3.333 3.333 0 0 0-3.63-.447 4.286 4.286 0 0 0-2.233 3.423 3.66 3.66 0 0 0 1.697 3.363c5.506 3.69 13.184 5.03 18.184 0a13.333 13.333 0 0 0 3.631 2.976 21.518 21.518 0 0 0 10.15 2.798 15.685 15.685 0 0 0 12.29-5.06c2.054-2.262 6.608-8.244 4.048-14.196zm-8.66 8.928a9.554 9.554 0 0 1-6.28 2.798 18.363 18.363 0 0 0 1.548-3.363c.208-.566.446-1.131.684-1.697.238-.565.238-.654.417-1.071.565-1.548 1.428-3.899 2.649-4.226a5.179 5.179 0 0 1 1.16 0c.564.016 1.116.17 1.607.446.474.309.79.809.864 1.37a10.298 10.298 0 0 1-2.65 5.654v.09z" fill="#472821" fill-rule="nonzero"/>
            <path d="M198 187.452a87.143 87.143 0 0 0-13.69-18.125 6.25 6.25 0 0 1-1.786-4.791c1.428-24.107 2.976-53.572 2.976-76.965a287.976 287.976 0 0 0-2.173-35.714 76.637 76.637 0 0 0-7.113-25.744 4.226 4.226 0 0 0-4.643-1.994c-10.684 3.542-18.154 13.095-22.113 23.482a4.583 4.583 0 0 1-5.148 2.798 91.296 91.296 0 0 0-4.703-.774 2.351 2.351 0 0 1-1.13-4.226c1.636-1.25 3.273-2.56 4.196-3.423a4.167 4.167 0 0 0-.715-6.488A307.262 307.262 0 0 0 59.786.25a4.226 4.226 0 0 0-4.673 1.786 395.833 395.833 0 0 0-36.28 70.863c-1.1 2.708 0 6.458 3.512 6.28h2.59c2.44 0 4.85.208 7.291.238a4.97 4.97 0 0 1 4.881 4.85c.357 24.287 2.054 57.025 2.322 81.548a4.107 4.107 0 0 1-1.25 2.977 2.143 2.143 0 0 1-3.483-.834 33.601 33.601 0 0 0-2.261-5.06 32.738 32.738 0 0 0-24.316-16.011h-.684a3.482 3.482 0 0 0-3.572 2.292 4.137 4.137 0 0 0-.476 1.666c-2.41 8.84-2.41 20.923 3.006 30.06a5.595 5.595 0 0 1 0 5.952c-6.28 9.524-6.28 22.292-4.107 31.131.12.516.342 1.001.654 1.429a4.048 4.048 0 0 0 4.405 2.976A33.571 33.571 0 0 0 30.44 207.57a4.048 4.048 0 0 1 6.548-.267 95.238 95.238 0 0 0 27.173 24.494 81.637 81.637 0 0 0 39.315 10.863h.566c24.107.268 49.404-8.929 71.22-26.042a82.262 82.262 0 0 0 22.708-25.327v-.328a3.482 3.482 0 0 0 .03-3.512zM36.958 66.976a2.173 2.173 0 0 1-1.875-3.155c7.828-16.904 14.227-34.166 24.852-50.595a2.619 2.619 0 0 1 2.976-1.071A276.131 276.131 0 0 1 123 37.363a1.935 1.935 0 0 1 0 3.274 126.935 126.935 0 0 1-20.357 11.518 141.488 141.488 0 0 1-65.685 14.821zm12.232 82.976c0-21.22-.386-46.31-1.309-66.1a5.655 5.655 0 0 1 5.06-5.953 179.107 179.107 0 0 0 66.28-20.12 6.577 6.577 0 0 1 2.589-.803 84.375 84.375 0 0 1 28.095 2.976 4.196 4.196 0 0 0 5.149-2.797 37.173 37.173 0 0 1 9.821-15.298 3.155 3.155 0 0 1 5.179 1.726c3.63 18.036 3.303 37.173 2.976 55.328-.149 13.958-1.607 41.041-2.262 52.916a3.452 3.452 0 0 1-5.208 2.768 98.869 98.869 0 0 0-28.75-11.458 113.81 113.81 0 0 0-74.405 8.274c-1.935.922-3.84 1.904-5.655 2.976a5.238 5.238 0 0 1-7.56-4.435zm23.215 72.44a104.167 104.167 0 0 1-37.262-31.04 3.185 3.185 0 0 0-3.572-1.221 3.244 3.244 0 0 0-2.767 2.321 2.976 2.976 0 0 0-.298 1.072 27.113 27.113 0 0 1-16.696 17.5 31.994 31.994 0 0 1-1.518-7.173 18.185 18.185 0 0 1 6.339-16.399 3.304 3.304 0 0 0 1.31-2.738 1.667 1.667 0 0 0 0-.387 3.274 3.274 0 0 0-1.22-2.827l-.864-.923a19.315 19.315 0 0 1-4.732-16.517c.216-2.16.644-4.294 1.28-6.37a23.393 23.393 0 0 1 13.601 10.506 29.554 29.554 0 0 1 2.738 8.929c0 .625.238 1.25.387 1.875a.893.893 0 0 0 0 .298 3.363 3.363 0 0 0 1.607 3.154 3.571 3.571 0 0 0 2.62 1.102 3.304 3.304 0 0 0 2.47-1.25c13.482-15.447 34.345-25.715 58.809-28.9a113.601 113.601 0 0 1 16.815-.981 4.226 4.226 0 0 1 4.048 5.267 86.607 86.607 0 0 0-2.41 31.578 85.298 85.298 0 0 0 11.041 32.202 5.03 5.03 0 0 1-3.571 7.649 83.333 83.333 0 0 1-48.155-6.726zm68.452 1.25a5.119 5.119 0 0 1-5.952-2.053 74.405 74.405 0 0 1-12.262-33.72c-.6-9.519.529-19.068 3.333-28.184a6.815 6.815 0 0 1 7.976-4.733 97.262 97.262 0 0 1 27.381 10.328 78.899 78.899 0 0 1 22.411 18.839 7.232 7.232 0 0 1 0 8.929 99.821 99.821 0 0 1-42.708 30.595h-.179z" fill="#472821" fill-rule="nonzero"/>
            <path d="M146.393 169.119c-7.41-.298-11.905 6.429-13.363 13.185-.227.9-.054 1.855.476 2.619a3.482 3.482 0 0 0 2.47 1.458 2.798 2.798 0 0 0 3.334-2.292c.357-1.488 1.875-6.28 6.666-5.952a8.006 8.006 0 0 1 6.786 6.607 2.976 2.976 0 0 0 1.16 1.994 2.976 2.976 0 0 0 1.638.506c.217.028.437.028.654 0a3.393 3.393 0 0 0 2.44-1.399 2.976 2.976 0 0 0 .447-2.5c-.982-6.875-5.327-13.75-12.708-14.226z" fill="#472821" fill-rule="nonzero"/>
            <ellipse fill="#F14F10" fill-rule="nonzero" transform="rotate(-13 147.02 202.63)" cx="147.021" cy="202.631" rx="11.726" ry="9.315"/>
        </g>
        <g>
            <g transform="translate(413.776 540.602)">
                <path d="M31.391 5.551a5.825 5.825 0 0 1 7.204 4.494c1.718 8.922 3.238 24.783-7.071 27.889l8.327-1.718 5.75-12.953L39.717 0l-8.327 5.551" fill="#FBF5E2"/>
                <path d="M43.684 30.995c1.321-2.115 1.387-4.692 1.387-7.071 0-.86.33-1.52.793-1.983-.859-.397-1.85-.595-2.907-.595-3.966 0-7.204 3.238-7.204 7.204 0 2.841 1.652 5.287 4.031 6.476 1.19-1.454 2.908-2.445 3.9-4.031z" fill="#D3501C"/>
                <ellipse fill="#D3501C" cx="24.056" cy="25.84" rx="8.327" ry="6.146"/>
                <path d="M2.18 20.355C.86 22.47.794 25.047.794 27.426c0 .86-.33 1.52-.793 1.983.86.396 1.85.595 2.908.595 3.965 0 7.203-3.239 7.203-7.204 0-2.842-1.652-5.287-4.031-6.476-1.19 1.387-2.908 2.379-3.9 4.03z" fill="#D3501C"/>
                <path fill="#FBF5E2" d="M17.447 21.875l3.106 2.379 4.957-4.89 2.247 6.08 4.361-3.239-14.076-2.181z"/>
            </g>
            <g fill="#42210B">
                <path d="M461.16 541.197c0-2.247-.595-4.23-1.652-5.618-.463-.727-.991-1.388-1.322-2.18-1.454-3.04-4.824-4.957-8.26-6.08-.53-.199-.86-.662-.86-1.256 0-4.098-3.7-7.468-8.26-7.468-4.098 0-7.535 2.71-8.13 6.278a1.262 1.262 0 0 1-1.057 1.057c-3.436.595-6.807 1.719-9.582 3.57-1.653 1.123-2.908 2.51-3.57 3.964a12.985 12.985 0 0 1-.858 1.653c-.86 1.387-1.388 3.238-1.388 5.287 0 1.652.33 3.238.925 4.493.595 1.256.793 2.644.463 3.966-.529 2.18-.86 4.361-1.124 6.476-2.115 1.058-3.7 3.04-4.428 5.353-1.652 5.155.133 11.037 3.833 14.87 6.279 6.609 17.05 7.666 25.642 6.74 7.865-.792 15.399-4.295 18.174-12.16 2.181-6.145 1.388-12.952-.462-19.429-.397-1.454-.265-3.106.528-4.428.86-1.19 1.388-3.04 1.388-5.088zm-38.86 4.427a2.163 2.163 0 0 1 2.843-1.19c5.419 2.38 12.16 2.644 17.579 2.05 2.313-.265 5.353-.793 8.195-1.85 1.123-.397 2.313.197 2.71 1.32 3.171 10.178 6.674 25.114-4.495 30.335-6.807 3.172-16.455 2.71-23.46.33-4.627-1.586-8.989-4.89-9.715-9.979-.265-1.652-.067-3.436.594-4.956.992-2.247 4.89-4.494 7.072-2.776.33.264.594.529.793.925.594.991 1.586.991 2.379.595.793-.463 1.255-1.388.66-2.38-.396-.726-.99-1.32-1.651-1.784h-.067c-.066-.066-.132-.066-.132-.132a8.487 8.487 0 0 0-3.502-1.388 2.036 2.036 0 0 1-1.653-2.379c.463-2.313 1.058-4.626 1.85-6.74z" fill-rule="nonzero"/>
                <path d="M427.191 553.423c.33-.86 1.19-2.776 2.446-2.247 1.321.595 1.718 2.71 1.916 3.965.33 2.247 3.701 1.256 3.37-.925-.396-2.644-1.85-5.816-4.692-6.543-3.304-.859-5.353 2.181-6.476 4.824-.793 2.05 2.577 2.974 3.436.926zM444.506 555.141c.198-1.256.595-3.304 1.917-3.965 1.255-.595 2.114 1.388 2.445 2.247.86 2.048 4.23 1.123 3.37-.926-1.057-2.643-3.172-5.617-6.476-4.824-2.842.727-4.296 3.9-4.692 6.543-.265 2.18 3.106 3.172 3.436.925z"/>
                <path d="M427.588 567.235c1.388 5.551 7.203 7.864 12.556 7.203 4.759-.594 7.93-3.965 8.526-8.59.066-.133.066-.331.066-.53v-.528c-.595-5.75-8.658-6.014-13.085-5.882-5.221.198-9.517 2.643-8.063 8.327zm3.767.132c-.397-.793-.793-2.247-.529-3.106 0-.066.066-.132.132-.264.132.33.265.66.463.925.66.925 1.718 1.586 2.908 1.52 1.19 0 2.247-.727 2.842-1.718.396-.727.594-1.52.594-2.313h1.124c-.198.859-.265 1.784.066 2.643.396 1.124 1.256 1.983 2.379 2.247 1.123.264 2.313-.132 3.172-.925a3.85 3.85 0 0 0 .727-.992c-.727 6.741-11.235 7.799-13.878 1.983zm3.7-4.824c0 .132 0 .264-.065.462-.066.199-.133.33-.133.33 0 .067-.066.133-.132.199v.066c-.066.066-.198.132-.198.198-.066 0-.132.066-.132.066h-.331-.066-.066-.066c-.066 0-.066-.066-.066-.066.066 0 .066.066 0 0s-.066-.066 0 0l-.198-.198c-.198-.33-.198-.33-.265-.793v-.066a8.073 8.073 0 0 1 1.719-.198zm8.13.727c0 .132-.067.33-.133.462-.066.265-.33.661-.396.793l-.199.199c-.066.066-.132.066-.198.132-.066 0-.132.066-.198.066h-.132c-.132 0-.397-.066-.132 0 0 0-.066 0-.066-.066h-.067c-.066 0-.066-.066-.132-.132s-.198-.397-.132-.199c-.132-.33-.132-.462-.066-.925 0-.132.066-.396.198-.66.595-.067 1.124.131 1.652.33zm-1.653 1.321c.066.067.066.133 0 0z" fill-rule="nonzero"/>
                <path d="M434.263 563.864c.132 0-.199 0 0 0zM433.998 563.864h0zM433.866 563.798c.066.066.066.066.132.066l-.132-.066z"/>
            </g>
        </g>
        <g id="design" stroke="none" stroke-width="1" fill="none" fill-rule="evenodd" transform="translate(399, 330)">
            <g fill="#472821" fill-rule="nonzero">
                <g>
                    <path d="M40.768,-3.97903932e-13 L41.92,-3.97903932e-13 C43.872,1.808 46.144,3.232 48.704,4.288 L47.872,5.744 C47.168,5.44 46.496,5.12 45.856,4.784 L45.856,10.4 C46.016,10.224 46.16,10.064 46.288,9.904 L47.696,10.624 C47.12,11.264 46.512,11.856 45.872,12.384 C46.704,12.784 47.456,13.2 48.16,13.616 L47.104,14.88 C45.472,13.776 43.392,12.752 40.832,11.808 L41.776,10.688 C42.736,11.024 43.632,11.376 44.48,11.744 C44.928,11.36 45.344,10.96 45.728,10.544 L38.624,10.544 L38.624,13.056 C39.76,12.848 40.848,12.592 41.888,12.304 L42.208,13.696 C40.736,14.144 38.912,14.528 36.72,14.848 L36.288,13.52 C36.736,13.376 36.976,12.976 36.976,12.304 L36.976,4.8 C36.272,5.184 35.536,5.552 34.768,5.904 L33.952,4.432 C36.672,3.248 38.944,1.776 40.768,-3.97903932e-13 Z M37.6,4.432 L40.736,4.432 C40.608,3.952 40.448,3.488 40.288,3.056 L41.808,2.816 C41.968,3.296 42.128,3.824 42.272,4.432 L45.232,4.432 C43.76,3.568 42.464,2.592 41.344,1.504 C40.304,2.576 39.056,3.552 37.6,4.432 Z M38.624,8.192 L38.624,9.072 L44.208,9.072 L44.208,8.192 L38.624,8.192 Z M44.208,6.784 L44.208,5.904 L38.624,5.904 L38.624,6.784 L44.208,6.784 Z M37.648,31.216 L37.648,36.832 L36.128,36.832 L36.128,31.472 C35.68,32.624 35.12,33.696 34.464,34.672 L33.792,32.96 C34.816,31.808 35.552,30.48 36.032,29.008 L34.336,29.008 L34.336,27.504 L36.128,27.504 L36.128,22.176 L37.648,22.176 L37.648,27.504 L39.248,27.504 L39.248,29.008 L37.648,29.008 L37.648,29.68 C38.352,30.4 39.04,31.2 39.728,32.064 L38.816,33.472 C38.368,32.576 37.968,31.824 37.648,31.216 Z M40.288,22.464 L47.68,22.464 L47.68,26.736 L40.288,26.736 L40.288,22.464 Z M46.128,25.648 L46.128,25.12 L41.84,25.12 L41.84,25.648 L46.128,25.648 Z M41.84,24.096 L46.128,24.096 L46.128,23.568 L41.84,23.568 L41.84,24.096 Z M39.648,27.216 L48.336,27.216 L48.336,28.496 L39.648,28.496 L39.648,27.216 Z M35.264,23.248 C35.472,24.24 35.664,25.376 35.824,26.656 L34.736,26.944 C34.544,25.792 34.32,24.704 34.048,23.648 L35.264,23.248 Z M38.336,23.104 L39.52,23.264 C39.456,24.592 39.28,25.776 39.024,26.816 L37.936,26.464 C38.16,25.504 38.288,24.384 38.336,23.104 Z M40.08,28.992 L47.888,28.992 L47.888,33.024 L44.768,33.024 L44.768,33.568 L47.936,33.568 L47.936,34.672 L44.768,34.672 L44.768,35.216 L48.528,35.216 L48.528,36.496 L39.36,36.496 L39.36,35.216 L43.168,35.216 L43.168,34.672 L40.016,34.672 L40.016,33.568 L43.168,33.568 L43.168,33.024 L40.08,33.024 L40.08,28.992 Z M46.384,32.016 L46.384,31.488 L44.768,31.488 L44.768,32.016 L46.384,32.016 Z M43.168,32.016 L43.168,31.488 L41.584,31.488 L41.584,32.016 L43.168,32.016 Z M41.584,30.528 L43.168,30.528 L43.168,29.968 L41.584,29.968 L41.584,30.528 Z M44.768,29.968 L44.768,30.528 L46.384,30.528 L46.384,29.968 L44.768,29.968 Z M48.704,54.48 C48.56,56.176 48.368,57.28 48.128,57.792 C47.888,58.288 47.36,58.544 46.544,58.544 L43.184,58.544 C42.384,58.544 41.984,57.984 41.984,56.896 L41.984,49.808 L46.224,49.808 L46.224,46.064 L41.872,46.064 L41.872,44.496 L47.824,44.496 L47.824,51.408 L43.616,51.408 L43.616,56.224 C43.616,56.704 43.712,56.96 43.92,56.992 L46.272,56.992 C46.592,56.992 46.784,56.768 46.864,56.352 C46.944,55.92 47.008,55.12 47.04,53.952 L48.704,54.48 Z M34.032,44.48 L41.472,44.48 L41.472,46.048 L39.6,46.048 L39.6,47.44 L41.28,47.44 L41.28,58.72 L39.808,58.72 L39.808,58 L35.824,58 L35.824,58.72 L34.352,58.72 L34.352,47.44 L36.016,47.44 L36.016,46.048 L34.032,46.048 L34.032,44.48 Z M35.824,56.432 L39.808,56.432 L39.808,55.28 L35.824,55.28 L35.824,56.432 Z M36.384,48.944 L35.824,48.944 L35.824,52.464 C36.176,51.824 36.368,50.912 36.384,49.76 L36.384,48.944 Z M35.824,52.928 L35.824,53.776 L39.808,53.776 L39.808,52.816 L39.296,52.816 C38.512,52.816 38.128,52.416 38.128,51.616 L38.128,48.944 L37.456,48.944 L37.456,49.76 C37.44,51.472 37.12,52.72 36.496,53.52 L35.824,52.928 Z M37.424,47.44 L38.192,47.44 L38.192,46.048 L37.424,46.048 L37.424,47.44 Z M39.808,51.552 L39.808,48.944 L39.216,48.944 L39.216,51.264 C39.216,51.456 39.344,51.552 39.632,51.552 L39.808,51.552 Z M35.456,66.112 C36.464,66.96 37.328,67.808 38.032,68.64 L36.88,69.792 C36.272,68.992 35.424,68.112 34.336,67.184 L35.456,66.112 Z M44.672,80.544 C43.808,80.544 42.864,80.528 41.84,80.512 C40.816,80.496 39.968,80.416 39.296,80.256 C38.656,80.064 38.096,79.696 37.648,79.184 C37.424,78.928 37.232,78.8 37.04,78.8 C36.72,78.8 36.144,79.488 35.312,80.88 L34.096,79.728 C34.896,78.48 35.632,77.696 36.288,77.36 L36.288,72.896 L34.112,72.896 L34.112,71.36 L37.872,71.36 L37.872,77.536 L38.016,77.68 C38.384,78.096 38.752,78.416 39.12,78.624 C39.584,78.848 40.288,78.976 41.216,79.008 C42.128,79.024 43.2,79.04 44.432,79.04 C45.232,79.04 46.032,79.024 46.864,79.024 C47.68,79.008 48.304,78.976 48.736,78.944 L48.352,80.544 L44.672,80.544 Z M42.688,66 L44.288,66 L44.288,66.848 L47.52,66.848 L47.52,68.288 L44.288,68.288 L44.288,69.056 L48.416,69.056 L48.416,70.496 L46.576,70.496 C46.448,70.864 46.288,71.216 46.128,71.568 L47.68,71.568 L47.68,72.976 L44.288,72.976 L44.288,73.712 L47.2,73.712 L47.2,75.04 L44.288,75.04 L44.288,75.808 L48.32,75.808 L48.32,77.312 L44.288,77.312 L44.288,78.464 L42.688,78.464 L42.688,77.312 L38.688,77.312 L38.688,75.808 L42.688,75.808 L42.688,75.04 L39.744,75.04 L39.744,73.712 L42.688,73.712 L42.688,72.976 L39.296,72.976 L39.296,71.568 L40.928,71.568 C40.768,71.184 40.592,70.816 40.416,70.496 L38.528,70.496 L38.528,69.056 L42.688,69.056 L42.688,68.288 L39.456,68.288 L39.456,66.848 L42.688,66.848 L42.688,66 Z M44.592,71.568 C44.768,71.216 44.912,70.848 45.024,70.496 L42,70.496 C42.144,70.832 42.288,71.184 42.448,71.568 L44.592,71.568 Z" id="食糧配達"></path>
                    <path d="M79.328,0.472 C79.808,0.472 80.208,0.632 80.56,0.968 C80.896,1.304 81.072,1.72 81.072,2.216 C81.072,2.696 80.896,3.096 80.56,3.432 C80.208,3.768 79.808,3.944 79.328,3.944 C78.848,3.944 78.432,3.768 78.096,3.432 C77.744,3.096 77.584,2.696 77.584,2.216 C77.584,1.72 77.744,1.304 78.096,0.968 C78.432,0.632 78.848,0.472 79.328,0.472 Z M79.328,1.432 C79.104,1.432 78.928,1.512 78.768,1.672 C78.608,1.816 78.544,1.992 78.544,2.216 C78.544,2.424 78.608,2.6 78.768,2.76 C78.928,2.904 79.104,2.984 79.328,2.984 C79.536,2.984 79.728,2.904 79.888,2.76 C80.032,2.6 80.112,2.424 80.112,2.216 C80.112,1.992 80.032,1.816 79.888,1.672 C79.728,1.512 79.536,1.432 79.328,1.432 Z M68.496,2.056 L70.256,2.056 L70.224,7.288 C73.072,6.552 75.664,5.544 78,4.296 L78.976,5.672 C76.608,6.936 73.696,8.056 70.208,9.016 L70.208,11.16 C70.208,11.8 70.4,12.248 70.8,12.472 C71.296,12.76 72.336,12.904 73.904,12.904 C75.68,12.904 77.456,12.792 79.232,12.568 L79.216,14.28 C76.272,14.44 74.544,14.536 74.064,14.536 C71.824,14.536 70.352,14.328 69.616,13.944 C68.816,13.512 68.432,12.632 68.432,11.304 C68.432,7.688 68.448,4.616 68.496,2.056 Z M79.488,22.472 C80.256,23.16 80.848,23.88 81.264,24.616 L80.32,25.304 C79.856,24.504 79.296,23.784 78.624,23.144 L79.488,22.472 Z M78.128,23.544 C78.848,24.184 79.44,24.92 79.888,25.72 L78.96,26.376 C78.512,25.592 77.936,24.872 77.248,24.216 L78.128,23.544 Z M66.096,26.568 L69.184,26.568 L69.184,23.576 L70.96,23.576 L70.96,26.568 L75.44,26.568 L75.44,23.384 L77.168,23.384 L77.168,26.568 L80.56,26.568 L80.56,28.216 L77.168,28.216 L77.168,29.992 C77.168,31.752 76.784,33.192 76.016,34.28 C75.184,35.464 73.824,36.392 71.92,37.096 L70.96,35.64 C72.608,35.032 73.776,34.312 74.448,33.464 C75.104,32.6 75.44,31.448 75.44,29.992 L75.44,28.216 L70.96,28.216 L70.96,31.928 L69.184,31.928 L69.184,28.216 L66.096,28.216 L66.096,26.568 Z" id="ピザ"></path>
                    <path d="M1.168,2.04 L5.952,2.04 C5.968,1.704 5.984,1.384 5.984,1.064 L7.664,1.064 C7.664,1.4 7.648,1.72 7.648,2.04 L13.424,2.04 L13.424,3.576 L7.52,3.576 C7.488,3.864 7.44,4.136 7.392,4.408 L12.816,4.408 L12.816,5.88 L7.104,5.88 C7.04,6.152 6.96,6.408 6.88,6.664 L14.256,6.664 L14.256,8.216 L11.472,8.216 L11.472,9.448 L13.984,9.448 L13.984,11 L11.472,11 L11.472,14.056 C11.472,15.16 10.912,15.72 9.808,15.72 L8.048,15.72 L7.68,14.184 C8.224,14.248 8.752,14.28 9.264,14.28 C9.648,14.28 9.84,14.072 9.84,13.656 L9.84,11 L4.64,11 C3.632,12.264 2.384,13.336 0.912,14.2 L0,12.744 C2,11.656 3.488,10.136 4.48,8.216 L0.416,8.216 L0.416,6.664 L5.136,6.664 C5.216,6.392 5.296,6.136 5.376,5.88 L1.728,5.88 L1.728,4.408 L5.696,4.408 C5.744,4.12 5.792,3.848 5.824,3.576 L1.168,3.576 L1.168,2.04 Z M9.84,9.448 L9.84,8.216 L6.304,8.216 C6.112,8.648 5.904,9.064 5.68,9.448 L9.84,9.448 Z M5.12,11.432 C6.144,11.848 7.104,12.344 7.968,12.936 L7.104,14.248 C6.208,13.576 5.28,13.032 4.32,12.648 L5.12,11.432 Z M1.52,29.688 L8.944,29.688 L8.944,35 L1.52,35 L1.52,29.688 Z M7.344,33.528 L7.344,31.16 L3.104,31.16 L3.104,33.528 L7.344,33.528 Z M11.568,37.672 L9.36,37.672 L8.928,36.072 L11.2,36.12 C11.552,36.12 11.728,35.832 11.728,35.288 L11.728,25.08 L1.072,25.08 L1.072,23.48 L13.392,23.48 L13.392,35.752 C13.392,37.032 12.784,37.672 11.568,37.672 Z M0.176,26.632 L10.4,26.632 L10.4,28.152 L0.176,28.152 L0.176,26.632 Z" id="寿司"></path>
                </g>
            </g>
        </g>
    </g>
</svg>